G04 #@! TF.GenerationSoftware,KiCad,Pcbnew,(6.0.2)*
G04 #@! TF.CreationDate,2022-03-11T17:30:27-05:00*
G04 #@! TF.ProjectId,RYCpad_pcb,52594370-6164-45f7-9063-622e6b696361,rev?*
G04 #@! TF.SameCoordinates,Original*
G04 #@! TF.FileFunction,Legend,Bot*
G04 #@! TF.FilePolarity,Positive*
%FSLAX46Y46*%
G04 Gerber Fmt 4.6, Leading zero omitted, Abs format (unit mm)*
G04 Created by KiCad (PCBNEW (6.0.2)) date 2022-03-11 17:30:27*
%MOMM*%
%LPD*%
G01*
G04 APERTURE LIST*
%ADD10C,0.300000*%
%ADD11C,0.200000*%
%ADD12C,3.048000*%
%ADD13C,3.987800*%
%ADD14R,1.600000X1.600000*%
%ADD15O,1.600000X1.600000*%
%ADD16C,1.600000*%
%ADD17C,1.701800*%
%ADD18C,2.286000*%
%ADD19C,1.400000*%
%ADD20O,1.400000X1.400000*%
%ADD21C,4.400000*%
%ADD22C,2.000000*%
%ADD23R,1.700000X1.700000*%
%ADD24O,1.700000X1.700000*%
%ADD25O,0.650000X1.000000*%
%ADD26O,0.900000X1.700000*%
%ADD27O,0.900000X2.400000*%
%ADD28C,1.500000*%
%ADD29R,1.200000X1.200000*%
%ADD30C,1.200000*%
%ADD31R,1.800000X1.800000*%
%ADD32C,1.800000*%
G04 APERTURE END LIST*
D10*
X-29003571Y-33698571D02*
X-28146428Y-33698571D01*
X-28575000Y-33698571D02*
X-28575000Y-32198571D01*
X-28432142Y-32412857D01*
X-28289285Y-32555714D01*
X-28146428Y-32627142D01*
X-18978571Y-51248571D02*
X-19121428Y-51248571D01*
X-19264285Y-51320000D01*
X-19335714Y-51391428D01*
X-19407142Y-51534285D01*
X-19478571Y-51820000D01*
X-19478571Y-52177142D01*
X-19407142Y-52462857D01*
X-19335714Y-52605714D01*
X-19264285Y-52677142D01*
X-19121428Y-52748571D01*
X-18978571Y-52748571D01*
X-18835714Y-52677142D01*
X-18764285Y-52605714D01*
X-18692857Y-52462857D01*
X-18621428Y-52177142D01*
X-18621428Y-51820000D01*
X-18692857Y-51534285D01*
X-18764285Y-51391428D01*
X-18835714Y-51320000D01*
X-18978571Y-51248571D01*
X-9096428Y-32341428D02*
X-9167857Y-32270000D01*
X-9310714Y-32198571D01*
X-9667857Y-32198571D01*
X-9810714Y-32270000D01*
X-9882142Y-32341428D01*
X-9953571Y-32484285D01*
X-9953571Y-32627142D01*
X-9882142Y-32841428D01*
X-9025000Y-33698571D01*
X-9953571Y-33698571D01*
X10025000Y-32198571D02*
X9096428Y-32198571D01*
X9596428Y-32770000D01*
X9382142Y-32770000D01*
X9239285Y-32841428D01*
X9167857Y-32912857D01*
X9096428Y-33055714D01*
X9096428Y-33412857D01*
X9167857Y-33555714D01*
X9239285Y-33627142D01*
X9382142Y-33698571D01*
X9810714Y-33698571D01*
X9953571Y-33627142D01*
X10025000Y-33555714D01*
X9239285Y-13148571D02*
X9525000Y-13148571D01*
X9667857Y-13220000D01*
X9739285Y-13291428D01*
X9882142Y-13505714D01*
X9953571Y-13791428D01*
X9953571Y-14362857D01*
X9882142Y-14505714D01*
X9810714Y-14577142D01*
X9667857Y-14648571D01*
X9382142Y-14648571D01*
X9239285Y-14577142D01*
X9167857Y-14505714D01*
X9096428Y-14362857D01*
X9096428Y-14005714D01*
X9167857Y-13862857D01*
X9239285Y-13791428D01*
X9382142Y-13720000D01*
X9667857Y-13720000D01*
X9810714Y-13791428D01*
X9882142Y-13862857D01*
X9953571Y-14005714D01*
X-9882142Y-13148571D02*
X-9167857Y-13148571D01*
X-9096428Y-13862857D01*
X-9167857Y-13791428D01*
X-9310714Y-13720000D01*
X-9667857Y-13720000D01*
X-9810714Y-13791428D01*
X-9882142Y-13862857D01*
X-9953571Y-14005714D01*
X-9953571Y-14362857D01*
X-9882142Y-14505714D01*
X-9810714Y-14577142D01*
X-9667857Y-14648571D01*
X-9310714Y-14648571D01*
X-9167857Y-14577142D01*
X-9096428Y-14505714D01*
X-28860714Y-13648571D02*
X-28860714Y-14648571D01*
X-28503571Y-13077142D02*
X-28146428Y-14148571D01*
X-29075000Y-14148571D01*
X-28075000Y5901428D02*
X-29075000Y5901428D01*
X-28432142Y4401428D01*
X-9382142Y5258571D02*
X-9239285Y5330000D01*
X-9167857Y5401428D01*
X-9096428Y5544285D01*
X-9096428Y5615714D01*
X-9167857Y5758571D01*
X-9239285Y5830000D01*
X-9382142Y5901428D01*
X-9667857Y5901428D01*
X-9810714Y5830000D01*
X-9882142Y5758571D01*
X-9953571Y5615714D01*
X-9953571Y5544285D01*
X-9882142Y5401428D01*
X-9810714Y5330000D01*
X-9667857Y5258571D01*
X-9382142Y5258571D01*
X-9239285Y5187142D01*
X-9167857Y5115714D01*
X-9096428Y4972857D01*
X-9096428Y4687142D01*
X-9167857Y4544285D01*
X-9239285Y4472857D01*
X-9382142Y4401428D01*
X-9667857Y4401428D01*
X-9810714Y4472857D01*
X-9882142Y4544285D01*
X-9953571Y4687142D01*
X-9953571Y4972857D01*
X-9882142Y5115714D01*
X-9810714Y5187142D01*
X-9667857Y5258571D01*
X9810714Y4401428D02*
X9525000Y4401428D01*
X9382142Y4472857D01*
X9310714Y4544285D01*
X9167857Y4758571D01*
X9096428Y5044285D01*
X9096428Y5615714D01*
X9167857Y5758571D01*
X9239285Y5830000D01*
X9382142Y5901428D01*
X9667857Y5901428D01*
X9810714Y5830000D01*
X9882142Y5758571D01*
X9953571Y5615714D01*
X9953571Y5258571D01*
X9882142Y5115714D01*
X9810714Y5044285D01*
X9667857Y4972857D01*
X9382142Y4972857D01*
X9239285Y5044285D01*
X9167857Y5115714D01*
X9096428Y5258571D01*
X10096428Y24558571D02*
X8953571Y23415714D01*
X8953571Y24558571D02*
X10096428Y23415714D01*
X-10286904Y23987142D02*
X-8763095Y23987142D01*
X-9525000Y23510952D02*
X-9620238Y23415714D01*
X-9525000Y23320476D01*
X-9429761Y23415714D01*
X-9525000Y23510952D01*
X-9525000Y23320476D01*
X-9525000Y24653809D02*
X-9620238Y24558571D01*
X-9525000Y24463333D01*
X-9429761Y24558571D01*
X-9525000Y24653809D01*
X-9525000Y24463333D01*
D11*
X-23961904Y23564523D02*
X-23961904Y24814523D01*
X-24676190Y23564523D01*
X-24676190Y24814523D01*
X-25271428Y24814523D02*
X-25271428Y23802619D01*
X-25330952Y23683571D01*
X-25390476Y23624047D01*
X-25509523Y23564523D01*
X-25747619Y23564523D01*
X-25866666Y23624047D01*
X-25926190Y23683571D01*
X-25985714Y23802619D01*
X-25985714Y24814523D01*
X-26580952Y23564523D02*
X-26580952Y24814523D01*
X-26997619Y23921666D01*
X-27414285Y24814523D01*
X-27414285Y23564523D01*
X-29557142Y23564523D02*
X-28961904Y23564523D01*
X-28961904Y24814523D01*
X-30211904Y24814523D02*
X-30450000Y24814523D01*
X-30569047Y24755000D01*
X-30688095Y24635952D01*
X-30747619Y24397857D01*
X-30747619Y23981190D01*
X-30688095Y23743095D01*
X-30569047Y23624047D01*
X-30450000Y23564523D01*
X-30211904Y23564523D01*
X-30092857Y23624047D01*
X-29973809Y23743095D01*
X-29914285Y23981190D01*
X-29914285Y24397857D01*
X-29973809Y24635952D01*
X-30092857Y24755000D01*
X-30211904Y24814523D01*
X-31997619Y23683571D02*
X-31938095Y23624047D01*
X-31759523Y23564523D01*
X-31640476Y23564523D01*
X-31461904Y23624047D01*
X-31342857Y23743095D01*
X-31283333Y23862142D01*
X-31223809Y24100238D01*
X-31223809Y24278809D01*
X-31283333Y24516904D01*
X-31342857Y24635952D01*
X-31461904Y24755000D01*
X-31640476Y24814523D01*
X-31759523Y24814523D01*
X-31938095Y24755000D01*
X-31997619Y24695476D01*
X-32533333Y23564523D02*
X-32533333Y24814523D01*
X-33247619Y23564523D02*
X-32711904Y24278809D01*
X-33247619Y24814523D02*
X-32533333Y24100238D01*
D10*
X29146428Y24022857D02*
X28003571Y24022857D01*
D11*
X33109285Y-40689285D02*
X33109285Y-40272619D01*
X32454523Y-40094047D02*
X32454523Y-40689285D01*
X33704523Y-40689285D01*
X33704523Y-40094047D01*
X32454523Y-39558333D02*
X33704523Y-39558333D01*
X32454523Y-38844047D01*
X33704523Y-38844047D01*
X33704523Y-38427380D02*
X33704523Y-37713095D01*
X32454523Y-38070238D02*
X33704523Y-38070238D01*
X33109285Y-37296428D02*
X33109285Y-36879761D01*
X32454523Y-36701190D02*
X32454523Y-37296428D01*
X33704523Y-37296428D01*
X33704523Y-36701190D01*
X32454523Y-35451190D02*
X33049761Y-35867857D01*
X32454523Y-36165476D02*
X33704523Y-36165476D01*
X33704523Y-35689285D01*
X33645000Y-35570238D01*
X33585476Y-35510714D01*
X33466428Y-35451190D01*
X33287857Y-35451190D01*
X33168809Y-35510714D01*
X33109285Y-35570238D01*
X33049761Y-35689285D01*
X33049761Y-36165476D01*
X12620238Y-52635476D02*
X12620238Y-51385476D01*
X12144047Y-51385476D01*
X12025000Y-51445000D01*
X11965476Y-51504523D01*
X11905952Y-51623571D01*
X11905952Y-51802142D01*
X11965476Y-51921190D01*
X12025000Y-51980714D01*
X12144047Y-52040238D01*
X12620238Y-52040238D01*
X11370238Y-51980714D02*
X10953571Y-51980714D01*
X10775000Y-52635476D02*
X11370238Y-52635476D01*
X11370238Y-51385476D01*
X10775000Y-51385476D01*
X9525000Y-52635476D02*
X9941666Y-52040238D01*
X10239285Y-52635476D02*
X10239285Y-51385476D01*
X9763095Y-51385476D01*
X9644047Y-51445000D01*
X9584523Y-51504523D01*
X9525000Y-51623571D01*
X9525000Y-51802142D01*
X9584523Y-51921190D01*
X9644047Y-51980714D01*
X9763095Y-52040238D01*
X10239285Y-52040238D01*
X8989285Y-52635476D02*
X8989285Y-51385476D01*
X8155952Y-51385476D02*
X7917857Y-51385476D01*
X7798809Y-51445000D01*
X7679761Y-51564047D01*
X7620238Y-51802142D01*
X7620238Y-52218809D01*
X7679761Y-52456904D01*
X7798809Y-52575952D01*
X7917857Y-52635476D01*
X8155952Y-52635476D01*
X8275000Y-52575952D01*
X8394047Y-52456904D01*
X8453571Y-52218809D01*
X8453571Y-51802142D01*
X8394047Y-51564047D01*
X8275000Y-51445000D01*
X8155952Y-51385476D01*
X7084523Y-52635476D02*
X7084523Y-51385476D01*
X6786904Y-51385476D01*
X6608333Y-51445000D01*
X6489285Y-51564047D01*
X6429761Y-51683095D01*
X6370238Y-51921190D01*
X6370238Y-52099761D01*
X6429761Y-52337857D01*
X6489285Y-52456904D01*
X6608333Y-52575952D01*
X6786904Y-52635476D01*
X7084523Y-52635476D01*
D10*
X32912857Y-571428D02*
X32912857Y571428D01*
X32341428Y0D02*
X33484285Y0D01*
%LPC*%
D12*
X35560000Y11900000D03*
D13*
X20320000Y11900000D03*
D12*
X35560000Y-11900000D03*
D13*
X20320000Y-11900000D03*
D12*
X35560000Y-50000000D03*
D13*
X20320000Y-50000000D03*
D12*
X35560000Y-26200000D03*
D13*
X20320000Y-26200000D03*
X-30950000Y-39370000D03*
D12*
X-7150000Y-54610000D03*
D13*
X-7150000Y-39370000D03*
D12*
X-30950000Y-54610000D03*
D14*
X16510000Y46355000D03*
D15*
X13970000Y46355000D03*
X11430000Y46355000D03*
X8890000Y46355000D03*
X6350000Y46355000D03*
X3810000Y46355000D03*
X1270000Y46355000D03*
X-1270000Y46355000D03*
X-3810000Y46355000D03*
X-6350000Y46355000D03*
X-8890000Y46355000D03*
X-11430000Y46355000D03*
X-13970000Y46355000D03*
X-16510000Y46355000D03*
X-16510000Y38735000D03*
X-13970000Y38735000D03*
X-11430000Y38735000D03*
X-8890000Y38735000D03*
X-6350000Y38735000D03*
X-3810000Y38735000D03*
X-1270000Y38735000D03*
X1270000Y38735000D03*
X3810000Y38735000D03*
X6350000Y38735000D03*
X8890000Y38735000D03*
X11430000Y38735000D03*
X13970000Y38735000D03*
X16510000Y38735000D03*
D16*
X-22860000Y51435000D03*
D15*
X-22860000Y46355000D03*
D16*
X-25400000Y54991000D03*
D15*
X-20320000Y54991000D03*
D16*
X-25400000Y57531000D03*
D15*
X-20320000Y57531000D03*
D16*
X35560000Y43815000D03*
D15*
X35560000Y38735000D03*
D16*
X-35560000Y43815000D03*
D15*
X-35560000Y38735000D03*
D16*
X-20320000Y43815000D03*
D15*
X-20320000Y38735000D03*
D16*
X-22860000Y43815000D03*
D15*
X-22860000Y38735000D03*
D16*
X22860000Y43815000D03*
D15*
X22860000Y38735000D03*
D16*
X-30480000Y43815000D03*
D15*
X-30480000Y38735000D03*
D16*
X-25400000Y43815000D03*
D15*
X-25400000Y38735000D03*
D16*
X25400000Y43815000D03*
D15*
X25400000Y38735000D03*
D16*
X30480000Y43815000D03*
D15*
X30480000Y38735000D03*
D16*
X-27940000Y43815000D03*
D15*
X-27940000Y38735000D03*
D16*
X27940000Y43815000D03*
D15*
X27940000Y38735000D03*
D13*
X-28575000Y28575000D03*
D17*
X-23495000Y28575000D03*
X-33655000Y28575000D03*
D18*
X-26035000Y33655000D03*
X-32385000Y31115000D03*
D17*
X-14605000Y28575000D03*
X-4445000Y28575000D03*
D13*
X-9525000Y28575000D03*
D18*
X-6985000Y33655000D03*
X-13335000Y31115000D03*
D17*
X14605000Y28575000D03*
X4445000Y28575000D03*
D13*
X9525000Y28575000D03*
D18*
X12065000Y33655000D03*
X5715000Y31115000D03*
D13*
X28575000Y28575000D03*
D17*
X23495000Y28575000D03*
X33655000Y28575000D03*
D18*
X31115000Y33655000D03*
X24765000Y31115000D03*
D17*
X-33655000Y9525000D03*
D13*
X-28575000Y9525000D03*
D17*
X-23495000Y9525000D03*
D18*
X-26035000Y14605000D03*
X-32385000Y12065000D03*
D17*
X-4445000Y9525000D03*
D13*
X-9525000Y9525000D03*
D17*
X-14605000Y9525000D03*
D18*
X-6985000Y14605000D03*
X-13335000Y12065000D03*
D17*
X14605000Y9525000D03*
X4445000Y9525000D03*
D13*
X9525000Y9525000D03*
D18*
X12065000Y14605000D03*
X5715000Y12065000D03*
D13*
X28575000Y0D03*
D17*
X28575000Y5080000D03*
X28575000Y-5080000D03*
D18*
X23495000Y2540000D03*
X26035000Y-3810000D03*
D13*
X-28575000Y-9525000D03*
D17*
X-33655000Y-9525000D03*
X-23495000Y-9525000D03*
D18*
X-26035000Y-4445000D03*
X-32385000Y-6985000D03*
D17*
X-14605000Y-9525000D03*
X-4445000Y-9525000D03*
D13*
X-9525000Y-9525000D03*
D18*
X-6985000Y-4445000D03*
X-13335000Y-6985000D03*
D13*
X9525000Y-9525000D03*
D17*
X14605000Y-9525000D03*
X4445000Y-9525000D03*
D18*
X12065000Y-4445000D03*
X5715000Y-6985000D03*
D17*
X-23495000Y-28575000D03*
X-33655000Y-28575000D03*
D13*
X-28575000Y-28575000D03*
D18*
X-26035000Y-23495000D03*
X-32385000Y-26035000D03*
D17*
X-4445000Y-28575000D03*
X-14605000Y-28575000D03*
D13*
X-9525000Y-28575000D03*
D18*
X-6985000Y-23495000D03*
X-13335000Y-26035000D03*
D17*
X4445000Y-28575000D03*
D13*
X9525000Y-28575000D03*
D17*
X14605000Y-28575000D03*
D18*
X12065000Y-23495000D03*
X5715000Y-26035000D03*
D13*
X28575000Y-38100000D03*
D17*
X28575000Y-33020000D03*
X28575000Y-43180000D03*
D18*
X23495000Y-35560000D03*
X26035000Y-41910000D03*
D17*
X-13970000Y-47625000D03*
D13*
X-19050000Y-47625000D03*
D17*
X-24130000Y-47625000D03*
D18*
X-16510000Y-42545000D03*
X-22860000Y-45085000D03*
D17*
X14605000Y-47625000D03*
D13*
X9525000Y-47625000D03*
D17*
X4445000Y-47625000D03*
D18*
X12065000Y-42545000D03*
X5715000Y-45085000D03*
D19*
X22860000Y51435000D03*
D20*
X22860000Y46355000D03*
D19*
X12065000Y56261000D03*
D20*
X6985000Y56261000D03*
D19*
X12065000Y58420000D03*
D20*
X6985000Y58420000D03*
D19*
X20320000Y46355000D03*
D20*
X20320000Y51435000D03*
D19*
X11430000Y53848000D03*
D20*
X11430000Y48768000D03*
D21*
X35814000Y48895000D03*
X-35814000Y48895000D03*
D16*
X13970000Y53848000D03*
D15*
X13970000Y48768000D03*
D22*
X-25504000Y51363000D03*
X-32004000Y51363000D03*
X-25504000Y46863000D03*
X-32004000Y46863000D03*
D16*
X20320000Y43815000D03*
D15*
X20320000Y38735000D03*
D16*
X-20320000Y46355000D03*
X-20320000Y51355000D03*
D23*
X20447000Y55118000D03*
D24*
X20447000Y57658000D03*
X22987000Y55118000D03*
X22987000Y57658000D03*
X25527000Y55118000D03*
X25527000Y57658000D03*
D25*
X2975000Y53900000D03*
X2125000Y53900000D03*
X1275000Y53900000D03*
X425000Y53900000D03*
X-425000Y53900000D03*
X-1275000Y53900000D03*
X-2125000Y53900000D03*
X-2975000Y53900000D03*
X-2975000Y55450000D03*
X-2125000Y55450000D03*
X-1275000Y55450000D03*
X-425000Y55450000D03*
X425000Y55450000D03*
X1275000Y55450000D03*
X2125000Y55450000D03*
X2975000Y55450000D03*
D26*
X-4325000Y58360000D03*
D27*
X4325000Y54980000D03*
D26*
X4325000Y58360000D03*
D27*
X-4325000Y54980000D03*
D16*
X16510000Y53848000D03*
D15*
X16510000Y48768000D03*
D16*
X33020000Y43815000D03*
D15*
X33020000Y38735000D03*
D19*
X8890000Y48768000D03*
D20*
X8890000Y53848000D03*
D16*
X-33020000Y43815000D03*
D15*
X-33020000Y38735000D03*
D21*
X-32385000Y-19050000D03*
X0Y-47625000D03*
X32385000Y-19050000D03*
D22*
X25504000Y51363000D03*
X32004000Y51363000D03*
X25504000Y46863000D03*
X32004000Y46863000D03*
D19*
X-17272000Y49022000D03*
D20*
X-17272000Y54102000D03*
D28*
X-12446000Y50292000D03*
X-7566000Y50292000D03*
D16*
X-12446000Y54152800D03*
X-14946000Y54152800D03*
D29*
X4572000Y50165000D03*
D30*
X6072000Y50165000D03*
D16*
X2032000Y51435000D03*
X-2968000Y51435000D03*
X2032000Y48768000D03*
X-2968000Y48768000D03*
X-7569200Y54152800D03*
X-10069200Y54152800D03*
D31*
X-8001000Y57531000D03*
D32*
X-10541000Y57531000D03*
M02*
