G04 #@! TF.GenerationSoftware,KiCad,Pcbnew,(6.0.2)*
G04 #@! TF.CreationDate,2022-03-11T17:30:27-05:00*
G04 #@! TF.ProjectId,RYCpad_pcb,52594370-6164-45f7-9063-622e6b696361,rev?*
G04 #@! TF.SameCoordinates,Original*
G04 #@! TF.FileFunction,Copper,L1,Top*
G04 #@! TF.FilePolarity,Positive*
%FSLAX46Y46*%
G04 Gerber Fmt 4.6, Leading zero omitted, Abs format (unit mm)*
G04 Created by KiCad (PCBNEW (6.0.2)) date 2022-03-11 17:30:27*
%MOMM*%
%LPD*%
G01*
G04 APERTURE LIST*
G04 #@! TA.AperFunction,ComponentPad*
%ADD10R,1.600000X1.600000*%
G04 #@! TD*
G04 #@! TA.AperFunction,ComponentPad*
%ADD11O,1.600000X1.600000*%
G04 #@! TD*
G04 #@! TA.AperFunction,ComponentPad*
%ADD12C,1.600000*%
G04 #@! TD*
G04 #@! TA.AperFunction,ComponentPad*
%ADD13C,2.286000*%
G04 #@! TD*
G04 #@! TA.AperFunction,ComponentPad*
%ADD14C,1.400000*%
G04 #@! TD*
G04 #@! TA.AperFunction,ComponentPad*
%ADD15O,1.400000X1.400000*%
G04 #@! TD*
G04 #@! TA.AperFunction,ComponentPad*
%ADD16C,4.400000*%
G04 #@! TD*
G04 #@! TA.AperFunction,ComponentPad*
%ADD17C,2.000000*%
G04 #@! TD*
G04 #@! TA.AperFunction,ComponentPad*
%ADD18R,1.700000X1.700000*%
G04 #@! TD*
G04 #@! TA.AperFunction,ComponentPad*
%ADD19O,1.700000X1.700000*%
G04 #@! TD*
G04 #@! TA.AperFunction,ComponentPad*
%ADD20O,0.650000X1.000000*%
G04 #@! TD*
G04 #@! TA.AperFunction,ComponentPad*
%ADD21O,0.900000X1.700000*%
G04 #@! TD*
G04 #@! TA.AperFunction,ComponentPad*
%ADD22O,0.900000X2.400000*%
G04 #@! TD*
G04 #@! TA.AperFunction,ComponentPad*
%ADD23C,1.500000*%
G04 #@! TD*
G04 #@! TA.AperFunction,ComponentPad*
%ADD24R,1.200000X1.200000*%
G04 #@! TD*
G04 #@! TA.AperFunction,ComponentPad*
%ADD25C,1.200000*%
G04 #@! TD*
G04 #@! TA.AperFunction,ComponentPad*
%ADD26R,1.800000X1.800000*%
G04 #@! TD*
G04 #@! TA.AperFunction,ComponentPad*
%ADD27C,1.800000*%
G04 #@! TD*
G04 #@! TA.AperFunction,ViaPad*
%ADD28C,0.800000*%
G04 #@! TD*
G04 #@! TA.AperFunction,Conductor*
%ADD29C,0.250000*%
G04 #@! TD*
G04 #@! TA.AperFunction,Conductor*
%ADD30C,0.400000*%
G04 #@! TD*
G04 APERTURE END LIST*
D10*
X16510000Y46355000D03*
D11*
X13970000Y46355000D03*
X11430000Y46355000D03*
X8890000Y46355000D03*
X6350000Y46355000D03*
X3810000Y46355000D03*
X1270000Y46355000D03*
X-1270000Y46355000D03*
X-3810000Y46355000D03*
X-6350000Y46355000D03*
X-8890000Y46355000D03*
X-11430000Y46355000D03*
X-13970000Y46355000D03*
X-16510000Y46355000D03*
X-16510000Y38735000D03*
X-13970000Y38735000D03*
X-11430000Y38735000D03*
X-8890000Y38735000D03*
X-6350000Y38735000D03*
X-3810000Y38735000D03*
X-1270000Y38735000D03*
X1270000Y38735000D03*
X3810000Y38735000D03*
X6350000Y38735000D03*
X8890000Y38735000D03*
X11430000Y38735000D03*
X13970000Y38735000D03*
X16510000Y38735000D03*
D12*
X-22860000Y51435000D03*
D11*
X-22860000Y46355000D03*
D12*
X-25400000Y54991000D03*
D11*
X-20320000Y54991000D03*
D12*
X-25400000Y57531000D03*
D11*
X-20320000Y57531000D03*
D12*
X35560000Y43815000D03*
D11*
X35560000Y38735000D03*
D12*
X-35560000Y43815000D03*
D11*
X-35560000Y38735000D03*
D12*
X-20320000Y43815000D03*
D11*
X-20320000Y38735000D03*
D12*
X-22860000Y43815000D03*
D11*
X-22860000Y38735000D03*
D12*
X22860000Y43815000D03*
D11*
X22860000Y38735000D03*
D12*
X-30480000Y43815000D03*
D11*
X-30480000Y38735000D03*
D12*
X-25400000Y43815000D03*
D11*
X-25400000Y38735000D03*
D12*
X25400000Y43815000D03*
D11*
X25400000Y38735000D03*
D12*
X30480000Y43815000D03*
D11*
X30480000Y38735000D03*
D12*
X-27940000Y43815000D03*
D11*
X-27940000Y38735000D03*
D12*
X27940000Y43815000D03*
D11*
X27940000Y38735000D03*
D13*
X-26035000Y33655000D03*
X-32385000Y31115000D03*
X-6985000Y33655000D03*
X-13335000Y31115000D03*
X12065000Y33655000D03*
X5715000Y31115000D03*
X31115000Y33655000D03*
X24765000Y31115000D03*
X-26035000Y14605000D03*
X-32385000Y12065000D03*
X-6985000Y14605000D03*
X-13335000Y12065000D03*
X12065000Y14605000D03*
X5715000Y12065000D03*
X23495000Y2540000D03*
X26035000Y-3810000D03*
X-26035000Y-4445000D03*
X-32385000Y-6985000D03*
X-6985000Y-4445000D03*
X-13335000Y-6985000D03*
X12065000Y-4445000D03*
X5715000Y-6985000D03*
X-26035000Y-23495000D03*
X-32385000Y-26035000D03*
X-6985000Y-23495000D03*
X-13335000Y-26035000D03*
X12065000Y-23495000D03*
X5715000Y-26035000D03*
X23495000Y-35560000D03*
X26035000Y-41910000D03*
X-16510000Y-42545000D03*
X-22860000Y-45085000D03*
X12065000Y-42545000D03*
X5715000Y-45085000D03*
D14*
X22860000Y51435000D03*
D15*
X22860000Y46355000D03*
D14*
X12065000Y56261000D03*
D15*
X6985000Y56261000D03*
D14*
X12065000Y58420000D03*
D15*
X6985000Y58420000D03*
D14*
X20320000Y46355000D03*
D15*
X20320000Y51435000D03*
D14*
X11430000Y53848000D03*
D15*
X11430000Y48768000D03*
D16*
X35814000Y48895000D03*
X-35814000Y48895000D03*
D12*
X13970000Y53848000D03*
D11*
X13970000Y48768000D03*
D17*
X-25504000Y51363000D03*
X-32004000Y51363000D03*
X-25504000Y46863000D03*
X-32004000Y46863000D03*
D12*
X20320000Y43815000D03*
D11*
X20320000Y38735000D03*
D12*
X-20320000Y46355000D03*
X-20320000Y51355000D03*
D18*
X20447000Y55118000D03*
D19*
X20447000Y57658000D03*
X22987000Y55118000D03*
X22987000Y57658000D03*
X25527000Y55118000D03*
X25527000Y57658000D03*
D20*
X2975000Y53900000D03*
X2125000Y53900000D03*
X1275000Y53900000D03*
X425000Y53900000D03*
X-425000Y53900000D03*
X-1275000Y53900000D03*
X-2125000Y53900000D03*
X-2975000Y53900000D03*
X-2975000Y55450000D03*
X-2125000Y55450000D03*
X-1275000Y55450000D03*
X-425000Y55450000D03*
X425000Y55450000D03*
X1275000Y55450000D03*
X2125000Y55450000D03*
X2975000Y55450000D03*
D21*
X-4325000Y58360000D03*
D22*
X4325000Y54980000D03*
D21*
X4325000Y58360000D03*
D22*
X-4325000Y54980000D03*
D12*
X16510000Y53848000D03*
D11*
X16510000Y48768000D03*
D12*
X33020000Y43815000D03*
D11*
X33020000Y38735000D03*
D14*
X8890000Y48768000D03*
D15*
X8890000Y53848000D03*
D12*
X-33020000Y43815000D03*
D11*
X-33020000Y38735000D03*
D16*
X-32385000Y-19050000D03*
X0Y-47625000D03*
X32385000Y-19050000D03*
D17*
X25504000Y51363000D03*
X32004000Y51363000D03*
X25504000Y46863000D03*
X32004000Y46863000D03*
D14*
X-17272000Y49022000D03*
D15*
X-17272000Y54102000D03*
D23*
X-12446000Y50292000D03*
X-7566000Y50292000D03*
D12*
X-12446000Y54152800D03*
X-14946000Y54152800D03*
D24*
X4572000Y50165000D03*
D25*
X6072000Y50165000D03*
D12*
X2032000Y51435000D03*
X-2968000Y51435000D03*
X2032000Y48768000D03*
X-2968000Y48768000D03*
X-7569200Y54152800D03*
X-10069200Y54152800D03*
D26*
X-8001000Y57531000D03*
D27*
X-10541000Y57531000D03*
D28*
X-11557000Y43815000D03*
X1778000Y44450000D03*
X4572000Y43053000D03*
X-10795000Y43053000D03*
X-10033000Y42291000D03*
X2794000Y42291000D03*
X18542000Y41021000D03*
X1016000Y41529000D03*
X-9271000Y41529000D03*
X18542000Y42037000D03*
X635000Y44450000D03*
X-20320000Y48895000D03*
D29*
X-11881501Y37465000D02*
X17145000Y37465000D01*
X-12675000Y38258499D02*
X-11881501Y37465000D01*
X-11430000Y46355000D02*
X-12675000Y45110000D01*
X31750000Y40005000D02*
X35560000Y43815000D01*
X17145000Y37465000D02*
X19685000Y40005000D01*
X-12675000Y45110000D02*
X-12675000Y38258499D01*
X19685000Y40005000D02*
X31750000Y40005000D01*
X-18992011Y53663011D02*
X-20320000Y54991000D01*
X-13335000Y31115000D02*
X-18992011Y36772011D01*
X-18992011Y36772011D02*
X-18992011Y53663011D01*
X-17145000Y37465000D02*
X-12517911Y37465000D01*
X-12517911Y37465000D02*
X-12067901Y37014990D01*
X-12067901Y37014990D02*
X-184990Y37014990D01*
X-18542000Y55753000D02*
X-18542000Y38862000D01*
X-184990Y37014990D02*
X5715000Y31115000D01*
X-20320000Y57531000D02*
X-18542000Y55753000D01*
X-18542000Y38862000D02*
X-17145000Y37465000D01*
X32386410Y37465000D02*
X31936400Y37014990D01*
X24765000Y35554360D02*
X25325612Y36114972D01*
X27679212Y36564982D02*
X29582802Y36564982D01*
X27229202Y36114972D02*
X27679212Y36564982D01*
X24765000Y31115000D02*
X24765000Y35554360D01*
X31936400Y37014990D02*
X30032810Y37014990D01*
X34290000Y37465000D02*
X32386410Y37465000D01*
X35560000Y38735000D02*
X34290000Y37465000D01*
X30032810Y37014990D02*
X29582802Y36564982D01*
X25325612Y36114972D02*
X27229202Y36114972D01*
X-24875600Y35664960D02*
X-22972010Y35664960D01*
X-29582800Y36564980D02*
X-27679210Y36564980D01*
X-32386410Y37465000D02*
X-31936400Y37014990D01*
X-22319099Y22130901D02*
X-32385000Y12065000D01*
X-30032810Y37014990D02*
X-29582800Y36564980D01*
X-22972010Y35664960D02*
X-22522000Y35214950D01*
X-21889820Y35214950D02*
X-20400030Y33725160D01*
X-31936400Y37014990D02*
X-30032810Y37014990D01*
X-35560000Y38735000D02*
X-34290000Y37465000D01*
X-20400030Y24049970D02*
X-22319099Y22130901D01*
X-34290000Y37465000D02*
X-32386410Y37465000D01*
X-27229200Y36114970D02*
X-25325610Y36114970D01*
X-25325610Y36114970D02*
X-24875600Y35664960D01*
X-22522000Y35214950D02*
X-21889820Y35214950D01*
X-27679210Y36564980D02*
X-27229200Y36114970D01*
X-20400030Y33725160D02*
X-20400030Y24049970D01*
X-8890000Y46355000D02*
X-11430000Y43815000D01*
X-6037520Y43502520D02*
X-8890000Y46355000D01*
X-11430000Y43815000D02*
X-11557000Y43815000D01*
X1778000Y44450000D02*
X830520Y43502520D01*
X-33534980Y41789980D02*
X-22345020Y41789980D01*
X-22345020Y41789980D02*
X-20320000Y43815000D01*
X830520Y43502520D02*
X-6037520Y43502520D01*
X-35560000Y43815000D02*
X-33534980Y41789980D01*
X-17699970Y34843560D02*
X-20320000Y37463590D01*
X-13335000Y12065000D02*
X-17699970Y16429970D01*
X-17699970Y16429970D02*
X-17699970Y34843560D01*
X-20320000Y37463590D02*
X-20320000Y38735000D01*
X19050000Y25400000D02*
X5715000Y12065000D01*
X19050000Y35562820D02*
X19050000Y25400000D01*
X20320000Y38735000D02*
X20320000Y36832820D01*
X20320000Y36832820D02*
X19050000Y35562820D01*
X17675038Y20842988D02*
X17675038Y4549962D01*
X21300050Y24468000D02*
X17675038Y20842988D01*
X29846410Y37465000D02*
X29396401Y37014991D01*
X22785610Y36114970D02*
X21300050Y34629410D01*
X31750000Y37465000D02*
X29846410Y37465000D01*
X27042801Y36564981D02*
X25139210Y36564980D01*
X17675038Y4549962D02*
X26035000Y-3810000D01*
X25139210Y36564980D02*
X24689201Y36114971D01*
X27492810Y37014990D02*
X27042801Y36564981D01*
X29396401Y37014991D02*
X27492810Y37014990D01*
X24689201Y36114971D02*
X22785610Y36114970D01*
X33020000Y38735000D02*
X31750000Y37465000D01*
X21300050Y34629410D02*
X21300050Y24468000D01*
X-19950020Y33911560D02*
X-19950020Y5449980D01*
X-22335600Y35664960D02*
X-21703420Y35664960D01*
X-31750000Y37465000D02*
X-29846410Y37465000D01*
X-33020000Y38735000D02*
X-31750000Y37465000D01*
X-29846410Y37465000D02*
X-29396400Y37014990D01*
X-29396400Y37014990D02*
X-27492810Y37014990D01*
X-19950020Y5449980D02*
X-22225000Y3175000D01*
X-24689200Y36114970D02*
X-22785610Y36114970D01*
X-25139210Y36564980D02*
X-24689200Y36114970D01*
X-21703420Y35664960D02*
X-19950020Y33911560D01*
X-22225000Y3175000D02*
X-32385000Y-6985000D01*
X-22785610Y36114970D02*
X-22335600Y35664960D01*
X-27492810Y37014990D02*
X-27042800Y36564980D01*
X-27042800Y36564980D02*
X-25139210Y36564980D01*
X-31444990Y42239990D02*
X-24435010Y42239990D01*
X-33020000Y43815000D02*
X-31444990Y42239990D01*
X-10795000Y43053000D02*
X4572000Y43053000D01*
X-24435010Y42239990D02*
X-22860000Y43815000D01*
X-18149980Y34657160D02*
X-18149980Y-2170020D01*
X-22860000Y38735000D02*
X-21590000Y37465000D01*
X-20770010Y37277190D02*
X-18149980Y34657160D01*
X-21590000Y37465000D02*
X-20955000Y37465000D01*
X-18149980Y-2170020D02*
X-13335000Y-6985000D01*
X-20770010Y37280010D02*
X-20770010Y37277190D01*
X-20955000Y37465000D02*
X-20770010Y37280010D01*
X19500010Y25213600D02*
X15875000Y21588590D01*
X19500010Y35376420D02*
X19500010Y25213600D01*
X21588590Y37465000D02*
X19500010Y35376420D01*
X15875000Y3175000D02*
X15240000Y2540000D01*
X15875000Y21588590D02*
X15875000Y3175000D01*
X21590000Y37465000D02*
X21588590Y37465000D01*
X22860000Y38735000D02*
X21590000Y37465000D01*
X15240000Y2540000D02*
X5715000Y-6985000D01*
X-29210000Y37465000D02*
X-27306410Y37465000D01*
X-24502800Y36564980D02*
X-22599210Y36564980D01*
X-21419079Y-15069079D02*
X-19500010Y-13150010D01*
X-19500010Y28390010D02*
X-19500010Y28575000D01*
X-19500010Y34097960D02*
X-19500010Y28390010D01*
X-22542500Y-16192500D02*
X-32385000Y-26035000D01*
X-22149200Y36114970D02*
X-21517020Y36114970D01*
X-30480000Y38735000D02*
X-29210000Y37465000D01*
X-27306410Y37465000D02*
X-26856400Y37014990D01*
X-24952810Y37014990D02*
X-24502800Y36564980D01*
X-19500010Y-13150010D02*
X-19500010Y28390010D01*
X-21517020Y36114970D02*
X-19500010Y34097960D01*
X-21419079Y-15069079D02*
X-22542500Y-16192500D01*
X-22599210Y36564980D02*
X-22149200Y36114970D01*
X-26856400Y37014990D02*
X-24952810Y37014990D01*
X-26525001Y42689999D02*
X-25400000Y43815000D01*
X25400000Y43815000D02*
X22606000Y41021000D01*
X-30480000Y43815000D02*
X-29354999Y42689999D01*
X22606000Y41021000D02*
X18542000Y41021000D01*
X-29354999Y42689999D02*
X-26525001Y42689999D01*
X-10033000Y42291000D02*
X2794000Y42291000D01*
X-25400000Y38735000D02*
X-24130000Y37465000D01*
X-18599990Y-20770010D02*
X-13335000Y-26035000D01*
X-21776400Y37014990D02*
X-21144220Y37014990D01*
X-24130000Y37465000D02*
X-22226410Y37465000D01*
X-22226410Y37465000D02*
X-21776400Y37014990D01*
X-21144220Y37014990D02*
X-18599990Y34470760D01*
X-18599990Y34470760D02*
X-18599990Y-20770010D01*
X19950020Y25027200D02*
X16325010Y21402190D01*
X22226410Y37465000D02*
X21776401Y37014991D01*
X21774991Y37014991D02*
X19950020Y35190020D01*
X15875000Y-15875000D02*
X5715000Y-26035000D01*
X21776401Y37014991D02*
X21774991Y37014991D01*
X25400000Y38735000D02*
X24130000Y37465000D01*
X16325010Y21402190D02*
X16325009Y-15424991D01*
X16325009Y-15424991D02*
X15875000Y-15875000D01*
X24130000Y37465000D02*
X22226410Y37465000D01*
X19950020Y35190020D02*
X19950020Y25027200D01*
X30480000Y38735000D02*
X29210000Y37465000D01*
X24952810Y37014990D02*
X24502800Y36564980D01*
X24502800Y36564980D02*
X22599210Y36564980D01*
X17225028Y21029388D02*
X17225028Y-33100028D01*
X26856400Y37014990D02*
X24952810Y37014990D01*
X22599210Y36564980D02*
X20850040Y34815810D01*
X17225028Y-33100028D02*
X26035000Y-41910000D01*
X29210000Y37465000D02*
X27306410Y37465000D01*
X20850040Y24654400D02*
X17225028Y21029388D01*
X27306410Y37465000D02*
X26856400Y37014990D01*
X20850040Y34815810D02*
X20850040Y24654400D01*
X-21962800Y36564980D02*
X-21330620Y36564980D01*
X-27940000Y38735000D02*
X-26670000Y37465000D01*
X-19050000Y34284360D02*
X-19050000Y-41275000D01*
X-26670000Y37465000D02*
X-24766410Y37465000D01*
X-24316400Y37014990D02*
X-22412810Y37014990D01*
X-22412810Y37014990D02*
X-21962800Y36564980D01*
X-19050000Y-41275000D02*
X-22860000Y-45085000D01*
X-24766410Y37465000D02*
X-24316400Y37014990D01*
X-21330620Y36564980D02*
X-19050000Y34284360D01*
X22986282Y42037000D02*
X24130000Y43180718D01*
X24130000Y44356150D02*
X24858850Y45085000D01*
X24858850Y45085000D02*
X26670000Y45085000D01*
X-9271000Y41529000D02*
X1016000Y41529000D01*
X18542000Y42037000D02*
X22986282Y42037000D01*
X26670000Y45085000D02*
X27940000Y43815000D01*
X24130000Y43180718D02*
X24130000Y44356150D01*
X5715000Y-45085000D02*
X16775018Y-34024982D01*
X20400030Y24840800D02*
X20400030Y35002210D01*
X24316400Y37014990D02*
X24766410Y37465000D01*
X20400030Y35002210D02*
X22412810Y37014990D01*
X16775018Y-34024982D02*
X16775019Y21215789D01*
X16775019Y21215789D02*
X20400030Y24840800D01*
X26670000Y37465000D02*
X27940000Y38735000D01*
X22412810Y37014990D02*
X24316400Y37014990D01*
X24766410Y37465000D02*
X26670000Y37465000D01*
D30*
X25504000Y46863000D02*
X26903511Y48262511D01*
X635000Y44450000D02*
X-1270000Y46355000D01*
X26903511Y48262511D02*
X26903511Y56281489D01*
X12765000Y49973000D02*
X13970000Y48768000D01*
X-11268711Y55352311D02*
X-10069200Y54152800D01*
X25527000Y57658000D02*
X24277489Y58907511D01*
X-25504000Y46863000D02*
X-21012000Y51355000D01*
X12765000Y55561000D02*
X12765000Y49973000D01*
X-14946000Y54152800D02*
X-13746489Y55352311D01*
X12065000Y56261000D02*
X12765000Y55561000D01*
X-10069200Y54152800D02*
X-8001000Y56221000D01*
X12065000Y58420000D02*
X12065000Y56261000D01*
X-21012000Y51355000D02*
X-20320000Y51355000D01*
X26903511Y56281489D02*
X25527000Y57658000D01*
X-8001000Y56221000D02*
X-8001000Y57531000D01*
X-13746489Y55352311D02*
X-11268711Y55352311D01*
X24277489Y58907511D02*
X12552511Y58907511D01*
X12552511Y58907511D02*
X12065000Y58420000D01*
D29*
X-425000Y54000000D02*
X-425000Y54312000D01*
X425000Y55162000D02*
X425000Y55350000D01*
X-425000Y54312000D02*
X425000Y55162000D01*
X21621511Y56292511D02*
X22987000Y57658000D01*
X-9404979Y40760021D02*
X14968971Y40760021D01*
X18161000Y55181022D02*
X19272489Y56292511D01*
X19272489Y56292511D02*
X21621511Y56292511D01*
X-11430000Y38735000D02*
X-9404979Y40760021D01*
X18161000Y43952050D02*
X18161000Y55181022D01*
X14968971Y40760021D02*
X18161000Y43952050D01*
X15340387Y39860001D02*
X19060040Y43579656D01*
X19060040Y43579656D02*
X19060040Y51826040D01*
X-6350000Y38735000D02*
X-5224999Y39860001D01*
X19060040Y51826040D02*
X20320000Y53086000D01*
X-5224999Y39860001D02*
X15340387Y39860001D01*
X20955000Y53086000D02*
X22987000Y55118000D01*
X20320000Y53086000D02*
X20955000Y53086000D01*
D30*
X2032000Y47117000D02*
X1270000Y46355000D01*
X-20320000Y48895000D02*
X-20320000Y46355000D01*
X3302000Y51435000D02*
X4572000Y50165000D01*
X2032000Y48768000D02*
X3175000Y48768000D01*
X2032000Y48768000D02*
X2032000Y47117000D01*
X3175000Y48768000D02*
X4572000Y50165000D01*
X2032000Y51435000D02*
X3302000Y51435000D01*
D29*
X15154679Y40310011D02*
X18610520Y43765853D01*
X-8890000Y38735000D02*
X-7314989Y40310011D01*
X18610520Y43765853D02*
X18610520Y53281520D01*
X-7314989Y40310011D02*
X15154679Y40310011D01*
X18610520Y53281520D02*
X20447000Y55118000D01*
X1275000Y53656441D02*
X1855961Y53075480D01*
X1275000Y54000000D02*
X1275000Y53656441D01*
X1855961Y53075480D02*
X4307480Y53075480D01*
X4307480Y53075480D02*
X6985000Y55753000D01*
X6985000Y55753000D02*
X6985000Y56261000D01*
X-1275000Y55693559D02*
X216921Y57185480D01*
X5750480Y57185480D02*
X6985000Y58420000D01*
X-1275000Y55350000D02*
X-1275000Y55693559D01*
X216921Y57185480D02*
X5750480Y57185480D01*
X6477000Y46355000D02*
X6350000Y46355000D01*
X8890000Y48768000D02*
X6477000Y46355000D01*
X9017000Y46355000D02*
X8890000Y46355000D01*
X11430000Y48768000D02*
X9017000Y46355000D01*
X-10287000Y50292000D02*
X-12446000Y50292000D01*
X-6350000Y46355000D02*
X-10287000Y50292000D01*
X-12446000Y54152800D02*
X-12446000Y50292000D01*
X-3810000Y46355000D02*
X-7566000Y50111000D01*
X-7569200Y50295200D02*
X-7566000Y50292000D01*
X-7569200Y54152800D02*
X-7569200Y50295200D01*
X-7566000Y50111000D02*
X-7566000Y50292000D01*
D30*
X-2125000Y54000000D02*
X-2125000Y55350000D01*
X-2968000Y51435000D02*
X-2125000Y52278000D01*
X-2125000Y52278000D02*
X-2125000Y54000000D01*
X2125000Y54000000D02*
X2125000Y55350000D01*
D29*
X-16071001Y54692801D02*
X-13232802Y57531000D01*
X-17272000Y49022000D02*
X-16071001Y50222999D01*
X-16071001Y50222999D02*
X-16071001Y54692801D01*
X-13232802Y57531000D02*
X-10541000Y57531000D01*
M02*
