G04 #@! TF.GenerationSoftware,KiCad,Pcbnew,(6.0.2)*
G04 #@! TF.CreationDate,2022-03-11T17:30:27-05:00*
G04 #@! TF.ProjectId,RYCpad_pcb,52594370-6164-45f7-9063-622e6b696361,rev?*
G04 #@! TF.SameCoordinates,Original*
G04 #@! TF.FileFunction,Copper,L2,Bot*
G04 #@! TF.FilePolarity,Positive*
%FSLAX46Y46*%
G04 Gerber Fmt 4.6, Leading zero omitted, Abs format (unit mm)*
G04 Created by KiCad (PCBNEW (6.0.2)) date 2022-03-11 17:30:27*
%MOMM*%
%LPD*%
G01*
G04 APERTURE LIST*
G04 #@! TA.AperFunction,ComponentPad*
%ADD10R,1.600000X1.600000*%
G04 #@! TD*
G04 #@! TA.AperFunction,ComponentPad*
%ADD11O,1.600000X1.600000*%
G04 #@! TD*
G04 #@! TA.AperFunction,ComponentPad*
%ADD12C,1.600000*%
G04 #@! TD*
G04 #@! TA.AperFunction,ComponentPad*
%ADD13C,2.286000*%
G04 #@! TD*
G04 #@! TA.AperFunction,ComponentPad*
%ADD14C,1.400000*%
G04 #@! TD*
G04 #@! TA.AperFunction,ComponentPad*
%ADD15O,1.400000X1.400000*%
G04 #@! TD*
G04 #@! TA.AperFunction,ComponentPad*
%ADD16C,4.400000*%
G04 #@! TD*
G04 #@! TA.AperFunction,ComponentPad*
%ADD17C,2.000000*%
G04 #@! TD*
G04 #@! TA.AperFunction,ComponentPad*
%ADD18R,1.700000X1.700000*%
G04 #@! TD*
G04 #@! TA.AperFunction,ComponentPad*
%ADD19O,1.700000X1.700000*%
G04 #@! TD*
G04 #@! TA.AperFunction,ComponentPad*
%ADD20O,0.650000X1.000000*%
G04 #@! TD*
G04 #@! TA.AperFunction,ComponentPad*
%ADD21O,0.900000X1.700000*%
G04 #@! TD*
G04 #@! TA.AperFunction,ComponentPad*
%ADD22O,0.900000X2.400000*%
G04 #@! TD*
G04 #@! TA.AperFunction,ComponentPad*
%ADD23C,1.500000*%
G04 #@! TD*
G04 #@! TA.AperFunction,ComponentPad*
%ADD24R,1.200000X1.200000*%
G04 #@! TD*
G04 #@! TA.AperFunction,ComponentPad*
%ADD25C,1.200000*%
G04 #@! TD*
G04 #@! TA.AperFunction,ComponentPad*
%ADD26R,1.800000X1.800000*%
G04 #@! TD*
G04 #@! TA.AperFunction,ComponentPad*
%ADD27C,1.800000*%
G04 #@! TD*
G04 #@! TA.AperFunction,ViaPad*
%ADD28C,0.800000*%
G04 #@! TD*
G04 #@! TA.AperFunction,Conductor*
%ADD29C,0.250000*%
G04 #@! TD*
G04 #@! TA.AperFunction,Conductor*
%ADD30C,0.400000*%
G04 #@! TD*
G04 APERTURE END LIST*
D10*
X16510000Y46355000D03*
D11*
X13970000Y46355000D03*
X11430000Y46355000D03*
X8890000Y46355000D03*
X6350000Y46355000D03*
X3810000Y46355000D03*
X1270000Y46355000D03*
X-1270000Y46355000D03*
X-3810000Y46355000D03*
X-6350000Y46355000D03*
X-8890000Y46355000D03*
X-11430000Y46355000D03*
X-13970000Y46355000D03*
X-16510000Y46355000D03*
X-16510000Y38735000D03*
X-13970000Y38735000D03*
X-11430000Y38735000D03*
X-8890000Y38735000D03*
X-6350000Y38735000D03*
X-3810000Y38735000D03*
X-1270000Y38735000D03*
X1270000Y38735000D03*
X3810000Y38735000D03*
X6350000Y38735000D03*
X8890000Y38735000D03*
X11430000Y38735000D03*
X13970000Y38735000D03*
X16510000Y38735000D03*
D12*
X-22860000Y51435000D03*
D11*
X-22860000Y46355000D03*
D12*
X-25400000Y54991000D03*
D11*
X-20320000Y54991000D03*
D12*
X-25400000Y57531000D03*
D11*
X-20320000Y57531000D03*
D12*
X35560000Y43815000D03*
D11*
X35560000Y38735000D03*
D12*
X-35560000Y43815000D03*
D11*
X-35560000Y38735000D03*
D12*
X-20320000Y43815000D03*
D11*
X-20320000Y38735000D03*
D12*
X-22860000Y43815000D03*
D11*
X-22860000Y38735000D03*
D12*
X22860000Y43815000D03*
D11*
X22860000Y38735000D03*
D12*
X-30480000Y43815000D03*
D11*
X-30480000Y38735000D03*
D12*
X-25400000Y43815000D03*
D11*
X-25400000Y38735000D03*
D12*
X25400000Y43815000D03*
D11*
X25400000Y38735000D03*
D12*
X30480000Y43815000D03*
D11*
X30480000Y38735000D03*
D12*
X-27940000Y43815000D03*
D11*
X-27940000Y38735000D03*
D12*
X27940000Y43815000D03*
D11*
X27940000Y38735000D03*
D13*
X-26035000Y33655000D03*
X-32385000Y31115000D03*
X-6985000Y33655000D03*
X-13335000Y31115000D03*
X12065000Y33655000D03*
X5715000Y31115000D03*
X31115000Y33655000D03*
X24765000Y31115000D03*
X-26035000Y14605000D03*
X-32385000Y12065000D03*
X-6985000Y14605000D03*
X-13335000Y12065000D03*
X12065000Y14605000D03*
X5715000Y12065000D03*
X23495000Y2540000D03*
X26035000Y-3810000D03*
X-26035000Y-4445000D03*
X-32385000Y-6985000D03*
X-6985000Y-4445000D03*
X-13335000Y-6985000D03*
X12065000Y-4445000D03*
X5715000Y-6985000D03*
X-26035000Y-23495000D03*
X-32385000Y-26035000D03*
X-6985000Y-23495000D03*
X-13335000Y-26035000D03*
X12065000Y-23495000D03*
X5715000Y-26035000D03*
X23495000Y-35560000D03*
X26035000Y-41910000D03*
X-16510000Y-42545000D03*
X-22860000Y-45085000D03*
X12065000Y-42545000D03*
X5715000Y-45085000D03*
D14*
X22860000Y51435000D03*
D15*
X22860000Y46355000D03*
D14*
X12065000Y56261000D03*
D15*
X6985000Y56261000D03*
D14*
X12065000Y58420000D03*
D15*
X6985000Y58420000D03*
D14*
X20320000Y46355000D03*
D15*
X20320000Y51435000D03*
D14*
X11430000Y53848000D03*
D15*
X11430000Y48768000D03*
D16*
X35814000Y48895000D03*
X-35814000Y48895000D03*
D12*
X13970000Y53848000D03*
D11*
X13970000Y48768000D03*
D17*
X-25504000Y51363000D03*
X-32004000Y51363000D03*
X-25504000Y46863000D03*
X-32004000Y46863000D03*
D12*
X20320000Y43815000D03*
D11*
X20320000Y38735000D03*
D12*
X-20320000Y46355000D03*
X-20320000Y51355000D03*
D18*
X20447000Y55118000D03*
D19*
X20447000Y57658000D03*
X22987000Y55118000D03*
X22987000Y57658000D03*
X25527000Y55118000D03*
X25527000Y57658000D03*
D20*
X2975000Y53900000D03*
X2125000Y53900000D03*
X1275000Y53900000D03*
X425000Y53900000D03*
X-425000Y53900000D03*
X-1275000Y53900000D03*
X-2125000Y53900000D03*
X-2975000Y53900000D03*
X-2975000Y55450000D03*
X-2125000Y55450000D03*
X-1275000Y55450000D03*
X-425000Y55450000D03*
X425000Y55450000D03*
X1275000Y55450000D03*
X2125000Y55450000D03*
X2975000Y55450000D03*
D21*
X-4325000Y58360000D03*
D22*
X4325000Y54980000D03*
D21*
X4325000Y58360000D03*
D22*
X-4325000Y54980000D03*
D12*
X16510000Y53848000D03*
D11*
X16510000Y48768000D03*
D12*
X33020000Y43815000D03*
D11*
X33020000Y38735000D03*
D14*
X8890000Y48768000D03*
D15*
X8890000Y53848000D03*
D12*
X-33020000Y43815000D03*
D11*
X-33020000Y38735000D03*
D16*
X-32385000Y-19050000D03*
X0Y-47625000D03*
X32385000Y-19050000D03*
D17*
X25504000Y51363000D03*
X32004000Y51363000D03*
X25504000Y46863000D03*
X32004000Y46863000D03*
D14*
X-17272000Y49022000D03*
D15*
X-17272000Y54102000D03*
D23*
X-12446000Y50292000D03*
X-7566000Y50292000D03*
D12*
X-12446000Y54152800D03*
X-14946000Y54152800D03*
D24*
X4572000Y50165000D03*
D25*
X6072000Y50165000D03*
D12*
X2032000Y51435000D03*
X-2968000Y51435000D03*
X2032000Y48768000D03*
X-2968000Y48768000D03*
X-7569200Y54152800D03*
X-10069200Y54152800D03*
D26*
X-8001000Y57531000D03*
D27*
X-10541000Y57531000D03*
D28*
X-11557000Y43815000D03*
X1778000Y44450000D03*
X4572000Y43053000D03*
X-10795000Y43053000D03*
X-10033000Y42291000D03*
X2794000Y42291000D03*
X18542000Y41021000D03*
X1016000Y41529000D03*
X-9271000Y41529000D03*
X18542000Y42037000D03*
X635000Y44450000D03*
X-20320000Y48895000D03*
D29*
X-28335002Y45085000D02*
X-24130000Y45085000D01*
X-29210000Y34290000D02*
X-29210000Y44210002D01*
X-24130000Y45085000D02*
X-22860000Y46355000D01*
X-32385000Y31115000D02*
X-29210000Y34290000D01*
X-29210000Y44210002D02*
X-28335002Y45085000D01*
X-25400000Y57531000D02*
X-25400000Y54610000D01*
X-25400000Y54991000D02*
X-22860000Y52451000D01*
X-13005010Y47930010D02*
X-11430000Y46355000D01*
X-21434600Y47930010D02*
X-13005010Y47930010D01*
X-22860000Y51435000D02*
X-22860000Y49355410D01*
X-22860000Y52451000D02*
X-22860000Y51435000D01*
X-22860000Y49355410D02*
X-21434600Y47930010D01*
X20320000Y43815000D02*
X21445001Y44940001D01*
X31444990Y45390010D02*
X33020000Y43815000D01*
X-12231991Y43140009D02*
X-11557000Y43815000D01*
X26338600Y45390010D02*
X31444990Y45390010D01*
X19457470Y44677530D02*
X20320000Y43815000D01*
X21445001Y44940001D02*
X25888591Y44940001D01*
X25888591Y44940001D02*
X26338600Y45390010D01*
X1778000Y44450000D02*
X2005530Y44677530D01*
X-19645009Y43140009D02*
X-12231991Y43140009D01*
X2005530Y44677530D02*
X19457470Y44677530D01*
X-20320000Y43815000D02*
X-19645009Y43140009D01*
X4572000Y43053000D02*
X4572000Y43053000D01*
X-21734999Y42689999D02*
X-11158001Y42689999D01*
X-11158001Y42689999D02*
X-10795000Y43053000D01*
X10015001Y39860001D02*
X8890000Y38735000D01*
X8890000Y38735000D02*
X4572000Y43053000D01*
X22860000Y43815000D02*
X18905001Y39860001D01*
X-22860000Y43815000D02*
X-21734999Y42689999D01*
X18905001Y39860001D02*
X10015001Y39860001D01*
X-10084010Y42239990D02*
X-10033000Y42291000D01*
X6350000Y38735000D02*
X2794000Y42291000D01*
X-25400000Y43815000D02*
X-23824990Y42239990D01*
X18542000Y41021000D02*
X18025386Y41021000D01*
X26525001Y44940001D02*
X29354999Y44940001D01*
X3715316Y43778001D02*
X2794000Y42856685D01*
X18025386Y41021000D02*
X15268385Y43778001D01*
X-23824990Y42239990D02*
X-10084010Y42239990D01*
X2794000Y42856685D02*
X2794000Y42291000D01*
X29354999Y44940001D02*
X30480000Y43815000D01*
X15268385Y43778001D02*
X3715316Y43778001D01*
X25400000Y43815000D02*
X26525001Y44940001D01*
X3149325Y44228010D02*
X1016000Y42094685D01*
X-27940000Y43815000D02*
X-25914980Y41789980D01*
X18542000Y42037000D02*
X16350990Y44228010D01*
X-25914980Y41789980D02*
X-10795000Y41789980D01*
X3810000Y38735000D02*
X1016000Y41529000D01*
X-10795000Y41789980D02*
X-10534020Y41529000D01*
X16350990Y44228010D02*
X3149325Y44228010D01*
X1016000Y42094685D02*
X1016000Y41529000D01*
X-10534020Y41529000D02*
X-9271000Y41529000D01*
D30*
X-2975000Y53667000D02*
X-4167511Y52474489D01*
X4888480Y56579520D02*
X3515671Y56579520D01*
X-20320000Y51355000D02*
X-20320000Y52608944D01*
X-4167511Y49967511D02*
X-2968000Y48768000D01*
X-8001000Y57531000D02*
X-7112000Y56642000D01*
X2975000Y54000000D02*
X2975000Y55350000D01*
X12065000Y56261000D02*
X8763000Y56261000D01*
X-2975000Y56038850D02*
X-1899330Y57114520D01*
X13970000Y48768000D02*
X16510000Y48768000D01*
X-2975000Y54000000D02*
X-2975000Y55350000D01*
X635000Y44450000D02*
X215999Y44030999D01*
X2643467Y50235489D02*
X3572489Y51164511D01*
X-7112000Y56642000D02*
X-3578150Y56642000D01*
X215999Y39789001D02*
X1270000Y38735000D01*
X-1500511Y50235489D02*
X2643467Y50235489D01*
X3572489Y51164511D02*
X5350489Y51164511D01*
X6306511Y55161489D02*
X4888480Y56579520D01*
X3515671Y56579520D02*
X2975000Y56038849D01*
X-3578150Y56642000D02*
X-2975000Y56038850D01*
X5350489Y51164511D02*
X6072000Y50443000D01*
X-16697455Y56231489D02*
X-9300511Y56231489D01*
X6072000Y50443000D02*
X6072000Y50165000D01*
X-2968000Y48053000D02*
X-1270000Y46355000D01*
X-2968000Y48768000D02*
X-2968000Y48053000D01*
X32004000Y46863000D02*
X25504000Y46863000D01*
X-9300511Y56231489D02*
X-8001000Y57531000D01*
X-4167511Y52474489D02*
X-4167511Y49967511D01*
D29*
X-25654000Y46863000D02*
X-25036999Y47480001D01*
D30*
X-32004000Y46863000D02*
X-25504000Y46863000D01*
X-2975000Y54000000D02*
X-2975000Y53667000D01*
X-2968000Y48768000D02*
X-1500511Y50235489D01*
X1899329Y57114520D02*
X2975000Y56038849D01*
X8763000Y56261000D02*
X7663489Y55161489D01*
X7663489Y55161489D02*
X6306511Y55161489D01*
X2975000Y56038849D02*
X2975000Y55350000D01*
X-20320000Y52608944D02*
X-16697455Y56231489D01*
X215999Y44030999D02*
X215999Y39789001D01*
X-2975000Y55350000D02*
X-2975000Y56038850D01*
X-1899330Y57114520D02*
X1899329Y57114520D01*
D29*
X-425000Y53656441D02*
X605481Y52625960D01*
X16383000Y51435000D02*
X20320000Y51435000D01*
X8890000Y53848000D02*
X9915001Y52822999D01*
X12944999Y52822999D02*
X13970000Y53848000D01*
X9915001Y52822999D02*
X12944999Y52822999D01*
X7667960Y52625960D02*
X8890000Y53848000D01*
X13970000Y53848000D02*
X16383000Y51435000D01*
X-425000Y54000000D02*
X-425000Y53656441D01*
X605481Y52625960D02*
X7667960Y52625960D01*
X8465633Y54872511D02*
X10405489Y54872511D01*
X425000Y53656441D02*
X1005961Y53075480D01*
X425000Y54312000D02*
X425000Y54000000D01*
X10405489Y54872511D02*
X11430000Y53848000D01*
X12555001Y54973001D02*
X15384999Y54973001D01*
X425000Y54000000D02*
X425000Y53656441D01*
X11430000Y53848000D02*
X12555001Y54973001D01*
X-425000Y55350000D02*
X-425000Y55162000D01*
X15384999Y54973001D02*
X16510000Y53848000D01*
X1005961Y53075480D02*
X6668602Y53075480D01*
X6668602Y53075480D02*
X8465633Y54872511D01*
X-425000Y55162000D02*
X425000Y54312000D01*
X21844000Y46355000D02*
X22860000Y46355000D01*
X17534511Y45330489D02*
X20819489Y45330489D01*
X16510000Y46355000D02*
X17534511Y45330489D01*
X20819489Y45330489D02*
X21844000Y46355000D01*
X25504000Y55095000D02*
X25527000Y55118000D01*
X25504000Y51363000D02*
X25504000Y55095000D01*
X25504000Y51363000D02*
X32004000Y51363000D01*
X25504000Y48999000D02*
X25504000Y51363000D01*
X22860000Y46355000D02*
X25504000Y48999000D01*
D30*
X-17272000Y51943000D02*
X-20320000Y48895000D01*
D29*
X22860000Y51435000D02*
X21717000Y52578000D01*
X21717000Y56388000D02*
X20447000Y57658000D01*
D30*
X-17272000Y54102000D02*
X-17272000Y51943000D01*
D29*
X19194999Y47480001D02*
X20320000Y46355000D01*
X22860000Y51435000D02*
X22860000Y48895000D01*
D30*
X-3810000Y41275000D02*
X1270000Y46355000D01*
X-18669000Y44704000D02*
X-9779000Y44704000D01*
D29*
X22860000Y48895000D02*
X20320000Y46355000D01*
X21717000Y52578000D02*
X21717000Y56388000D01*
X2395001Y47480001D02*
X19194999Y47480001D01*
X1270000Y46355000D02*
X2395001Y47480001D01*
D30*
X-9779000Y44704000D02*
X-3810000Y38735000D01*
X-20320000Y46355000D02*
X-18669000Y44704000D01*
X-3810000Y38735000D02*
X-3810000Y41275000D01*
D29*
X-22225000Y37465000D02*
X-26035000Y33655000D01*
X-26035000Y33655000D02*
X-26035000Y14605000D01*
X-26035000Y-33020000D02*
X-16510000Y-42545000D01*
X-26035000Y-23495000D02*
X-26035000Y-33020000D01*
X-26035000Y-4445000D02*
X-26035000Y-23495000D01*
X-26035000Y14605000D02*
X-26035000Y-4445000D01*
X-16510000Y38735000D02*
X-17780000Y37465000D01*
X-17780000Y37465000D02*
X-22225000Y37465000D01*
X-6985000Y33655000D02*
X-6985000Y14605000D01*
X-6985000Y10324666D02*
X-6985000Y-4445000D01*
X-12700000Y37465000D02*
X-10795000Y37465000D01*
X-10795000Y37465000D02*
X-6985000Y33655000D01*
X-6985000Y-4445000D02*
X-6985000Y-23495000D01*
X-6985000Y14605000D02*
X-6985000Y10324666D01*
X-13970000Y38735000D02*
X-12700000Y37465000D01*
X12065000Y33655000D02*
X12065000Y14605000D01*
X13970000Y38735000D02*
X12065000Y36830000D01*
X12065000Y-4445000D02*
X12065000Y14605000D01*
X12065000Y36830000D02*
X12065000Y33655000D01*
X12065000Y-23495000D02*
X12065000Y-4445000D01*
X12065000Y-42545000D02*
X12065000Y-23495000D01*
X23495000Y2540000D02*
X23495000Y-35560000D01*
X31115000Y10160000D02*
X23495000Y2540000D01*
X16510000Y38735000D02*
X17780000Y37465000D01*
X27305000Y37465000D02*
X31115000Y33655000D01*
X17780000Y37465000D02*
X27305000Y37465000D01*
X31115000Y33655000D02*
X31115000Y10160000D01*
D30*
X-2125000Y55350000D02*
X-2125000Y56041000D01*
X-1651000Y56515000D02*
X1651000Y56515000D01*
X-2125000Y56041000D02*
X-1651000Y56515000D01*
X1651000Y56515000D02*
X2125000Y56041000D01*
X2125000Y56041000D02*
X2125000Y55350000D01*
D29*
X-21621001Y47480001D02*
X-25504000Y51363000D01*
X-25504000Y51363000D02*
X-32004000Y51363000D01*
X-15095001Y47480001D02*
X-13970000Y46355000D01*
X-15095001Y47480001D02*
X-21621001Y47480001D01*
M02*
