G04 #@! TF.GenerationSoftware,KiCad,Pcbnew,(6.0.2)*
G04 #@! TF.CreationDate,2022-03-22T19:35:40-04:00*
G04 #@! TF.ProjectId,RYCpad_pcb_rear,52594370-6164-45f7-9063-625f72656172,rev?*
G04 #@! TF.SameCoordinates,Original*
G04 #@! TF.FileFunction,Soldermask,Top*
G04 #@! TF.FilePolarity,Negative*
%FSLAX46Y46*%
G04 Gerber Fmt 4.6, Leading zero omitted, Abs format (unit mm)*
G04 Created by KiCad (PCBNEW (6.0.2)) date 2022-03-22 19:35:40*
%MOMM*%
%LPD*%
G01*
G04 APERTURE LIST*
%ADD10C,4.400000*%
G04 APERTURE END LIST*
G36*
X37599343Y46673884D02*
G01*
X37623626Y46670291D01*
X37647440Y46664334D01*
X37670556Y46656070D01*
X37692749Y46645578D01*
X37713806Y46632961D01*
X37733525Y46618340D01*
X37751714Y46601855D01*
X37768199Y46583665D01*
X37782820Y46563947D01*
X37795438Y46542889D01*
X37805929Y46520696D01*
X37814193Y46497581D01*
X37820150Y46473767D01*
X37823743Y46449483D01*
X37824937Y46424964D01*
X37824937Y-55125425D01*
X37824765Y-55149986D01*
X37824250Y-55174540D01*
X37823391Y-55199081D01*
X37822189Y-55223607D01*
X37820645Y-55248111D01*
X37818757Y-55272591D01*
X37816527Y-55297041D01*
X37813955Y-55321457D01*
X37811041Y-55345836D01*
X37807785Y-55370172D01*
X37804188Y-55394462D01*
X37800249Y-55418700D01*
X37795969Y-55442884D01*
X37791348Y-55467007D01*
X37786386Y-55491059D01*
X37781085Y-55515027D01*
X37775446Y-55538909D01*
X37769471Y-55562703D01*
X37763161Y-55586405D01*
X37756519Y-55610013D01*
X37749546Y-55633524D01*
X37742243Y-55656935D01*
X37734613Y-55680244D01*
X37726658Y-55703447D01*
X37718378Y-55726543D01*
X37709776Y-55749527D01*
X37700853Y-55772397D01*
X37691611Y-55795152D01*
X37682053Y-55817770D01*
X37672180Y-55840240D01*
X37661995Y-55862559D01*
X37651500Y-55884724D01*
X37640695Y-55906733D01*
X37629584Y-55928584D01*
X37618168Y-55950276D01*
X37606448Y-55971806D01*
X37594427Y-55993171D01*
X37582106Y-56014370D01*
X37569488Y-56035400D01*
X37556574Y-56056260D01*
X37543366Y-56076947D01*
X37529866Y-56097459D01*
X37516078Y-56117791D01*
X37502013Y-56137932D01*
X37487673Y-56157877D01*
X37473059Y-56177623D01*
X37458174Y-56197164D01*
X37443019Y-56216496D01*
X37427596Y-56235615D01*
X37411907Y-56254515D01*
X37395955Y-56273193D01*
X37379741Y-56291643D01*
X37363267Y-56309861D01*
X37346536Y-56327842D01*
X37329548Y-56345583D01*
X37312307Y-56363077D01*
X37294820Y-56380311D01*
X37277100Y-56397294D01*
X37259151Y-56414023D01*
X37240973Y-56430496D01*
X37222571Y-56446710D01*
X37203946Y-56462663D01*
X37185100Y-56478354D01*
X37166036Y-56493779D01*
X37146757Y-56508937D01*
X37127264Y-56523825D01*
X37107560Y-56538441D01*
X37087648Y-56552783D01*
X37067530Y-56566847D01*
X37047207Y-56580633D01*
X37026688Y-56594136D01*
X37005980Y-56607345D01*
X36985089Y-56620260D01*
X36964018Y-56632879D01*
X36942771Y-56645199D01*
X36921354Y-56657220D01*
X36899770Y-56668940D01*
X36878024Y-56680356D01*
X36856120Y-56691466D01*
X36834063Y-56702270D01*
X36811856Y-56712765D01*
X36789504Y-56722950D01*
X36767012Y-56732823D01*
X36744384Y-56742381D01*
X36719876Y-56752312D01*
X36695232Y-56761857D01*
X36670457Y-56771018D01*
X36645553Y-56779794D01*
X36620524Y-56788186D01*
X36595374Y-56796196D01*
X36570107Y-56803823D01*
X36544726Y-56811069D01*
X36519234Y-56817934D01*
X36493636Y-56824419D01*
X36467935Y-56830524D01*
X36442134Y-56836251D01*
X36416237Y-56841600D01*
X36392114Y-56846223D01*
X36367931Y-56850504D01*
X36343692Y-56854444D01*
X36319403Y-56858042D01*
X36295067Y-56861298D01*
X36270688Y-56864212D01*
X36246272Y-56866783D01*
X36221822Y-56869012D01*
X36197342Y-56870899D01*
X36172838Y-56872443D01*
X36148313Y-56873644D01*
X36123771Y-56874502D01*
X36099218Y-56875017D01*
X36074657Y-56875189D01*
X-36074944Y-56875189D01*
X-36099505Y-56875017D01*
X-36124059Y-56874501D01*
X-36148600Y-56873642D01*
X-36173126Y-56872439D01*
X-36197630Y-56870894D01*
X-36222110Y-56869006D01*
X-36246560Y-56866775D01*
X-36270976Y-56864203D01*
X-36295355Y-56861288D01*
X-36319691Y-56858033D01*
X-36343981Y-56854436D01*
X-36368219Y-56850498D01*
X-36392403Y-56846219D01*
X-36416526Y-56841600D01*
X-36442425Y-56836251D01*
X-36468227Y-56830524D01*
X-36493928Y-56824419D01*
X-36519527Y-56817934D01*
X-36545018Y-56811069D01*
X-36570399Y-56803823D01*
X-36595666Y-56796196D01*
X-36620815Y-56788186D01*
X-36645843Y-56779794D01*
X-36670746Y-56771018D01*
X-36695521Y-56761857D01*
X-36720163Y-56752312D01*
X-36744671Y-56742381D01*
X-36767299Y-56732823D01*
X-36789791Y-56722950D01*
X-36812143Y-56712765D01*
X-36834350Y-56702270D01*
X-36856408Y-56691466D01*
X-36878312Y-56680356D01*
X-36900058Y-56668940D01*
X-36921642Y-56657220D01*
X-36943059Y-56645199D01*
X-36964306Y-56632879D01*
X-36985377Y-56620260D01*
X-37006268Y-56607345D01*
X-37026975Y-56594136D01*
X-37047494Y-56580633D01*
X-37067817Y-56566847D01*
X-37087936Y-56552783D01*
X-37107848Y-56538441D01*
X-37127552Y-56523825D01*
X-37147045Y-56508937D01*
X-37166325Y-56493779D01*
X-37185389Y-56478354D01*
X-37204235Y-56462663D01*
X-37222860Y-56446710D01*
X-37241263Y-56430496D01*
X-37259440Y-56414023D01*
X-37277389Y-56397294D01*
X-37295109Y-56380311D01*
X-37312596Y-56363077D01*
X-37329830Y-56345583D01*
X-37346812Y-56327842D01*
X-37363541Y-56309861D01*
X-37380013Y-56291643D01*
X-37396226Y-56273193D01*
X-37412179Y-56254515D01*
X-37427869Y-56235615D01*
X-37443294Y-56216496D01*
X-37458451Y-56197164D01*
X-37473340Y-56177623D01*
X-37487956Y-56157877D01*
X-37502298Y-56137932D01*
X-37516364Y-56117791D01*
X-37530152Y-56097459D01*
X-37543653Y-56076947D01*
X-37556861Y-56056260D01*
X-37569776Y-56035400D01*
X-37582395Y-56014370D01*
X-37594716Y-55993171D01*
X-37606738Y-55971806D01*
X-37618459Y-55950276D01*
X-37629876Y-55928584D01*
X-37640987Y-55906733D01*
X-37651792Y-55884724D01*
X-37662288Y-55862559D01*
X-37672472Y-55840240D01*
X-37682343Y-55817770D01*
X-37691900Y-55795152D01*
X-37701142Y-55772397D01*
X-37710065Y-55749527D01*
X-37718667Y-55726543D01*
X-37726947Y-55703447D01*
X-37734902Y-55680244D01*
X-37742532Y-55656935D01*
X-37749834Y-55633524D01*
X-37756807Y-55610013D01*
X-37763449Y-55586405D01*
X-37769758Y-55562703D01*
X-37775733Y-55538909D01*
X-37781372Y-55515027D01*
X-37786673Y-55491059D01*
X-37791635Y-55467007D01*
X-37796256Y-55442884D01*
X-37800536Y-55418700D01*
X-37804475Y-55394462D01*
X-37808073Y-55370172D01*
X-37811329Y-55345836D01*
X-37814243Y-55321457D01*
X-37816815Y-55297041D01*
X-37819046Y-55272591D01*
X-37820933Y-55248111D01*
X-37822478Y-55223607D01*
X-37823680Y-55199081D01*
X-37824539Y-55174540D01*
X-37825054Y-55149986D01*
X-37825226Y-55125425D01*
X-37825226Y46424964D01*
X-37824708Y46424964D01*
X-37823514Y46449483D01*
X-37819921Y46473767D01*
X-37813964Y46497581D01*
X-37805699Y46520696D01*
X-37795208Y46542889D01*
X-37782591Y46563947D01*
X-37767970Y46583665D01*
X-37751485Y46601855D01*
X-37733295Y46618340D01*
X-37713577Y46632961D01*
X-37692520Y46645578D01*
X-37670326Y46656070D01*
X-37647211Y46664334D01*
X-37623397Y46670291D01*
X-37599113Y46673884D01*
X-37574594Y46675078D01*
X-37550110Y46673837D01*
X-37525865Y46670203D01*
X-37502092Y46664212D01*
X-37479021Y46655922D01*
X-37456872Y46645411D01*
X-37435860Y46632782D01*
X-37416185Y46618156D01*
X-37398038Y46601672D01*
X-37381592Y46583491D01*
X-37367006Y46563786D01*
X-37354420Y46542747D01*
X-37343956Y46520577D01*
X-37335713Y46497488D01*
X-37329771Y46473704D01*
X-37326188Y46449451D01*
X-37324997Y46424964D01*
X-37324997Y-55125425D01*
X-37324763Y-55149983D01*
X-37324058Y-55174525D01*
X-37322881Y-55199043D01*
X-37321229Y-55223528D01*
X-37319101Y-55247974D01*
X-37316493Y-55272373D01*
X-37313404Y-55296716D01*
X-37309832Y-55320997D01*
X-37305773Y-55345207D01*
X-37301227Y-55369339D01*
X-37296194Y-55393381D01*
X-37290682Y-55417315D01*
X-37284694Y-55441133D01*
X-37278237Y-55464828D01*
X-37271315Y-55488391D01*
X-37263934Y-55511814D01*
X-37256098Y-55535089D01*
X-37247812Y-55558209D01*
X-37239083Y-55581164D01*
X-37229914Y-55603948D01*
X-37220299Y-55626541D01*
X-37210260Y-55648927D01*
X-37199798Y-55671101D01*
X-37188911Y-55693058D01*
X-37177599Y-55714792D01*
X-37165864Y-55736299D01*
X-37153703Y-55757573D01*
X-37141119Y-55778611D01*
X-37128109Y-55799407D01*
X-37114674Y-55819956D01*
X-37100828Y-55840232D01*
X-37086588Y-55860212D01*
X-37071958Y-55879892D01*
X-37056946Y-55899270D01*
X-37041555Y-55918346D01*
X-37025792Y-55937115D01*
X-37009662Y-55955576D01*
X-36993171Y-55973728D01*
X-36976325Y-55991567D01*
X-36959129Y-56009091D01*
X-36941589Y-56026288D01*
X-36923710Y-56043135D01*
X-36905501Y-56059626D01*
X-36886969Y-56075756D01*
X-36868123Y-56091519D01*
X-36848971Y-56106909D01*
X-36829522Y-56121922D01*
X-36809784Y-56136552D01*
X-36789766Y-56150793D01*
X-36769475Y-56164640D01*
X-36748926Y-56178079D01*
X-36728130Y-56191123D01*
X-36707092Y-56203764D01*
X-36685818Y-56215996D01*
X-36664311Y-56227811D01*
X-36642577Y-56239203D01*
X-36620620Y-56250164D01*
X-36598446Y-56260688D01*
X-36576060Y-56270767D01*
X-36553467Y-56280395D01*
X-36530686Y-56289549D01*
X-36507732Y-56298240D01*
X-36484613Y-56306469D01*
X-36461337Y-56314235D01*
X-36437914Y-56321541D01*
X-36414350Y-56328386D01*
X-36390654Y-56334773D01*
X-36366835Y-56340702D01*
X-36342900Y-56346174D01*
X-36318858Y-56351189D01*
X-36294726Y-56355753D01*
X-36270516Y-56359852D01*
X-36246235Y-56363483D01*
X-36221892Y-56366643D01*
X-36197493Y-56369326D01*
X-36173048Y-56371531D01*
X-36148562Y-56373252D01*
X-36124044Y-56374486D01*
X-36099502Y-56375229D01*
X-36074944Y-56375478D01*
X36074657Y-56375478D01*
X36099215Y-56375229D01*
X36123756Y-56374486D01*
X36148273Y-56373252D01*
X36172759Y-56371531D01*
X36197204Y-56369326D01*
X36221603Y-56366643D01*
X36245946Y-56363483D01*
X36270227Y-56359852D01*
X36294437Y-56355753D01*
X36318569Y-56351189D01*
X36342610Y-56346171D01*
X36366545Y-56340698D01*
X36390363Y-56334769D01*
X36414058Y-56328382D01*
X36437622Y-56321537D01*
X36461045Y-56314232D01*
X36484321Y-56306467D01*
X36507441Y-56298239D01*
X36530396Y-56289549D01*
X36553180Y-56280395D01*
X36575773Y-56270767D01*
X36598159Y-56260688D01*
X36620332Y-56250164D01*
X36642289Y-56239203D01*
X36664023Y-56227811D01*
X36685530Y-56215996D01*
X36706805Y-56203764D01*
X36727843Y-56191123D01*
X36748639Y-56178079D01*
X36769189Y-56164640D01*
X36789479Y-56150793D01*
X36809497Y-56136552D01*
X36829233Y-56121922D01*
X36848681Y-56106909D01*
X36867832Y-56091519D01*
X36886677Y-56075756D01*
X36905208Y-56059626D01*
X36923418Y-56043135D01*
X36941298Y-56026288D01*
X36958839Y-56009091D01*
X36976036Y-55991567D01*
X36992883Y-55973728D01*
X37009374Y-55955576D01*
X37025504Y-55937115D01*
X37041267Y-55918346D01*
X37056657Y-55899270D01*
X37071670Y-55879892D01*
X37086299Y-55860212D01*
X37100539Y-55840232D01*
X37114385Y-55819956D01*
X37127820Y-55799407D01*
X37140830Y-55778611D01*
X37153417Y-55757573D01*
X37165578Y-55736299D01*
X37177315Y-55714792D01*
X37188627Y-55693058D01*
X37199514Y-55671101D01*
X37209976Y-55648927D01*
X37220013Y-55626541D01*
X37229624Y-55603948D01*
X37238805Y-55581164D01*
X37247541Y-55558209D01*
X37255829Y-55535089D01*
X37263663Y-55511814D01*
X37271041Y-55488391D01*
X37277957Y-55464828D01*
X37284410Y-55441133D01*
X37290393Y-55417315D01*
X37295904Y-55393381D01*
X37300938Y-55369339D01*
X37305494Y-55345207D01*
X37309558Y-55320997D01*
X37313133Y-55296716D01*
X37316222Y-55272373D01*
X37318828Y-55247974D01*
X37320953Y-55223528D01*
X37322601Y-55199043D01*
X37323775Y-55174525D01*
X37324477Y-55149983D01*
X37324710Y-55125425D01*
X37324710Y46424964D01*
X37325226Y46424964D01*
X37326417Y46449451D01*
X37330001Y46473704D01*
X37335942Y46497488D01*
X37344185Y46520577D01*
X37354650Y46542747D01*
X37367235Y46563786D01*
X37381821Y46583491D01*
X37398267Y46601672D01*
X37416414Y46618156D01*
X37436089Y46632782D01*
X37457102Y46645411D01*
X37479250Y46655922D01*
X37502322Y46664212D01*
X37526094Y46670203D01*
X37550339Y46673837D01*
X37574824Y46675078D01*
X37599343Y46673884D01*
G37*
G36*
X36099218Y59255017D02*
G01*
X36123771Y59254502D01*
X36148313Y59253643D01*
X36172838Y59252442D01*
X36197342Y59250897D01*
X36221822Y59249010D01*
X36246272Y59246781D01*
X36270688Y59244209D01*
X36295067Y59241295D01*
X36319403Y59238039D01*
X36343692Y59234441D01*
X36367931Y59230502D01*
X36392114Y59226221D01*
X36416237Y59221599D01*
X36442134Y59216250D01*
X36467935Y59210522D01*
X36493636Y59204416D01*
X36519234Y59197931D01*
X36544726Y59191066D01*
X36570107Y59183820D01*
X36595374Y59176193D01*
X36620524Y59168184D01*
X36645553Y59159791D01*
X36670457Y59151016D01*
X36695232Y59141856D01*
X36719876Y59132311D01*
X36744384Y59122380D01*
X36767012Y59112823D01*
X36789504Y59102951D01*
X36811856Y59092766D01*
X36834063Y59082271D01*
X36856120Y59071466D01*
X36878024Y59060355D01*
X36899770Y59048939D01*
X36921354Y59037219D01*
X36942771Y59025198D01*
X36964018Y59012877D01*
X36985089Y59000258D01*
X37005980Y58987343D01*
X37026688Y58974134D01*
X37047207Y58960633D01*
X37067530Y58946839D01*
X37087648Y58932755D01*
X37107560Y58918383D01*
X37127264Y58903728D01*
X37146757Y58888795D01*
X37166036Y58873587D01*
X37185100Y58858110D01*
X37203946Y58842366D01*
X37222571Y58826361D01*
X37240973Y58810099D01*
X37259151Y58793583D01*
X37277100Y58776818D01*
X37294820Y58759808D01*
X37312307Y58742558D01*
X37329548Y58725072D01*
X37346536Y58707354D01*
X37363267Y58689405D01*
X37379741Y58671228D01*
X37395955Y58652826D01*
X37411907Y58634201D01*
X37427596Y58615355D01*
X37443019Y58596291D01*
X37458174Y58577011D01*
X37473059Y58557518D01*
X37487673Y58537813D01*
X37502013Y58517900D01*
X37516078Y58497781D01*
X37529866Y58477458D01*
X37543366Y58456946D01*
X37556573Y58436260D01*
X37569487Y58415400D01*
X37582105Y58394370D01*
X37594424Y58373171D01*
X37606445Y58351806D01*
X37618164Y58330277D01*
X37629580Y58308586D01*
X37640691Y58286734D01*
X37651495Y58264725D01*
X37661991Y58242560D01*
X37672177Y58220241D01*
X37682051Y58197771D01*
X37691611Y58175151D01*
X37700853Y58152398D01*
X37709776Y58129528D01*
X37718378Y58106545D01*
X37726658Y58083449D01*
X37734613Y58060246D01*
X37742243Y58036937D01*
X37749546Y58013525D01*
X37756519Y57990013D01*
X37763161Y57966405D01*
X37769471Y57942702D01*
X37775446Y57918908D01*
X37781085Y57895025D01*
X37786386Y57871057D01*
X37791348Y57847006D01*
X37795970Y57822883D01*
X37800252Y57798700D01*
X37804191Y57774462D01*
X37807789Y57750173D01*
X37811045Y57725837D01*
X37813959Y57701458D01*
X37816530Y57677041D01*
X37818760Y57652591D01*
X37820647Y57628111D01*
X37822191Y57603607D01*
X37823392Y57579081D01*
X37824250Y57554540D01*
X37824765Y57529986D01*
X37824937Y57505425D01*
X37824937Y51363681D01*
X37823743Y51339162D01*
X37820150Y51314878D01*
X37814193Y51291064D01*
X37805929Y51267949D01*
X37795438Y51245755D01*
X37782820Y51224698D01*
X37768199Y51204980D01*
X37751714Y51186790D01*
X37733525Y51170305D01*
X37713806Y51155684D01*
X37692749Y51143066D01*
X37670556Y51132575D01*
X37647440Y51124311D01*
X37623626Y51118354D01*
X37599343Y51114761D01*
X37574824Y51113567D01*
X37550339Y51114808D01*
X37526094Y51118442D01*
X37502322Y51124433D01*
X37479250Y51132723D01*
X37457102Y51143234D01*
X37436089Y51155863D01*
X37416414Y51170489D01*
X37398267Y51186973D01*
X37381821Y51205154D01*
X37367235Y51224859D01*
X37354650Y51245898D01*
X37344185Y51268068D01*
X37335942Y51291156D01*
X37330001Y51314941D01*
X37326417Y51339194D01*
X37325226Y51363681D01*
X37324710Y51363681D01*
X37324710Y57505425D01*
X37324472Y57529983D01*
X37323766Y57554524D01*
X37322589Y57579041D01*
X37320938Y57603526D01*
X37318811Y57627971D01*
X37316205Y57652370D01*
X37313117Y57676713D01*
X37309545Y57700994D01*
X37305486Y57725205D01*
X37300938Y57749338D01*
X37295906Y57773378D01*
X37290397Y57797312D01*
X37284414Y57821131D01*
X37277962Y57844826D01*
X37271045Y57868390D01*
X37263666Y57891814D01*
X37255831Y57915090D01*
X37247542Y57938210D01*
X37238806Y57961165D01*
X37229624Y57983948D01*
X37220013Y58006540D01*
X37209976Y58028926D01*
X37199514Y58051099D01*
X37188627Y58073055D01*
X37177315Y58094790D01*
X37165578Y58116297D01*
X37153417Y58137573D01*
X37140830Y58158611D01*
X37127820Y58179407D01*
X37114385Y58199956D01*
X37100539Y58220232D01*
X37086299Y58240211D01*
X37071670Y58259890D01*
X37056657Y58279268D01*
X37041267Y58298343D01*
X37025504Y58317112D01*
X37009374Y58335573D01*
X36992883Y58353725D01*
X36976036Y58371565D01*
X36958839Y58389092D01*
X36941298Y58406288D01*
X36923418Y58423134D01*
X36905208Y58439625D01*
X36886677Y58455755D01*
X36867832Y58471518D01*
X36848681Y58486909D01*
X36829233Y58501922D01*
X36809497Y58516551D01*
X36789479Y58530792D01*
X36769189Y58544638D01*
X36748639Y58558087D01*
X36727843Y58571136D01*
X36706805Y58583780D01*
X36685530Y58596011D01*
X36664023Y58607824D01*
X36642289Y58619212D01*
X36620332Y58630169D01*
X36598159Y58640689D01*
X36575773Y58650766D01*
X36553180Y58660393D01*
X36530396Y58669558D01*
X36507441Y58678254D01*
X36484321Y58686484D01*
X36461045Y58694249D01*
X36437622Y58701551D01*
X36414058Y58708393D01*
X36390363Y58714775D01*
X36366545Y58720701D01*
X36342610Y58726172D01*
X36318569Y58731190D01*
X36294437Y58735752D01*
X36270227Y58739850D01*
X36245946Y58743481D01*
X36221603Y58746641D01*
X36197204Y58749325D01*
X36172759Y58751529D01*
X36148273Y58753251D01*
X36123756Y58754485D01*
X36099215Y58755229D01*
X36074657Y58755478D01*
X-36074944Y58755478D01*
X-36099502Y58755229D01*
X-36124044Y58754485D01*
X-36148562Y58753250D01*
X-36173048Y58751528D01*
X-36197493Y58749323D01*
X-36221892Y58746639D01*
X-36246235Y58743480D01*
X-36270516Y58739849D01*
X-36294726Y58735751D01*
X-36318858Y58731190D01*
X-36342900Y58726172D01*
X-36366835Y58720701D01*
X-36390654Y58714775D01*
X-36414350Y58708393D01*
X-36437914Y58701551D01*
X-36461337Y58694249D01*
X-36484613Y58686484D01*
X-36507732Y58678255D01*
X-36530686Y58669558D01*
X-36553467Y58660393D01*
X-36576060Y58650766D01*
X-36598446Y58640689D01*
X-36620620Y58630169D01*
X-36642577Y58619212D01*
X-36664311Y58607824D01*
X-36685818Y58596011D01*
X-36707092Y58583780D01*
X-36728130Y58571136D01*
X-36748926Y58558087D01*
X-36769475Y58544638D01*
X-36789766Y58530792D01*
X-36809784Y58516551D01*
X-36829522Y58501922D01*
X-36848971Y58486909D01*
X-36868123Y58471518D01*
X-36886969Y58455755D01*
X-36905501Y58439625D01*
X-36923710Y58423134D01*
X-36941589Y58406288D01*
X-36959129Y58389092D01*
X-36976325Y58371565D01*
X-36993171Y58353725D01*
X-37009662Y58335573D01*
X-37025792Y58317111D01*
X-37041555Y58298342D01*
X-37056946Y58279268D01*
X-37071958Y58259890D01*
X-37086588Y58240211D01*
X-37100828Y58220232D01*
X-37114674Y58199956D01*
X-37128109Y58179407D01*
X-37141119Y58158611D01*
X-37153703Y58137573D01*
X-37165864Y58116297D01*
X-37177599Y58094790D01*
X-37188911Y58073055D01*
X-37199798Y58051099D01*
X-37210260Y58028926D01*
X-37220299Y58006540D01*
X-37229914Y57983948D01*
X-37239083Y57961165D01*
X-37247812Y57938210D01*
X-37256098Y57915090D01*
X-37263934Y57891814D01*
X-37271315Y57868390D01*
X-37278237Y57844826D01*
X-37284694Y57821131D01*
X-37290682Y57797312D01*
X-37296194Y57773378D01*
X-37301227Y57749338D01*
X-37305773Y57725205D01*
X-37309832Y57700994D01*
X-37313404Y57676713D01*
X-37316493Y57652369D01*
X-37319101Y57627971D01*
X-37321229Y57603525D01*
X-37322881Y57579040D01*
X-37324058Y57554524D01*
X-37324763Y57529982D01*
X-37324997Y57505425D01*
X-37324997Y51363681D01*
X-37326188Y51339194D01*
X-37329771Y51314941D01*
X-37335713Y51291156D01*
X-37343956Y51268068D01*
X-37354420Y51245898D01*
X-37367006Y51224859D01*
X-37381592Y51205154D01*
X-37398038Y51186973D01*
X-37416185Y51170489D01*
X-37435860Y51155863D01*
X-37456872Y51143234D01*
X-37479021Y51132723D01*
X-37502092Y51124433D01*
X-37525865Y51118442D01*
X-37550110Y51114808D01*
X-37574594Y51113567D01*
X-37599113Y51114761D01*
X-37623397Y51118354D01*
X-37647211Y51124311D01*
X-37670326Y51132575D01*
X-37692520Y51143066D01*
X-37713577Y51155684D01*
X-37733295Y51170305D01*
X-37751485Y51186790D01*
X-37767970Y51204980D01*
X-37782591Y51224698D01*
X-37795208Y51245755D01*
X-37805699Y51267949D01*
X-37813964Y51291064D01*
X-37819921Y51314878D01*
X-37823514Y51339162D01*
X-37824708Y51363681D01*
X-37825226Y51363681D01*
X-37825226Y57505425D01*
X-37825052Y57529986D01*
X-37824536Y57554540D01*
X-37823676Y57579081D01*
X-37822473Y57603607D01*
X-37820928Y57628111D01*
X-37819041Y57652591D01*
X-37816812Y57677041D01*
X-37814240Y57701458D01*
X-37811326Y57725837D01*
X-37808071Y57750173D01*
X-37804474Y57774462D01*
X-37800535Y57798700D01*
X-37796256Y57822883D01*
X-37791635Y57847006D01*
X-37786673Y57871057D01*
X-37781372Y57895025D01*
X-37775733Y57918908D01*
X-37769758Y57942702D01*
X-37763449Y57966405D01*
X-37756807Y57990013D01*
X-37749834Y58013525D01*
X-37742532Y58036937D01*
X-37734902Y58060246D01*
X-37726947Y58083449D01*
X-37718667Y58106545D01*
X-37710065Y58129528D01*
X-37701142Y58152398D01*
X-37691900Y58175151D01*
X-37682343Y58197771D01*
X-37672472Y58220241D01*
X-37662288Y58242560D01*
X-37651792Y58264725D01*
X-37640987Y58286734D01*
X-37629876Y58308586D01*
X-37618459Y58330277D01*
X-37606738Y58351806D01*
X-37594716Y58373171D01*
X-37582395Y58394370D01*
X-37569776Y58415400D01*
X-37556861Y58436260D01*
X-37543653Y58456946D01*
X-37530152Y58477458D01*
X-37516364Y58497781D01*
X-37502298Y58517900D01*
X-37487956Y58537813D01*
X-37473340Y58557518D01*
X-37458451Y58577011D01*
X-37443294Y58596291D01*
X-37427869Y58615355D01*
X-37412179Y58634201D01*
X-37396226Y58652826D01*
X-37380013Y58671228D01*
X-37363541Y58689405D01*
X-37346812Y58707354D01*
X-37329830Y58725072D01*
X-37312596Y58742558D01*
X-37295109Y58759808D01*
X-37277389Y58776818D01*
X-37259440Y58793583D01*
X-37241263Y58810099D01*
X-37222860Y58826361D01*
X-37204235Y58842366D01*
X-37185389Y58858110D01*
X-37166325Y58873587D01*
X-37147045Y58888795D01*
X-37127552Y58903728D01*
X-37107848Y58918383D01*
X-37087936Y58932755D01*
X-37067817Y58946839D01*
X-37047494Y58960633D01*
X-37026975Y58974134D01*
X-37006268Y58987343D01*
X-36985377Y59000258D01*
X-36964306Y59012877D01*
X-36943059Y59025198D01*
X-36921642Y59037219D01*
X-36900058Y59048939D01*
X-36878312Y59060355D01*
X-36856408Y59071466D01*
X-36834350Y59082271D01*
X-36812143Y59092766D01*
X-36789791Y59102951D01*
X-36767299Y59112823D01*
X-36744671Y59122380D01*
X-36720163Y59132311D01*
X-36695521Y59141855D01*
X-36670746Y59151015D01*
X-36645843Y59159791D01*
X-36620815Y59168183D01*
X-36595666Y59176193D01*
X-36570399Y59183820D01*
X-36545018Y59191066D01*
X-36519527Y59197932D01*
X-36493928Y59204417D01*
X-36468227Y59210523D01*
X-36442425Y59216250D01*
X-36416526Y59221599D01*
X-36392403Y59226221D01*
X-36368219Y59230501D01*
X-36343981Y59234441D01*
X-36319691Y59238038D01*
X-36295355Y59241294D01*
X-36270976Y59244208D01*
X-36246560Y59246780D01*
X-36222110Y59249010D01*
X-36197630Y59250897D01*
X-36173126Y59252442D01*
X-36148600Y59253643D01*
X-36124059Y59254502D01*
X-36099505Y59255017D01*
X-36074944Y59255189D01*
X36074657Y59255189D01*
X36099218Y59255017D01*
G37*
D10*
X0Y-47625200D03*
X-32385000Y-19050000D03*
X32385000Y-19050000D03*
X35814000Y48895000D03*
X-35814000Y48895000D03*
M02*
