G04 #@! TF.GenerationSoftware,KiCad,Pcbnew,(6.0.2)*
G04 #@! TF.CreationDate,2022-03-22T19:35:40-04:00*
G04 #@! TF.ProjectId,RYCpad_pcb_rear,52594370-6164-45f7-9063-625f72656172,rev?*
G04 #@! TF.SameCoordinates,Original*
G04 #@! TF.FileFunction,Copper,L2,Bot*
G04 #@! TF.FilePolarity,Positive*
%FSLAX46Y46*%
G04 Gerber Fmt 4.6, Leading zero omitted, Abs format (unit mm)*
G04 Created by KiCad (PCBNEW (6.0.2)) date 2022-03-22 19:35:40*
%MOMM*%
%LPD*%
G01*
G04 APERTURE LIST*
G04 #@! TA.AperFunction,EtchedComponent*
%ADD10C,0.010000*%
G04 #@! TD*
G04 #@! TA.AperFunction,ComponentPad*
%ADD11C,4.400000*%
G04 #@! TD*
G04 APERTURE END LIST*
D10*
X-1860517Y-10637106D02*
X-1979445Y-10753798D01*
X-1979445Y-10753798D02*
X-2108875Y-10877687D01*
X-2108875Y-10877687D02*
X-2222699Y-10983812D01*
X-2222699Y-10983812D02*
X-2232687Y-10992912D01*
X-2232687Y-10992912D02*
X-2322507Y-11077941D01*
X-2322507Y-11077941D02*
X-2370364Y-11134918D01*
X-2370364Y-11134918D02*
X-2383823Y-11175527D01*
X-2383823Y-11175527D02*
X-2372319Y-11208493D01*
X-2372319Y-11208493D02*
X-2314568Y-11257882D01*
X-2314568Y-11257882D02*
X-2261194Y-11276063D01*
X-2261194Y-11276063D02*
X-2180498Y-11297419D01*
X-2180498Y-11297419D02*
X-2160958Y-11329144D01*
X-2160958Y-11329144D02*
X-2203537Y-11369179D01*
X-2203537Y-11369179D02*
X-2214651Y-11375406D01*
X-2214651Y-11375406D02*
X-2295440Y-11452442D01*
X-2295440Y-11452442D02*
X-2332205Y-11567316D01*
X-2332205Y-11567316D02*
X-2324321Y-11694063D01*
X-2324321Y-11694063D02*
X-2291952Y-11828457D01*
X-2291952Y-11828457D02*
X-2248127Y-11985602D01*
X-2248127Y-11985602D02*
X-2199992Y-12141831D01*
X-2199992Y-12141831D02*
X-2154690Y-12273481D01*
X-2154690Y-12273481D02*
X-2132610Y-12329063D01*
X-2132610Y-12329063D02*
X-2103868Y-12403867D01*
X-2103868Y-12403867D02*
X-2104830Y-12445479D01*
X-2104830Y-12445479D02*
X-2137061Y-12477631D01*
X-2137061Y-12477631D02*
X-2142675Y-12481675D01*
X-2142675Y-12481675D02*
X-2186269Y-12530676D01*
X-2186269Y-12530676D02*
X-2197286Y-12600698D01*
X-2197286Y-12600698D02*
X-2175696Y-12704181D01*
X-2175696Y-12704181D02*
X-2141881Y-12801303D01*
X-2141881Y-12801303D02*
X-2083979Y-12924357D01*
X-2083979Y-12924357D02*
X-2005924Y-13051180D01*
X-2005924Y-13051180D02*
X-1917860Y-13169157D01*
X-1917860Y-13169157D02*
X-1829933Y-13265675D01*
X-1829933Y-13265675D02*
X-1752289Y-13328118D01*
X-1752289Y-13328118D02*
X-1704558Y-13345062D01*
X-1704558Y-13345062D02*
X-1665973Y-13372088D01*
X-1665973Y-13372088D02*
X-1642749Y-13423343D01*
X-1642749Y-13423343D02*
X-1604869Y-13492682D01*
X-1604869Y-13492682D02*
X-1527770Y-13583715D01*
X-1527770Y-13583715D02*
X-1425463Y-13683515D01*
X-1425463Y-13683515D02*
X-1311962Y-13779155D01*
X-1311962Y-13779155D02*
X-1201278Y-13857709D01*
X-1201278Y-13857709D02*
X-1128685Y-13897572D01*
X-1128685Y-13897572D02*
X-1034103Y-13952142D01*
X-1034103Y-13952142D02*
X-995956Y-14007564D01*
X-995956Y-14007564D02*
X-994437Y-14022318D01*
X-994437Y-14022318D02*
X-985361Y-14099336D01*
X-985361Y-14099336D02*
X-965346Y-14184183D01*
X-965346Y-14184183D02*
X-897683Y-14406106D01*
X-897683Y-14406106D02*
X-839800Y-14583054D01*
X-839800Y-14583054D02*
X-785666Y-14731554D01*
X-785666Y-14731554D02*
X-729250Y-14868131D01*
X-729250Y-14868131D02*
X-664521Y-15009312D01*
X-664521Y-15009312D02*
X-663271Y-15011938D01*
X-663271Y-15011938D02*
X-577467Y-15212020D01*
X-577467Y-15212020D02*
X-501310Y-15427800D01*
X-501310Y-15427800D02*
X-436662Y-15649455D01*
X-436662Y-15649455D02*
X-385381Y-15867166D01*
X-385381Y-15867166D02*
X-349328Y-16071109D01*
X-349328Y-16071109D02*
X-330362Y-16251465D01*
X-330362Y-16251465D02*
X-330342Y-16398412D01*
X-330342Y-16398412D02*
X-351129Y-16502128D01*
X-351129Y-16502128D02*
X-374076Y-16539238D01*
X-374076Y-16539238D02*
X-406560Y-16591661D01*
X-406560Y-16591661D02*
X-390406Y-16632128D01*
X-390406Y-16632128D02*
X-371732Y-16686245D01*
X-371732Y-16686245D02*
X-383779Y-16777005D01*
X-383779Y-16777005D02*
X-390173Y-16802049D01*
X-390173Y-16802049D02*
X-425038Y-16903063D01*
X-425038Y-16903063D02*
X-458172Y-16946101D01*
X-458172Y-16946101D02*
X-486921Y-16929369D01*
X-486921Y-16929369D02*
X-503578Y-16878549D01*
X-503578Y-16878549D02*
X-530638Y-16779601D01*
X-530638Y-16779601D02*
X-555140Y-16710563D01*
X-555140Y-16710563D02*
X-606303Y-16574602D01*
X-606303Y-16574602D02*
X-660035Y-16407910D01*
X-660035Y-16407910D02*
X-720215Y-16198018D01*
X-720215Y-16198018D02*
X-756070Y-16064929D01*
X-756070Y-16064929D02*
X-838805Y-15752671D01*
X-838805Y-15752671D02*
X-710246Y-15613201D01*
X-710246Y-15613201D02*
X-627147Y-15516667D01*
X-627147Y-15516667D02*
X-589065Y-15452598D01*
X-589065Y-15452598D02*
X-592815Y-15412124D01*
X-592815Y-15412124D02*
X-629501Y-15388471D01*
X-629501Y-15388471D02*
X-681820Y-15399493D01*
X-681820Y-15399493D02*
X-761936Y-15455380D01*
X-761936Y-15455380D02*
X-811737Y-15500593D01*
X-811737Y-15500593D02*
X-887599Y-15570548D01*
X-887599Y-15570548D02*
X-946202Y-15617900D01*
X-946202Y-15617900D02*
X-970298Y-15631062D01*
X-970298Y-15631062D02*
X-988173Y-15658792D01*
X-988173Y-15658792D02*
X-993624Y-15728526D01*
X-993624Y-15728526D02*
X-987079Y-15820082D01*
X-987079Y-15820082D02*
X-968965Y-15913278D01*
X-968965Y-15913278D02*
X-963962Y-15930433D01*
X-963962Y-15930433D02*
X-853967Y-16285624D01*
X-853967Y-16285624D02*
X-763948Y-16583554D01*
X-763948Y-16583554D02*
X-693111Y-16826971D01*
X-693111Y-16826971D02*
X-640662Y-17018622D01*
X-640662Y-17018622D02*
X-605807Y-17161254D01*
X-605807Y-17161254D02*
X-599405Y-17191248D01*
X-599405Y-17191248D02*
X-570177Y-17260432D01*
X-570177Y-17260432D02*
X-534336Y-17293439D01*
X-534336Y-17293439D02*
X-464694Y-17299522D01*
X-464694Y-17299522D02*
X-408349Y-17273377D01*
X-408349Y-17273377D02*
X-391187Y-17237004D01*
X-391187Y-17237004D02*
X-378647Y-17186099D01*
X-378647Y-17186099D02*
X-347246Y-17104667D01*
X-347246Y-17104667D02*
X-333468Y-17073714D01*
X-333468Y-17073714D02*
X-287858Y-16974269D01*
X-287858Y-16974269D02*
X-247460Y-16885156D01*
X-247460Y-16885156D02*
X-240367Y-16869313D01*
X-240367Y-16869313D02*
X-219468Y-16828431D01*
X-219468Y-16828431D02*
X-208547Y-16832253D01*
X-208547Y-16832253D02*
X-203977Y-16888110D01*
X-203977Y-16888110D02*
X-202835Y-16945187D01*
X-202835Y-16945187D02*
X-190894Y-17060346D01*
X-190894Y-17060346D02*
X-161046Y-17129234D01*
X-161046Y-17129234D02*
X-154042Y-17135687D01*
X-154042Y-17135687D02*
X-133272Y-17154920D01*
X-133272Y-17154920D02*
X-123405Y-17181461D01*
X-123405Y-17181461D02*
X-125856Y-17226959D01*
X-125856Y-17226959D02*
X-142041Y-17303061D01*
X-142041Y-17303061D02*
X-173376Y-17421415D01*
X-173376Y-17421415D02*
X-200772Y-17520188D01*
X-200772Y-17520188D02*
X-224366Y-17611847D01*
X-224366Y-17611847D02*
X-255207Y-17741153D01*
X-255207Y-17741153D02*
X-287492Y-17883605D01*
X-287492Y-17883605D02*
X-294817Y-17917063D01*
X-294817Y-17917063D02*
X-331743Y-18086760D01*
X-331743Y-18086760D02*
X-372950Y-18275723D01*
X-372950Y-18275723D02*
X-409723Y-18443979D01*
X-409723Y-18443979D02*
X-410809Y-18448936D01*
X-410809Y-18448936D02*
X-437955Y-18578005D01*
X-437955Y-18578005D02*
X-450588Y-18660240D01*
X-450588Y-18660240D02*
X-448925Y-18710573D01*
X-448925Y-18710573D02*
X-433184Y-18743938D01*
X-433184Y-18743938D02*
X-415397Y-18763709D01*
X-415397Y-18763709D02*
X-366434Y-18798166D01*
X-366434Y-18798166D02*
X-321581Y-18782161D01*
X-321581Y-18782161D02*
X-313405Y-18775635D01*
X-313405Y-18775635D02*
X-272557Y-18728383D01*
X-272557Y-18728383D02*
X-264187Y-18704708D01*
X-264187Y-18704708D02*
X-246218Y-18660563D01*
X-246218Y-18660563D02*
X-200011Y-18583731D01*
X-200011Y-18583731D02*
X-137110Y-18491017D01*
X-137110Y-18491017D02*
X-69062Y-18399227D01*
X-69062Y-18399227D02*
X-7413Y-18325165D01*
X-7413Y-18325165D02*
X6958Y-18310065D01*
X6958Y-18310065D02*
X123355Y-18218354D01*
X123355Y-18218354D02*
X253893Y-18173371D01*
X253893Y-18173371D02*
X305001Y-18166309D01*
X305001Y-18166309D02*
X381095Y-18165273D01*
X381095Y-18165273D02*
X419804Y-18193317D01*
X419804Y-18193317D02*
X441406Y-18250438D01*
X441406Y-18250438D02*
X458479Y-18327939D01*
X458479Y-18327939D02*
X478255Y-18445243D01*
X478255Y-18445243D02*
X496855Y-18578995D01*
X496855Y-18578995D02*
X499383Y-18599688D01*
X499383Y-18599688D02*
X518333Y-18749765D01*
X518333Y-18749765D02*
X539194Y-18902281D01*
X539194Y-18902281D02*
X557555Y-19025016D01*
X557555Y-19025016D02*
X558088Y-19028313D01*
X558088Y-19028313D02*
X577843Y-19155050D01*
X577843Y-19155050D02*
X601784Y-19318082D01*
X601784Y-19318082D02*
X631054Y-19525410D01*
X631054Y-19525410D02*
X666795Y-19785038D01*
X666795Y-19785038D02*
X680477Y-19885563D01*
X680477Y-19885563D02*
X698105Y-19987789D01*
X698105Y-19987789D02*
X720040Y-20040922D01*
X720040Y-20040922D02*
X753443Y-20059303D01*
X753443Y-20059303D02*
X767688Y-20060188D01*
X767688Y-20060188D02*
X811479Y-20034056D01*
X811479Y-20034056D02*
X837434Y-19954861D01*
X837434Y-19954861D02*
X845471Y-19821405D01*
X845471Y-19821405D02*
X835508Y-19632487D01*
X835508Y-19632487D02*
X807460Y-19386908D01*
X807460Y-19386908D02*
X761246Y-19083469D01*
X761246Y-19083469D02*
X696782Y-18720970D01*
X696782Y-18720970D02*
X662717Y-18542975D01*
X662717Y-18542975D02*
X648062Y-18458383D01*
X648062Y-18458383D02*
X643160Y-18409200D01*
X643160Y-18409200D02*
X645697Y-18403613D01*
X645697Y-18403613D02*
X662213Y-18433396D01*
X662213Y-18433396D02*
X702956Y-18511101D01*
X702956Y-18511101D02*
X763463Y-18628001D01*
X763463Y-18628001D02*
X839270Y-18775369D01*
X839270Y-18775369D02*
X925914Y-18944478D01*
X925914Y-18944478D02*
X1018931Y-19126601D01*
X1018931Y-19126601D02*
X1113856Y-19313011D01*
X1113856Y-19313011D02*
X1206227Y-19494983D01*
X1206227Y-19494983D02*
X1291579Y-19663787D01*
X1291579Y-19663787D02*
X1365449Y-19810699D01*
X1365449Y-19810699D02*
X1367041Y-19813877D01*
X1367041Y-19813877D02*
X1402510Y-19868066D01*
X1402510Y-19868066D02*
X1426501Y-19885315D01*
X1426501Y-19885315D02*
X1449823Y-19909787D01*
X1449823Y-19909787D02*
X1450313Y-19915915D01*
X1450313Y-19915915D02*
X1465503Y-19957510D01*
X1465503Y-19957510D02*
X1504970Y-20034910D01*
X1504970Y-20034910D02*
X1550220Y-20114353D01*
X1550220Y-20114353D02*
X1625238Y-20243144D01*
X1625238Y-20243144D02*
X1706037Y-20385664D01*
X1706037Y-20385664D02*
X1745565Y-20457063D01*
X1745565Y-20457063D02*
X1806183Y-20564828D01*
X1806183Y-20564828D02*
X1863419Y-20661420D01*
X1863419Y-20661420D02*
X1895022Y-20711063D01*
X1895022Y-20711063D02*
X1926756Y-20773767D01*
X1926756Y-20773767D02*
X1970059Y-20880829D01*
X1970059Y-20880829D02*
X2018549Y-21015692D01*
X2018549Y-21015692D02*
X2054070Y-21123813D01*
X2054070Y-21123813D02*
X2120241Y-21313186D01*
X2120241Y-21313186D02*
X2184995Y-21459506D01*
X2184995Y-21459506D02*
X2245125Y-21556725D01*
X2245125Y-21556725D02*
X2297421Y-21598798D01*
X2297421Y-21598798D02*
X2306748Y-21600063D01*
X2306748Y-21600063D02*
X2343688Y-21580470D01*
X2343688Y-21580470D02*
X2364713Y-21561963D01*
X2364713Y-21561963D02*
X2396860Y-21499976D01*
X2396860Y-21499976D02*
X2395843Y-21406739D01*
X2395843Y-21406739D02*
X2360413Y-21276393D01*
X2360413Y-21276393D02*
X2289323Y-21103083D01*
X2289323Y-21103083D02*
X2248334Y-21015662D01*
X2248334Y-21015662D02*
X2179879Y-20871754D01*
X2179879Y-20871754D02*
X2122470Y-20745389D01*
X2122470Y-20745389D02*
X2069748Y-20621001D01*
X2069748Y-20621001D02*
X2015353Y-20483019D01*
X2015353Y-20483019D02*
X1952926Y-20315878D01*
X1952926Y-20315878D02*
X1877475Y-20107813D01*
X1877475Y-20107813D02*
X1832471Y-19980813D01*
X1832471Y-19980813D02*
X1672563Y-19980813D01*
X1672563Y-19980813D02*
X1660947Y-20006946D01*
X1660947Y-20006946D02*
X1651397Y-20001979D01*
X1651397Y-20001979D02*
X1647597Y-19964299D01*
X1647597Y-19964299D02*
X1651397Y-19959646D01*
X1651397Y-19959646D02*
X1670272Y-19964004D01*
X1670272Y-19964004D02*
X1672563Y-19980813D01*
X1672563Y-19980813D02*
X1832471Y-19980813D01*
X1832471Y-19980813D02*
X1808027Y-19911831D01*
X1808027Y-19911831D02*
X1636813Y-19911831D01*
X1636813Y-19911831D02*
X1621584Y-19906433D01*
X1621584Y-19906433D02*
X1585865Y-19860586D01*
X1585865Y-19860586D02*
X1535594Y-19781382D01*
X1535594Y-19781382D02*
X1500864Y-19720702D01*
X1500864Y-19720702D02*
X1433185Y-19549249D01*
X1433185Y-19549249D02*
X1419654Y-19434952D01*
X1419654Y-19434952D02*
X1421055Y-19371363D01*
X1421055Y-19371363D02*
X1426771Y-19346159D01*
X1426771Y-19346159D02*
X1441009Y-19364746D01*
X1441009Y-19364746D02*
X1467973Y-19432528D01*
X1467973Y-19432528D02*
X1510906Y-19552188D01*
X1510906Y-19552188D02*
X1555573Y-19677371D01*
X1555573Y-19677371D02*
X1594594Y-19785575D01*
X1594594Y-19785575D02*
X1621200Y-19858058D01*
X1621200Y-19858058D02*
X1625613Y-19869688D01*
X1625613Y-19869688D02*
X1636813Y-19911831D01*
X1636813Y-19911831D02*
X1808027Y-19911831D01*
X1808027Y-19911831D02*
X1759796Y-19775727D01*
X1759796Y-19775727D02*
X1665412Y-19497878D01*
X1665412Y-19497878D02*
X1593004Y-19269967D01*
X1593004Y-19269967D02*
X1592003Y-19266438D01*
X1592003Y-19266438D02*
X1418563Y-19266438D01*
X1418563Y-19266438D02*
X1402688Y-19282313D01*
X1402688Y-19282313D02*
X1386813Y-19266438D01*
X1386813Y-19266438D02*
X1402688Y-19250563D01*
X1402688Y-19250563D02*
X1418563Y-19266438D01*
X1418563Y-19266438D02*
X1592003Y-19266438D01*
X1592003Y-19266438D02*
X1559327Y-19151349D01*
X1559327Y-19151349D02*
X1251564Y-19151349D01*
X1251564Y-19151349D02*
X1228305Y-19136131D01*
X1228305Y-19136131D02*
X1224124Y-19132029D01*
X1224124Y-19132029D02*
X1199045Y-19090401D01*
X1199045Y-19090401D02*
X1202445Y-19075097D01*
X1202445Y-19075097D02*
X1226063Y-19084625D01*
X1226063Y-19084625D02*
X1241897Y-19114256D01*
X1241897Y-19114256D02*
X1251564Y-19151349D01*
X1251564Y-19151349D02*
X1559327Y-19151349D01*
X1559327Y-19151349D02*
X1541254Y-19087697D01*
X1541254Y-19087697D02*
X1516644Y-18980688D01*
X1516644Y-18980688D02*
X1355063Y-18980688D01*
X1355063Y-18980688D02*
X1339188Y-18996563D01*
X1339188Y-18996563D02*
X1323313Y-18980688D01*
X1323313Y-18980688D02*
X1337315Y-18966686D01*
X1337315Y-18966686D02*
X1196313Y-18966686D01*
X1196313Y-18966686D02*
X1186110Y-18995534D01*
X1186110Y-18995534D02*
X1162697Y-18970368D01*
X1162697Y-18970368D02*
X1152449Y-18947288D01*
X1152449Y-18947288D02*
X1150230Y-18914514D01*
X1150230Y-18914514D02*
X1164927Y-18917412D01*
X1164927Y-18917412D02*
X1195185Y-18958063D01*
X1195185Y-18958063D02*
X1196313Y-18966686D01*
X1196313Y-18966686D02*
X1337315Y-18966686D01*
X1337315Y-18966686D02*
X1339188Y-18964813D01*
X1339188Y-18964813D02*
X1355063Y-18980688D01*
X1355063Y-18980688D02*
X1516644Y-18980688D01*
X1516644Y-18980688D02*
X1508843Y-18946769D01*
X1508843Y-18946769D02*
X1496461Y-18865883D01*
X1496461Y-18865883D02*
X1474991Y-18663188D01*
X1474991Y-18663188D02*
X1556564Y-18774313D01*
X1556564Y-18774313D02*
X1615244Y-18850824D01*
X1615244Y-18850824D02*
X1662848Y-18907110D01*
X1662848Y-18907110D02*
X1672821Y-18917188D01*
X1672821Y-18917188D02*
X1721219Y-18965092D01*
X1721219Y-18965092D02*
X1761473Y-19007600D01*
X1761473Y-19007600D02*
X1807244Y-19056533D01*
X1807244Y-19056533D02*
X1883410Y-19137131D01*
X1883410Y-19137131D02*
X1976495Y-19235153D01*
X1976495Y-19235153D02*
X2016807Y-19277475D01*
X2016807Y-19277475D02*
X2112548Y-19380123D01*
X2112548Y-19380123D02*
X2195860Y-19473458D01*
X2195860Y-19473458D02*
X2253481Y-19542466D01*
X2253481Y-19542466D02*
X2266521Y-19560125D01*
X2266521Y-19560125D02*
X2326702Y-19622100D01*
X2326702Y-19622100D02*
X2377450Y-19627254D01*
X2377450Y-19627254D02*
X2412059Y-19582208D01*
X2412059Y-19582208D02*
X2423823Y-19493583D01*
X2423823Y-19493583D02*
X2415561Y-19412988D01*
X2415561Y-19412988D02*
X2376876Y-19230495D01*
X2376876Y-19230495D02*
X2372601Y-19214491D01*
X2372601Y-19214491D02*
X2207652Y-19214491D01*
X2207652Y-19214491D02*
X2190535Y-19227871D01*
X2190535Y-19227871D02*
X2145114Y-19191024D01*
X2145114Y-19191024D02*
X2112099Y-19155313D01*
X2112099Y-19155313D02*
X2031314Y-19064634D01*
X2031314Y-19064634D02*
X1936580Y-18959116D01*
X1936580Y-18959116D02*
X1890779Y-18908400D01*
X1890779Y-18908400D02*
X1817192Y-18818931D01*
X1817192Y-18818931D02*
X1780216Y-18744426D01*
X1780216Y-18744426D02*
X1768258Y-18658517D01*
X1768258Y-18658517D02*
X1767813Y-18628714D01*
X1767813Y-18628714D02*
X1772470Y-18541817D01*
X1772470Y-18541817D02*
X1788498Y-18509020D01*
X1788498Y-18509020D02*
X1818980Y-18531759D01*
X1818980Y-18531759D02*
X1867003Y-18611466D01*
X1867003Y-18611466D02*
X1908997Y-18694323D01*
X1908997Y-18694323D02*
X1976187Y-18810710D01*
X1976187Y-18810710D02*
X2033472Y-18865196D01*
X2033472Y-18865196D02*
X2052244Y-18869563D01*
X2052244Y-18869563D02*
X2097741Y-18892752D01*
X2097741Y-18892752D02*
X2139760Y-18967541D01*
X2139760Y-18967541D02*
X2161034Y-19026341D01*
X2161034Y-19026341D02*
X2197479Y-19148207D01*
X2197479Y-19148207D02*
X2207652Y-19214491D01*
X2207652Y-19214491D02*
X2372601Y-19214491D01*
X2372601Y-19214491D02*
X2325130Y-19036811D01*
X2325130Y-19036811D02*
X2266809Y-18853291D01*
X2266809Y-18853291D02*
X2208397Y-18701286D01*
X2208397Y-18701286D02*
X2183019Y-18647313D01*
X2183019Y-18647313D02*
X2162048Y-18591051D01*
X2162048Y-18591051D02*
X2134312Y-18497275D01*
X2134312Y-18497275D02*
X2115500Y-18425063D01*
X2115500Y-18425063D02*
X2090795Y-18344111D01*
X2090795Y-18344111D02*
X1894813Y-18344111D01*
X1894813Y-18344111D02*
X1882965Y-18362107D01*
X1882965Y-18362107D02*
X1867799Y-18345688D01*
X1867799Y-18345688D02*
X1638532Y-18345688D01*
X1638532Y-18345688D02*
X1636328Y-18472688D01*
X1636328Y-18472688D02*
X1591592Y-18371564D01*
X1591592Y-18371564D02*
X1443228Y-18371564D01*
X1443228Y-18371564D02*
X1426008Y-18390448D01*
X1426008Y-18390448D02*
X1389691Y-18401762D01*
X1389691Y-18401762D02*
X1386813Y-18402512D01*
X1386813Y-18402512D02*
X1354617Y-18417498D01*
X1354617Y-18417498D02*
X1335533Y-18450825D01*
X1335533Y-18450825D02*
X1326236Y-18516318D01*
X1326236Y-18516318D02*
X1323402Y-18627803D01*
X1323402Y-18627803D02*
X1323313Y-18666565D01*
X1323313Y-18666565D02*
X1320372Y-18777976D01*
X1320372Y-18777976D02*
X1312557Y-18855277D01*
X1312557Y-18855277D02*
X1301376Y-18885629D01*
X1301376Y-18885629D02*
X1297750Y-18883850D01*
X1297750Y-18883850D02*
X1276017Y-18840377D01*
X1276017Y-18840377D02*
X1242647Y-18754033D01*
X1242647Y-18754033D02*
X1204501Y-18642694D01*
X1204501Y-18642694D02*
X1200869Y-18631438D01*
X1200869Y-18631438D02*
X1144159Y-18460857D01*
X1144159Y-18460857D02*
X1136708Y-18440938D01*
X1136708Y-18440938D02*
X852133Y-18440938D01*
X852133Y-18440938D02*
X736221Y-18210750D01*
X736221Y-18210750D02*
X675938Y-18095515D01*
X675938Y-18095515D02*
X631328Y-18026555D01*
X631328Y-18026555D02*
X591881Y-17992291D01*
X591881Y-17992291D02*
X547091Y-17981145D01*
X547091Y-17981145D02*
X527311Y-17980563D01*
X527311Y-17980563D02*
X465015Y-17968439D01*
X465015Y-17968439D02*
X436340Y-17926793D01*
X436340Y-17926793D02*
X440390Y-17847714D01*
X440390Y-17847714D02*
X476271Y-17723289D01*
X476271Y-17723289D02*
X492892Y-17676526D01*
X492892Y-17676526D02*
X547416Y-17535469D01*
X547416Y-17535469D02*
X587737Y-17451410D01*
X587737Y-17451410D02*
X616457Y-17420110D01*
X616457Y-17420110D02*
X636173Y-17437332D01*
X636173Y-17437332D02*
X637487Y-17440813D01*
X637487Y-17440813D02*
X726744Y-17705998D01*
X726744Y-17705998D02*
X788591Y-17924501D01*
X788591Y-17924501D02*
X825446Y-18105697D01*
X825446Y-18105697D02*
X837886Y-18218688D01*
X837886Y-18218688D02*
X852133Y-18440938D01*
X852133Y-18440938D02*
X1136708Y-18440938D01*
X1136708Y-18440938D02*
X1096921Y-18334591D01*
X1096921Y-18334591D02*
X1052470Y-18235543D01*
X1052470Y-18235543D02*
X1027042Y-18186938D01*
X1027042Y-18186938D02*
X1012155Y-18130670D01*
X1012155Y-18130670D02*
X998380Y-18026515D01*
X998380Y-18026515D02*
X987380Y-17890082D01*
X987380Y-17890082D02*
X981392Y-17758313D01*
X981392Y-17758313D02*
X970605Y-17393188D01*
X970605Y-17393188D02*
X1076394Y-17511665D01*
X1076394Y-17511665D02*
X1119519Y-17562698D01*
X1119519Y-17562698D02*
X1156547Y-17615740D01*
X1156547Y-17615740D02*
X1192581Y-17681556D01*
X1192581Y-17681556D02*
X1232728Y-17770913D01*
X1232728Y-17770913D02*
X1282093Y-17894578D01*
X1282093Y-17894578D02*
X1345779Y-18063317D01*
X1345779Y-18063317D02*
X1373938Y-18139175D01*
X1373938Y-18139175D02*
X1417830Y-18258959D01*
X1417830Y-18258959D02*
X1440715Y-18332078D01*
X1440715Y-18332078D02*
X1443228Y-18371564D01*
X1443228Y-18371564D02*
X1591592Y-18371564D01*
X1591592Y-18371564D02*
X1580144Y-18345688D01*
X1580144Y-18345688D02*
X1538175Y-18240773D01*
X1538175Y-18240773D02*
X1505230Y-18141437D01*
X1505230Y-18141437D02*
X1500422Y-18123438D01*
X1500422Y-18123438D02*
X1476885Y-18028188D01*
X1476885Y-18028188D02*
X1558810Y-18123438D01*
X1558810Y-18123438D02*
X1622651Y-18228446D01*
X1622651Y-18228446D02*
X1638532Y-18345688D01*
X1638532Y-18345688D02*
X1867799Y-18345688D01*
X1867799Y-18345688D02*
X1851312Y-18327840D01*
X1851312Y-18327840D02*
X1813913Y-18263362D01*
X1813913Y-18263362D02*
X1784141Y-18193871D01*
X1784141Y-18193871D02*
X1777502Y-18151802D01*
X1777502Y-18151802D02*
X1779006Y-18149286D01*
X1779006Y-18149286D02*
X1800271Y-18164290D01*
X1800271Y-18164290D02*
X1835146Y-18214442D01*
X1835146Y-18214442D02*
X1870336Y-18277373D01*
X1870336Y-18277373D02*
X1892543Y-18330716D01*
X1892543Y-18330716D02*
X1894813Y-18344111D01*
X1894813Y-18344111D02*
X2090795Y-18344111D01*
X2090795Y-18344111D02*
X2081314Y-18313048D01*
X2081314Y-18313048D02*
X2040619Y-18216414D01*
X2040619Y-18216414D02*
X2017211Y-18177016D01*
X2017211Y-18177016D02*
X1971385Y-18100686D01*
X1971385Y-18100686D02*
X1932344Y-18010027D01*
X1932344Y-18010027D02*
X1907364Y-17926096D01*
X1907364Y-17926096D02*
X1903721Y-17869952D01*
X1903721Y-17869952D02*
X1908150Y-17861393D01*
X1908150Y-17861393D02*
X1937417Y-17873590D01*
X1937417Y-17873590D02*
X1998800Y-17922969D01*
X1998800Y-17922969D02*
X2081181Y-18000204D01*
X2081181Y-18000204D02*
X2118824Y-18038145D01*
X2118824Y-18038145D02*
X2233012Y-18149084D01*
X2233012Y-18149084D02*
X2315722Y-18212613D01*
X2315722Y-18212613D02*
X2373404Y-18232251D01*
X2373404Y-18232251D02*
X2412510Y-18211516D01*
X2412510Y-18211516D02*
X2419201Y-18201984D01*
X2419201Y-18201984D02*
X2422084Y-18150307D01*
X2422084Y-18150307D02*
X2402515Y-18056713D01*
X2402515Y-18056713D02*
X2365702Y-17936445D01*
X2365702Y-17936445D02*
X2316851Y-17804745D01*
X2316851Y-17804745D02*
X2261169Y-17676856D01*
X2261169Y-17676856D02*
X2203863Y-17568021D01*
X2203863Y-17568021D02*
X2201037Y-17563334D01*
X2201037Y-17563334D02*
X2137586Y-17458279D01*
X2137586Y-17458279D02*
X2080965Y-17363469D01*
X2080965Y-17363469D02*
X2051796Y-17313813D01*
X2051796Y-17313813D02*
X2013390Y-17251005D01*
X2013390Y-17251005D02*
X1990063Y-17218563D01*
X1990063Y-17218563D02*
X1963369Y-17186460D01*
X1963369Y-17186460D02*
X1911125Y-17120264D01*
X1911125Y-17120264D02*
X1864301Y-17059813D01*
X1864301Y-17059813D02*
X1776698Y-16951629D01*
X1776698Y-16951629D02*
X1674407Y-16833227D01*
X1674407Y-16833227D02*
X1620192Y-16773743D01*
X1620192Y-16773743D02*
X1529048Y-16672900D01*
X1529048Y-16672900D02*
X1440383Y-16569055D01*
X1440383Y-16569055D02*
X1396704Y-16514659D01*
X1396704Y-16514659D02*
X1307865Y-16416230D01*
X1307865Y-16416230D02*
X1220873Y-16348290D01*
X1220873Y-16348290D02*
X1145577Y-16315029D01*
X1145577Y-16315029D02*
X1091821Y-16320639D01*
X1091821Y-16320639D02*
X1069452Y-16369310D01*
X1069452Y-16369310D02*
X1069313Y-16375303D01*
X1069313Y-16375303D02*
X1090381Y-16414891D01*
X1090381Y-16414891D02*
X1146983Y-16486800D01*
X1146983Y-16486800D02*
X1229216Y-16578988D01*
X1229216Y-16578988D02*
X1283626Y-16635856D01*
X1283626Y-16635856D02*
X1399051Y-16756831D01*
X1399051Y-16756831D02*
X1517198Y-16885993D01*
X1517198Y-16885993D02*
X1617225Y-17000420D01*
X1617225Y-17000420D02*
X1640671Y-17028553D01*
X1640671Y-17028553D02*
X1717907Y-17121875D01*
X1717907Y-17121875D02*
X1783437Y-17199444D01*
X1783437Y-17199444D02*
X1823129Y-17244533D01*
X1823129Y-17244533D02*
X1823233Y-17244643D01*
X1823233Y-17244643D02*
X1857466Y-17294048D01*
X1857466Y-17294048D02*
X1863063Y-17313813D01*
X1863063Y-17313813D02*
X1882936Y-17357284D01*
X1882936Y-17357284D02*
X1904296Y-17382982D01*
X1904296Y-17382982D02*
X1944149Y-17434649D01*
X1944149Y-17434649D02*
X1995969Y-17515939D01*
X1995969Y-17515939D02*
X2050650Y-17610411D01*
X2050650Y-17610411D02*
X2099084Y-17701626D01*
X2099084Y-17701626D02*
X2132166Y-17773141D01*
X2132166Y-17773141D02*
X2140789Y-17808515D01*
X2140789Y-17808515D02*
X2140333Y-17809126D01*
X2140333Y-17809126D02*
X2109069Y-17800584D01*
X2109069Y-17800584D02*
X2049875Y-17760534D01*
X2049875Y-17760534D02*
X2029154Y-17743742D01*
X2029154Y-17743742D02*
X1945210Y-17690515D01*
X1945210Y-17690515D02*
X1862556Y-17663796D01*
X1862556Y-17663796D02*
X1850543Y-17663063D01*
X1850543Y-17663063D02*
X1800119Y-17668292D01*
X1800119Y-17668292D02*
X1775858Y-17695219D01*
X1775858Y-17695219D02*
X1768293Y-17760698D01*
X1768293Y-17760698D02*
X1767813Y-17810375D01*
X1767813Y-17810375D02*
X1755195Y-17917198D01*
X1755195Y-17917198D02*
X1722424Y-17991454D01*
X1722424Y-17991454D02*
X1677128Y-18022907D01*
X1677128Y-18022907D02*
X1626933Y-18001322D01*
X1626933Y-18001322D02*
X1626144Y-18000502D01*
X1626144Y-18000502D02*
X1546195Y-17905367D01*
X1546195Y-17905367D02*
X1448812Y-17773068D01*
X1448812Y-17773068D02*
X1346659Y-17622354D01*
X1346659Y-17622354D02*
X1252397Y-17471975D01*
X1252397Y-17471975D02*
X1178689Y-17340681D01*
X1178689Y-17340681D02*
X1173126Y-17329703D01*
X1173126Y-17329703D02*
X1129353Y-17242310D01*
X1129353Y-17242310D02*
X877530Y-17242310D01*
X877530Y-17242310D02*
X829032Y-17615438D01*
X829032Y-17615438D02*
X782762Y-17462155D01*
X782762Y-17462155D02*
X732841Y-17334298D01*
X732841Y-17334298D02*
X677569Y-17269372D01*
X677569Y-17269372D02*
X614246Y-17266862D01*
X614246Y-17266862D02*
X540174Y-17326254D01*
X540174Y-17326254D02*
X480364Y-17404559D01*
X480364Y-17404559D02*
X402563Y-17519053D01*
X402563Y-17519053D02*
X402563Y-17273558D01*
X402563Y-17273558D02*
X400855Y-17148750D01*
X400855Y-17148750D02*
X393768Y-17074715D01*
X393768Y-17074715D02*
X378357Y-17038772D01*
X378357Y-17038772D02*
X351677Y-17028239D01*
X351677Y-17028239D02*
X345557Y-17028063D01*
X345557Y-17028063D02*
X305308Y-17050527D01*
X305308Y-17050527D02*
X251464Y-17121039D01*
X251464Y-17121039D02*
X180769Y-17244283D01*
X180769Y-17244283D02*
X139435Y-17324455D01*
X139435Y-17324455D02*
X49048Y-17515901D01*
X49048Y-17515901D02*
X-9055Y-17665249D01*
X-9055Y-17665249D02*
X-34882Y-17770252D01*
X-34882Y-17770252D02*
X-28439Y-17828666D01*
X-28439Y-17828666D02*
X10267Y-17838244D01*
X10267Y-17838244D02*
X81229Y-17796741D01*
X81229Y-17796741D02*
X140707Y-17745048D01*
X140707Y-17745048D02*
X209504Y-17675597D01*
X209504Y-17675597D02*
X237105Y-17629390D01*
X237105Y-17629390D02*
X231185Y-17589127D01*
X231185Y-17589127D02*
X219327Y-17567850D01*
X219327Y-17567850D02*
X195864Y-17508460D01*
X195864Y-17508460D02*
X211480Y-17444874D01*
X211480Y-17444874D02*
X225993Y-17416351D01*
X225993Y-17416351D02*
X251903Y-17371820D01*
X251903Y-17371820D02*
X265853Y-17365456D01*
X265853Y-17365456D02*
X271388Y-17405267D01*
X271388Y-17405267D02*
X272050Y-17499263D01*
X272050Y-17499263D02*
X271939Y-17520188D01*
X271939Y-17520188D02*
X268181Y-17697077D01*
X268181Y-17697077D02*
X255318Y-17824839D01*
X255318Y-17824839D02*
X227452Y-17917767D01*
X227452Y-17917767D02*
X178683Y-17990152D01*
X178683Y-17990152D02*
X103113Y-18056286D01*
X103113Y-18056286D02*
X29501Y-18107585D01*
X29501Y-18107585D02*
X-66692Y-18176007D01*
X-66692Y-18176007D02*
X-138300Y-18235139D01*
X-138300Y-18235139D02*
X-171737Y-18273602D01*
X-171737Y-18273602D02*
X-172620Y-18276877D01*
X-172620Y-18276877D02*
X-181450Y-18282712D01*
X-181450Y-18282712D02*
X-191837Y-18253106D01*
X-191837Y-18253106D02*
X-193856Y-18182355D01*
X-193856Y-18182355D02*
X-178238Y-18089870D01*
X-178238Y-18089870D02*
X-175171Y-18078481D01*
X-175171Y-18078481D02*
X-149439Y-17979733D01*
X-149439Y-17979733D02*
X-119910Y-17855480D01*
X-119910Y-17855480D02*
X-105375Y-17790063D01*
X-105375Y-17790063D02*
X-78673Y-17672466D01*
X-78673Y-17672466D02*
X-51994Y-17564962D01*
X-51994Y-17564962D02*
X-39681Y-17520188D01*
X-39681Y-17520188D02*
X6221Y-17369655D01*
X6221Y-17369655D02*
X54525Y-17219578D01*
X54525Y-17219578D02*
X99729Y-17086322D01*
X99729Y-17086322D02*
X136329Y-16986252D01*
X136329Y-16986252D02*
X153779Y-16944923D01*
X153779Y-16944923D02*
X177839Y-16855920D01*
X177839Y-16855920D02*
X163836Y-16788827D01*
X163836Y-16788827D02*
X123914Y-16753477D01*
X123914Y-16753477D02*
X70219Y-16759703D01*
X70219Y-16759703D02*
X14895Y-16817341D01*
X14895Y-16817341D02*
X8989Y-16827688D01*
X8989Y-16827688D02*
X-39394Y-16916938D01*
X-39394Y-16916938D02*
X-40665Y-16783874D01*
X-40665Y-16783874D02*
X-35057Y-16697149D01*
X-35057Y-16697149D02*
X-19487Y-16640688D01*
X-19487Y-16640688D02*
X-12642Y-16632705D01*
X-12642Y-16632705D02*
X44974Y-16611017D01*
X44974Y-16611017D02*
X133058Y-16591453D01*
X133058Y-16591453D02*
X230003Y-16577037D01*
X230003Y-16577037D02*
X314200Y-16570793D01*
X314200Y-16570793D02*
X364041Y-16575746D01*
X364041Y-16575746D02*
X368758Y-16579322D01*
X368758Y-16579322D02*
X429842Y-16667116D01*
X429842Y-16667116D02*
X528996Y-16799207D01*
X528996Y-16799207D02*
X663148Y-16971524D01*
X663148Y-16971524D02*
X695609Y-17012605D01*
X695609Y-17012605D02*
X877530Y-17242310D01*
X877530Y-17242310D02*
X1129353Y-17242310D01*
X1129353Y-17242310D02*
X1113695Y-17211049D01*
X1113695Y-17211049D02*
X1074480Y-17137615D01*
X1074480Y-17137615D02*
X1046400Y-17098282D01*
X1046400Y-17098282D02*
X1020374Y-17081934D01*
X1020374Y-17081934D02*
X987323Y-17077451D01*
X987323Y-17077451D02*
X966110Y-17076237D01*
X966110Y-17076237D02*
X900735Y-17044612D01*
X900735Y-17044612D02*
X812345Y-16956217D01*
X812345Y-16956217D02*
X741580Y-16867231D01*
X741580Y-16867231D02*
X662279Y-16762064D01*
X662279Y-16762064D02*
X592066Y-16670082D01*
X592066Y-16670082D02*
X544169Y-16608596D01*
X544169Y-16608596D02*
X538930Y-16602092D01*
X538930Y-16602092D02*
X507052Y-16552714D01*
X507052Y-16552714D02*
X522173Y-16518783D01*
X522173Y-16518783D02*
X547294Y-16498904D01*
X547294Y-16498904D02*
X606079Y-16463006D01*
X606079Y-16463006D02*
X650609Y-16468034D01*
X650609Y-16468034D02*
X706139Y-16512125D01*
X706139Y-16512125D02*
X761907Y-16560332D01*
X761907Y-16560332D02*
X848061Y-16632517D01*
X848061Y-16632517D02*
X942313Y-16710074D01*
X942313Y-16710074D02*
X1048219Y-16800027D01*
X1048219Y-16800027D02*
X1149216Y-16891747D01*
X1149216Y-16891747D02*
X1214443Y-16956137D01*
X1214443Y-16956137D02*
X1299249Y-17033410D01*
X1299249Y-17033410D02*
X1356308Y-17056192D01*
X1356308Y-17056192D02*
X1384168Y-17024157D01*
X1384168Y-17024157D02*
X1386813Y-16994869D01*
X1386813Y-16994869D02*
X1378307Y-16950528D01*
X1378307Y-16950528D02*
X1347802Y-16900124D01*
X1347802Y-16900124D02*
X1287820Y-16835457D01*
X1287820Y-16835457D02*
X1190883Y-16748323D01*
X1190883Y-16748323D02*
X1069696Y-16647063D01*
X1069696Y-16647063D02*
X974174Y-16568549D01*
X974174Y-16568549D02*
X892010Y-16500857D01*
X892010Y-16500857D02*
X841656Y-16459190D01*
X841656Y-16459190D02*
X816613Y-16431303D01*
X816613Y-16431303D02*
X825508Y-16406146D01*
X825508Y-16406146D02*
X877259Y-16373906D01*
X877259Y-16373906D02*
X896686Y-16364583D01*
X896686Y-16364583D02*
X467105Y-16364583D01*
X467105Y-16364583D02*
X459432Y-16369822D01*
X459432Y-16369822D02*
X397134Y-16370696D01*
X397134Y-16370696D02*
X371060Y-16322042D01*
X371060Y-16322042D02*
X370813Y-16314460D01*
X370813Y-16314460D02*
X345857Y-16264380D01*
X345857Y-16264380D02*
X331126Y-16255340D01*
X331126Y-16255340D02*
X313591Y-16240053D01*
X313591Y-16240053D02*
X326268Y-16236819D01*
X326268Y-16236819D02*
X374585Y-16251109D01*
X374585Y-16251109D02*
X425555Y-16288544D01*
X425555Y-16288544D02*
X462091Y-16332058D01*
X462091Y-16332058D02*
X467105Y-16364583D01*
X467105Y-16364583D02*
X896686Y-16364583D01*
X896686Y-16364583D02*
X951585Y-16338238D01*
X951585Y-16338238D02*
X1044801Y-16291320D01*
X1044801Y-16291320D02*
X1112677Y-16250255D01*
X1112677Y-16250255D02*
X1135079Y-16230647D01*
X1135079Y-16230647D02*
X1168481Y-16231149D01*
X1168481Y-16231149D02*
X1238203Y-16258859D01*
X1238203Y-16258859D02*
X1328167Y-16305119D01*
X1328167Y-16305119D02*
X1422293Y-16361269D01*
X1422293Y-16361269D02*
X1504500Y-16418653D01*
X1504500Y-16418653D02*
X1539894Y-16448625D01*
X1539894Y-16448625D02*
X1589345Y-16482756D01*
X1589345Y-16482756D02*
X1609063Y-16488312D01*
X1609063Y-16488312D02*
X1652456Y-16508238D01*
X1652456Y-16508238D02*
X1678233Y-16529771D01*
X1678233Y-16529771D02*
X1729890Y-16568766D01*
X1729890Y-16568766D02*
X1813950Y-16621194D01*
X1813950Y-16621194D02*
X1862884Y-16648834D01*
X1862884Y-16648834D02*
X1955975Y-16700284D01*
X1955975Y-16700284D02*
X2019107Y-16739278D01*
X2019107Y-16739278D02*
X2078332Y-16783273D01*
X2078332Y-16783273D02*
X2146776Y-16839055D01*
X2146776Y-16839055D02*
X2205470Y-16879800D01*
X2205470Y-16879800D02*
X2244500Y-16878215D01*
X2244500Y-16878215D02*
X2268938Y-16858045D01*
X2268938Y-16858045D02*
X2296934Y-16803614D01*
X2296934Y-16803614D02*
X2280352Y-16750794D01*
X2280352Y-16750794D02*
X2257069Y-16696294D01*
X2257069Y-16696294D02*
X2219600Y-16596481D01*
X2219600Y-16596481D02*
X2188564Y-16509015D01*
X2188564Y-16509015D02*
X2021813Y-16509015D01*
X2021813Y-16509015D02*
X1996740Y-16532334D01*
X1996740Y-16532334D02*
X1958313Y-16529262D01*
X1958313Y-16529262D02*
X1906843Y-16504131D01*
X1906843Y-16504131D02*
X1894813Y-16484609D01*
X1894813Y-16484609D02*
X1870666Y-16457235D01*
X1870666Y-16457235D02*
X1863954Y-16456563D01*
X1863954Y-16456563D02*
X1826087Y-16440062D01*
X1826087Y-16440062D02*
X1748000Y-16395471D01*
X1748000Y-16395471D02*
X1642150Y-16330159D01*
X1642150Y-16330159D02*
X1552932Y-16272598D01*
X1552932Y-16272598D02*
X1425084Y-16190900D01*
X1425084Y-16190900D02*
X1391559Y-16170599D01*
X1391559Y-16170599D02*
X938526Y-16170599D01*
X938526Y-16170599D02*
X917219Y-16198775D01*
X917219Y-16198775D02*
X884161Y-16202563D01*
X884161Y-16202563D02*
X821941Y-16216398D01*
X821941Y-16216398D02*
X799438Y-16234313D01*
X799438Y-16234313D02*
X760990Y-16254005D01*
X760990Y-16254005D02*
X692690Y-16264337D01*
X692690Y-16264337D02*
X620444Y-16264444D01*
X620444Y-16264444D02*
X570163Y-16253464D01*
X570163Y-16253464D02*
X561257Y-16242250D01*
X561257Y-16242250D02*
X535687Y-16210274D01*
X535687Y-16210274D02*
X471935Y-16162945D01*
X471935Y-16162945D02*
X389296Y-16111909D01*
X389296Y-16111909D02*
X307061Y-16068813D01*
X307061Y-16068813D02*
X244524Y-16045305D01*
X244524Y-16045305D02*
X232547Y-16043813D01*
X232547Y-16043813D02*
X197011Y-16060544D01*
X197011Y-16060544D02*
X181926Y-16119632D01*
X181926Y-16119632D02*
X180313Y-16168939D01*
X180313Y-16168939D02*
X187694Y-16253480D01*
X187694Y-16253480D02*
X206025Y-16307670D01*
X206025Y-16307670D02*
X212063Y-16313688D01*
X212063Y-16313688D02*
X242511Y-16353379D01*
X242511Y-16353379D02*
X211372Y-16393755D01*
X211372Y-16393755D02*
X156501Y-16419660D01*
X156501Y-16419660D02*
X45136Y-16450060D01*
X45136Y-16450060D02*
X-22528Y-16445292D01*
X-22528Y-16445292D02*
X-41937Y-16412825D01*
X-41937Y-16412825D02*
X-64307Y-16356325D01*
X-64307Y-16356325D02*
X-86343Y-16332234D01*
X-86343Y-16332234D02*
X-119889Y-16277757D01*
X-119889Y-16277757D02*
X-144352Y-16192070D01*
X-144352Y-16192070D02*
X-146596Y-16177534D01*
X-146596Y-16177534D02*
X-167400Y-16061314D01*
X-167400Y-16061314D02*
X-194913Y-15948563D01*
X-194913Y-15948563D02*
X-220047Y-15857609D01*
X-220047Y-15857609D02*
X-252222Y-15734688D01*
X-252222Y-15734688D02*
X-278338Y-15631063D01*
X-278338Y-15631063D02*
X-323100Y-15455970D01*
X-323100Y-15455970D02*
X-363231Y-15319085D01*
X-363231Y-15319085D02*
X-407254Y-15196491D01*
X-407254Y-15196491D02*
X-463690Y-15064273D01*
X-463690Y-15064273D02*
X-534224Y-14912887D01*
X-534224Y-14912887D02*
X-603073Y-14758595D01*
X-603073Y-14758595D02*
X-668686Y-14595469D01*
X-668686Y-14595469D02*
X-720308Y-14450804D01*
X-720308Y-14450804D02*
X-734438Y-14404887D01*
X-734438Y-14404887D02*
X-778651Y-14252869D01*
X-778651Y-14252869D02*
X-804481Y-14151753D01*
X-804481Y-14151753D02*
X-807584Y-14090511D01*
X-807584Y-14090511D02*
X-783618Y-14058117D01*
X-783618Y-14058117D02*
X-728237Y-14043543D01*
X-728237Y-14043543D02*
X-637098Y-14035763D01*
X-637098Y-14035763D02*
X-587506Y-14031901D01*
X-587506Y-14031901D02*
X-428782Y-14012953D01*
X-428782Y-14012953D02*
X-293935Y-13986397D01*
X-293935Y-13986397D02*
X-194575Y-13955371D01*
X-194575Y-13955371D02*
X-142308Y-13923014D01*
X-142308Y-13923014D02*
X-137187Y-13910184D01*
X-137187Y-13910184D02*
X-111614Y-13887211D01*
X-111614Y-13887211D02*
X-92851Y-13884813D01*
X-92851Y-13884813D02*
X-46894Y-13861571D01*
X-46894Y-13861571D02*
X20239Y-13802497D01*
X20239Y-13802497D02*
X93005Y-13723566D01*
X93005Y-13723566D02*
X155865Y-13640754D01*
X155865Y-13640754D02*
X175286Y-13609173D01*
X175286Y-13609173D02*
X210054Y-13572948D01*
X210054Y-13572948D02*
X230764Y-13575430D01*
X230764Y-13575430D02*
X248312Y-13615096D01*
X248312Y-13615096D02*
X277469Y-13705204D01*
X277469Y-13705204D02*
X315035Y-13834443D01*
X315035Y-13834443D02*
X357808Y-13991507D01*
X357808Y-13991507D02*
X402589Y-14165088D01*
X402589Y-14165088D02*
X435147Y-14297563D01*
X435147Y-14297563D02*
X463981Y-14411268D01*
X463981Y-14411268D02*
X493510Y-14519813D01*
X493510Y-14519813D02*
X517428Y-14606155D01*
X517428Y-14606155D02*
X550459Y-14728408D01*
X550459Y-14728408D02*
X585708Y-14861032D01*
X585708Y-14861032D02*
X587822Y-14869063D01*
X587822Y-14869063D02*
X626494Y-15011600D01*
X626494Y-15011600D02*
X667257Y-15154852D01*
X667257Y-15154852D02*
X700710Y-15265938D01*
X700710Y-15265938D02*
X761480Y-15462383D01*
X761480Y-15462383D02*
X818337Y-15654352D01*
X818337Y-15654352D02*
X867697Y-15829038D01*
X867697Y-15829038D02*
X905977Y-15973632D01*
X905977Y-15973632D02*
X929594Y-16075327D01*
X929594Y-16075327D02*
X933878Y-16099375D01*
X933878Y-16099375D02*
X938526Y-16170599D01*
X938526Y-16170599D02*
X1391559Y-16170599D01*
X1391559Y-16170599D02*
X1306354Y-16119004D01*
X1306354Y-16119004D02*
X1213192Y-16066675D01*
X1213192Y-16066675D02*
X1174489Y-16047924D01*
X1174489Y-16047924D02*
X1106711Y-16007059D01*
X1106711Y-16007059D02*
X1063398Y-15940757D01*
X1063398Y-15940757D02*
X1036883Y-15858826D01*
X1036883Y-15858826D02*
X1004255Y-15742072D01*
X1004255Y-15742072D02*
X963259Y-15603694D01*
X963259Y-15603694D02*
X938186Y-15522631D01*
X938186Y-15522631D02*
X896883Y-15385179D01*
X896883Y-15385179D02*
X880100Y-15296860D01*
X880100Y-15296860D02*
X891441Y-15246847D01*
X891441Y-15246847D02*
X934511Y-15224318D01*
X934511Y-15224318D02*
X1012916Y-15218446D01*
X1012916Y-15218446D02*
X1039535Y-15218313D01*
X1039535Y-15218313D02*
X1170861Y-15229283D01*
X1170861Y-15229283D02*
X1312279Y-15256901D01*
X1312279Y-15256901D02*
X1361706Y-15271120D01*
X1361706Y-15271120D02*
X1523154Y-15323927D01*
X1523154Y-15323927D02*
X1696577Y-15688770D01*
X1696577Y-15688770D02*
X1783380Y-15876893D01*
X1783380Y-15876893D02*
X1862792Y-16059290D01*
X1862792Y-16059290D02*
X1930538Y-16225185D01*
X1930538Y-16225185D02*
X1982346Y-16363801D01*
X1982346Y-16363801D02*
X2013944Y-16464363D01*
X2013944Y-16464363D02*
X2021813Y-16509015D01*
X2021813Y-16509015D02*
X2188564Y-16509015D01*
X2188564Y-16509015D02*
X2173446Y-16466413D01*
X2173446Y-16466413D02*
X2131992Y-16344793D01*
X2131992Y-16344793D02*
X2037646Y-16075069D01*
X2037646Y-16075069D02*
X1947120Y-15845118D01*
X1947120Y-15845118D02*
X1851018Y-15632603D01*
X1851018Y-15632603D02*
X1745024Y-15424688D01*
X1745024Y-15424688D02*
X1706837Y-15344997D01*
X1706837Y-15344997D02*
X1678346Y-15277574D01*
X1678346Y-15277574D02*
X1624404Y-15215759D01*
X1624404Y-15215759D02*
X1520996Y-15158472D01*
X1520996Y-15158472D02*
X1382156Y-15110347D01*
X1382156Y-15110347D02*
X1221919Y-15076020D01*
X1221919Y-15076020D02*
X1054318Y-15060126D01*
X1054318Y-15060126D02*
X1018215Y-15059563D01*
X1018215Y-15059563D02*
X911341Y-15054914D01*
X911341Y-15054914D02*
X831794Y-15042809D01*
X831794Y-15042809D02*
X799674Y-15028194D01*
X799674Y-15028194D02*
X781595Y-14982245D01*
X781595Y-14982245D02*
X754809Y-14895696D01*
X754809Y-14895696D02*
X732222Y-14813881D01*
X732222Y-14813881D02*
X705713Y-14713144D01*
X705713Y-14713144D02*
X667790Y-14569236D01*
X667790Y-14569236D02*
X623257Y-14400378D01*
X623257Y-14400378D02*
X576918Y-14224795D01*
X576918Y-14224795D02*
X570982Y-14202313D01*
X570982Y-14202313D02*
X526857Y-14031310D01*
X526857Y-14031310D02*
X486660Y-13868452D01*
X486660Y-13868452D02*
X454407Y-13730483D01*
X454407Y-13730483D02*
X434112Y-13634151D01*
X434112Y-13634151D02*
X432113Y-13622961D01*
X432113Y-13622961D02*
X412300Y-13525982D01*
X412300Y-13525982D02*
X391632Y-13453453D01*
X391632Y-13453453D02*
X383478Y-13435118D01*
X383478Y-13435118D02*
X373880Y-13388311D01*
X373880Y-13388311D02*
X367769Y-13294836D01*
X367769Y-13294836D02*
X366016Y-13171469D01*
X366016Y-13171469D02*
X366805Y-13114054D01*
X366805Y-13114054D02*
X373170Y-12985972D01*
X373170Y-12985972D02*
X231067Y-12985972D01*
X231067Y-12985972D02*
X228459Y-13095131D01*
X228459Y-13095131D02*
X221752Y-13157745D01*
X221752Y-13157745D02*
X218424Y-13166412D01*
X218424Y-13166412D02*
X192680Y-13217623D01*
X192680Y-13217623D02*
X160631Y-13302316D01*
X160631Y-13302316D02*
X150454Y-13333328D01*
X150454Y-13333328D02*
X88873Y-13464125D01*
X88873Y-13464125D02*
X-7094Y-13598463D01*
X-7094Y-13598463D02*
X-119091Y-13713826D01*
X-119091Y-13713826D02*
X-214247Y-13780700D01*
X-214247Y-13780700D02*
X-336543Y-13835770D01*
X-336543Y-13835770D02*
X-454637Y-13866869D01*
X-454637Y-13866869D02*
X-596492Y-13880274D01*
X-596492Y-13880274D02*
X-665893Y-13882084D01*
X-665893Y-13882084D02*
X-773729Y-13881979D01*
X-773729Y-13881979D02*
X-835581Y-13872919D01*
X-835581Y-13872919D02*
X-868943Y-13847511D01*
X-868943Y-13847511D02*
X-891313Y-13798362D01*
X-891313Y-13798362D02*
X-896081Y-13784825D01*
X-896081Y-13784825D02*
X-921291Y-13686230D01*
X-921291Y-13686230D02*
X-930937Y-13600393D01*
X-930937Y-13600393D02*
X-948212Y-13505252D01*
X-948212Y-13505252D02*
X-992194Y-13438444D01*
X-992194Y-13438444D02*
X-1051118Y-13414971D01*
X-1051118Y-13414971D02*
X-1072691Y-13419614D01*
X-1072691Y-13419614D02*
X-1108687Y-13447438D01*
X-1108687Y-13447438D02*
X-1114719Y-13503822D01*
X-1114719Y-13503822D02*
X-1107170Y-13554028D01*
X-1107170Y-13554028D02*
X-1087929Y-13643410D01*
X-1087929Y-13643410D02*
X-1069399Y-13710053D01*
X-1069399Y-13710053D02*
X-1067885Y-13714183D01*
X-1067885Y-13714183D02*
X-1068485Y-13737597D01*
X-1068485Y-13737597D02*
X-1106466Y-13727401D01*
X-1106466Y-13727401D02*
X-1163092Y-13697665D01*
X-1163092Y-13697665D02*
X-1249607Y-13638291D01*
X-1249607Y-13638291D02*
X-1341052Y-13558995D01*
X-1341052Y-13558995D02*
X-1423075Y-13474458D01*
X-1423075Y-13474458D02*
X-1481325Y-13399356D01*
X-1481325Y-13399356D02*
X-1501577Y-13351466D01*
X-1501577Y-13351466D02*
X-1515172Y-13299427D01*
X-1515172Y-13299427D02*
X-1548422Y-13216595D01*
X-1548422Y-13216595D02*
X-1565937Y-13178815D01*
X-1565937Y-13178815D02*
X-1603953Y-13095885D01*
X-1603953Y-13095885D02*
X-1626634Y-13038207D01*
X-1626634Y-13038207D02*
X-1629437Y-13026192D01*
X-1629437Y-13026192D02*
X-1600720Y-13010237D01*
X-1600720Y-13010237D02*
X-1541273Y-12991650D01*
X-1541273Y-12991650D02*
X-1847868Y-12991650D01*
X-1847868Y-12991650D02*
X-1872770Y-12975674D01*
X-1872770Y-12975674D02*
X-1920096Y-12908346D01*
X-1920096Y-12908346D02*
X-1941090Y-12872427D01*
X-1941090Y-12872427D02*
X-1994881Y-12763678D01*
X-1994881Y-12763678D02*
X-2007914Y-12700018D01*
X-2007914Y-12700018D02*
X-1980787Y-12678350D01*
X-1980787Y-12678350D02*
X-1978687Y-12678313D01*
X-1978687Y-12678313D02*
X-1948101Y-12702677D01*
X-1948101Y-12702677D02*
X-1946937Y-12711596D01*
X-1946937Y-12711596D02*
X-1934018Y-12758814D01*
X-1934018Y-12758814D02*
X-1901592Y-12837655D01*
X-1901592Y-12837655D02*
X-1886318Y-12870346D01*
X-1886318Y-12870346D02*
X-1850635Y-12956474D01*
X-1850635Y-12956474D02*
X-1847868Y-12991650D01*
X-1847868Y-12991650D02*
X-1541273Y-12991650D01*
X-1541273Y-12991650D02*
X-1524296Y-12986342D01*
X-1524296Y-12986342D02*
X-1414754Y-12958874D01*
X-1414754Y-12958874D02*
X-1374933Y-12950009D01*
X-1374933Y-12950009D02*
X-1250309Y-12918941D01*
X-1250309Y-12918941D02*
X-1146945Y-12885619D01*
X-1146945Y-12885619D02*
X-1083137Y-12856150D01*
X-1083137Y-12856150D02*
X-1075479Y-12850069D01*
X-1075479Y-12850069D02*
X-1037941Y-12823835D01*
X-1037941Y-12823835D02*
X-1015638Y-12853026D01*
X-1015638Y-12853026D02*
X-1010342Y-12868715D01*
X-1010342Y-12868715D02*
X-983994Y-12920012D01*
X-983994Y-12920012D02*
X-965643Y-12932313D01*
X-965643Y-12932313D02*
X-935715Y-12957817D01*
X-935715Y-12957817D02*
X-906620Y-13008051D01*
X-906620Y-13008051D02*
X-879069Y-13053274D01*
X-879069Y-13053274D02*
X-837886Y-13072326D01*
X-837886Y-13072326D02*
X-762631Y-13071671D01*
X-762631Y-13071671D02*
X-718962Y-13067398D01*
X-718962Y-13067398D02*
X-622379Y-13053212D01*
X-622379Y-13053212D02*
X-551754Y-13035892D01*
X-551754Y-13035892D02*
X-534062Y-13027788D01*
X-534062Y-13027788D02*
X-481488Y-13003699D01*
X-481488Y-13003699D02*
X-412734Y-12983142D01*
X-412734Y-12983142D02*
X-352594Y-12961880D01*
X-352594Y-12961880D02*
X-335391Y-12923538D01*
X-335391Y-12923538D02*
X-344963Y-12859702D01*
X-344963Y-12859702D02*
X-368631Y-12777624D01*
X-368631Y-12777624D02*
X-395212Y-12722268D01*
X-395212Y-12722268D02*
X-395522Y-12721878D01*
X-395522Y-12721878D02*
X-394237Y-12688750D01*
X-394237Y-12688750D02*
X-339257Y-12663315D01*
X-339257Y-12663315D02*
X-240241Y-12648955D01*
X-240241Y-12648955D02*
X-181732Y-12646996D01*
X-181732Y-12646996D02*
X-82881Y-12627537D01*
X-82881Y-12627537D02*
X2931Y-12564806D01*
X2931Y-12564806D02*
X84804Y-12450835D01*
X84804Y-12450835D02*
X123065Y-12380159D01*
X123065Y-12380159D02*
X160572Y-12306242D01*
X160572Y-12306242D02*
X-13181Y-12306242D01*
X-13181Y-12306242D02*
X-31550Y-12365318D01*
X-31550Y-12365318D02*
X-66455Y-12414703D01*
X-66455Y-12414703D02*
X-141348Y-12470313D01*
X-141348Y-12470313D02*
X-261284Y-12496220D01*
X-261284Y-12496220D02*
X-264187Y-12496469D01*
X-264187Y-12496469D02*
X-354205Y-12504840D01*
X-354205Y-12504840D02*
X-414692Y-12511964D01*
X-414692Y-12511964D02*
X-425778Y-12514016D01*
X-425778Y-12514016D02*
X-450783Y-12492859D01*
X-450783Y-12492859D02*
X-481340Y-12438694D01*
X-481340Y-12438694D02*
X-512165Y-12357967D01*
X-512165Y-12357967D02*
X-503507Y-12316006D01*
X-503507Y-12316006D02*
X-447845Y-12296702D01*
X-447845Y-12296702D02*
X-412811Y-12291958D01*
X-412811Y-12291958D02*
X-342216Y-12288294D01*
X-342216Y-12288294D02*
X-317667Y-12307534D01*
X-317667Y-12307534D02*
X-321263Y-12351984D01*
X-321263Y-12351984D02*
X-319629Y-12407737D01*
X-319629Y-12407737D02*
X-275619Y-12424189D01*
X-275619Y-12424189D02*
X-267888Y-12424313D01*
X-267888Y-12424313D02*
X-216768Y-12400701D01*
X-216768Y-12400701D02*
X-198749Y-12349369D01*
X-198749Y-12349369D02*
X-219675Y-12299573D01*
X-219675Y-12299573D02*
X-240374Y-12286590D01*
X-240374Y-12286590D02*
X-237317Y-12276564D01*
X-237317Y-12276564D02*
X-183997Y-12269576D01*
X-183997Y-12269576D02*
X-145124Y-12268069D01*
X-145124Y-12268069D02*
X-50100Y-12275576D01*
X-50100Y-12275576D02*
X-13181Y-12306242D01*
X-13181Y-12306242D02*
X160572Y-12306242D01*
X160572Y-12306242D02*
X201858Y-12224881D01*
X201858Y-12224881D02*
X223477Y-12677759D01*
X223477Y-12677759D02*
X229450Y-12842703D01*
X229450Y-12842703D02*
X231067Y-12985972D01*
X231067Y-12985972D02*
X373170Y-12985972D01*
X373170Y-12985972D02*
X375063Y-12947904D01*
X375063Y-12947904D02*
X393436Y-12826100D01*
X393436Y-12826100D02*
X425206Y-12729858D01*
X425206Y-12729858D02*
X438964Y-12700946D01*
X438964Y-12700946D02*
X488613Y-12569351D01*
X488613Y-12569351D02*
X516374Y-12422602D01*
X516374Y-12422602D02*
X522919Y-12275117D01*
X522919Y-12275117D02*
X508920Y-12141315D01*
X508920Y-12141315D02*
X508039Y-12138563D01*
X508039Y-12138563D02*
X370813Y-12138563D01*
X370813Y-12138563D02*
X359197Y-12164696D01*
X359197Y-12164696D02*
X349647Y-12159729D01*
X349647Y-12159729D02*
X345847Y-12122049D01*
X345847Y-12122049D02*
X349647Y-12117396D01*
X349647Y-12117396D02*
X368522Y-12121754D01*
X368522Y-12121754D02*
X370813Y-12138563D01*
X370813Y-12138563D02*
X508039Y-12138563D01*
X508039Y-12138563D02*
X475049Y-12035614D01*
X475049Y-12035614D02*
X421979Y-11972433D01*
X421979Y-11972433D02*
X404631Y-11964594D01*
X404631Y-11964594D02*
X374210Y-11944196D01*
X374210Y-11944196D02*
X354208Y-11897646D01*
X354208Y-11897646D02*
X341107Y-11811867D01*
X341107Y-11811867D02*
X333223Y-11704372D01*
X333223Y-11704372D02*
X180313Y-11704372D01*
X180313Y-11704372D02*
X180313Y-11893114D01*
X180313Y-11893114D02*
X177466Y-11999140D01*
X177466Y-11999140D02*
X166844Y-12053277D01*
X166844Y-12053277D02*
X145325Y-12066969D01*
X145325Y-12066969D02*
X133705Y-12063971D01*
X133705Y-12063971D02*
X82616Y-12064310D01*
X82616Y-12064310D02*
X68332Y-12076449D01*
X68332Y-12076449D02*
X29254Y-12092206D01*
X29254Y-12092206D02*
X-54892Y-12104059D01*
X-54892Y-12104059D02*
X-162873Y-12109358D01*
X-162873Y-12109358D02*
X-318498Y-12120376D01*
X-318498Y-12120376D02*
X-464037Y-12146916D01*
X-464037Y-12146916D02*
X-585814Y-12184820D01*
X-585814Y-12184820D02*
X-670150Y-12229931D01*
X-670150Y-12229931D02*
X-702783Y-12273496D01*
X-702783Y-12273496D02*
X-696413Y-12338735D01*
X-696413Y-12338735D02*
X-666678Y-12422425D01*
X-666678Y-12422425D02*
X-663389Y-12429187D01*
X-663389Y-12429187D02*
X-628315Y-12523916D01*
X-628315Y-12523916D02*
X-613440Y-12612571D01*
X-613440Y-12612571D02*
X-613437Y-12613622D01*
X-613437Y-12613622D02*
X-595784Y-12702898D01*
X-595784Y-12702898D02*
X-566821Y-12759557D01*
X-566821Y-12759557D02*
X-525687Y-12824759D01*
X-525687Y-12824759D02*
X-531134Y-12860462D01*
X-531134Y-12860462D02*
X-573749Y-12878676D01*
X-573749Y-12878676D02*
X-697514Y-12898351D01*
X-697514Y-12898351D02*
X-780292Y-12878349D01*
X-780292Y-12878349D02*
X-832694Y-12816003D01*
X-832694Y-12816003D02*
X-834001Y-12813250D01*
X-834001Y-12813250D02*
X-871379Y-12734061D01*
X-871379Y-12734061D02*
X-897737Y-12679345D01*
X-897737Y-12679345D02*
X-905278Y-12619805D01*
X-905278Y-12619805D02*
X-894693Y-12532074D01*
X-894693Y-12532074D02*
X-891770Y-12519452D01*
X-891770Y-12519452D02*
X-1062306Y-12519452D01*
X-1062306Y-12519452D02*
X-1078873Y-12581219D01*
X-1078873Y-12581219D02*
X-1105015Y-12634996D01*
X-1105015Y-12634996D02*
X-1139614Y-12685020D01*
X-1139614Y-12685020D02*
X-1192885Y-12723508D01*
X-1192885Y-12723508D02*
X-1279915Y-12758620D01*
X-1279915Y-12758620D02*
X-1398703Y-12793839D01*
X-1398703Y-12793839D02*
X-1542887Y-12832879D01*
X-1542887Y-12832879D02*
X-1636721Y-12854835D01*
X-1636721Y-12854835D02*
X-1690981Y-12859825D01*
X-1690981Y-12859825D02*
X-1716442Y-12847965D01*
X-1716442Y-12847965D02*
X-1723881Y-12819373D01*
X-1723881Y-12819373D02*
X-1724200Y-12797375D01*
X-1724200Y-12797375D02*
X-1707640Y-12707446D01*
X-1707640Y-12707446D02*
X-1651567Y-12650043D01*
X-1651567Y-12650043D02*
X-1546769Y-12613497D01*
X-1546769Y-12613497D02*
X-1459107Y-12599695D01*
X-1459107Y-12599695D02*
X-1408108Y-12612599D01*
X-1408108Y-12612599D02*
X-1384366Y-12636380D01*
X-1384366Y-12636380D02*
X-1344312Y-12670089D01*
X-1344312Y-12670089D02*
X-1298543Y-12648610D01*
X-1298543Y-12648610D02*
X-1296635Y-12647038D01*
X-1296635Y-12647038D02*
X-1259449Y-12589843D01*
X-1259449Y-12589843D02*
X-1255955Y-12555014D01*
X-1255955Y-12555014D02*
X-1241529Y-12515236D01*
X-1241529Y-12515236D02*
X-1175370Y-12495311D01*
X-1175370Y-12495311D02*
X-1161124Y-12493738D01*
X-1161124Y-12493738D02*
X-1088353Y-12493742D01*
X-1088353Y-12493742D02*
X-1062306Y-12519452D01*
X-1062306Y-12519452D02*
X-891770Y-12519452D01*
X-891770Y-12519452D02*
X-890190Y-12512634D01*
X-890190Y-12512634D02*
X-877379Y-12399353D01*
X-877379Y-12399353D02*
X-909561Y-12330446D01*
X-909561Y-12330446D02*
X-988869Y-12303432D01*
X-988869Y-12303432D02*
X-1066928Y-12307192D01*
X-1066928Y-12307192D02*
X-1141207Y-12314908D01*
X-1141207Y-12314908D02*
X-1161319Y-12308175D01*
X-1161319Y-12308175D02*
X-1135543Y-12284072D01*
X-1135543Y-12284072D02*
X-1134524Y-12283326D01*
X-1134524Y-12283326D02*
X-1098127Y-12232807D01*
X-1098127Y-12232807D02*
X-1100592Y-12181418D01*
X-1100592Y-12181418D02*
X-1134382Y-12151429D01*
X-1134382Y-12151429D02*
X-1177267Y-12157051D01*
X-1177267Y-12157051D02*
X-1235907Y-12170127D01*
X-1235907Y-12170127D02*
X-1336194Y-12180191D01*
X-1336194Y-12180191D02*
X-1454812Y-12185022D01*
X-1454812Y-12185022D02*
X-1624601Y-12197510D01*
X-1624601Y-12197510D02*
X-1744168Y-12228890D01*
X-1744168Y-12228890D02*
X-1809075Y-12277593D01*
X-1809075Y-12277593D02*
X-1819937Y-12314305D01*
X-1819937Y-12314305D02*
X-1806616Y-12338882D01*
X-1806616Y-12338882D02*
X-1759235Y-12353340D01*
X-1759235Y-12353340D02*
X-1666663Y-12359837D01*
X-1666663Y-12359837D02*
X-1579938Y-12360813D01*
X-1579938Y-12360813D02*
X-1468332Y-12363966D01*
X-1468332Y-12363966D02*
X-1388950Y-12372322D01*
X-1388950Y-12372322D02*
X-1355879Y-12384222D01*
X-1355879Y-12384222D02*
X-1356208Y-12387137D01*
X-1356208Y-12387137D02*
X-1393811Y-12408413D01*
X-1393811Y-12408413D02*
X-1473811Y-12435748D01*
X-1473811Y-12435748D02*
X-1547850Y-12455532D01*
X-1547850Y-12455532D02*
X-1656778Y-12488871D01*
X-1656778Y-12488871D02*
X-1747134Y-12529038D01*
X-1747134Y-12529038D02*
X-1783156Y-12553441D01*
X-1783156Y-12553441D02*
X-1816598Y-12580085D01*
X-1816598Y-12580085D02*
X-1842864Y-12578768D01*
X-1842864Y-12578768D02*
X-1871940Y-12540411D01*
X-1871940Y-12540411D02*
X-1913811Y-12455937D01*
X-1913811Y-12455937D02*
X-1930857Y-12419170D01*
X-1930857Y-12419170D02*
X-1978170Y-12308802D01*
X-1978170Y-12308802D02*
X-1997891Y-12235301D01*
X-1997891Y-12235301D02*
X-1993610Y-12180216D01*
X-1993610Y-12180216D02*
X-1982780Y-12152062D01*
X-1982780Y-12152062D02*
X-1939772Y-12059789D01*
X-1939772Y-12059789D02*
X-1910022Y-11996063D01*
X-1910022Y-11996063D02*
X-1853811Y-11925164D01*
X-1853811Y-11925164D02*
X-1783022Y-11877187D01*
X-1783022Y-11877187D02*
X-1720095Y-11843569D01*
X-1720095Y-11843569D02*
X-1692961Y-11817643D01*
X-1692961Y-11817643D02*
X-1692937Y-11817164D01*
X-1692937Y-11817164D02*
X-1666852Y-11792543D01*
X-1666852Y-11792543D02*
X-1603481Y-11760000D01*
X-1603481Y-11760000D02*
X-1597687Y-11757563D01*
X-1597687Y-11757563D02*
X-1532351Y-11725040D01*
X-1532351Y-11725040D02*
X-1502559Y-11699435D01*
X-1502559Y-11699435D02*
X-1502380Y-11698148D01*
X-1502380Y-11698148D02*
X-1475929Y-11666282D01*
X-1475929Y-11666282D02*
X-1407443Y-11618168D01*
X-1407443Y-11618168D02*
X-1313042Y-11563054D01*
X-1313042Y-11563054D02*
X-1244885Y-11528470D01*
X-1244885Y-11528470D02*
X-1529558Y-11528470D01*
X-1529558Y-11528470D02*
X-1602437Y-11579516D01*
X-1602437Y-11579516D02*
X-1657335Y-11616531D01*
X-1657335Y-11616531D02*
X-1681869Y-11630563D01*
X-1681869Y-11630563D02*
X-1684774Y-11602656D01*
X-1684774Y-11602656D02*
X-1683793Y-11552702D01*
X-1683793Y-11552702D02*
X-1868571Y-11552702D01*
X-1868571Y-11552702D02*
X-1875996Y-11660515D01*
X-1875996Y-11660515D02*
X-1905389Y-11738315D01*
X-1905389Y-11738315D02*
X-1969958Y-11818982D01*
X-1969958Y-11818982D02*
X-1979696Y-11829358D01*
X-1979696Y-11829358D02*
X-2037420Y-11889720D01*
X-2037420Y-11889720D02*
X-2074529Y-11915545D01*
X-2074529Y-11915545D02*
X-2101351Y-11900592D01*
X-2101351Y-11900592D02*
X-2128217Y-11838618D01*
X-2128217Y-11838618D02*
X-2165457Y-11723383D01*
X-2165457Y-11723383D02*
X-2167936Y-11715612D01*
X-2167936Y-11715612D02*
X-2189574Y-11631144D01*
X-2189574Y-11631144D02*
X-2183205Y-11577581D01*
X-2183205Y-11577581D02*
X-2151264Y-11533050D01*
X-2151264Y-11533050D02*
X-2094893Y-11486416D01*
X-2094893Y-11486416D02*
X-2055786Y-11471813D01*
X-2055786Y-11471813D02*
X-2011107Y-11452738D01*
X-2011107Y-11452738D02*
X-2005145Y-11442971D01*
X-2005145Y-11442971D02*
X-1968823Y-11414499D01*
X-1968823Y-11414499D02*
X-1931062Y-11403283D01*
X-1931062Y-11403283D02*
X-1893471Y-11403780D01*
X-1893471Y-11403780D02*
X-1874723Y-11431739D01*
X-1874723Y-11431739D02*
X-1868724Y-11501731D01*
X-1868724Y-11501731D02*
X-1868571Y-11552702D01*
X-1868571Y-11552702D02*
X-1683793Y-11552702D01*
X-1683793Y-11552702D02*
X-1683426Y-11534045D01*
X-1683426Y-11534045D02*
X-1682742Y-11519580D01*
X-1682742Y-11519580D02*
X-1676649Y-11446098D01*
X-1676649Y-11446098D02*
X-1669039Y-11409399D01*
X-1669039Y-11409399D02*
X-1667796Y-11408455D01*
X-1667796Y-11408455D02*
X-1640611Y-11427389D01*
X-1640611Y-11427389D02*
X-1594045Y-11468391D01*
X-1594045Y-11468391D02*
X-1529558Y-11528470D01*
X-1529558Y-11528470D02*
X-1244885Y-11528470D01*
X-1244885Y-11528470D02*
X-1208849Y-11510185D01*
X-1208849Y-11510185D02*
X-1110985Y-11468810D01*
X-1110985Y-11468810D02*
X-1089687Y-11461440D01*
X-1089687Y-11461440D02*
X-953141Y-11431391D01*
X-953141Y-11431391D02*
X-788185Y-11415975D01*
X-788185Y-11415975D02*
X-619112Y-11415575D01*
X-619112Y-11415575D02*
X-470220Y-11430578D01*
X-470220Y-11430578D02*
X-391187Y-11450386D01*
X-391187Y-11450386D02*
X-307556Y-11483679D01*
X-307556Y-11483679D02*
X-190404Y-11534030D01*
X-190404Y-11534030D02*
X-63535Y-11591178D01*
X-63535Y-11591178D02*
X-49874Y-11597501D01*
X-49874Y-11597501D02*
X180313Y-11704372D01*
X180313Y-11704372D02*
X333223Y-11704372D01*
X333223Y-11704372D02*
X332713Y-11697431D01*
X332713Y-11697431D02*
X318818Y-11546661D01*
X318818Y-11546661D02*
X293303Y-11433405D01*
X293303Y-11433405D02*
X267264Y-11373065D01*
X267264Y-11373065D02*
X-129404Y-11373065D01*
X-129404Y-11373065D02*
X-166739Y-11360688D01*
X-166739Y-11360688D02*
X-1375437Y-11360688D01*
X-1375437Y-11360688D02*
X-1391312Y-11376563D01*
X-1391312Y-11376563D02*
X-1407187Y-11360688D01*
X-1407187Y-11360688D02*
X-1391312Y-11344813D01*
X-1391312Y-11344813D02*
X-1375437Y-11360688D01*
X-1375437Y-11360688D02*
X-166739Y-11360688D01*
X-166739Y-11360688D02*
X-291733Y-11319251D01*
X-291733Y-11319251D02*
X-382043Y-11283519D01*
X-382043Y-11283519D02*
X-431894Y-11254421D01*
X-431894Y-11254421D02*
X-962687Y-11254421D01*
X-962687Y-11254421D02*
X-982079Y-11281367D01*
X-982079Y-11281367D02*
X-1026106Y-11271071D01*
X-1026106Y-11271071D02*
X-1073542Y-11230211D01*
X-1073542Y-11230211D02*
X-1083125Y-11216521D01*
X-1083125Y-11216521D02*
X-1109802Y-11149157D01*
X-1109802Y-11149157D02*
X-1108498Y-11145981D01*
X-1108498Y-11145981D02*
X-1771480Y-11145981D01*
X-1771480Y-11145981D02*
X-1794308Y-11146185D01*
X-1794308Y-11146185D02*
X-1817953Y-11139067D01*
X-1817953Y-11139067D02*
X-1880424Y-11139263D01*
X-1880424Y-11139263D02*
X-1902865Y-11167998D01*
X-1902865Y-11167998D02*
X-1944462Y-11211473D01*
X-1944462Y-11211473D02*
X-1999344Y-11210644D01*
X-1999344Y-11210644D02*
X-2026312Y-11186063D01*
X-2026312Y-11186063D02*
X-2070604Y-11160130D01*
X-2070604Y-11160130D02*
X-2115498Y-11153453D01*
X-2115498Y-11153453D02*
X-2151388Y-11148569D01*
X-2151388Y-11148569D02*
X-2150771Y-11128387D01*
X-2150771Y-11128387D02*
X-2109125Y-11082661D01*
X-2109125Y-11082661D02*
X-2066465Y-11042328D01*
X-2066465Y-11042328D02*
X-1994276Y-10979361D01*
X-1994276Y-10979361D02*
X-1940136Y-10939633D01*
X-1940136Y-10939633D02*
X-1923590Y-10932456D01*
X-1923590Y-10932456D02*
X-1892916Y-10956957D01*
X-1892916Y-10956957D02*
X-1844924Y-11017967D01*
X-1844924Y-11017967D02*
X-1825734Y-11046399D01*
X-1825734Y-11046399D02*
X-1781620Y-11116707D01*
X-1781620Y-11116707D02*
X-1771480Y-11145981D01*
X-1771480Y-11145981D02*
X-1108498Y-11145981D01*
X-1108498Y-11145981D02*
X-1096277Y-11116218D01*
X-1096277Y-11116218D02*
X-1053765Y-11128757D01*
X-1053765Y-11128757D02*
X-1023339Y-11157595D01*
X-1023339Y-11157595D02*
X-979426Y-11216618D01*
X-979426Y-11216618D02*
X-962687Y-11254421D01*
X-962687Y-11254421D02*
X-431894Y-11254421D01*
X-431894Y-11254421D02*
X-441117Y-11249038D01*
X-441117Y-11249038D02*
X-447195Y-11240881D01*
X-447195Y-11240881D02*
X-639628Y-11240881D01*
X-639628Y-11240881D02*
X-652562Y-11249563D01*
X-652562Y-11249563D02*
X-701755Y-11227004D01*
X-701755Y-11227004D02*
X-753554Y-11178125D01*
X-753554Y-11178125D02*
X-819201Y-11099250D01*
X-819201Y-11099250D02*
X-879672Y-11027313D01*
X-879672Y-11027313D02*
X-946812Y-10947938D01*
X-946812Y-10947938D02*
X-853420Y-11027313D01*
X-853420Y-11027313D02*
X-733597Y-11132507D01*
X-733597Y-11132507D02*
X-663057Y-11202895D01*
X-663057Y-11202895D02*
X-639628Y-11240881D01*
X-639628Y-11240881D02*
X-447195Y-11240881D01*
X-447195Y-11240881D02*
X-454374Y-11231249D01*
X-454374Y-11231249D02*
X-430610Y-11206836D01*
X-430610Y-11206836D02*
X-371600Y-11209421D01*
X-371600Y-11209421D02*
X-296855Y-11233847D01*
X-296855Y-11233847D02*
X-225887Y-11274955D01*
X-225887Y-11274955D02*
X-199288Y-11298676D01*
X-199288Y-11298676D02*
X-129404Y-11373065D01*
X-129404Y-11373065D02*
X267264Y-11373065D01*
X267264Y-11373065D02*
X249487Y-11331873D01*
X249487Y-11331873D02*
X228096Y-11293479D01*
X228096Y-11293479D02*
X164827Y-11201194D01*
X164827Y-11201194D02*
X76585Y-11093681D01*
X76585Y-11093681D02*
X30390Y-11043188D01*
X30390Y-11043188D02*
X-200687Y-11043188D01*
X-200687Y-11043188D02*
X-216562Y-11059063D01*
X-216562Y-11059063D02*
X-232437Y-11043188D01*
X-232437Y-11043188D02*
X-216562Y-11027313D01*
X-216562Y-11027313D02*
X-200687Y-11043188D01*
X-200687Y-11043188D02*
X30390Y-11043188D01*
X30390Y-11043188D02*
X-25717Y-10981862D01*
X-25717Y-10981862D02*
X-27896Y-10979688D01*
X-27896Y-10979688D02*
X-264187Y-10979688D01*
X-264187Y-10979688D02*
X-280062Y-10995563D01*
X-280062Y-10995563D02*
X-295937Y-10979688D01*
X-295937Y-10979688D02*
X-280062Y-10963813D01*
X-280062Y-10963813D02*
X-264187Y-10979688D01*
X-264187Y-10979688D02*
X-27896Y-10979688D01*
X-27896Y-10979688D02*
X-107455Y-10900313D01*
X-107455Y-10900313D02*
X-1286220Y-10900313D01*
X-1286220Y-10900313D02*
X-1316842Y-10879447D01*
X-1316842Y-10879447D02*
X-1359562Y-10836813D01*
X-1359562Y-10836813D02*
X-1396228Y-10790819D01*
X-1396228Y-10790819D02*
X-1401153Y-10773313D01*
X-1401153Y-10773313D02*
X-1370531Y-10794178D01*
X-1370531Y-10794178D02*
X-1327812Y-10836813D01*
X-1327812Y-10836813D02*
X-1291145Y-10882806D01*
X-1291145Y-10882806D02*
X-1286220Y-10900313D01*
X-1286220Y-10900313D02*
X-107455Y-10900313D01*
X-107455Y-10900313D02*
X-131168Y-10876656D01*
X-131168Y-10876656D02*
X-228858Y-10788986D01*
X-228858Y-10788986D02*
X-307876Y-10729771D01*
X-307876Y-10729771D02*
X-317525Y-10725688D01*
X-317525Y-10725688D02*
X-1184937Y-10725688D01*
X-1184937Y-10725688D02*
X-1200812Y-10741563D01*
X-1200812Y-10741563D02*
X-1438937Y-10741563D01*
X-1438937Y-10741563D02*
X-1463097Y-10772390D01*
X-1463097Y-10772390D02*
X-1470687Y-10773313D01*
X-1470687Y-10773313D02*
X-1501514Y-10749152D01*
X-1501514Y-10749152D02*
X-1502437Y-10741563D01*
X-1502437Y-10741563D02*
X-1478276Y-10710735D01*
X-1478276Y-10710735D02*
X-1470687Y-10709813D01*
X-1470687Y-10709813D02*
X-1439859Y-10733973D01*
X-1439859Y-10733973D02*
X-1438937Y-10741563D01*
X-1438937Y-10741563D02*
X-1200812Y-10741563D01*
X-1200812Y-10741563D02*
X-1216687Y-10725688D01*
X-1216687Y-10725688D02*
X-1200812Y-10709813D01*
X-1200812Y-10709813D02*
X-1184937Y-10725688D01*
X-1184937Y-10725688D02*
X-317525Y-10725688D01*
X-317525Y-10725688D02*
X-355042Y-10709813D01*
X-355042Y-10709813D02*
X-417776Y-10696636D01*
X-417776Y-10696636D02*
X-506486Y-10663715D01*
X-506486Y-10663715D02*
X-536035Y-10650343D01*
X-536035Y-10650343D02*
X-667587Y-10593396D01*
X-667587Y-10593396D02*
X-1195520Y-10593396D01*
X-1195520Y-10593396D02*
X-1199878Y-10612271D01*
X-1199878Y-10612271D02*
X-1216687Y-10614563D01*
X-1216687Y-10614563D02*
X-1311937Y-10614563D01*
X-1311937Y-10614563D02*
X-1322769Y-10645487D01*
X-1322769Y-10645487D02*
X-1325938Y-10646313D01*
X-1325938Y-10646313D02*
X-1353045Y-10624064D01*
X-1353045Y-10624064D02*
X-1359562Y-10614563D01*
X-1359562Y-10614563D02*
X-1357044Y-10585305D01*
X-1357044Y-10585305D02*
X-1345560Y-10582813D01*
X-1345560Y-10582813D02*
X-1313229Y-10605860D01*
X-1313229Y-10605860D02*
X-1311937Y-10614563D01*
X-1311937Y-10614563D02*
X-1216687Y-10614563D01*
X-1216687Y-10614563D02*
X-1242820Y-10602946D01*
X-1242820Y-10602946D02*
X-1237853Y-10593396D01*
X-1237853Y-10593396D02*
X-1200173Y-10589596D01*
X-1200173Y-10589596D02*
X-1195520Y-10593396D01*
X-1195520Y-10593396D02*
X-667587Y-10593396D01*
X-667587Y-10593396D02*
X-767993Y-10549932D01*
X-767993Y-10549932D02*
X-973389Y-10485253D01*
X-973389Y-10485253D02*
X-1173983Y-10450838D01*
X-1173983Y-10450838D02*
X-1368392Y-10441222D01*
X-1368392Y-10441222D02*
X-1662973Y-10439938D01*
X-1662973Y-10439938D02*
X-1860517Y-10637106D01*
X-1860517Y-10637106D02*
X-1860517Y-10637106D01*
G36*
X-228858Y-10788986D02*
G01*
X-131168Y-10876656D01*
X-107455Y-10900313D01*
X-27896Y-10979688D01*
X-25717Y-10981862D01*
X30390Y-11043188D01*
X76585Y-11093681D01*
X164827Y-11201194D01*
X228096Y-11293479D01*
X249487Y-11331873D01*
X267264Y-11373065D01*
X293303Y-11433405D01*
X318818Y-11546661D01*
X332713Y-11697431D01*
X333223Y-11704372D01*
X341107Y-11811867D01*
X354208Y-11897646D01*
X374210Y-11944196D01*
X404631Y-11964594D01*
X421979Y-11972433D01*
X475049Y-12035614D01*
X508039Y-12138563D01*
X508920Y-12141315D01*
X522919Y-12275117D01*
X516374Y-12422602D01*
X488613Y-12569351D01*
X438964Y-12700946D01*
X425206Y-12729858D01*
X393436Y-12826100D01*
X375063Y-12947904D01*
X373170Y-12985972D01*
X366805Y-13114054D01*
X366016Y-13171469D01*
X367769Y-13294836D01*
X373880Y-13388311D01*
X383478Y-13435118D01*
X391632Y-13453453D01*
X412300Y-13525982D01*
X432113Y-13622961D01*
X434112Y-13634151D01*
X454407Y-13730483D01*
X486660Y-13868452D01*
X526857Y-14031310D01*
X570982Y-14202313D01*
X576918Y-14224795D01*
X623257Y-14400378D01*
X667790Y-14569236D01*
X705713Y-14713144D01*
X732222Y-14813881D01*
X754809Y-14895696D01*
X781595Y-14982245D01*
X799674Y-15028194D01*
X831794Y-15042809D01*
X911341Y-15054914D01*
X1018215Y-15059563D01*
X1054318Y-15060126D01*
X1221919Y-15076020D01*
X1382156Y-15110347D01*
X1520996Y-15158472D01*
X1624404Y-15215759D01*
X1678346Y-15277574D01*
X1706837Y-15344997D01*
X1745024Y-15424688D01*
X1851018Y-15632603D01*
X1947120Y-15845118D01*
X2037646Y-16075069D01*
X2131992Y-16344793D01*
X2173446Y-16466413D01*
X2188564Y-16509015D01*
X2219600Y-16596481D01*
X2257069Y-16696294D01*
X2280352Y-16750794D01*
X2296934Y-16803614D01*
X2268938Y-16858045D01*
X2244500Y-16878215D01*
X2205470Y-16879800D01*
X2146776Y-16839055D01*
X2078332Y-16783273D01*
X2019107Y-16739278D01*
X1955975Y-16700284D01*
X1862884Y-16648834D01*
X1813950Y-16621194D01*
X1729890Y-16568766D01*
X1678233Y-16529771D01*
X1652456Y-16508238D01*
X1609063Y-16488312D01*
X1589345Y-16482756D01*
X1539894Y-16448625D01*
X1504500Y-16418653D01*
X1422293Y-16361269D01*
X1328167Y-16305119D01*
X1238203Y-16258859D01*
X1168481Y-16231149D01*
X1135079Y-16230647D01*
X1112677Y-16250255D01*
X1044801Y-16291320D01*
X951585Y-16338238D01*
X896686Y-16364583D01*
X877259Y-16373906D01*
X825508Y-16406146D01*
X816613Y-16431303D01*
X841656Y-16459190D01*
X892010Y-16500857D01*
X974174Y-16568549D01*
X1069696Y-16647063D01*
X1190883Y-16748323D01*
X1287820Y-16835457D01*
X1347802Y-16900124D01*
X1378307Y-16950528D01*
X1386813Y-16994869D01*
X1384168Y-17024157D01*
X1356308Y-17056192D01*
X1299249Y-17033410D01*
X1214443Y-16956137D01*
X1149216Y-16891747D01*
X1048219Y-16800027D01*
X942313Y-16710074D01*
X848061Y-16632517D01*
X761907Y-16560332D01*
X706139Y-16512125D01*
X650609Y-16468034D01*
X606079Y-16463006D01*
X547294Y-16498904D01*
X522173Y-16518783D01*
X507052Y-16552714D01*
X538930Y-16602092D01*
X544169Y-16608596D01*
X592066Y-16670082D01*
X662279Y-16762064D01*
X741580Y-16867231D01*
X812345Y-16956217D01*
X900735Y-17044612D01*
X966110Y-17076237D01*
X987323Y-17077451D01*
X1020374Y-17081934D01*
X1046400Y-17098282D01*
X1074480Y-17137615D01*
X1113695Y-17211049D01*
X1129353Y-17242310D01*
X1173126Y-17329703D01*
X1178689Y-17340681D01*
X1252397Y-17471975D01*
X1346659Y-17622354D01*
X1448812Y-17773068D01*
X1546195Y-17905367D01*
X1626144Y-18000502D01*
X1626933Y-18001322D01*
X1677128Y-18022907D01*
X1722424Y-17991454D01*
X1755195Y-17917198D01*
X1767813Y-17810375D01*
X1768293Y-17760698D01*
X1775858Y-17695219D01*
X1800119Y-17668292D01*
X1850543Y-17663063D01*
X1862556Y-17663796D01*
X1945210Y-17690515D01*
X2029154Y-17743742D01*
X2049875Y-17760534D01*
X2109069Y-17800584D01*
X2140333Y-17809126D01*
X2140789Y-17808515D01*
X2132166Y-17773141D01*
X2099084Y-17701626D01*
X2050650Y-17610411D01*
X1995969Y-17515939D01*
X1944149Y-17434649D01*
X1904296Y-17382982D01*
X1882936Y-17357284D01*
X1863063Y-17313813D01*
X1857466Y-17294048D01*
X1823233Y-17244643D01*
X1823129Y-17244533D01*
X1783437Y-17199444D01*
X1717907Y-17121875D01*
X1640671Y-17028553D01*
X1617225Y-17000420D01*
X1517198Y-16885993D01*
X1399051Y-16756831D01*
X1283626Y-16635856D01*
X1229216Y-16578988D01*
X1146983Y-16486800D01*
X1090381Y-16414891D01*
X1069313Y-16375303D01*
X1069452Y-16369310D01*
X1091821Y-16320639D01*
X1145577Y-16315029D01*
X1220873Y-16348290D01*
X1307865Y-16416230D01*
X1396704Y-16514659D01*
X1440383Y-16569055D01*
X1529048Y-16672900D01*
X1620192Y-16773743D01*
X1674407Y-16833227D01*
X1776698Y-16951629D01*
X1864301Y-17059813D01*
X1911125Y-17120264D01*
X1963369Y-17186460D01*
X1990063Y-17218563D01*
X2013390Y-17251005D01*
X2051796Y-17313813D01*
X2080965Y-17363469D01*
X2137586Y-17458279D01*
X2201037Y-17563334D01*
X2203863Y-17568021D01*
X2261169Y-17676856D01*
X2316851Y-17804745D01*
X2365702Y-17936445D01*
X2402515Y-18056713D01*
X2422084Y-18150307D01*
X2419201Y-18201984D01*
X2412510Y-18211516D01*
X2373404Y-18232251D01*
X2315722Y-18212613D01*
X2233012Y-18149084D01*
X2118824Y-18038145D01*
X2081181Y-18000204D01*
X1998800Y-17922969D01*
X1937417Y-17873590D01*
X1908150Y-17861393D01*
X1903721Y-17869952D01*
X1907364Y-17926096D01*
X1932344Y-18010027D01*
X1971385Y-18100686D01*
X2017211Y-18177016D01*
X2040619Y-18216414D01*
X2081314Y-18313048D01*
X2090795Y-18344111D01*
X2115500Y-18425063D01*
X2134312Y-18497275D01*
X2162048Y-18591051D01*
X2183019Y-18647313D01*
X2208397Y-18701286D01*
X2266809Y-18853291D01*
X2325130Y-19036811D01*
X2372601Y-19214491D01*
X2376876Y-19230495D01*
X2415561Y-19412988D01*
X2423823Y-19493583D01*
X2412059Y-19582208D01*
X2377450Y-19627254D01*
X2326702Y-19622100D01*
X2266521Y-19560125D01*
X2253481Y-19542466D01*
X2195860Y-19473458D01*
X2112548Y-19380123D01*
X2016807Y-19277475D01*
X1976495Y-19235153D01*
X1883410Y-19137131D01*
X1807244Y-19056533D01*
X1761473Y-19007600D01*
X1721219Y-18965092D01*
X1672821Y-18917188D01*
X1662848Y-18907110D01*
X1615244Y-18850824D01*
X1556564Y-18774313D01*
X1474991Y-18663188D01*
X1496461Y-18865883D01*
X1508843Y-18946769D01*
X1516644Y-18980688D01*
X1541254Y-19087697D01*
X1559327Y-19151349D01*
X1592003Y-19266438D01*
X1593004Y-19269967D01*
X1665412Y-19497878D01*
X1759796Y-19775727D01*
X1808027Y-19911831D01*
X1832471Y-19980813D01*
X1877475Y-20107813D01*
X1952926Y-20315878D01*
X2015353Y-20483019D01*
X2069748Y-20621001D01*
X2122470Y-20745389D01*
X2179879Y-20871754D01*
X2248334Y-21015662D01*
X2289323Y-21103083D01*
X2360413Y-21276393D01*
X2395843Y-21406739D01*
X2396860Y-21499976D01*
X2364713Y-21561963D01*
X2343688Y-21580470D01*
X2306748Y-21600063D01*
X2297421Y-21598798D01*
X2245125Y-21556725D01*
X2184995Y-21459506D01*
X2120241Y-21313186D01*
X2054070Y-21123813D01*
X2018549Y-21015692D01*
X1970059Y-20880829D01*
X1926756Y-20773767D01*
X1895022Y-20711063D01*
X1863419Y-20661420D01*
X1806183Y-20564828D01*
X1745565Y-20457063D01*
X1706037Y-20385664D01*
X1625238Y-20243144D01*
X1550220Y-20114353D01*
X1504970Y-20034910D01*
X1468965Y-19964299D01*
X1647597Y-19964299D01*
X1651397Y-20001979D01*
X1660947Y-20006946D01*
X1672563Y-19980813D01*
X1670272Y-19964004D01*
X1651397Y-19959646D01*
X1647597Y-19964299D01*
X1468965Y-19964299D01*
X1465503Y-19957510D01*
X1450313Y-19915915D01*
X1449823Y-19909787D01*
X1426501Y-19885315D01*
X1402510Y-19868066D01*
X1367041Y-19813877D01*
X1365449Y-19810699D01*
X1291579Y-19663787D01*
X1206227Y-19494983D01*
X1175755Y-19434952D01*
X1419654Y-19434952D01*
X1433185Y-19549249D01*
X1500864Y-19720702D01*
X1535594Y-19781382D01*
X1585865Y-19860586D01*
X1621584Y-19906433D01*
X1636813Y-19911831D01*
X1625613Y-19869688D01*
X1621200Y-19858058D01*
X1594594Y-19785575D01*
X1555573Y-19677371D01*
X1510906Y-19552188D01*
X1467973Y-19432528D01*
X1441009Y-19364746D01*
X1426771Y-19346159D01*
X1421055Y-19371363D01*
X1419654Y-19434952D01*
X1175755Y-19434952D01*
X1113856Y-19313011D01*
X1090140Y-19266438D01*
X1386813Y-19266438D01*
X1402688Y-19282313D01*
X1418563Y-19266438D01*
X1402688Y-19250563D01*
X1386813Y-19266438D01*
X1090140Y-19266438D01*
X1018931Y-19126601D01*
X1000442Y-19090401D01*
X1199045Y-19090401D01*
X1224124Y-19132029D01*
X1228305Y-19136131D01*
X1251564Y-19151349D01*
X1241897Y-19114256D01*
X1226063Y-19084625D01*
X1202445Y-19075097D01*
X1199045Y-19090401D01*
X1000442Y-19090401D01*
X925914Y-18944478D01*
X910562Y-18914514D01*
X1150230Y-18914514D01*
X1152449Y-18947288D01*
X1162697Y-18970368D01*
X1186110Y-18995534D01*
X1191361Y-18980688D01*
X1323313Y-18980688D01*
X1339188Y-18996563D01*
X1355063Y-18980688D01*
X1339188Y-18964813D01*
X1323313Y-18980688D01*
X1191361Y-18980688D01*
X1196313Y-18966686D01*
X1195185Y-18958063D01*
X1164927Y-18917412D01*
X1150230Y-18914514D01*
X910562Y-18914514D01*
X839270Y-18775369D01*
X763463Y-18628001D01*
X702956Y-18511101D01*
X662213Y-18433396D01*
X645697Y-18403613D01*
X643160Y-18409200D01*
X648062Y-18458383D01*
X662717Y-18542975D01*
X696782Y-18720970D01*
X761246Y-19083469D01*
X807460Y-19386908D01*
X835508Y-19632487D01*
X845471Y-19821405D01*
X837434Y-19954861D01*
X811479Y-20034056D01*
X767688Y-20060188D01*
X753443Y-20059303D01*
X720040Y-20040922D01*
X698105Y-19987789D01*
X680477Y-19885563D01*
X666795Y-19785038D01*
X631054Y-19525410D01*
X601784Y-19318082D01*
X577843Y-19155050D01*
X558088Y-19028313D01*
X557555Y-19025016D01*
X539194Y-18902281D01*
X518333Y-18749765D01*
X499383Y-18599688D01*
X496855Y-18578995D01*
X478255Y-18445243D01*
X458479Y-18327939D01*
X441406Y-18250438D01*
X419804Y-18193317D01*
X381095Y-18165273D01*
X305001Y-18166309D01*
X253893Y-18173371D01*
X123355Y-18218354D01*
X6958Y-18310065D01*
X-7413Y-18325165D01*
X-69062Y-18399227D01*
X-137110Y-18491017D01*
X-200011Y-18583731D01*
X-246218Y-18660563D01*
X-264187Y-18704708D01*
X-272557Y-18728383D01*
X-313405Y-18775635D01*
X-321581Y-18782161D01*
X-366434Y-18798166D01*
X-415397Y-18763709D01*
X-433184Y-18743938D01*
X-448925Y-18710573D01*
X-450588Y-18660240D01*
X-437955Y-18578005D01*
X-410809Y-18448936D01*
X-409723Y-18443979D01*
X-372950Y-18275723D01*
X-352589Y-18182355D01*
X-193856Y-18182355D01*
X-191837Y-18253106D01*
X-181450Y-18282712D01*
X-172620Y-18276877D01*
X-171737Y-18273602D01*
X-138300Y-18235139D01*
X-66692Y-18176007D01*
X29501Y-18107585D01*
X103113Y-18056286D01*
X178683Y-17990152D01*
X221371Y-17926793D01*
X436340Y-17926793D01*
X465015Y-17968439D01*
X527311Y-17980563D01*
X547091Y-17981145D01*
X591881Y-17992291D01*
X631328Y-18026555D01*
X675938Y-18095515D01*
X736221Y-18210750D01*
X852133Y-18440938D01*
X837886Y-18218688D01*
X825446Y-18105697D01*
X788591Y-17924501D01*
X726744Y-17705998D01*
X637487Y-17440813D01*
X636173Y-17437332D01*
X616457Y-17420110D01*
X587737Y-17451410D01*
X547416Y-17535469D01*
X492892Y-17676526D01*
X476271Y-17723289D01*
X440390Y-17847714D01*
X436340Y-17926793D01*
X221371Y-17926793D01*
X227452Y-17917767D01*
X255318Y-17824839D01*
X268181Y-17697077D01*
X271939Y-17520188D01*
X272050Y-17499263D01*
X271388Y-17405267D01*
X265853Y-17365456D01*
X251903Y-17371820D01*
X225993Y-17416351D01*
X211480Y-17444874D01*
X195864Y-17508460D01*
X219327Y-17567850D01*
X231185Y-17589127D01*
X237105Y-17629390D01*
X209504Y-17675597D01*
X140707Y-17745048D01*
X81229Y-17796741D01*
X10267Y-17838244D01*
X-28439Y-17828666D01*
X-34882Y-17770252D01*
X-9055Y-17665249D01*
X49048Y-17515901D01*
X139435Y-17324455D01*
X180769Y-17244283D01*
X251464Y-17121039D01*
X305308Y-17050527D01*
X345557Y-17028063D01*
X351677Y-17028239D01*
X378357Y-17038772D01*
X393768Y-17074715D01*
X400855Y-17148750D01*
X402563Y-17273558D01*
X402563Y-17519053D01*
X480364Y-17404559D01*
X540174Y-17326254D01*
X614246Y-17266862D01*
X677569Y-17269372D01*
X732841Y-17334298D01*
X782762Y-17462155D01*
X829032Y-17615438D01*
X857919Y-17393188D01*
X970605Y-17393188D01*
X981392Y-17758313D01*
X987380Y-17890082D01*
X998380Y-18026515D01*
X1012155Y-18130670D01*
X1027042Y-18186938D01*
X1052470Y-18235543D01*
X1096921Y-18334591D01*
X1136708Y-18440938D01*
X1144159Y-18460857D01*
X1200869Y-18631438D01*
X1204501Y-18642694D01*
X1242647Y-18754033D01*
X1276017Y-18840377D01*
X1297750Y-18883850D01*
X1301376Y-18885629D01*
X1312557Y-18855277D01*
X1320372Y-18777976D01*
X1323313Y-18666565D01*
X1323400Y-18628714D01*
X1767813Y-18628714D01*
X1768258Y-18658517D01*
X1780216Y-18744426D01*
X1817192Y-18818931D01*
X1890779Y-18908400D01*
X1936580Y-18959116D01*
X2031314Y-19064634D01*
X2112099Y-19155313D01*
X2145114Y-19191024D01*
X2190535Y-19227871D01*
X2207652Y-19214491D01*
X2197479Y-19148207D01*
X2161034Y-19026341D01*
X2139760Y-18967541D01*
X2097741Y-18892752D01*
X2052244Y-18869563D01*
X2033472Y-18865196D01*
X1976187Y-18810710D01*
X1908997Y-18694323D01*
X1867003Y-18611466D01*
X1818980Y-18531759D01*
X1788498Y-18509020D01*
X1772470Y-18541817D01*
X1767813Y-18628714D01*
X1323400Y-18628714D01*
X1323402Y-18627803D01*
X1326236Y-18516318D01*
X1335533Y-18450825D01*
X1354617Y-18417498D01*
X1386813Y-18402512D01*
X1389691Y-18401762D01*
X1426008Y-18390448D01*
X1443228Y-18371564D01*
X1440715Y-18332078D01*
X1417830Y-18258959D01*
X1373938Y-18139175D01*
X1345779Y-18063317D01*
X1332521Y-18028188D01*
X1476885Y-18028188D01*
X1500422Y-18123438D01*
X1505230Y-18141437D01*
X1538175Y-18240773D01*
X1580144Y-18345688D01*
X1591592Y-18371564D01*
X1636328Y-18472688D01*
X1638532Y-18345688D01*
X1622651Y-18228446D01*
X1576054Y-18151802D01*
X1777502Y-18151802D01*
X1784141Y-18193871D01*
X1813913Y-18263362D01*
X1851312Y-18327840D01*
X1867799Y-18345688D01*
X1882965Y-18362107D01*
X1894813Y-18344111D01*
X1892543Y-18330716D01*
X1870336Y-18277373D01*
X1835146Y-18214442D01*
X1800271Y-18164290D01*
X1779006Y-18149286D01*
X1777502Y-18151802D01*
X1576054Y-18151802D01*
X1558810Y-18123438D01*
X1476885Y-18028188D01*
X1332521Y-18028188D01*
X1282093Y-17894578D01*
X1232728Y-17770913D01*
X1192581Y-17681556D01*
X1156547Y-17615740D01*
X1119519Y-17562698D01*
X1076394Y-17511665D01*
X970605Y-17393188D01*
X857919Y-17393188D01*
X877530Y-17242310D01*
X695609Y-17012605D01*
X663148Y-16971524D01*
X528996Y-16799207D01*
X429842Y-16667116D01*
X368758Y-16579322D01*
X364041Y-16575746D01*
X314200Y-16570793D01*
X230003Y-16577037D01*
X133058Y-16591453D01*
X44974Y-16611017D01*
X-12642Y-16632705D01*
X-19487Y-16640688D01*
X-35057Y-16697149D01*
X-40665Y-16783874D01*
X-39394Y-16916938D01*
X8989Y-16827688D01*
X14895Y-16817341D01*
X70219Y-16759703D01*
X123914Y-16753477D01*
X163836Y-16788827D01*
X177839Y-16855920D01*
X153779Y-16944923D01*
X136329Y-16986252D01*
X99729Y-17086322D01*
X54525Y-17219578D01*
X6221Y-17369655D01*
X-39681Y-17520188D01*
X-51994Y-17564962D01*
X-78673Y-17672466D01*
X-105375Y-17790063D01*
X-119910Y-17855480D01*
X-149439Y-17979733D01*
X-175171Y-18078481D01*
X-178238Y-18089870D01*
X-193856Y-18182355D01*
X-352589Y-18182355D01*
X-331743Y-18086760D01*
X-294817Y-17917063D01*
X-287492Y-17883605D01*
X-255207Y-17741153D01*
X-224366Y-17611847D01*
X-200772Y-17520188D01*
X-173376Y-17421415D01*
X-142041Y-17303061D01*
X-125856Y-17226959D01*
X-123405Y-17181461D01*
X-133272Y-17154920D01*
X-154042Y-17135687D01*
X-161046Y-17129234D01*
X-190894Y-17060346D01*
X-202835Y-16945187D01*
X-203977Y-16888110D01*
X-208547Y-16832253D01*
X-219468Y-16828431D01*
X-240367Y-16869313D01*
X-247460Y-16885156D01*
X-287858Y-16974269D01*
X-333468Y-17073714D01*
X-347246Y-17104667D01*
X-378647Y-17186099D01*
X-391187Y-17237004D01*
X-408349Y-17273377D01*
X-464694Y-17299522D01*
X-534336Y-17293439D01*
X-570177Y-17260432D01*
X-599405Y-17191248D01*
X-605807Y-17161254D01*
X-640662Y-17018622D01*
X-693111Y-16826971D01*
X-763948Y-16583554D01*
X-853967Y-16285624D01*
X-963962Y-15930433D01*
X-968965Y-15913278D01*
X-987079Y-15820082D01*
X-993624Y-15728526D01*
X-988173Y-15658792D01*
X-970298Y-15631062D01*
X-946202Y-15617900D01*
X-887599Y-15570548D01*
X-811737Y-15500593D01*
X-761936Y-15455380D01*
X-681820Y-15399493D01*
X-629501Y-15388471D01*
X-592815Y-15412124D01*
X-589065Y-15452598D01*
X-627147Y-15516667D01*
X-710246Y-15613201D01*
X-838805Y-15752671D01*
X-756070Y-16064929D01*
X-720215Y-16198018D01*
X-660035Y-16407910D01*
X-606303Y-16574602D01*
X-555140Y-16710563D01*
X-530638Y-16779601D01*
X-503578Y-16878549D01*
X-486921Y-16929369D01*
X-458172Y-16946101D01*
X-425038Y-16903063D01*
X-390173Y-16802049D01*
X-383779Y-16777005D01*
X-371732Y-16686245D01*
X-390406Y-16632128D01*
X-406560Y-16591661D01*
X-374076Y-16539238D01*
X-351129Y-16502128D01*
X-330342Y-16398412D01*
X-330362Y-16251465D01*
X-349328Y-16071109D01*
X-385381Y-15867166D01*
X-436662Y-15649455D01*
X-501310Y-15427800D01*
X-577467Y-15212020D01*
X-663271Y-15011938D01*
X-664521Y-15009312D01*
X-729250Y-14868131D01*
X-785666Y-14731554D01*
X-839800Y-14583054D01*
X-897683Y-14406106D01*
X-965346Y-14184183D01*
X-985361Y-14099336D01*
X-986401Y-14090511D01*
X-807584Y-14090511D01*
X-804481Y-14151753D01*
X-778651Y-14252869D01*
X-734438Y-14404887D01*
X-720308Y-14450804D01*
X-668686Y-14595469D01*
X-603073Y-14758595D01*
X-534224Y-14912887D01*
X-463690Y-15064273D01*
X-407254Y-15196491D01*
X-363231Y-15319085D01*
X-323100Y-15455970D01*
X-278338Y-15631063D01*
X-252222Y-15734688D01*
X-220047Y-15857609D01*
X-194913Y-15948563D01*
X-167400Y-16061314D01*
X-146596Y-16177534D01*
X-144352Y-16192070D01*
X-119889Y-16277757D01*
X-86343Y-16332234D01*
X-64307Y-16356325D01*
X-41937Y-16412825D01*
X-22528Y-16445292D01*
X45136Y-16450060D01*
X156501Y-16419660D01*
X211372Y-16393755D01*
X242511Y-16353379D01*
X212063Y-16313688D01*
X206025Y-16307670D01*
X187694Y-16253480D01*
X186522Y-16240053D01*
X313591Y-16240053D01*
X331126Y-16255340D01*
X345857Y-16264380D01*
X370813Y-16314460D01*
X371060Y-16322042D01*
X397134Y-16370696D01*
X459432Y-16369822D01*
X467105Y-16364583D01*
X462091Y-16332058D01*
X425555Y-16288544D01*
X374585Y-16251109D01*
X326268Y-16236819D01*
X313591Y-16240053D01*
X186522Y-16240053D01*
X180313Y-16168939D01*
X181926Y-16119632D01*
X197011Y-16060544D01*
X232547Y-16043813D01*
X244524Y-16045305D01*
X307061Y-16068813D01*
X389296Y-16111909D01*
X471935Y-16162945D01*
X535687Y-16210274D01*
X561257Y-16242250D01*
X570163Y-16253464D01*
X620444Y-16264444D01*
X692690Y-16264337D01*
X760990Y-16254005D01*
X799438Y-16234313D01*
X821941Y-16216398D01*
X884161Y-16202563D01*
X917219Y-16198775D01*
X938526Y-16170599D01*
X933878Y-16099375D01*
X929594Y-16075327D01*
X905977Y-15973632D01*
X867697Y-15829038D01*
X818337Y-15654352D01*
X761480Y-15462383D01*
X710276Y-15296860D01*
X880100Y-15296860D01*
X896883Y-15385179D01*
X938186Y-15522631D01*
X963259Y-15603694D01*
X1004255Y-15742072D01*
X1036883Y-15858826D01*
X1063398Y-15940757D01*
X1106711Y-16007059D01*
X1174489Y-16047924D01*
X1213192Y-16066675D01*
X1306354Y-16119004D01*
X1391559Y-16170599D01*
X1425084Y-16190900D01*
X1552932Y-16272598D01*
X1642150Y-16330159D01*
X1748000Y-16395471D01*
X1826087Y-16440062D01*
X1863954Y-16456563D01*
X1870666Y-16457235D01*
X1894813Y-16484609D01*
X1906843Y-16504131D01*
X1958313Y-16529262D01*
X1996740Y-16532334D01*
X2021813Y-16509015D01*
X2013944Y-16464363D01*
X1982346Y-16363801D01*
X1930538Y-16225185D01*
X1862792Y-16059290D01*
X1783380Y-15876893D01*
X1696577Y-15688770D01*
X1523154Y-15323927D01*
X1361706Y-15271120D01*
X1312279Y-15256901D01*
X1170861Y-15229283D01*
X1039535Y-15218313D01*
X1012916Y-15218446D01*
X934511Y-15224318D01*
X891441Y-15246847D01*
X880100Y-15296860D01*
X710276Y-15296860D01*
X700710Y-15265938D01*
X667257Y-15154852D01*
X626494Y-15011600D01*
X587822Y-14869063D01*
X585708Y-14861032D01*
X550459Y-14728408D01*
X517428Y-14606155D01*
X493510Y-14519813D01*
X463981Y-14411268D01*
X435147Y-14297563D01*
X402589Y-14165088D01*
X357808Y-13991507D01*
X315035Y-13834443D01*
X277469Y-13705204D01*
X248312Y-13615096D01*
X230764Y-13575430D01*
X210054Y-13572948D01*
X175286Y-13609173D01*
X155865Y-13640754D01*
X93005Y-13723566D01*
X20239Y-13802497D01*
X-46894Y-13861571D01*
X-92851Y-13884813D01*
X-111614Y-13887211D01*
X-137187Y-13910184D01*
X-142308Y-13923014D01*
X-194575Y-13955371D01*
X-293935Y-13986397D01*
X-428782Y-14012953D01*
X-587506Y-14031901D01*
X-637098Y-14035763D01*
X-728237Y-14043543D01*
X-783618Y-14058117D01*
X-807584Y-14090511D01*
X-986401Y-14090511D01*
X-994437Y-14022318D01*
X-995956Y-14007564D01*
X-1034103Y-13952142D01*
X-1128685Y-13897572D01*
X-1201278Y-13857709D01*
X-1311962Y-13779155D01*
X-1425463Y-13683515D01*
X-1527770Y-13583715D01*
X-1604869Y-13492682D01*
X-1642749Y-13423343D01*
X-1665973Y-13372088D01*
X-1704558Y-13345062D01*
X-1752289Y-13328118D01*
X-1829933Y-13265675D01*
X-1917860Y-13169157D01*
X-2005924Y-13051180D01*
X-2021303Y-13026192D01*
X-1629437Y-13026192D01*
X-1626634Y-13038207D01*
X-1603953Y-13095885D01*
X-1565937Y-13178815D01*
X-1548422Y-13216595D01*
X-1515172Y-13299427D01*
X-1501577Y-13351466D01*
X-1481325Y-13399356D01*
X-1423075Y-13474458D01*
X-1341052Y-13558995D01*
X-1249607Y-13638291D01*
X-1163092Y-13697665D01*
X-1106466Y-13727401D01*
X-1068485Y-13737597D01*
X-1067885Y-13714183D01*
X-1069399Y-13710053D01*
X-1087929Y-13643410D01*
X-1107170Y-13554028D01*
X-1114719Y-13503822D01*
X-1108687Y-13447438D01*
X-1072691Y-13419614D01*
X-1051118Y-13414971D01*
X-992194Y-13438444D01*
X-948212Y-13505252D01*
X-930937Y-13600393D01*
X-921291Y-13686230D01*
X-896081Y-13784825D01*
X-891313Y-13798362D01*
X-868943Y-13847511D01*
X-835581Y-13872919D01*
X-773729Y-13881979D01*
X-665893Y-13882084D01*
X-596492Y-13880274D01*
X-454637Y-13866869D01*
X-336543Y-13835770D01*
X-214247Y-13780700D01*
X-119091Y-13713826D01*
X-7094Y-13598463D01*
X88873Y-13464125D01*
X150454Y-13333328D01*
X160631Y-13302316D01*
X192680Y-13217623D01*
X218424Y-13166412D01*
X221752Y-13157745D01*
X228459Y-13095131D01*
X231067Y-12985972D01*
X229450Y-12842703D01*
X223477Y-12677759D01*
X201858Y-12224881D01*
X160572Y-12306242D01*
X123065Y-12380159D01*
X84804Y-12450835D01*
X2931Y-12564806D01*
X-82881Y-12627537D01*
X-181732Y-12646996D01*
X-240241Y-12648955D01*
X-339257Y-12663315D01*
X-394237Y-12688750D01*
X-395522Y-12721878D01*
X-395212Y-12722268D01*
X-368631Y-12777624D01*
X-344963Y-12859702D01*
X-335391Y-12923538D01*
X-352594Y-12961880D01*
X-412734Y-12983142D01*
X-481488Y-13003699D01*
X-534062Y-13027788D01*
X-551754Y-13035892D01*
X-622379Y-13053212D01*
X-718962Y-13067398D01*
X-762631Y-13071671D01*
X-837886Y-13072326D01*
X-879069Y-13053274D01*
X-906620Y-13008051D01*
X-935715Y-12957817D01*
X-965643Y-12932313D01*
X-983994Y-12920012D01*
X-1010342Y-12868715D01*
X-1015638Y-12853026D01*
X-1037941Y-12823835D01*
X-1075479Y-12850069D01*
X-1083137Y-12856150D01*
X-1146945Y-12885619D01*
X-1250309Y-12918941D01*
X-1374933Y-12950009D01*
X-1414754Y-12958874D01*
X-1524296Y-12986342D01*
X-1541273Y-12991650D01*
X-1600720Y-13010237D01*
X-1629437Y-13026192D01*
X-2021303Y-13026192D01*
X-2083979Y-12924357D01*
X-2141881Y-12801303D01*
X-2175696Y-12704181D01*
X-2176565Y-12700018D01*
X-2007914Y-12700018D01*
X-1994881Y-12763678D01*
X-1941090Y-12872427D01*
X-1920096Y-12908346D01*
X-1872770Y-12975674D01*
X-1847868Y-12991650D01*
X-1850635Y-12956474D01*
X-1886318Y-12870346D01*
X-1901592Y-12837655D01*
X-1918158Y-12797375D01*
X-1724200Y-12797375D01*
X-1723881Y-12819373D01*
X-1716442Y-12847965D01*
X-1690981Y-12859825D01*
X-1636721Y-12854835D01*
X-1542887Y-12832879D01*
X-1398703Y-12793839D01*
X-1279915Y-12758620D01*
X-1192885Y-12723508D01*
X-1139614Y-12685020D01*
X-1105015Y-12634996D01*
X-1078873Y-12581219D01*
X-1062306Y-12519452D01*
X-1088353Y-12493742D01*
X-1161124Y-12493738D01*
X-1175370Y-12495311D01*
X-1241529Y-12515236D01*
X-1255955Y-12555014D01*
X-1259449Y-12589843D01*
X-1296635Y-12647038D01*
X-1298543Y-12648610D01*
X-1344312Y-12670089D01*
X-1384366Y-12636380D01*
X-1408108Y-12612599D01*
X-1459107Y-12599695D01*
X-1546769Y-12613497D01*
X-1651567Y-12650043D01*
X-1707640Y-12707446D01*
X-1724200Y-12797375D01*
X-1918158Y-12797375D01*
X-1934018Y-12758814D01*
X-1946937Y-12711596D01*
X-1948101Y-12702677D01*
X-1978687Y-12678313D01*
X-1980787Y-12678350D01*
X-2007914Y-12700018D01*
X-2176565Y-12700018D01*
X-2197286Y-12600698D01*
X-2186269Y-12530676D01*
X-2142675Y-12481675D01*
X-2137061Y-12477631D01*
X-2104830Y-12445479D01*
X-2103868Y-12403867D01*
X-2132610Y-12329063D01*
X-2154690Y-12273481D01*
X-2167828Y-12235301D01*
X-1997891Y-12235301D01*
X-1978170Y-12308802D01*
X-1930857Y-12419170D01*
X-1913811Y-12455937D01*
X-1871940Y-12540411D01*
X-1842864Y-12578768D01*
X-1816598Y-12580085D01*
X-1783156Y-12553441D01*
X-1747134Y-12529038D01*
X-1656778Y-12488871D01*
X-1547850Y-12455532D01*
X-1473811Y-12435748D01*
X-1393811Y-12408413D01*
X-1356208Y-12387137D01*
X-1355879Y-12384222D01*
X-1388950Y-12372322D01*
X-1468332Y-12363966D01*
X-1579938Y-12360813D01*
X-1666663Y-12359837D01*
X-1759235Y-12353340D01*
X-1806616Y-12338882D01*
X-1819937Y-12314305D01*
X-1809075Y-12277593D01*
X-1744168Y-12228890D01*
X-1624601Y-12197510D01*
X-1454812Y-12185022D01*
X-1336194Y-12180191D01*
X-1235907Y-12170127D01*
X-1177267Y-12157051D01*
X-1134382Y-12151429D01*
X-1100592Y-12181418D01*
X-1098127Y-12232807D01*
X-1134524Y-12283326D01*
X-1135543Y-12284072D01*
X-1161319Y-12308175D01*
X-1141207Y-12314908D01*
X-1066928Y-12307192D01*
X-988869Y-12303432D01*
X-909561Y-12330446D01*
X-877379Y-12399353D01*
X-890190Y-12512634D01*
X-891770Y-12519452D01*
X-894693Y-12532074D01*
X-905278Y-12619805D01*
X-897737Y-12679345D01*
X-871379Y-12734061D01*
X-834001Y-12813250D01*
X-832694Y-12816003D01*
X-780292Y-12878349D01*
X-697514Y-12898351D01*
X-573749Y-12878676D01*
X-531134Y-12860462D01*
X-525687Y-12824759D01*
X-566821Y-12759557D01*
X-595784Y-12702898D01*
X-613437Y-12613622D01*
X-613440Y-12612571D01*
X-628315Y-12523916D01*
X-663389Y-12429187D01*
X-666678Y-12422425D01*
X-689580Y-12357967D01*
X-512165Y-12357967D01*
X-481340Y-12438694D01*
X-450783Y-12492859D01*
X-425778Y-12514016D01*
X-414692Y-12511964D01*
X-354205Y-12504840D01*
X-264187Y-12496469D01*
X-261284Y-12496220D01*
X-141348Y-12470313D01*
X-66455Y-12414703D01*
X-31550Y-12365318D01*
X-13181Y-12306242D01*
X-50100Y-12275576D01*
X-145124Y-12268069D01*
X-183997Y-12269576D01*
X-237317Y-12276564D01*
X-240374Y-12286590D01*
X-219675Y-12299573D01*
X-198749Y-12349369D01*
X-216768Y-12400701D01*
X-267888Y-12424313D01*
X-275619Y-12424189D01*
X-319629Y-12407737D01*
X-321263Y-12351984D01*
X-317667Y-12307534D01*
X-342216Y-12288294D01*
X-412811Y-12291958D01*
X-447845Y-12296702D01*
X-503507Y-12316006D01*
X-512165Y-12357967D01*
X-689580Y-12357967D01*
X-696413Y-12338735D01*
X-702783Y-12273496D01*
X-670150Y-12229931D01*
X-585814Y-12184820D01*
X-464037Y-12146916D01*
X-327672Y-12122049D01*
X345847Y-12122049D01*
X349647Y-12159729D01*
X359197Y-12164696D01*
X370813Y-12138563D01*
X368522Y-12121754D01*
X349647Y-12117396D01*
X345847Y-12122049D01*
X-327672Y-12122049D01*
X-318498Y-12120376D01*
X-162873Y-12109358D01*
X-54892Y-12104059D01*
X29254Y-12092206D01*
X68332Y-12076449D01*
X82616Y-12064310D01*
X133705Y-12063971D01*
X145325Y-12066969D01*
X166844Y-12053277D01*
X177466Y-11999140D01*
X180313Y-11893114D01*
X180313Y-11704372D01*
X-49874Y-11597501D01*
X-63535Y-11591178D01*
X-190404Y-11534030D01*
X-307556Y-11483679D01*
X-391187Y-11450386D01*
X-470220Y-11430578D01*
X-619112Y-11415575D01*
X-788185Y-11415975D01*
X-953141Y-11431391D01*
X-1089687Y-11461440D01*
X-1110985Y-11468810D01*
X-1208849Y-11510185D01*
X-1244885Y-11528470D01*
X-1313042Y-11563054D01*
X-1407443Y-11618168D01*
X-1475929Y-11666282D01*
X-1502380Y-11698148D01*
X-1502559Y-11699435D01*
X-1532351Y-11725040D01*
X-1597687Y-11757563D01*
X-1603481Y-11760000D01*
X-1666852Y-11792543D01*
X-1692937Y-11817164D01*
X-1692961Y-11817643D01*
X-1720095Y-11843569D01*
X-1783022Y-11877187D01*
X-1853811Y-11925164D01*
X-1910022Y-11996063D01*
X-1939772Y-12059789D01*
X-1982780Y-12152062D01*
X-1993610Y-12180216D01*
X-1997891Y-12235301D01*
X-2167828Y-12235301D01*
X-2199992Y-12141831D01*
X-2248127Y-11985602D01*
X-2291952Y-11828457D01*
X-2324321Y-11694063D01*
X-2328235Y-11631144D01*
X-2189574Y-11631144D01*
X-2167936Y-11715612D01*
X-2165457Y-11723383D01*
X-2128217Y-11838618D01*
X-2101351Y-11900592D01*
X-2074529Y-11915545D01*
X-2037420Y-11889720D01*
X-1979696Y-11829358D01*
X-1969958Y-11818982D01*
X-1905389Y-11738315D01*
X-1875996Y-11660515D01*
X-1872011Y-11602656D01*
X-1684774Y-11602656D01*
X-1681869Y-11630563D01*
X-1657335Y-11616531D01*
X-1602437Y-11579516D01*
X-1529558Y-11528470D01*
X-1594045Y-11468391D01*
X-1640611Y-11427389D01*
X-1667796Y-11408455D01*
X-1669039Y-11409399D01*
X-1676649Y-11446098D01*
X-1682742Y-11519580D01*
X-1683426Y-11534045D01*
X-1683793Y-11552702D01*
X-1684774Y-11602656D01*
X-1872011Y-11602656D01*
X-1868571Y-11552702D01*
X-1868724Y-11501731D01*
X-1874723Y-11431739D01*
X-1893471Y-11403780D01*
X-1931062Y-11403283D01*
X-1968823Y-11414499D01*
X-2005145Y-11442971D01*
X-2011107Y-11452738D01*
X-2055786Y-11471813D01*
X-2094893Y-11486416D01*
X-2151264Y-11533050D01*
X-2183205Y-11577581D01*
X-2189574Y-11631144D01*
X-2328235Y-11631144D01*
X-2332205Y-11567316D01*
X-2295440Y-11452442D01*
X-2214651Y-11375406D01*
X-2203537Y-11369179D01*
X-2194506Y-11360688D01*
X-1407187Y-11360688D01*
X-1391312Y-11376563D01*
X-1375437Y-11360688D01*
X-1391312Y-11344813D01*
X-1407187Y-11360688D01*
X-2194506Y-11360688D01*
X-2160958Y-11329144D01*
X-2180498Y-11297419D01*
X-2261194Y-11276063D01*
X-2314568Y-11257882D01*
X-2372319Y-11208493D01*
X-2383823Y-11175527D01*
X-2374888Y-11148569D01*
X-2151388Y-11148569D01*
X-2115498Y-11153453D01*
X-2070604Y-11160130D01*
X-2026312Y-11186063D01*
X-1999344Y-11210644D01*
X-1944462Y-11211473D01*
X-1902865Y-11167998D01*
X-1888151Y-11149157D01*
X-1109802Y-11149157D01*
X-1083125Y-11216521D01*
X-1073542Y-11230211D01*
X-1026106Y-11271071D01*
X-982079Y-11281367D01*
X-962687Y-11254421D01*
X-979426Y-11216618D01*
X-1023339Y-11157595D01*
X-1053765Y-11128757D01*
X-1096277Y-11116218D01*
X-1108498Y-11145981D01*
X-1109802Y-11149157D01*
X-1888151Y-11149157D01*
X-1880424Y-11139263D01*
X-1817953Y-11139067D01*
X-1794308Y-11146185D01*
X-1771480Y-11145981D01*
X-1781620Y-11116707D01*
X-1825734Y-11046399D01*
X-1844924Y-11017967D01*
X-1892916Y-10956957D01*
X-1904207Y-10947938D01*
X-946812Y-10947938D01*
X-879672Y-11027313D01*
X-819201Y-11099250D01*
X-753554Y-11178125D01*
X-701755Y-11227004D01*
X-652562Y-11249563D01*
X-639628Y-11240881D01*
X-645569Y-11231249D01*
X-454374Y-11231249D01*
X-447195Y-11240881D01*
X-441117Y-11249038D01*
X-431894Y-11254421D01*
X-382043Y-11283519D01*
X-291733Y-11319251D01*
X-166739Y-11360688D01*
X-129404Y-11373065D01*
X-199288Y-11298676D01*
X-225887Y-11274955D01*
X-296855Y-11233847D01*
X-371600Y-11209421D01*
X-430610Y-11206836D01*
X-454374Y-11231249D01*
X-645569Y-11231249D01*
X-663057Y-11202895D01*
X-733597Y-11132507D01*
X-835337Y-11043188D01*
X-232437Y-11043188D01*
X-216562Y-11059063D01*
X-200687Y-11043188D01*
X-216562Y-11027313D01*
X-232437Y-11043188D01*
X-835337Y-11043188D01*
X-853420Y-11027313D01*
X-909455Y-10979688D01*
X-295937Y-10979688D01*
X-280062Y-10995563D01*
X-264187Y-10979688D01*
X-280062Y-10963813D01*
X-295937Y-10979688D01*
X-909455Y-10979688D01*
X-946812Y-10947938D01*
X-1904207Y-10947938D01*
X-1923590Y-10932456D01*
X-1940136Y-10939633D01*
X-1994276Y-10979361D01*
X-2066465Y-11042328D01*
X-2109125Y-11082661D01*
X-2150771Y-11128387D01*
X-2151388Y-11148569D01*
X-2374888Y-11148569D01*
X-2370364Y-11134918D01*
X-2322507Y-11077941D01*
X-2232687Y-10992912D01*
X-2222699Y-10983812D01*
X-2108875Y-10877687D01*
X-1979445Y-10753798D01*
X-1966976Y-10741563D01*
X-1502437Y-10741563D01*
X-1501514Y-10749152D01*
X-1470687Y-10773313D01*
X-1401153Y-10773313D01*
X-1396228Y-10790819D01*
X-1359562Y-10836813D01*
X-1316842Y-10879447D01*
X-1286220Y-10900313D01*
X-1291145Y-10882806D01*
X-1327812Y-10836813D01*
X-1370531Y-10794178D01*
X-1401153Y-10773313D01*
X-1470687Y-10773313D01*
X-1463097Y-10772390D01*
X-1438937Y-10741563D01*
X-1439859Y-10733973D01*
X-1450431Y-10725688D01*
X-1216687Y-10725688D01*
X-1200812Y-10741563D01*
X-1184937Y-10725688D01*
X-1200812Y-10709813D01*
X-1216687Y-10725688D01*
X-1450431Y-10725688D01*
X-1470687Y-10709813D01*
X-1478276Y-10710735D01*
X-1502437Y-10741563D01*
X-1966976Y-10741563D01*
X-1860517Y-10637106D01*
X-1837931Y-10614563D01*
X-1359562Y-10614563D01*
X-1353045Y-10624064D01*
X-1325938Y-10646313D01*
X-1322769Y-10645487D01*
X-1311937Y-10614563D01*
X-1313229Y-10605860D01*
X-1317317Y-10602946D01*
X-1242820Y-10602946D01*
X-1216687Y-10614563D01*
X-1199878Y-10612271D01*
X-1195520Y-10593396D01*
X-1200173Y-10589596D01*
X-1237853Y-10593396D01*
X-1242820Y-10602946D01*
X-1317317Y-10602946D01*
X-1345560Y-10582813D01*
X-1357044Y-10585305D01*
X-1359562Y-10614563D01*
X-1837931Y-10614563D01*
X-1662973Y-10439938D01*
X-1368392Y-10441222D01*
X-1173983Y-10450838D01*
X-973389Y-10485253D01*
X-767993Y-10549932D01*
X-667587Y-10593396D01*
X-536035Y-10650343D01*
X-506486Y-10663715D01*
X-417776Y-10696636D01*
X-355042Y-10709813D01*
X-317525Y-10725688D01*
X-307876Y-10729771D01*
X-228858Y-10788986D01*
G37*
X-228858Y-10788986D02*
X-131168Y-10876656D01*
X-107455Y-10900313D01*
X-27896Y-10979688D01*
X-25717Y-10981862D01*
X30390Y-11043188D01*
X76585Y-11093681D01*
X164827Y-11201194D01*
X228096Y-11293479D01*
X249487Y-11331873D01*
X267264Y-11373065D01*
X293303Y-11433405D01*
X318818Y-11546661D01*
X332713Y-11697431D01*
X333223Y-11704372D01*
X341107Y-11811867D01*
X354208Y-11897646D01*
X374210Y-11944196D01*
X404631Y-11964594D01*
X421979Y-11972433D01*
X475049Y-12035614D01*
X508039Y-12138563D01*
X508920Y-12141315D01*
X522919Y-12275117D01*
X516374Y-12422602D01*
X488613Y-12569351D01*
X438964Y-12700946D01*
X425206Y-12729858D01*
X393436Y-12826100D01*
X375063Y-12947904D01*
X373170Y-12985972D01*
X366805Y-13114054D01*
X366016Y-13171469D01*
X367769Y-13294836D01*
X373880Y-13388311D01*
X383478Y-13435118D01*
X391632Y-13453453D01*
X412300Y-13525982D01*
X432113Y-13622961D01*
X434112Y-13634151D01*
X454407Y-13730483D01*
X486660Y-13868452D01*
X526857Y-14031310D01*
X570982Y-14202313D01*
X576918Y-14224795D01*
X623257Y-14400378D01*
X667790Y-14569236D01*
X705713Y-14713144D01*
X732222Y-14813881D01*
X754809Y-14895696D01*
X781595Y-14982245D01*
X799674Y-15028194D01*
X831794Y-15042809D01*
X911341Y-15054914D01*
X1018215Y-15059563D01*
X1054318Y-15060126D01*
X1221919Y-15076020D01*
X1382156Y-15110347D01*
X1520996Y-15158472D01*
X1624404Y-15215759D01*
X1678346Y-15277574D01*
X1706837Y-15344997D01*
X1745024Y-15424688D01*
X1851018Y-15632603D01*
X1947120Y-15845118D01*
X2037646Y-16075069D01*
X2131992Y-16344793D01*
X2173446Y-16466413D01*
X2188564Y-16509015D01*
X2219600Y-16596481D01*
X2257069Y-16696294D01*
X2280352Y-16750794D01*
X2296934Y-16803614D01*
X2268938Y-16858045D01*
X2244500Y-16878215D01*
X2205470Y-16879800D01*
X2146776Y-16839055D01*
X2078332Y-16783273D01*
X2019107Y-16739278D01*
X1955975Y-16700284D01*
X1862884Y-16648834D01*
X1813950Y-16621194D01*
X1729890Y-16568766D01*
X1678233Y-16529771D01*
X1652456Y-16508238D01*
X1609063Y-16488312D01*
X1589345Y-16482756D01*
X1539894Y-16448625D01*
X1504500Y-16418653D01*
X1422293Y-16361269D01*
X1328167Y-16305119D01*
X1238203Y-16258859D01*
X1168481Y-16231149D01*
X1135079Y-16230647D01*
X1112677Y-16250255D01*
X1044801Y-16291320D01*
X951585Y-16338238D01*
X896686Y-16364583D01*
X877259Y-16373906D01*
X825508Y-16406146D01*
X816613Y-16431303D01*
X841656Y-16459190D01*
X892010Y-16500857D01*
X974174Y-16568549D01*
X1069696Y-16647063D01*
X1190883Y-16748323D01*
X1287820Y-16835457D01*
X1347802Y-16900124D01*
X1378307Y-16950528D01*
X1386813Y-16994869D01*
X1384168Y-17024157D01*
X1356308Y-17056192D01*
X1299249Y-17033410D01*
X1214443Y-16956137D01*
X1149216Y-16891747D01*
X1048219Y-16800027D01*
X942313Y-16710074D01*
X848061Y-16632517D01*
X761907Y-16560332D01*
X706139Y-16512125D01*
X650609Y-16468034D01*
X606079Y-16463006D01*
X547294Y-16498904D01*
X522173Y-16518783D01*
X507052Y-16552714D01*
X538930Y-16602092D01*
X544169Y-16608596D01*
X592066Y-16670082D01*
X662279Y-16762064D01*
X741580Y-16867231D01*
X812345Y-16956217D01*
X900735Y-17044612D01*
X966110Y-17076237D01*
X987323Y-17077451D01*
X1020374Y-17081934D01*
X1046400Y-17098282D01*
X1074480Y-17137615D01*
X1113695Y-17211049D01*
X1129353Y-17242310D01*
X1173126Y-17329703D01*
X1178689Y-17340681D01*
X1252397Y-17471975D01*
X1346659Y-17622354D01*
X1448812Y-17773068D01*
X1546195Y-17905367D01*
X1626144Y-18000502D01*
X1626933Y-18001322D01*
X1677128Y-18022907D01*
X1722424Y-17991454D01*
X1755195Y-17917198D01*
X1767813Y-17810375D01*
X1768293Y-17760698D01*
X1775858Y-17695219D01*
X1800119Y-17668292D01*
X1850543Y-17663063D01*
X1862556Y-17663796D01*
X1945210Y-17690515D01*
X2029154Y-17743742D01*
X2049875Y-17760534D01*
X2109069Y-17800584D01*
X2140333Y-17809126D01*
X2140789Y-17808515D01*
X2132166Y-17773141D01*
X2099084Y-17701626D01*
X2050650Y-17610411D01*
X1995969Y-17515939D01*
X1944149Y-17434649D01*
X1904296Y-17382982D01*
X1882936Y-17357284D01*
X1863063Y-17313813D01*
X1857466Y-17294048D01*
X1823233Y-17244643D01*
X1823129Y-17244533D01*
X1783437Y-17199444D01*
X1717907Y-17121875D01*
X1640671Y-17028553D01*
X1617225Y-17000420D01*
X1517198Y-16885993D01*
X1399051Y-16756831D01*
X1283626Y-16635856D01*
X1229216Y-16578988D01*
X1146983Y-16486800D01*
X1090381Y-16414891D01*
X1069313Y-16375303D01*
X1069452Y-16369310D01*
X1091821Y-16320639D01*
X1145577Y-16315029D01*
X1220873Y-16348290D01*
X1307865Y-16416230D01*
X1396704Y-16514659D01*
X1440383Y-16569055D01*
X1529048Y-16672900D01*
X1620192Y-16773743D01*
X1674407Y-16833227D01*
X1776698Y-16951629D01*
X1864301Y-17059813D01*
X1911125Y-17120264D01*
X1963369Y-17186460D01*
X1990063Y-17218563D01*
X2013390Y-17251005D01*
X2051796Y-17313813D01*
X2080965Y-17363469D01*
X2137586Y-17458279D01*
X2201037Y-17563334D01*
X2203863Y-17568021D01*
X2261169Y-17676856D01*
X2316851Y-17804745D01*
X2365702Y-17936445D01*
X2402515Y-18056713D01*
X2422084Y-18150307D01*
X2419201Y-18201984D01*
X2412510Y-18211516D01*
X2373404Y-18232251D01*
X2315722Y-18212613D01*
X2233012Y-18149084D01*
X2118824Y-18038145D01*
X2081181Y-18000204D01*
X1998800Y-17922969D01*
X1937417Y-17873590D01*
X1908150Y-17861393D01*
X1903721Y-17869952D01*
X1907364Y-17926096D01*
X1932344Y-18010027D01*
X1971385Y-18100686D01*
X2017211Y-18177016D01*
X2040619Y-18216414D01*
X2081314Y-18313048D01*
X2090795Y-18344111D01*
X2115500Y-18425063D01*
X2134312Y-18497275D01*
X2162048Y-18591051D01*
X2183019Y-18647313D01*
X2208397Y-18701286D01*
X2266809Y-18853291D01*
X2325130Y-19036811D01*
X2372601Y-19214491D01*
X2376876Y-19230495D01*
X2415561Y-19412988D01*
X2423823Y-19493583D01*
X2412059Y-19582208D01*
X2377450Y-19627254D01*
X2326702Y-19622100D01*
X2266521Y-19560125D01*
X2253481Y-19542466D01*
X2195860Y-19473458D01*
X2112548Y-19380123D01*
X2016807Y-19277475D01*
X1976495Y-19235153D01*
X1883410Y-19137131D01*
X1807244Y-19056533D01*
X1761473Y-19007600D01*
X1721219Y-18965092D01*
X1672821Y-18917188D01*
X1662848Y-18907110D01*
X1615244Y-18850824D01*
X1556564Y-18774313D01*
X1474991Y-18663188D01*
X1496461Y-18865883D01*
X1508843Y-18946769D01*
X1516644Y-18980688D01*
X1541254Y-19087697D01*
X1559327Y-19151349D01*
X1592003Y-19266438D01*
X1593004Y-19269967D01*
X1665412Y-19497878D01*
X1759796Y-19775727D01*
X1808027Y-19911831D01*
X1832471Y-19980813D01*
X1877475Y-20107813D01*
X1952926Y-20315878D01*
X2015353Y-20483019D01*
X2069748Y-20621001D01*
X2122470Y-20745389D01*
X2179879Y-20871754D01*
X2248334Y-21015662D01*
X2289323Y-21103083D01*
X2360413Y-21276393D01*
X2395843Y-21406739D01*
X2396860Y-21499976D01*
X2364713Y-21561963D01*
X2343688Y-21580470D01*
X2306748Y-21600063D01*
X2297421Y-21598798D01*
X2245125Y-21556725D01*
X2184995Y-21459506D01*
X2120241Y-21313186D01*
X2054070Y-21123813D01*
X2018549Y-21015692D01*
X1970059Y-20880829D01*
X1926756Y-20773767D01*
X1895022Y-20711063D01*
X1863419Y-20661420D01*
X1806183Y-20564828D01*
X1745565Y-20457063D01*
X1706037Y-20385664D01*
X1625238Y-20243144D01*
X1550220Y-20114353D01*
X1504970Y-20034910D01*
X1468965Y-19964299D01*
X1647597Y-19964299D01*
X1651397Y-20001979D01*
X1660947Y-20006946D01*
X1672563Y-19980813D01*
X1670272Y-19964004D01*
X1651397Y-19959646D01*
X1647597Y-19964299D01*
X1468965Y-19964299D01*
X1465503Y-19957510D01*
X1450313Y-19915915D01*
X1449823Y-19909787D01*
X1426501Y-19885315D01*
X1402510Y-19868066D01*
X1367041Y-19813877D01*
X1365449Y-19810699D01*
X1291579Y-19663787D01*
X1206227Y-19494983D01*
X1175755Y-19434952D01*
X1419654Y-19434952D01*
X1433185Y-19549249D01*
X1500864Y-19720702D01*
X1535594Y-19781382D01*
X1585865Y-19860586D01*
X1621584Y-19906433D01*
X1636813Y-19911831D01*
X1625613Y-19869688D01*
X1621200Y-19858058D01*
X1594594Y-19785575D01*
X1555573Y-19677371D01*
X1510906Y-19552188D01*
X1467973Y-19432528D01*
X1441009Y-19364746D01*
X1426771Y-19346159D01*
X1421055Y-19371363D01*
X1419654Y-19434952D01*
X1175755Y-19434952D01*
X1113856Y-19313011D01*
X1090140Y-19266438D01*
X1386813Y-19266438D01*
X1402688Y-19282313D01*
X1418563Y-19266438D01*
X1402688Y-19250563D01*
X1386813Y-19266438D01*
X1090140Y-19266438D01*
X1018931Y-19126601D01*
X1000442Y-19090401D01*
X1199045Y-19090401D01*
X1224124Y-19132029D01*
X1228305Y-19136131D01*
X1251564Y-19151349D01*
X1241897Y-19114256D01*
X1226063Y-19084625D01*
X1202445Y-19075097D01*
X1199045Y-19090401D01*
X1000442Y-19090401D01*
X925914Y-18944478D01*
X910562Y-18914514D01*
X1150230Y-18914514D01*
X1152449Y-18947288D01*
X1162697Y-18970368D01*
X1186110Y-18995534D01*
X1191361Y-18980688D01*
X1323313Y-18980688D01*
X1339188Y-18996563D01*
X1355063Y-18980688D01*
X1339188Y-18964813D01*
X1323313Y-18980688D01*
X1191361Y-18980688D01*
X1196313Y-18966686D01*
X1195185Y-18958063D01*
X1164927Y-18917412D01*
X1150230Y-18914514D01*
X910562Y-18914514D01*
X839270Y-18775369D01*
X763463Y-18628001D01*
X702956Y-18511101D01*
X662213Y-18433396D01*
X645697Y-18403613D01*
X643160Y-18409200D01*
X648062Y-18458383D01*
X662717Y-18542975D01*
X696782Y-18720970D01*
X761246Y-19083469D01*
X807460Y-19386908D01*
X835508Y-19632487D01*
X845471Y-19821405D01*
X837434Y-19954861D01*
X811479Y-20034056D01*
X767688Y-20060188D01*
X753443Y-20059303D01*
X720040Y-20040922D01*
X698105Y-19987789D01*
X680477Y-19885563D01*
X666795Y-19785038D01*
X631054Y-19525410D01*
X601784Y-19318082D01*
X577843Y-19155050D01*
X558088Y-19028313D01*
X557555Y-19025016D01*
X539194Y-18902281D01*
X518333Y-18749765D01*
X499383Y-18599688D01*
X496855Y-18578995D01*
X478255Y-18445243D01*
X458479Y-18327939D01*
X441406Y-18250438D01*
X419804Y-18193317D01*
X381095Y-18165273D01*
X305001Y-18166309D01*
X253893Y-18173371D01*
X123355Y-18218354D01*
X6958Y-18310065D01*
X-7413Y-18325165D01*
X-69062Y-18399227D01*
X-137110Y-18491017D01*
X-200011Y-18583731D01*
X-246218Y-18660563D01*
X-264187Y-18704708D01*
X-272557Y-18728383D01*
X-313405Y-18775635D01*
X-321581Y-18782161D01*
X-366434Y-18798166D01*
X-415397Y-18763709D01*
X-433184Y-18743938D01*
X-448925Y-18710573D01*
X-450588Y-18660240D01*
X-437955Y-18578005D01*
X-410809Y-18448936D01*
X-409723Y-18443979D01*
X-372950Y-18275723D01*
X-352589Y-18182355D01*
X-193856Y-18182355D01*
X-191837Y-18253106D01*
X-181450Y-18282712D01*
X-172620Y-18276877D01*
X-171737Y-18273602D01*
X-138300Y-18235139D01*
X-66692Y-18176007D01*
X29501Y-18107585D01*
X103113Y-18056286D01*
X178683Y-17990152D01*
X221371Y-17926793D01*
X436340Y-17926793D01*
X465015Y-17968439D01*
X527311Y-17980563D01*
X547091Y-17981145D01*
X591881Y-17992291D01*
X631328Y-18026555D01*
X675938Y-18095515D01*
X736221Y-18210750D01*
X852133Y-18440938D01*
X837886Y-18218688D01*
X825446Y-18105697D01*
X788591Y-17924501D01*
X726744Y-17705998D01*
X637487Y-17440813D01*
X636173Y-17437332D01*
X616457Y-17420110D01*
X587737Y-17451410D01*
X547416Y-17535469D01*
X492892Y-17676526D01*
X476271Y-17723289D01*
X440390Y-17847714D01*
X436340Y-17926793D01*
X221371Y-17926793D01*
X227452Y-17917767D01*
X255318Y-17824839D01*
X268181Y-17697077D01*
X271939Y-17520188D01*
X272050Y-17499263D01*
X271388Y-17405267D01*
X265853Y-17365456D01*
X251903Y-17371820D01*
X225993Y-17416351D01*
X211480Y-17444874D01*
X195864Y-17508460D01*
X219327Y-17567850D01*
X231185Y-17589127D01*
X237105Y-17629390D01*
X209504Y-17675597D01*
X140707Y-17745048D01*
X81229Y-17796741D01*
X10267Y-17838244D01*
X-28439Y-17828666D01*
X-34882Y-17770252D01*
X-9055Y-17665249D01*
X49048Y-17515901D01*
X139435Y-17324455D01*
X180769Y-17244283D01*
X251464Y-17121039D01*
X305308Y-17050527D01*
X345557Y-17028063D01*
X351677Y-17028239D01*
X378357Y-17038772D01*
X393768Y-17074715D01*
X400855Y-17148750D01*
X402563Y-17273558D01*
X402563Y-17519053D01*
X480364Y-17404559D01*
X540174Y-17326254D01*
X614246Y-17266862D01*
X677569Y-17269372D01*
X732841Y-17334298D01*
X782762Y-17462155D01*
X829032Y-17615438D01*
X857919Y-17393188D01*
X970605Y-17393188D01*
X981392Y-17758313D01*
X987380Y-17890082D01*
X998380Y-18026515D01*
X1012155Y-18130670D01*
X1027042Y-18186938D01*
X1052470Y-18235543D01*
X1096921Y-18334591D01*
X1136708Y-18440938D01*
X1144159Y-18460857D01*
X1200869Y-18631438D01*
X1204501Y-18642694D01*
X1242647Y-18754033D01*
X1276017Y-18840377D01*
X1297750Y-18883850D01*
X1301376Y-18885629D01*
X1312557Y-18855277D01*
X1320372Y-18777976D01*
X1323313Y-18666565D01*
X1323400Y-18628714D01*
X1767813Y-18628714D01*
X1768258Y-18658517D01*
X1780216Y-18744426D01*
X1817192Y-18818931D01*
X1890779Y-18908400D01*
X1936580Y-18959116D01*
X2031314Y-19064634D01*
X2112099Y-19155313D01*
X2145114Y-19191024D01*
X2190535Y-19227871D01*
X2207652Y-19214491D01*
X2197479Y-19148207D01*
X2161034Y-19026341D01*
X2139760Y-18967541D01*
X2097741Y-18892752D01*
X2052244Y-18869563D01*
X2033472Y-18865196D01*
X1976187Y-18810710D01*
X1908997Y-18694323D01*
X1867003Y-18611466D01*
X1818980Y-18531759D01*
X1788498Y-18509020D01*
X1772470Y-18541817D01*
X1767813Y-18628714D01*
X1323400Y-18628714D01*
X1323402Y-18627803D01*
X1326236Y-18516318D01*
X1335533Y-18450825D01*
X1354617Y-18417498D01*
X1386813Y-18402512D01*
X1389691Y-18401762D01*
X1426008Y-18390448D01*
X1443228Y-18371564D01*
X1440715Y-18332078D01*
X1417830Y-18258959D01*
X1373938Y-18139175D01*
X1345779Y-18063317D01*
X1332521Y-18028188D01*
X1476885Y-18028188D01*
X1500422Y-18123438D01*
X1505230Y-18141437D01*
X1538175Y-18240773D01*
X1580144Y-18345688D01*
X1591592Y-18371564D01*
X1636328Y-18472688D01*
X1638532Y-18345688D01*
X1622651Y-18228446D01*
X1576054Y-18151802D01*
X1777502Y-18151802D01*
X1784141Y-18193871D01*
X1813913Y-18263362D01*
X1851312Y-18327840D01*
X1867799Y-18345688D01*
X1882965Y-18362107D01*
X1894813Y-18344111D01*
X1892543Y-18330716D01*
X1870336Y-18277373D01*
X1835146Y-18214442D01*
X1800271Y-18164290D01*
X1779006Y-18149286D01*
X1777502Y-18151802D01*
X1576054Y-18151802D01*
X1558810Y-18123438D01*
X1476885Y-18028188D01*
X1332521Y-18028188D01*
X1282093Y-17894578D01*
X1232728Y-17770913D01*
X1192581Y-17681556D01*
X1156547Y-17615740D01*
X1119519Y-17562698D01*
X1076394Y-17511665D01*
X970605Y-17393188D01*
X857919Y-17393188D01*
X877530Y-17242310D01*
X695609Y-17012605D01*
X663148Y-16971524D01*
X528996Y-16799207D01*
X429842Y-16667116D01*
X368758Y-16579322D01*
X364041Y-16575746D01*
X314200Y-16570793D01*
X230003Y-16577037D01*
X133058Y-16591453D01*
X44974Y-16611017D01*
X-12642Y-16632705D01*
X-19487Y-16640688D01*
X-35057Y-16697149D01*
X-40665Y-16783874D01*
X-39394Y-16916938D01*
X8989Y-16827688D01*
X14895Y-16817341D01*
X70219Y-16759703D01*
X123914Y-16753477D01*
X163836Y-16788827D01*
X177839Y-16855920D01*
X153779Y-16944923D01*
X136329Y-16986252D01*
X99729Y-17086322D01*
X54525Y-17219578D01*
X6221Y-17369655D01*
X-39681Y-17520188D01*
X-51994Y-17564962D01*
X-78673Y-17672466D01*
X-105375Y-17790063D01*
X-119910Y-17855480D01*
X-149439Y-17979733D01*
X-175171Y-18078481D01*
X-178238Y-18089870D01*
X-193856Y-18182355D01*
X-352589Y-18182355D01*
X-331743Y-18086760D01*
X-294817Y-17917063D01*
X-287492Y-17883605D01*
X-255207Y-17741153D01*
X-224366Y-17611847D01*
X-200772Y-17520188D01*
X-173376Y-17421415D01*
X-142041Y-17303061D01*
X-125856Y-17226959D01*
X-123405Y-17181461D01*
X-133272Y-17154920D01*
X-154042Y-17135687D01*
X-161046Y-17129234D01*
X-190894Y-17060346D01*
X-202835Y-16945187D01*
X-203977Y-16888110D01*
X-208547Y-16832253D01*
X-219468Y-16828431D01*
X-240367Y-16869313D01*
X-247460Y-16885156D01*
X-287858Y-16974269D01*
X-333468Y-17073714D01*
X-347246Y-17104667D01*
X-378647Y-17186099D01*
X-391187Y-17237004D01*
X-408349Y-17273377D01*
X-464694Y-17299522D01*
X-534336Y-17293439D01*
X-570177Y-17260432D01*
X-599405Y-17191248D01*
X-605807Y-17161254D01*
X-640662Y-17018622D01*
X-693111Y-16826971D01*
X-763948Y-16583554D01*
X-853967Y-16285624D01*
X-963962Y-15930433D01*
X-968965Y-15913278D01*
X-987079Y-15820082D01*
X-993624Y-15728526D01*
X-988173Y-15658792D01*
X-970298Y-15631062D01*
X-946202Y-15617900D01*
X-887599Y-15570548D01*
X-811737Y-15500593D01*
X-761936Y-15455380D01*
X-681820Y-15399493D01*
X-629501Y-15388471D01*
X-592815Y-15412124D01*
X-589065Y-15452598D01*
X-627147Y-15516667D01*
X-710246Y-15613201D01*
X-838805Y-15752671D01*
X-756070Y-16064929D01*
X-720215Y-16198018D01*
X-660035Y-16407910D01*
X-606303Y-16574602D01*
X-555140Y-16710563D01*
X-530638Y-16779601D01*
X-503578Y-16878549D01*
X-486921Y-16929369D01*
X-458172Y-16946101D01*
X-425038Y-16903063D01*
X-390173Y-16802049D01*
X-383779Y-16777005D01*
X-371732Y-16686245D01*
X-390406Y-16632128D01*
X-406560Y-16591661D01*
X-374076Y-16539238D01*
X-351129Y-16502128D01*
X-330342Y-16398412D01*
X-330362Y-16251465D01*
X-349328Y-16071109D01*
X-385381Y-15867166D01*
X-436662Y-15649455D01*
X-501310Y-15427800D01*
X-577467Y-15212020D01*
X-663271Y-15011938D01*
X-664521Y-15009312D01*
X-729250Y-14868131D01*
X-785666Y-14731554D01*
X-839800Y-14583054D01*
X-897683Y-14406106D01*
X-965346Y-14184183D01*
X-985361Y-14099336D01*
X-986401Y-14090511D01*
X-807584Y-14090511D01*
X-804481Y-14151753D01*
X-778651Y-14252869D01*
X-734438Y-14404887D01*
X-720308Y-14450804D01*
X-668686Y-14595469D01*
X-603073Y-14758595D01*
X-534224Y-14912887D01*
X-463690Y-15064273D01*
X-407254Y-15196491D01*
X-363231Y-15319085D01*
X-323100Y-15455970D01*
X-278338Y-15631063D01*
X-252222Y-15734688D01*
X-220047Y-15857609D01*
X-194913Y-15948563D01*
X-167400Y-16061314D01*
X-146596Y-16177534D01*
X-144352Y-16192070D01*
X-119889Y-16277757D01*
X-86343Y-16332234D01*
X-64307Y-16356325D01*
X-41937Y-16412825D01*
X-22528Y-16445292D01*
X45136Y-16450060D01*
X156501Y-16419660D01*
X211372Y-16393755D01*
X242511Y-16353379D01*
X212063Y-16313688D01*
X206025Y-16307670D01*
X187694Y-16253480D01*
X186522Y-16240053D01*
X313591Y-16240053D01*
X331126Y-16255340D01*
X345857Y-16264380D01*
X370813Y-16314460D01*
X371060Y-16322042D01*
X397134Y-16370696D01*
X459432Y-16369822D01*
X467105Y-16364583D01*
X462091Y-16332058D01*
X425555Y-16288544D01*
X374585Y-16251109D01*
X326268Y-16236819D01*
X313591Y-16240053D01*
X186522Y-16240053D01*
X180313Y-16168939D01*
X181926Y-16119632D01*
X197011Y-16060544D01*
X232547Y-16043813D01*
X244524Y-16045305D01*
X307061Y-16068813D01*
X389296Y-16111909D01*
X471935Y-16162945D01*
X535687Y-16210274D01*
X561257Y-16242250D01*
X570163Y-16253464D01*
X620444Y-16264444D01*
X692690Y-16264337D01*
X760990Y-16254005D01*
X799438Y-16234313D01*
X821941Y-16216398D01*
X884161Y-16202563D01*
X917219Y-16198775D01*
X938526Y-16170599D01*
X933878Y-16099375D01*
X929594Y-16075327D01*
X905977Y-15973632D01*
X867697Y-15829038D01*
X818337Y-15654352D01*
X761480Y-15462383D01*
X710276Y-15296860D01*
X880100Y-15296860D01*
X896883Y-15385179D01*
X938186Y-15522631D01*
X963259Y-15603694D01*
X1004255Y-15742072D01*
X1036883Y-15858826D01*
X1063398Y-15940757D01*
X1106711Y-16007059D01*
X1174489Y-16047924D01*
X1213192Y-16066675D01*
X1306354Y-16119004D01*
X1391559Y-16170599D01*
X1425084Y-16190900D01*
X1552932Y-16272598D01*
X1642150Y-16330159D01*
X1748000Y-16395471D01*
X1826087Y-16440062D01*
X1863954Y-16456563D01*
X1870666Y-16457235D01*
X1894813Y-16484609D01*
X1906843Y-16504131D01*
X1958313Y-16529262D01*
X1996740Y-16532334D01*
X2021813Y-16509015D01*
X2013944Y-16464363D01*
X1982346Y-16363801D01*
X1930538Y-16225185D01*
X1862792Y-16059290D01*
X1783380Y-15876893D01*
X1696577Y-15688770D01*
X1523154Y-15323927D01*
X1361706Y-15271120D01*
X1312279Y-15256901D01*
X1170861Y-15229283D01*
X1039535Y-15218313D01*
X1012916Y-15218446D01*
X934511Y-15224318D01*
X891441Y-15246847D01*
X880100Y-15296860D01*
X710276Y-15296860D01*
X700710Y-15265938D01*
X667257Y-15154852D01*
X626494Y-15011600D01*
X587822Y-14869063D01*
X585708Y-14861032D01*
X550459Y-14728408D01*
X517428Y-14606155D01*
X493510Y-14519813D01*
X463981Y-14411268D01*
X435147Y-14297563D01*
X402589Y-14165088D01*
X357808Y-13991507D01*
X315035Y-13834443D01*
X277469Y-13705204D01*
X248312Y-13615096D01*
X230764Y-13575430D01*
X210054Y-13572948D01*
X175286Y-13609173D01*
X155865Y-13640754D01*
X93005Y-13723566D01*
X20239Y-13802497D01*
X-46894Y-13861571D01*
X-92851Y-13884813D01*
X-111614Y-13887211D01*
X-137187Y-13910184D01*
X-142308Y-13923014D01*
X-194575Y-13955371D01*
X-293935Y-13986397D01*
X-428782Y-14012953D01*
X-587506Y-14031901D01*
X-637098Y-14035763D01*
X-728237Y-14043543D01*
X-783618Y-14058117D01*
X-807584Y-14090511D01*
X-986401Y-14090511D01*
X-994437Y-14022318D01*
X-995956Y-14007564D01*
X-1034103Y-13952142D01*
X-1128685Y-13897572D01*
X-1201278Y-13857709D01*
X-1311962Y-13779155D01*
X-1425463Y-13683515D01*
X-1527770Y-13583715D01*
X-1604869Y-13492682D01*
X-1642749Y-13423343D01*
X-1665973Y-13372088D01*
X-1704558Y-13345062D01*
X-1752289Y-13328118D01*
X-1829933Y-13265675D01*
X-1917860Y-13169157D01*
X-2005924Y-13051180D01*
X-2021303Y-13026192D01*
X-1629437Y-13026192D01*
X-1626634Y-13038207D01*
X-1603953Y-13095885D01*
X-1565937Y-13178815D01*
X-1548422Y-13216595D01*
X-1515172Y-13299427D01*
X-1501577Y-13351466D01*
X-1481325Y-13399356D01*
X-1423075Y-13474458D01*
X-1341052Y-13558995D01*
X-1249607Y-13638291D01*
X-1163092Y-13697665D01*
X-1106466Y-13727401D01*
X-1068485Y-13737597D01*
X-1067885Y-13714183D01*
X-1069399Y-13710053D01*
X-1087929Y-13643410D01*
X-1107170Y-13554028D01*
X-1114719Y-13503822D01*
X-1108687Y-13447438D01*
X-1072691Y-13419614D01*
X-1051118Y-13414971D01*
X-992194Y-13438444D01*
X-948212Y-13505252D01*
X-930937Y-13600393D01*
X-921291Y-13686230D01*
X-896081Y-13784825D01*
X-891313Y-13798362D01*
X-868943Y-13847511D01*
X-835581Y-13872919D01*
X-773729Y-13881979D01*
X-665893Y-13882084D01*
X-596492Y-13880274D01*
X-454637Y-13866869D01*
X-336543Y-13835770D01*
X-214247Y-13780700D01*
X-119091Y-13713826D01*
X-7094Y-13598463D01*
X88873Y-13464125D01*
X150454Y-13333328D01*
X160631Y-13302316D01*
X192680Y-13217623D01*
X218424Y-13166412D01*
X221752Y-13157745D01*
X228459Y-13095131D01*
X231067Y-12985972D01*
X229450Y-12842703D01*
X223477Y-12677759D01*
X201858Y-12224881D01*
X160572Y-12306242D01*
X123065Y-12380159D01*
X84804Y-12450835D01*
X2931Y-12564806D01*
X-82881Y-12627537D01*
X-181732Y-12646996D01*
X-240241Y-12648955D01*
X-339257Y-12663315D01*
X-394237Y-12688750D01*
X-395522Y-12721878D01*
X-395212Y-12722268D01*
X-368631Y-12777624D01*
X-344963Y-12859702D01*
X-335391Y-12923538D01*
X-352594Y-12961880D01*
X-412734Y-12983142D01*
X-481488Y-13003699D01*
X-534062Y-13027788D01*
X-551754Y-13035892D01*
X-622379Y-13053212D01*
X-718962Y-13067398D01*
X-762631Y-13071671D01*
X-837886Y-13072326D01*
X-879069Y-13053274D01*
X-906620Y-13008051D01*
X-935715Y-12957817D01*
X-965643Y-12932313D01*
X-983994Y-12920012D01*
X-1010342Y-12868715D01*
X-1015638Y-12853026D01*
X-1037941Y-12823835D01*
X-1075479Y-12850069D01*
X-1083137Y-12856150D01*
X-1146945Y-12885619D01*
X-1250309Y-12918941D01*
X-1374933Y-12950009D01*
X-1414754Y-12958874D01*
X-1524296Y-12986342D01*
X-1541273Y-12991650D01*
X-1600720Y-13010237D01*
X-1629437Y-13026192D01*
X-2021303Y-13026192D01*
X-2083979Y-12924357D01*
X-2141881Y-12801303D01*
X-2175696Y-12704181D01*
X-2176565Y-12700018D01*
X-2007914Y-12700018D01*
X-1994881Y-12763678D01*
X-1941090Y-12872427D01*
X-1920096Y-12908346D01*
X-1872770Y-12975674D01*
X-1847868Y-12991650D01*
X-1850635Y-12956474D01*
X-1886318Y-12870346D01*
X-1901592Y-12837655D01*
X-1918158Y-12797375D01*
X-1724200Y-12797375D01*
X-1723881Y-12819373D01*
X-1716442Y-12847965D01*
X-1690981Y-12859825D01*
X-1636721Y-12854835D01*
X-1542887Y-12832879D01*
X-1398703Y-12793839D01*
X-1279915Y-12758620D01*
X-1192885Y-12723508D01*
X-1139614Y-12685020D01*
X-1105015Y-12634996D01*
X-1078873Y-12581219D01*
X-1062306Y-12519452D01*
X-1088353Y-12493742D01*
X-1161124Y-12493738D01*
X-1175370Y-12495311D01*
X-1241529Y-12515236D01*
X-1255955Y-12555014D01*
X-1259449Y-12589843D01*
X-1296635Y-12647038D01*
X-1298543Y-12648610D01*
X-1344312Y-12670089D01*
X-1384366Y-12636380D01*
X-1408108Y-12612599D01*
X-1459107Y-12599695D01*
X-1546769Y-12613497D01*
X-1651567Y-12650043D01*
X-1707640Y-12707446D01*
X-1724200Y-12797375D01*
X-1918158Y-12797375D01*
X-1934018Y-12758814D01*
X-1946937Y-12711596D01*
X-1948101Y-12702677D01*
X-1978687Y-12678313D01*
X-1980787Y-12678350D01*
X-2007914Y-12700018D01*
X-2176565Y-12700018D01*
X-2197286Y-12600698D01*
X-2186269Y-12530676D01*
X-2142675Y-12481675D01*
X-2137061Y-12477631D01*
X-2104830Y-12445479D01*
X-2103868Y-12403867D01*
X-2132610Y-12329063D01*
X-2154690Y-12273481D01*
X-2167828Y-12235301D01*
X-1997891Y-12235301D01*
X-1978170Y-12308802D01*
X-1930857Y-12419170D01*
X-1913811Y-12455937D01*
X-1871940Y-12540411D01*
X-1842864Y-12578768D01*
X-1816598Y-12580085D01*
X-1783156Y-12553441D01*
X-1747134Y-12529038D01*
X-1656778Y-12488871D01*
X-1547850Y-12455532D01*
X-1473811Y-12435748D01*
X-1393811Y-12408413D01*
X-1356208Y-12387137D01*
X-1355879Y-12384222D01*
X-1388950Y-12372322D01*
X-1468332Y-12363966D01*
X-1579938Y-12360813D01*
X-1666663Y-12359837D01*
X-1759235Y-12353340D01*
X-1806616Y-12338882D01*
X-1819937Y-12314305D01*
X-1809075Y-12277593D01*
X-1744168Y-12228890D01*
X-1624601Y-12197510D01*
X-1454812Y-12185022D01*
X-1336194Y-12180191D01*
X-1235907Y-12170127D01*
X-1177267Y-12157051D01*
X-1134382Y-12151429D01*
X-1100592Y-12181418D01*
X-1098127Y-12232807D01*
X-1134524Y-12283326D01*
X-1135543Y-12284072D01*
X-1161319Y-12308175D01*
X-1141207Y-12314908D01*
X-1066928Y-12307192D01*
X-988869Y-12303432D01*
X-909561Y-12330446D01*
X-877379Y-12399353D01*
X-890190Y-12512634D01*
X-891770Y-12519452D01*
X-894693Y-12532074D01*
X-905278Y-12619805D01*
X-897737Y-12679345D01*
X-871379Y-12734061D01*
X-834001Y-12813250D01*
X-832694Y-12816003D01*
X-780292Y-12878349D01*
X-697514Y-12898351D01*
X-573749Y-12878676D01*
X-531134Y-12860462D01*
X-525687Y-12824759D01*
X-566821Y-12759557D01*
X-595784Y-12702898D01*
X-613437Y-12613622D01*
X-613440Y-12612571D01*
X-628315Y-12523916D01*
X-663389Y-12429187D01*
X-666678Y-12422425D01*
X-689580Y-12357967D01*
X-512165Y-12357967D01*
X-481340Y-12438694D01*
X-450783Y-12492859D01*
X-425778Y-12514016D01*
X-414692Y-12511964D01*
X-354205Y-12504840D01*
X-264187Y-12496469D01*
X-261284Y-12496220D01*
X-141348Y-12470313D01*
X-66455Y-12414703D01*
X-31550Y-12365318D01*
X-13181Y-12306242D01*
X-50100Y-12275576D01*
X-145124Y-12268069D01*
X-183997Y-12269576D01*
X-237317Y-12276564D01*
X-240374Y-12286590D01*
X-219675Y-12299573D01*
X-198749Y-12349369D01*
X-216768Y-12400701D01*
X-267888Y-12424313D01*
X-275619Y-12424189D01*
X-319629Y-12407737D01*
X-321263Y-12351984D01*
X-317667Y-12307534D01*
X-342216Y-12288294D01*
X-412811Y-12291958D01*
X-447845Y-12296702D01*
X-503507Y-12316006D01*
X-512165Y-12357967D01*
X-689580Y-12357967D01*
X-696413Y-12338735D01*
X-702783Y-12273496D01*
X-670150Y-12229931D01*
X-585814Y-12184820D01*
X-464037Y-12146916D01*
X-327672Y-12122049D01*
X345847Y-12122049D01*
X349647Y-12159729D01*
X359197Y-12164696D01*
X370813Y-12138563D01*
X368522Y-12121754D01*
X349647Y-12117396D01*
X345847Y-12122049D01*
X-327672Y-12122049D01*
X-318498Y-12120376D01*
X-162873Y-12109358D01*
X-54892Y-12104059D01*
X29254Y-12092206D01*
X68332Y-12076449D01*
X82616Y-12064310D01*
X133705Y-12063971D01*
X145325Y-12066969D01*
X166844Y-12053277D01*
X177466Y-11999140D01*
X180313Y-11893114D01*
X180313Y-11704372D01*
X-49874Y-11597501D01*
X-63535Y-11591178D01*
X-190404Y-11534030D01*
X-307556Y-11483679D01*
X-391187Y-11450386D01*
X-470220Y-11430578D01*
X-619112Y-11415575D01*
X-788185Y-11415975D01*
X-953141Y-11431391D01*
X-1089687Y-11461440D01*
X-1110985Y-11468810D01*
X-1208849Y-11510185D01*
X-1244885Y-11528470D01*
X-1313042Y-11563054D01*
X-1407443Y-11618168D01*
X-1475929Y-11666282D01*
X-1502380Y-11698148D01*
X-1502559Y-11699435D01*
X-1532351Y-11725040D01*
X-1597687Y-11757563D01*
X-1603481Y-11760000D01*
X-1666852Y-11792543D01*
X-1692937Y-11817164D01*
X-1692961Y-11817643D01*
X-1720095Y-11843569D01*
X-1783022Y-11877187D01*
X-1853811Y-11925164D01*
X-1910022Y-11996063D01*
X-1939772Y-12059789D01*
X-1982780Y-12152062D01*
X-1993610Y-12180216D01*
X-1997891Y-12235301D01*
X-2167828Y-12235301D01*
X-2199992Y-12141831D01*
X-2248127Y-11985602D01*
X-2291952Y-11828457D01*
X-2324321Y-11694063D01*
X-2328235Y-11631144D01*
X-2189574Y-11631144D01*
X-2167936Y-11715612D01*
X-2165457Y-11723383D01*
X-2128217Y-11838618D01*
X-2101351Y-11900592D01*
X-2074529Y-11915545D01*
X-2037420Y-11889720D01*
X-1979696Y-11829358D01*
X-1969958Y-11818982D01*
X-1905389Y-11738315D01*
X-1875996Y-11660515D01*
X-1872011Y-11602656D01*
X-1684774Y-11602656D01*
X-1681869Y-11630563D01*
X-1657335Y-11616531D01*
X-1602437Y-11579516D01*
X-1529558Y-11528470D01*
X-1594045Y-11468391D01*
X-1640611Y-11427389D01*
X-1667796Y-11408455D01*
X-1669039Y-11409399D01*
X-1676649Y-11446098D01*
X-1682742Y-11519580D01*
X-1683426Y-11534045D01*
X-1683793Y-11552702D01*
X-1684774Y-11602656D01*
X-1872011Y-11602656D01*
X-1868571Y-11552702D01*
X-1868724Y-11501731D01*
X-1874723Y-11431739D01*
X-1893471Y-11403780D01*
X-1931062Y-11403283D01*
X-1968823Y-11414499D01*
X-2005145Y-11442971D01*
X-2011107Y-11452738D01*
X-2055786Y-11471813D01*
X-2094893Y-11486416D01*
X-2151264Y-11533050D01*
X-2183205Y-11577581D01*
X-2189574Y-11631144D01*
X-2328235Y-11631144D01*
X-2332205Y-11567316D01*
X-2295440Y-11452442D01*
X-2214651Y-11375406D01*
X-2203537Y-11369179D01*
X-2194506Y-11360688D01*
X-1407187Y-11360688D01*
X-1391312Y-11376563D01*
X-1375437Y-11360688D01*
X-1391312Y-11344813D01*
X-1407187Y-11360688D01*
X-2194506Y-11360688D01*
X-2160958Y-11329144D01*
X-2180498Y-11297419D01*
X-2261194Y-11276063D01*
X-2314568Y-11257882D01*
X-2372319Y-11208493D01*
X-2383823Y-11175527D01*
X-2374888Y-11148569D01*
X-2151388Y-11148569D01*
X-2115498Y-11153453D01*
X-2070604Y-11160130D01*
X-2026312Y-11186063D01*
X-1999344Y-11210644D01*
X-1944462Y-11211473D01*
X-1902865Y-11167998D01*
X-1888151Y-11149157D01*
X-1109802Y-11149157D01*
X-1083125Y-11216521D01*
X-1073542Y-11230211D01*
X-1026106Y-11271071D01*
X-982079Y-11281367D01*
X-962687Y-11254421D01*
X-979426Y-11216618D01*
X-1023339Y-11157595D01*
X-1053765Y-11128757D01*
X-1096277Y-11116218D01*
X-1108498Y-11145981D01*
X-1109802Y-11149157D01*
X-1888151Y-11149157D01*
X-1880424Y-11139263D01*
X-1817953Y-11139067D01*
X-1794308Y-11146185D01*
X-1771480Y-11145981D01*
X-1781620Y-11116707D01*
X-1825734Y-11046399D01*
X-1844924Y-11017967D01*
X-1892916Y-10956957D01*
X-1904207Y-10947938D01*
X-946812Y-10947938D01*
X-879672Y-11027313D01*
X-819201Y-11099250D01*
X-753554Y-11178125D01*
X-701755Y-11227004D01*
X-652562Y-11249563D01*
X-639628Y-11240881D01*
X-645569Y-11231249D01*
X-454374Y-11231249D01*
X-447195Y-11240881D01*
X-441117Y-11249038D01*
X-431894Y-11254421D01*
X-382043Y-11283519D01*
X-291733Y-11319251D01*
X-166739Y-11360688D01*
X-129404Y-11373065D01*
X-199288Y-11298676D01*
X-225887Y-11274955D01*
X-296855Y-11233847D01*
X-371600Y-11209421D01*
X-430610Y-11206836D01*
X-454374Y-11231249D01*
X-645569Y-11231249D01*
X-663057Y-11202895D01*
X-733597Y-11132507D01*
X-835337Y-11043188D01*
X-232437Y-11043188D01*
X-216562Y-11059063D01*
X-200687Y-11043188D01*
X-216562Y-11027313D01*
X-232437Y-11043188D01*
X-835337Y-11043188D01*
X-853420Y-11027313D01*
X-909455Y-10979688D01*
X-295937Y-10979688D01*
X-280062Y-10995563D01*
X-264187Y-10979688D01*
X-280062Y-10963813D01*
X-295937Y-10979688D01*
X-909455Y-10979688D01*
X-946812Y-10947938D01*
X-1904207Y-10947938D01*
X-1923590Y-10932456D01*
X-1940136Y-10939633D01*
X-1994276Y-10979361D01*
X-2066465Y-11042328D01*
X-2109125Y-11082661D01*
X-2150771Y-11128387D01*
X-2151388Y-11148569D01*
X-2374888Y-11148569D01*
X-2370364Y-11134918D01*
X-2322507Y-11077941D01*
X-2232687Y-10992912D01*
X-2222699Y-10983812D01*
X-2108875Y-10877687D01*
X-1979445Y-10753798D01*
X-1966976Y-10741563D01*
X-1502437Y-10741563D01*
X-1501514Y-10749152D01*
X-1470687Y-10773313D01*
X-1401153Y-10773313D01*
X-1396228Y-10790819D01*
X-1359562Y-10836813D01*
X-1316842Y-10879447D01*
X-1286220Y-10900313D01*
X-1291145Y-10882806D01*
X-1327812Y-10836813D01*
X-1370531Y-10794178D01*
X-1401153Y-10773313D01*
X-1470687Y-10773313D01*
X-1463097Y-10772390D01*
X-1438937Y-10741563D01*
X-1439859Y-10733973D01*
X-1450431Y-10725688D01*
X-1216687Y-10725688D01*
X-1200812Y-10741563D01*
X-1184937Y-10725688D01*
X-1200812Y-10709813D01*
X-1216687Y-10725688D01*
X-1450431Y-10725688D01*
X-1470687Y-10709813D01*
X-1478276Y-10710735D01*
X-1502437Y-10741563D01*
X-1966976Y-10741563D01*
X-1860517Y-10637106D01*
X-1837931Y-10614563D01*
X-1359562Y-10614563D01*
X-1353045Y-10624064D01*
X-1325938Y-10646313D01*
X-1322769Y-10645487D01*
X-1311937Y-10614563D01*
X-1313229Y-10605860D01*
X-1317317Y-10602946D01*
X-1242820Y-10602946D01*
X-1216687Y-10614563D01*
X-1199878Y-10612271D01*
X-1195520Y-10593396D01*
X-1200173Y-10589596D01*
X-1237853Y-10593396D01*
X-1242820Y-10602946D01*
X-1317317Y-10602946D01*
X-1345560Y-10582813D01*
X-1357044Y-10585305D01*
X-1359562Y-10614563D01*
X-1837931Y-10614563D01*
X-1662973Y-10439938D01*
X-1368392Y-10441222D01*
X-1173983Y-10450838D01*
X-973389Y-10485253D01*
X-767993Y-10549932D01*
X-667587Y-10593396D01*
X-536035Y-10650343D01*
X-506486Y-10663715D01*
X-417776Y-10696636D01*
X-355042Y-10709813D01*
X-317525Y-10725688D01*
X-307876Y-10729771D01*
X-228858Y-10788986D01*
X-343562Y-13242980D02*
X-522975Y-13258875D01*
X-522975Y-13258875D02*
X-678936Y-13286619D01*
X-678936Y-13286619D02*
X-804065Y-13323165D01*
X-804065Y-13323165D02*
X-890988Y-13365465D01*
X-890988Y-13365465D02*
X-932327Y-13410473D01*
X-932327Y-13410473D02*
X-920705Y-13455142D01*
X-920705Y-13455142D02*
X-899187Y-13472480D01*
X-899187Y-13472480D02*
X-839257Y-13501211D01*
X-839257Y-13501211D02*
X-799842Y-13488690D01*
X-799842Y-13488690D02*
X-793327Y-13482620D01*
X-793327Y-13482620D02*
X-752594Y-13466493D01*
X-752594Y-13466493D02*
X-669240Y-13446764D01*
X-669240Y-13446764D02*
X-589598Y-13432395D01*
X-589598Y-13432395D02*
X-416697Y-13404724D01*
X-416697Y-13404724D02*
X-296790Y-13384167D01*
X-296790Y-13384167D02*
X-220182Y-13367728D01*
X-220182Y-13367728D02*
X-177178Y-13352409D01*
X-177178Y-13352409D02*
X-158083Y-13335212D01*
X-158083Y-13335212D02*
X-153201Y-13313141D01*
X-153201Y-13313141D02*
X-153062Y-13297438D01*
X-153062Y-13297438D02*
X-159218Y-13262395D01*
X-159218Y-13262395D02*
X-187417Y-13244621D01*
X-187417Y-13244621D02*
X-252255Y-13239943D01*
X-252255Y-13239943D02*
X-343562Y-13242980D01*
X-343562Y-13242980D02*
X-343562Y-13242980D01*
G36*
X-187417Y-13244621D02*
G01*
X-159218Y-13262395D01*
X-153062Y-13297438D01*
X-153201Y-13313141D01*
X-158083Y-13335212D01*
X-177178Y-13352409D01*
X-220182Y-13367728D01*
X-296790Y-13384167D01*
X-416697Y-13404724D01*
X-589598Y-13432395D01*
X-669240Y-13446764D01*
X-752594Y-13466493D01*
X-793327Y-13482620D01*
X-799842Y-13488690D01*
X-839257Y-13501211D01*
X-899187Y-13472480D01*
X-920705Y-13455142D01*
X-932327Y-13410473D01*
X-890988Y-13365465D01*
X-804065Y-13323165D01*
X-678936Y-13286619D01*
X-522975Y-13258875D01*
X-343562Y-13242980D01*
X-252255Y-13239943D01*
X-187417Y-13244621D01*
G37*
X-187417Y-13244621D02*
X-159218Y-13262395D01*
X-153062Y-13297438D01*
X-153201Y-13313141D01*
X-158083Y-13335212D01*
X-177178Y-13352409D01*
X-220182Y-13367728D01*
X-296790Y-13384167D01*
X-416697Y-13404724D01*
X-589598Y-13432395D01*
X-669240Y-13446764D01*
X-752594Y-13466493D01*
X-793327Y-13482620D01*
X-799842Y-13488690D01*
X-839257Y-13501211D01*
X-899187Y-13472480D01*
X-920705Y-13455142D01*
X-932327Y-13410473D01*
X-890988Y-13365465D01*
X-804065Y-13323165D01*
X-678936Y-13286619D01*
X-522975Y-13258875D01*
X-343562Y-13242980D01*
X-252255Y-13239943D01*
X-187417Y-13244621D01*
X-229830Y-11876009D02*
X-327687Y-11888301D01*
X-327687Y-11888301D02*
X-508585Y-11917719D01*
X-508585Y-11917719D02*
X-632797Y-11949379D01*
X-632797Y-11949379D02*
X-707133Y-11985903D01*
X-707133Y-11985903D02*
X-738404Y-12029912D01*
X-738404Y-12029912D02*
X-740437Y-12047164D01*
X-740437Y-12047164D02*
X-714882Y-12093383D01*
X-714882Y-12093383D02*
X-639801Y-12102715D01*
X-639801Y-12102715D02*
X-518187Y-12075063D01*
X-518187Y-12075063D02*
X-441432Y-12060082D01*
X-441432Y-12060082D02*
X-331425Y-12049431D01*
X-331425Y-12049431D02*
X-260137Y-12046477D01*
X-260137Y-12046477D02*
X-130829Y-12033612D01*
X-130829Y-12033612D02*
X-47589Y-12002889D01*
X-47589Y-12002889D02*
X-16031Y-11958120D01*
X-16031Y-11958120D02*
X-41771Y-11903119D01*
X-41771Y-11903119D02*
X-44664Y-11900168D01*
X-44664Y-11900168D02*
X-79989Y-11878017D01*
X-79989Y-11878017D02*
X-136703Y-11870174D01*
X-136703Y-11870174D02*
X-229830Y-11876009D01*
X-229830Y-11876009D02*
X-229830Y-11876009D01*
G36*
X-79989Y-11878017D02*
G01*
X-44664Y-11900168D01*
X-41771Y-11903119D01*
X-16031Y-11958120D01*
X-47589Y-12002889D01*
X-130829Y-12033612D01*
X-260137Y-12046477D01*
X-331425Y-12049431D01*
X-441432Y-12060082D01*
X-518187Y-12075063D01*
X-639801Y-12102715D01*
X-714882Y-12093383D01*
X-740437Y-12047164D01*
X-738404Y-12029912D01*
X-707133Y-11985903D01*
X-632797Y-11949379D01*
X-508585Y-11917719D01*
X-327687Y-11888301D01*
X-229830Y-11876009D01*
X-136703Y-11870174D01*
X-79989Y-11878017D01*
G37*
X-79989Y-11878017D02*
X-44664Y-11900168D01*
X-41771Y-11903119D01*
X-16031Y-11958120D01*
X-47589Y-12002889D01*
X-130829Y-12033612D01*
X-260137Y-12046477D01*
X-331425Y-12049431D01*
X-441432Y-12060082D01*
X-518187Y-12075063D01*
X-639801Y-12102715D01*
X-714882Y-12093383D01*
X-740437Y-12047164D01*
X-738404Y-12029912D01*
X-707133Y-11985903D01*
X-632797Y-11949379D01*
X-508585Y-11917719D01*
X-327687Y-11888301D01*
X-229830Y-11876009D01*
X-136703Y-11870174D01*
X-79989Y-11878017D01*
G36*
X37599113Y46673884D02*
G01*
X37623397Y46670291D01*
X37647211Y46664334D01*
X37670326Y46656070D01*
X37692520Y46645578D01*
X37713577Y46632961D01*
X37733295Y46618340D01*
X37751485Y46601855D01*
X37767970Y46583665D01*
X37782591Y46563947D01*
X37795208Y46542889D01*
X37805699Y46520696D01*
X37813964Y46497581D01*
X37819921Y46473767D01*
X37823514Y46449483D01*
X37824708Y46424964D01*
X37825226Y46424964D01*
X37825226Y-55125425D01*
X37825054Y-55149986D01*
X37824539Y-55174540D01*
X37823680Y-55199081D01*
X37822478Y-55223607D01*
X37820933Y-55248111D01*
X37819046Y-55272591D01*
X37816815Y-55297041D01*
X37814243Y-55321457D01*
X37811329Y-55345836D01*
X37808073Y-55370172D01*
X37804475Y-55394462D01*
X37800536Y-55418700D01*
X37796256Y-55442884D01*
X37791635Y-55467007D01*
X37786673Y-55491059D01*
X37781372Y-55515027D01*
X37775733Y-55538909D01*
X37769758Y-55562703D01*
X37763449Y-55586405D01*
X37756807Y-55610013D01*
X37749834Y-55633524D01*
X37742532Y-55656935D01*
X37734902Y-55680244D01*
X37726947Y-55703447D01*
X37718667Y-55726543D01*
X37710065Y-55749527D01*
X37701142Y-55772397D01*
X37691900Y-55795152D01*
X37682343Y-55817770D01*
X37672472Y-55840240D01*
X37662288Y-55862559D01*
X37651792Y-55884724D01*
X37640987Y-55906733D01*
X37629876Y-55928584D01*
X37618459Y-55950276D01*
X37606738Y-55971806D01*
X37594716Y-55993171D01*
X37582395Y-56014370D01*
X37569776Y-56035400D01*
X37556861Y-56056260D01*
X37543653Y-56076947D01*
X37530152Y-56097459D01*
X37516364Y-56117791D01*
X37502298Y-56137932D01*
X37487956Y-56157877D01*
X37473340Y-56177623D01*
X37458451Y-56197164D01*
X37443294Y-56216496D01*
X37427869Y-56235615D01*
X37412179Y-56254515D01*
X37396226Y-56273193D01*
X37380013Y-56291643D01*
X37363541Y-56309861D01*
X37346812Y-56327842D01*
X37329830Y-56345583D01*
X37312596Y-56363077D01*
X37295109Y-56380311D01*
X37277389Y-56397294D01*
X37259440Y-56414023D01*
X37241263Y-56430496D01*
X37222860Y-56446710D01*
X37204235Y-56462663D01*
X37185389Y-56478354D01*
X37166325Y-56493779D01*
X37147045Y-56508937D01*
X37127552Y-56523825D01*
X37107848Y-56538441D01*
X37087936Y-56552783D01*
X37067817Y-56566847D01*
X37047494Y-56580633D01*
X37026975Y-56594136D01*
X37006268Y-56607345D01*
X36985377Y-56620260D01*
X36964306Y-56632879D01*
X36943059Y-56645199D01*
X36921642Y-56657220D01*
X36900058Y-56668940D01*
X36878312Y-56680356D01*
X36856408Y-56691466D01*
X36834350Y-56702270D01*
X36812143Y-56712765D01*
X36789791Y-56722950D01*
X36767299Y-56732823D01*
X36744671Y-56742381D01*
X36720163Y-56752312D01*
X36695521Y-56761857D01*
X36670746Y-56771018D01*
X36645843Y-56779794D01*
X36620815Y-56788186D01*
X36595666Y-56796196D01*
X36570399Y-56803823D01*
X36545018Y-56811069D01*
X36519527Y-56817934D01*
X36493928Y-56824419D01*
X36468227Y-56830524D01*
X36442425Y-56836251D01*
X36416526Y-56841600D01*
X36392403Y-56846219D01*
X36368219Y-56850498D01*
X36343981Y-56854436D01*
X36319691Y-56858033D01*
X36295355Y-56861288D01*
X36270976Y-56864203D01*
X36246560Y-56866775D01*
X36222110Y-56869006D01*
X36197630Y-56870894D01*
X36173126Y-56872439D01*
X36148600Y-56873642D01*
X36124059Y-56874501D01*
X36099505Y-56875017D01*
X36074944Y-56875189D01*
X-36074657Y-56875189D01*
X-36099218Y-56875017D01*
X-36123771Y-56874502D01*
X-36148313Y-56873644D01*
X-36172838Y-56872443D01*
X-36197342Y-56870899D01*
X-36221822Y-56869012D01*
X-36246272Y-56866783D01*
X-36270688Y-56864212D01*
X-36295067Y-56861298D01*
X-36319403Y-56858042D01*
X-36343692Y-56854444D01*
X-36367931Y-56850504D01*
X-36392114Y-56846223D01*
X-36416237Y-56841600D01*
X-36442134Y-56836251D01*
X-36467935Y-56830524D01*
X-36493636Y-56824419D01*
X-36519234Y-56817934D01*
X-36544726Y-56811069D01*
X-36570107Y-56803823D01*
X-36595374Y-56796196D01*
X-36620524Y-56788186D01*
X-36645553Y-56779794D01*
X-36670457Y-56771018D01*
X-36695232Y-56761857D01*
X-36719876Y-56752312D01*
X-36744384Y-56742381D01*
X-36767012Y-56732823D01*
X-36789504Y-56722950D01*
X-36811856Y-56712765D01*
X-36834063Y-56702270D01*
X-36856120Y-56691466D01*
X-36878024Y-56680356D01*
X-36899770Y-56668940D01*
X-36921354Y-56657220D01*
X-36942771Y-56645199D01*
X-36964018Y-56632879D01*
X-36985089Y-56620260D01*
X-37005980Y-56607345D01*
X-37026688Y-56594136D01*
X-37047207Y-56580633D01*
X-37067530Y-56566847D01*
X-37087648Y-56552783D01*
X-37107560Y-56538441D01*
X-37127264Y-56523825D01*
X-37146757Y-56508937D01*
X-37166036Y-56493779D01*
X-37185100Y-56478354D01*
X-37203946Y-56462663D01*
X-37222571Y-56446710D01*
X-37240973Y-56430496D01*
X-37259151Y-56414023D01*
X-37277100Y-56397294D01*
X-37294820Y-56380311D01*
X-37312307Y-56363077D01*
X-37329548Y-56345583D01*
X-37346536Y-56327842D01*
X-37363267Y-56309861D01*
X-37379741Y-56291643D01*
X-37395955Y-56273193D01*
X-37411907Y-56254515D01*
X-37427596Y-56235615D01*
X-37443019Y-56216496D01*
X-37458174Y-56197164D01*
X-37473059Y-56177623D01*
X-37487673Y-56157877D01*
X-37502013Y-56137932D01*
X-37516078Y-56117791D01*
X-37529866Y-56097459D01*
X-37543366Y-56076947D01*
X-37556574Y-56056260D01*
X-37569488Y-56035400D01*
X-37582106Y-56014370D01*
X-37594427Y-55993171D01*
X-37606448Y-55971806D01*
X-37618168Y-55950276D01*
X-37629584Y-55928584D01*
X-37640695Y-55906733D01*
X-37651500Y-55884724D01*
X-37661995Y-55862559D01*
X-37672180Y-55840240D01*
X-37682053Y-55817770D01*
X-37691611Y-55795152D01*
X-37700853Y-55772397D01*
X-37709776Y-55749527D01*
X-37718378Y-55726543D01*
X-37726658Y-55703447D01*
X-37734613Y-55680244D01*
X-37742243Y-55656935D01*
X-37749546Y-55633524D01*
X-37756519Y-55610013D01*
X-37763161Y-55586405D01*
X-37769471Y-55562703D01*
X-37775446Y-55538909D01*
X-37781085Y-55515027D01*
X-37786386Y-55491059D01*
X-37791348Y-55467007D01*
X-37795969Y-55442884D01*
X-37800249Y-55418700D01*
X-37804188Y-55394462D01*
X-37807785Y-55370172D01*
X-37811041Y-55345836D01*
X-37813955Y-55321457D01*
X-37816527Y-55297041D01*
X-37818757Y-55272591D01*
X-37820645Y-55248111D01*
X-37822189Y-55223607D01*
X-37823391Y-55199081D01*
X-37824250Y-55174540D01*
X-37824765Y-55149986D01*
X-37824937Y-55125425D01*
X-37824937Y46424964D01*
X-37823743Y46449483D01*
X-37820150Y46473767D01*
X-37814193Y46497581D01*
X-37805929Y46520696D01*
X-37795438Y46542889D01*
X-37782820Y46563947D01*
X-37768199Y46583665D01*
X-37751714Y46601855D01*
X-37733525Y46618340D01*
X-37713806Y46632961D01*
X-37692749Y46645578D01*
X-37670556Y46656070D01*
X-37647440Y46664334D01*
X-37623626Y46670291D01*
X-37599343Y46673884D01*
X-37574824Y46675078D01*
X-37550339Y46673837D01*
X-37526094Y46670203D01*
X-37502322Y46664212D01*
X-37479250Y46655922D01*
X-37457102Y46645411D01*
X-37436089Y46632782D01*
X-37416414Y46618156D01*
X-37398267Y46601672D01*
X-37381821Y46583491D01*
X-37367235Y46563786D01*
X-37354650Y46542747D01*
X-37344185Y46520577D01*
X-37335942Y46497488D01*
X-37330001Y46473704D01*
X-37326417Y46449451D01*
X-37325226Y46424964D01*
X-37324710Y46424964D01*
X-37324710Y-55125425D01*
X-37324477Y-55149983D01*
X-37323775Y-55174525D01*
X-37322601Y-55199043D01*
X-37320953Y-55223528D01*
X-37318828Y-55247974D01*
X-37316222Y-55272373D01*
X-37313133Y-55296716D01*
X-37309558Y-55320997D01*
X-37305494Y-55345207D01*
X-37300938Y-55369339D01*
X-37295904Y-55393381D01*
X-37290393Y-55417315D01*
X-37284410Y-55441133D01*
X-37277957Y-55464828D01*
X-37271041Y-55488391D01*
X-37263663Y-55511814D01*
X-37255829Y-55535089D01*
X-37247541Y-55558209D01*
X-37238805Y-55581164D01*
X-37229624Y-55603948D01*
X-37220013Y-55626541D01*
X-37209976Y-55648927D01*
X-37199514Y-55671101D01*
X-37188627Y-55693058D01*
X-37177315Y-55714792D01*
X-37165578Y-55736299D01*
X-37153417Y-55757573D01*
X-37140830Y-55778611D01*
X-37127820Y-55799407D01*
X-37114385Y-55819956D01*
X-37100539Y-55840232D01*
X-37086299Y-55860212D01*
X-37071670Y-55879892D01*
X-37056657Y-55899270D01*
X-37041267Y-55918346D01*
X-37025504Y-55937115D01*
X-37009374Y-55955576D01*
X-36992883Y-55973728D01*
X-36976036Y-55991567D01*
X-36958839Y-56009091D01*
X-36941298Y-56026288D01*
X-36923418Y-56043135D01*
X-36905208Y-56059626D01*
X-36886677Y-56075756D01*
X-36867832Y-56091519D01*
X-36848681Y-56106909D01*
X-36829233Y-56121922D01*
X-36809497Y-56136552D01*
X-36789479Y-56150793D01*
X-36769189Y-56164640D01*
X-36748639Y-56178079D01*
X-36727843Y-56191123D01*
X-36706805Y-56203764D01*
X-36685530Y-56215996D01*
X-36664023Y-56227811D01*
X-36642289Y-56239203D01*
X-36620332Y-56250164D01*
X-36598159Y-56260688D01*
X-36575773Y-56270767D01*
X-36553180Y-56280395D01*
X-36530396Y-56289549D01*
X-36507441Y-56298239D01*
X-36484321Y-56306467D01*
X-36461045Y-56314232D01*
X-36437622Y-56321537D01*
X-36414058Y-56328382D01*
X-36390363Y-56334769D01*
X-36366545Y-56340698D01*
X-36342610Y-56346171D01*
X-36318569Y-56351189D01*
X-36294437Y-56355753D01*
X-36270227Y-56359852D01*
X-36245946Y-56363483D01*
X-36221603Y-56366643D01*
X-36197204Y-56369326D01*
X-36172759Y-56371531D01*
X-36148273Y-56373252D01*
X-36123756Y-56374486D01*
X-36099215Y-56375229D01*
X-36074657Y-56375478D01*
X36074944Y-56375478D01*
X36099502Y-56375229D01*
X36124044Y-56374486D01*
X36148562Y-56373252D01*
X36173048Y-56371531D01*
X36197493Y-56369326D01*
X36221892Y-56366643D01*
X36246235Y-56363483D01*
X36270516Y-56359852D01*
X36294726Y-56355753D01*
X36318858Y-56351189D01*
X36342900Y-56346174D01*
X36366835Y-56340702D01*
X36390654Y-56334773D01*
X36414350Y-56328386D01*
X36437914Y-56321541D01*
X36461337Y-56314235D01*
X36484613Y-56306469D01*
X36507732Y-56298240D01*
X36530686Y-56289549D01*
X36553467Y-56280395D01*
X36576060Y-56270767D01*
X36598446Y-56260688D01*
X36620620Y-56250164D01*
X36642577Y-56239203D01*
X36664311Y-56227811D01*
X36685818Y-56215996D01*
X36707092Y-56203764D01*
X36728130Y-56191123D01*
X36748926Y-56178079D01*
X36769475Y-56164640D01*
X36789766Y-56150793D01*
X36809784Y-56136552D01*
X36829522Y-56121922D01*
X36848971Y-56106909D01*
X36868123Y-56091519D01*
X36886969Y-56075756D01*
X36905501Y-56059626D01*
X36923710Y-56043135D01*
X36941589Y-56026288D01*
X36959129Y-56009091D01*
X36976325Y-55991567D01*
X36993171Y-55973728D01*
X37009662Y-55955576D01*
X37025792Y-55937115D01*
X37041555Y-55918346D01*
X37056946Y-55899270D01*
X37071958Y-55879892D01*
X37086588Y-55860212D01*
X37100828Y-55840232D01*
X37114674Y-55819956D01*
X37128109Y-55799407D01*
X37141119Y-55778611D01*
X37153703Y-55757573D01*
X37165864Y-55736299D01*
X37177599Y-55714792D01*
X37188911Y-55693058D01*
X37199798Y-55671101D01*
X37210260Y-55648927D01*
X37220299Y-55626541D01*
X37229914Y-55603948D01*
X37239083Y-55581164D01*
X37247812Y-55558209D01*
X37256098Y-55535089D01*
X37263934Y-55511814D01*
X37271315Y-55488391D01*
X37278237Y-55464828D01*
X37284694Y-55441133D01*
X37290682Y-55417315D01*
X37296194Y-55393381D01*
X37301227Y-55369339D01*
X37305773Y-55345207D01*
X37309832Y-55320997D01*
X37313404Y-55296716D01*
X37316493Y-55272373D01*
X37319101Y-55247974D01*
X37321229Y-55223528D01*
X37322881Y-55199043D01*
X37324058Y-55174525D01*
X37324763Y-55149983D01*
X37324997Y-55125425D01*
X37324997Y46424964D01*
X37326188Y46449451D01*
X37329771Y46473704D01*
X37335713Y46497488D01*
X37343956Y46520577D01*
X37354420Y46542747D01*
X37367006Y46563786D01*
X37381592Y46583491D01*
X37398038Y46601672D01*
X37416185Y46618156D01*
X37435860Y46632782D01*
X37456872Y46645411D01*
X37479021Y46655922D01*
X37502092Y46664212D01*
X37525865Y46670203D01*
X37550110Y46673837D01*
X37574594Y46675078D01*
X37599113Y46673884D01*
G37*
G36*
X36099505Y59255017D02*
G01*
X36124059Y59254502D01*
X36148600Y59253643D01*
X36173126Y59252442D01*
X36197630Y59250897D01*
X36222110Y59249010D01*
X36246560Y59246780D01*
X36270976Y59244208D01*
X36295355Y59241294D01*
X36319691Y59238038D01*
X36343981Y59234441D01*
X36368219Y59230501D01*
X36392403Y59226221D01*
X36416526Y59221599D01*
X36442425Y59216250D01*
X36468227Y59210523D01*
X36493928Y59204417D01*
X36519527Y59197932D01*
X36545018Y59191066D01*
X36570399Y59183820D01*
X36595666Y59176193D01*
X36620815Y59168183D01*
X36645843Y59159791D01*
X36670746Y59151015D01*
X36695521Y59141855D01*
X36720163Y59132311D01*
X36744671Y59122380D01*
X36767299Y59112823D01*
X36789791Y59102951D01*
X36812143Y59092766D01*
X36834350Y59082271D01*
X36856408Y59071466D01*
X36878312Y59060355D01*
X36900058Y59048939D01*
X36921642Y59037219D01*
X36943059Y59025198D01*
X36964306Y59012877D01*
X36985377Y59000258D01*
X37006268Y58987343D01*
X37026975Y58974134D01*
X37047494Y58960633D01*
X37067817Y58946839D01*
X37087936Y58932755D01*
X37107848Y58918383D01*
X37127552Y58903728D01*
X37147045Y58888795D01*
X37166325Y58873587D01*
X37185389Y58858110D01*
X37204235Y58842366D01*
X37222860Y58826361D01*
X37241263Y58810099D01*
X37259440Y58793583D01*
X37277389Y58776818D01*
X37295109Y58759808D01*
X37312596Y58742558D01*
X37329830Y58725072D01*
X37346812Y58707354D01*
X37363541Y58689405D01*
X37380013Y58671228D01*
X37396226Y58652826D01*
X37412179Y58634201D01*
X37427869Y58615355D01*
X37443294Y58596291D01*
X37458451Y58577011D01*
X37473340Y58557518D01*
X37487956Y58537813D01*
X37502298Y58517900D01*
X37516364Y58497781D01*
X37530152Y58477458D01*
X37543653Y58456946D01*
X37556861Y58436260D01*
X37569776Y58415400D01*
X37582395Y58394370D01*
X37594716Y58373171D01*
X37606738Y58351806D01*
X37618459Y58330277D01*
X37629876Y58308586D01*
X37640987Y58286734D01*
X37651792Y58264725D01*
X37662288Y58242560D01*
X37672472Y58220241D01*
X37682343Y58197771D01*
X37691900Y58175151D01*
X37701142Y58152398D01*
X37710065Y58129528D01*
X37718667Y58106545D01*
X37726947Y58083449D01*
X37734902Y58060246D01*
X37742532Y58036937D01*
X37749834Y58013525D01*
X37756807Y57990013D01*
X37763449Y57966405D01*
X37769758Y57942702D01*
X37775733Y57918908D01*
X37781372Y57895025D01*
X37786673Y57871057D01*
X37791635Y57847006D01*
X37796256Y57822883D01*
X37800535Y57798700D01*
X37804474Y57774462D01*
X37808071Y57750173D01*
X37811326Y57725837D01*
X37814240Y57701458D01*
X37816812Y57677041D01*
X37819041Y57652591D01*
X37820928Y57628111D01*
X37822473Y57603607D01*
X37823676Y57579081D01*
X37824536Y57554540D01*
X37825052Y57529986D01*
X37825226Y57505425D01*
X37825226Y51363681D01*
X37824708Y51363681D01*
X37823514Y51339162D01*
X37819921Y51314878D01*
X37813964Y51291064D01*
X37805699Y51267949D01*
X37795208Y51245755D01*
X37782591Y51224698D01*
X37767970Y51204980D01*
X37751485Y51186790D01*
X37733295Y51170305D01*
X37713577Y51155684D01*
X37692520Y51143066D01*
X37670326Y51132575D01*
X37647211Y51124311D01*
X37623397Y51118354D01*
X37599113Y51114761D01*
X37574594Y51113567D01*
X37550110Y51114808D01*
X37525865Y51118442D01*
X37502092Y51124433D01*
X37479021Y51132723D01*
X37456872Y51143234D01*
X37435860Y51155863D01*
X37416185Y51170489D01*
X37398038Y51186973D01*
X37381592Y51205154D01*
X37367006Y51224859D01*
X37354420Y51245898D01*
X37343956Y51268068D01*
X37335713Y51291156D01*
X37329771Y51314941D01*
X37326188Y51339194D01*
X37324997Y51363681D01*
X37324997Y57505425D01*
X37324763Y57529982D01*
X37324058Y57554524D01*
X37322881Y57579040D01*
X37321229Y57603525D01*
X37319101Y57627971D01*
X37316493Y57652369D01*
X37313404Y57676713D01*
X37309832Y57700994D01*
X37305773Y57725205D01*
X37301227Y57749338D01*
X37296194Y57773378D01*
X37290682Y57797312D01*
X37284694Y57821131D01*
X37278237Y57844826D01*
X37271315Y57868390D01*
X37263934Y57891814D01*
X37256098Y57915090D01*
X37247812Y57938210D01*
X37239083Y57961165D01*
X37229914Y57983948D01*
X37220299Y58006540D01*
X37210260Y58028926D01*
X37199798Y58051099D01*
X37188911Y58073055D01*
X37177599Y58094790D01*
X37165864Y58116297D01*
X37153703Y58137573D01*
X37141119Y58158611D01*
X37128109Y58179407D01*
X37114674Y58199956D01*
X37100828Y58220232D01*
X37086588Y58240211D01*
X37071958Y58259890D01*
X37056946Y58279268D01*
X37041555Y58298342D01*
X37025792Y58317111D01*
X37009662Y58335573D01*
X36993171Y58353725D01*
X36976325Y58371565D01*
X36959129Y58389092D01*
X36941589Y58406288D01*
X36923710Y58423134D01*
X36905501Y58439625D01*
X36886969Y58455755D01*
X36868123Y58471518D01*
X36848971Y58486909D01*
X36829522Y58501922D01*
X36809784Y58516551D01*
X36789766Y58530792D01*
X36769475Y58544638D01*
X36748926Y58558087D01*
X36728130Y58571136D01*
X36707092Y58583780D01*
X36685818Y58596011D01*
X36664311Y58607824D01*
X36642577Y58619212D01*
X36620620Y58630169D01*
X36598446Y58640689D01*
X36576060Y58650766D01*
X36553467Y58660393D01*
X36530686Y58669558D01*
X36507732Y58678255D01*
X36484613Y58686484D01*
X36461337Y58694249D01*
X36437914Y58701551D01*
X36414350Y58708393D01*
X36390654Y58714775D01*
X36366835Y58720701D01*
X36342900Y58726172D01*
X36318858Y58731190D01*
X36294726Y58735751D01*
X36270516Y58739849D01*
X36246235Y58743480D01*
X36221892Y58746639D01*
X36197493Y58749323D01*
X36173048Y58751528D01*
X36148562Y58753250D01*
X36124044Y58754485D01*
X36099502Y58755229D01*
X36074944Y58755478D01*
X-36074657Y58755478D01*
X-36099215Y58755229D01*
X-36123756Y58754485D01*
X-36148273Y58753251D01*
X-36172759Y58751529D01*
X-36197204Y58749325D01*
X-36221603Y58746641D01*
X-36245946Y58743481D01*
X-36270227Y58739850D01*
X-36294437Y58735752D01*
X-36318569Y58731190D01*
X-36342610Y58726172D01*
X-36366545Y58720701D01*
X-36390363Y58714775D01*
X-36414058Y58708393D01*
X-36437622Y58701551D01*
X-36461045Y58694249D01*
X-36484321Y58686484D01*
X-36507441Y58678254D01*
X-36530396Y58669558D01*
X-36553180Y58660393D01*
X-36575773Y58650766D01*
X-36598159Y58640689D01*
X-36620332Y58630169D01*
X-36642289Y58619212D01*
X-36664023Y58607824D01*
X-36685530Y58596011D01*
X-36706805Y58583780D01*
X-36727843Y58571136D01*
X-36748639Y58558087D01*
X-36769189Y58544638D01*
X-36789479Y58530792D01*
X-36809497Y58516551D01*
X-36829233Y58501922D01*
X-36848681Y58486909D01*
X-36867832Y58471518D01*
X-36886677Y58455755D01*
X-36905208Y58439625D01*
X-36923418Y58423134D01*
X-36941298Y58406288D01*
X-36958839Y58389092D01*
X-36976036Y58371565D01*
X-36992883Y58353725D01*
X-37009374Y58335573D01*
X-37025504Y58317112D01*
X-37041267Y58298343D01*
X-37056657Y58279268D01*
X-37071670Y58259890D01*
X-37086299Y58240211D01*
X-37100539Y58220232D01*
X-37114385Y58199956D01*
X-37127820Y58179407D01*
X-37140830Y58158611D01*
X-37153417Y58137573D01*
X-37165578Y58116297D01*
X-37177315Y58094790D01*
X-37188627Y58073055D01*
X-37199514Y58051099D01*
X-37209976Y58028926D01*
X-37220013Y58006540D01*
X-37229624Y57983948D01*
X-37238806Y57961165D01*
X-37247542Y57938210D01*
X-37255831Y57915090D01*
X-37263666Y57891814D01*
X-37271045Y57868390D01*
X-37277962Y57844826D01*
X-37284414Y57821131D01*
X-37290397Y57797312D01*
X-37295906Y57773378D01*
X-37300938Y57749338D01*
X-37305486Y57725205D01*
X-37309545Y57700994D01*
X-37313117Y57676713D01*
X-37316205Y57652370D01*
X-37318811Y57627971D01*
X-37320938Y57603526D01*
X-37322589Y57579041D01*
X-37323766Y57554524D01*
X-37324472Y57529983D01*
X-37324710Y57505425D01*
X-37324710Y51363681D01*
X-37325226Y51363681D01*
X-37326417Y51339194D01*
X-37330001Y51314941D01*
X-37335942Y51291156D01*
X-37344185Y51268068D01*
X-37354650Y51245898D01*
X-37367235Y51224859D01*
X-37381821Y51205154D01*
X-37398267Y51186973D01*
X-37416414Y51170489D01*
X-37436089Y51155863D01*
X-37457102Y51143234D01*
X-37479250Y51132723D01*
X-37502322Y51124433D01*
X-37526094Y51118442D01*
X-37550339Y51114808D01*
X-37574824Y51113567D01*
X-37599343Y51114761D01*
X-37623626Y51118354D01*
X-37647440Y51124311D01*
X-37670556Y51132575D01*
X-37692749Y51143066D01*
X-37713806Y51155684D01*
X-37733525Y51170305D01*
X-37751714Y51186790D01*
X-37768199Y51204980D01*
X-37782820Y51224698D01*
X-37795438Y51245755D01*
X-37805929Y51267949D01*
X-37814193Y51291064D01*
X-37820150Y51314878D01*
X-37823743Y51339162D01*
X-37824937Y51363681D01*
X-37824937Y57505425D01*
X-37824765Y57529986D01*
X-37824250Y57554540D01*
X-37823392Y57579081D01*
X-37822191Y57603607D01*
X-37820647Y57628111D01*
X-37818760Y57652591D01*
X-37816530Y57677041D01*
X-37813959Y57701458D01*
X-37811045Y57725837D01*
X-37807789Y57750173D01*
X-37804191Y57774462D01*
X-37800252Y57798700D01*
X-37795970Y57822883D01*
X-37791348Y57847006D01*
X-37786386Y57871057D01*
X-37781085Y57895025D01*
X-37775446Y57918908D01*
X-37769471Y57942702D01*
X-37763161Y57966405D01*
X-37756519Y57990013D01*
X-37749546Y58013525D01*
X-37742243Y58036937D01*
X-37734613Y58060246D01*
X-37726658Y58083449D01*
X-37718378Y58106545D01*
X-37709776Y58129528D01*
X-37700853Y58152398D01*
X-37691611Y58175151D01*
X-37682051Y58197771D01*
X-37672177Y58220241D01*
X-37661991Y58242560D01*
X-37651495Y58264725D01*
X-37640691Y58286734D01*
X-37629580Y58308586D01*
X-37618164Y58330277D01*
X-37606445Y58351806D01*
X-37594424Y58373171D01*
X-37582105Y58394370D01*
X-37569487Y58415400D01*
X-37556573Y58436260D01*
X-37543366Y58456946D01*
X-37529866Y58477458D01*
X-37516078Y58497781D01*
X-37502013Y58517900D01*
X-37487673Y58537813D01*
X-37473059Y58557518D01*
X-37458174Y58577011D01*
X-37443019Y58596291D01*
X-37427596Y58615355D01*
X-37411907Y58634201D01*
X-37395955Y58652826D01*
X-37379741Y58671228D01*
X-37363267Y58689405D01*
X-37346536Y58707354D01*
X-37329548Y58725072D01*
X-37312307Y58742558D01*
X-37294820Y58759808D01*
X-37277100Y58776818D01*
X-37259151Y58793583D01*
X-37240973Y58810099D01*
X-37222571Y58826361D01*
X-37203946Y58842366D01*
X-37185100Y58858110D01*
X-37166036Y58873587D01*
X-37146757Y58888795D01*
X-37127264Y58903728D01*
X-37107560Y58918383D01*
X-37087648Y58932755D01*
X-37067530Y58946839D01*
X-37047207Y58960633D01*
X-37026688Y58974134D01*
X-37005980Y58987343D01*
X-36985089Y59000258D01*
X-36964018Y59012877D01*
X-36942771Y59025198D01*
X-36921354Y59037219D01*
X-36899770Y59048939D01*
X-36878024Y59060355D01*
X-36856120Y59071466D01*
X-36834063Y59082271D01*
X-36811856Y59092766D01*
X-36789504Y59102951D01*
X-36767012Y59112823D01*
X-36744384Y59122380D01*
X-36719876Y59132311D01*
X-36695232Y59141856D01*
X-36670457Y59151016D01*
X-36645553Y59159791D01*
X-36620524Y59168184D01*
X-36595374Y59176193D01*
X-36570107Y59183820D01*
X-36544726Y59191066D01*
X-36519234Y59197931D01*
X-36493636Y59204416D01*
X-36467935Y59210522D01*
X-36442134Y59216250D01*
X-36416237Y59221599D01*
X-36392114Y59226221D01*
X-36367931Y59230502D01*
X-36343692Y59234441D01*
X-36319403Y59238039D01*
X-36295067Y59241295D01*
X-36270688Y59244209D01*
X-36246272Y59246781D01*
X-36221822Y59249010D01*
X-36197342Y59250897D01*
X-36172838Y59252442D01*
X-36148313Y59253643D01*
X-36123771Y59254502D01*
X-36099218Y59255017D01*
X-36074657Y59255189D01*
X36074944Y59255189D01*
X36099505Y59255017D01*
G37*
G36*
X7103708Y18041383D02*
G01*
X7366418Y17987330D01*
X7601296Y17892134D01*
X7784374Y17767095D01*
X7891681Y17623514D01*
X7913463Y17554653D01*
X7958196Y17395054D01*
X8022674Y17155728D01*
X8104537Y16845737D01*
X8201421Y16474145D01*
X8310964Y16050012D01*
X8430806Y15582401D01*
X8558584Y15080374D01*
X8691937Y14552994D01*
X8852337Y13917453D01*
X8994447Y13356554D01*
X9115898Y12880073D01*
X9218419Y12481520D01*
X9303741Y12154404D01*
X9373594Y11892235D01*
X9429707Y11688520D01*
X9473811Y11536770D01*
X9507636Y11430493D01*
X9532910Y11363199D01*
X9551365Y11328397D01*
X9571501Y11329889D01*
X9662378Y11369529D01*
X9809631Y11447054D01*
X9995748Y11552439D01*
X10203216Y11675663D01*
X10414523Y11806701D01*
X10612157Y11935531D01*
X10773641Y12049444D01*
X11078839Y12284582D01*
X11413256Y12561788D01*
X11753520Y12860870D01*
X12076258Y13161635D01*
X12358099Y13443891D01*
X12469441Y13556311D01*
X12628331Y13702140D01*
X12762034Y13808260D01*
X12849779Y13857211D01*
X12989278Y13874555D01*
X13229473Y13857346D01*
X13479204Y13797897D01*
X13695173Y13704052D01*
X13756778Y13665983D01*
X14003687Y13460650D01*
X14165645Y13225319D01*
X14237638Y12969648D01*
X14214651Y12703299D01*
X14197768Y12654657D01*
X14093585Y12475347D01*
X13916666Y12254553D01*
X13676102Y12000971D01*
X13380982Y11723298D01*
X13040400Y11430230D01*
X12663444Y11130464D01*
X12259207Y10832697D01*
X12210944Y10798756D01*
X11960494Y10628718D01*
X11681854Y10447747D01*
X11388994Y10264087D01*
X11095884Y10085984D01*
X10816492Y9921683D01*
X10564790Y9779430D01*
X10354747Y9667471D01*
X10200332Y9594050D01*
X10115516Y9567414D01*
X10082005Y9563558D01*
X9977932Y9523856D01*
X9952895Y9491589D01*
X9938370Y9427731D01*
X9936218Y9327719D01*
X9947477Y9186478D01*
X9973181Y8998931D01*
X10014367Y8760002D01*
X10072069Y8464616D01*
X10147324Y8107696D01*
X10241168Y7684166D01*
X10354636Y7188950D01*
X10488763Y6616971D01*
X10644586Y5963155D01*
X10823140Y5222424D01*
X11025461Y4389703D01*
X11096260Y4097822D01*
X11170085Y3786813D01*
X11223082Y3550378D01*
X11257390Y3375667D01*
X11275145Y3249829D01*
X11278486Y3160013D01*
X11269550Y3093367D01*
X11250476Y3037041D01*
X11215909Y2965450D01*
X11056917Y2771433D01*
X10838193Y2655985D01*
X10835096Y2655055D01*
X10712309Y2621950D01*
X10616035Y2613569D01*
X10505650Y2631729D01*
X10340532Y2678248D01*
X10104599Y2787266D01*
X9873118Y2991111D01*
X9689266Y3269474D01*
X9559594Y3612100D01*
X9490652Y4008735D01*
X9473043Y4148380D01*
X9433317Y4383618D01*
X9377588Y4671633D01*
X9310546Y4988376D01*
X9236883Y5309798D01*
X9218210Y5388524D01*
X9163007Y5624362D01*
X9088813Y5944217D01*
X8997768Y6338756D01*
X8892013Y6798643D01*
X8773687Y7314542D01*
X8644931Y7877118D01*
X8507883Y8477036D01*
X8364683Y9104961D01*
X8217473Y9751557D01*
X8068390Y10407489D01*
X7935736Y10991158D01*
X7739070Y11854200D01*
X7561996Y12627978D01*
X7403247Y13317768D01*
X7261560Y13928847D01*
X7135666Y14466494D01*
X7024301Y14935984D01*
X6926198Y15342595D01*
X6840093Y15691604D01*
X6764718Y15988290D01*
X6698808Y16237928D01*
X6641097Y16445797D01*
X6590319Y16617172D01*
X6545208Y16757333D01*
X6503608Y16886771D01*
X6422865Y17222764D01*
X6405957Y17495603D01*
X6453062Y17715883D01*
X6564359Y17894200D01*
X6627178Y17960746D01*
X6713448Y18022692D01*
X6820980Y18047391D01*
X6988957Y18049143D01*
X7103708Y18041383D01*
G37*
G36*
X-17215833Y12065319D02*
G01*
X-17308360Y11731165D01*
X-17465566Y11468101D01*
X-17613729Y11326636D01*
X-17882885Y11176063D01*
X-18199286Y11094050D01*
X-18547549Y11080700D01*
X-18912291Y11136115D01*
X-19278129Y11260397D01*
X-19629680Y11453650D01*
X-19813395Y11588269D01*
X-20160623Y11894875D01*
X-20529133Y12280392D01*
X-20910884Y12735004D01*
X-21297835Y13248892D01*
X-21681945Y13812237D01*
X-22055174Y14415222D01*
X-22119257Y14520730D01*
X-22223937Y14679042D01*
X-22307503Y14787990D01*
X-22356096Y14828536D01*
X-22360820Y14822826D01*
X-22374897Y14742361D01*
X-22389017Y14574071D01*
X-22402939Y14327193D01*
X-22416424Y14010962D01*
X-22429228Y13634617D01*
X-22441113Y13207392D01*
X-22451837Y12738525D01*
X-22461159Y12237253D01*
X-22468838Y11712811D01*
X-22474633Y11174437D01*
X-22478303Y10631368D01*
X-22479608Y10092839D01*
X-22479888Y9928019D01*
X-22483837Y9609877D01*
X-22495361Y9372447D01*
X-22518111Y9202120D01*
X-22555740Y9085284D01*
X-22611900Y9008331D01*
X-22690242Y8957648D01*
X-22794420Y8919626D01*
X-22859351Y8902987D01*
X-23135229Y8883150D01*
X-23439834Y8926171D01*
X-23737944Y9028005D01*
X-23787944Y9049176D01*
X-23853580Y9073033D01*
X-23912019Y9093921D01*
X-23963659Y9117270D01*
X-24008899Y9148510D01*
X-24048137Y9193070D01*
X-24081773Y9256381D01*
X-24110205Y9343871D01*
X-24133833Y9460972D01*
X-24153054Y9613112D01*
X-24168267Y9805721D01*
X-24179872Y10044229D01*
X-24188268Y10334066D01*
X-24193852Y10680662D01*
X-24197024Y11089446D01*
X-24198182Y11565848D01*
X-24197726Y12115297D01*
X-24196054Y12743225D01*
X-24193565Y13455059D01*
X-24190657Y14256231D01*
X-24187730Y15152169D01*
X-24186364Y15649581D01*
X-24184318Y16727151D01*
X-24183965Y17713367D01*
X-24184081Y17781632D01*
X-22377334Y17781632D01*
X-22366556Y17585064D01*
X-22344536Y17382425D01*
X-22274098Y17044287D01*
X-22155738Y16669785D01*
X-21984762Y16244836D01*
X-21756474Y15755361D01*
X-21531475Y15321587D01*
X-21050913Y14533566D01*
X-20519427Y13831157D01*
X-19936510Y13213651D01*
X-19860499Y13143933D01*
X-19669444Y12983133D01*
X-19486284Y12846105D01*
X-19342084Y12756727D01*
X-19155153Y12669042D01*
X-18995765Y12616418D01*
X-18882536Y12617373D01*
X-18811850Y12679171D01*
X-18780090Y12809072D01*
X-18783637Y13014341D01*
X-18818874Y13302240D01*
X-18882184Y13680031D01*
X-18894113Y13745129D01*
X-19051042Y14415271D01*
X-19268517Y15060095D01*
X-19552919Y15692303D01*
X-19910629Y16324599D01*
X-20348027Y16969685D01*
X-20871494Y17640262D01*
X-21037597Y17837100D01*
X-21177425Y17989168D01*
X-21290906Y18090664D01*
X-21395549Y18157070D01*
X-21508865Y18203872D01*
X-21724782Y18265461D01*
X-21946063Y18286126D01*
X-22118194Y18239399D01*
X-22256598Y18123624D01*
X-22289700Y18083297D01*
X-22345246Y17999702D01*
X-22372344Y17909496D01*
X-22377334Y17781632D01*
X-24184081Y17781632D01*
X-24185492Y18614389D01*
X-24189085Y19436380D01*
X-24194933Y20185499D01*
X-24203223Y20867907D01*
X-24214140Y21489766D01*
X-24227872Y22057234D01*
X-24244607Y22576474D01*
X-24264531Y23053647D01*
X-24287832Y23494912D01*
X-24314696Y23906431D01*
X-24345311Y24294364D01*
X-24379863Y24664873D01*
X-24418540Y25024117D01*
X-24461529Y25378258D01*
X-24509016Y25733456D01*
X-24517197Y25792572D01*
X-24564606Y26160862D01*
X-24592166Y26448223D01*
X-24598616Y26670045D01*
X-24582695Y26841720D01*
X-24543143Y26978640D01*
X-24478699Y27096197D01*
X-24388103Y27209783D01*
X-24272755Y27303803D01*
X-24069963Y27375702D01*
X-23843353Y27379469D01*
X-23617718Y27319236D01*
X-23417847Y27199131D01*
X-23268535Y27023285D01*
X-23231818Y26922890D01*
X-23186292Y26716564D01*
X-23136458Y26412685D01*
X-23082464Y26012598D01*
X-23024457Y25517647D01*
X-22962585Y24929178D01*
X-22896997Y24248533D01*
X-22827839Y23477059D01*
X-22755261Y22616099D01*
X-22679409Y21666998D01*
X-22654707Y21356445D01*
X-22626900Y21021009D01*
X-22601214Y20725595D01*
X-22578994Y20485177D01*
X-22561584Y20314727D01*
X-22550328Y20229219D01*
X-22546411Y20211322D01*
X-22511517Y20133145D01*
X-22435422Y20088988D01*
X-22288767Y20059839D01*
X-22050971Y20008912D01*
X-21678124Y19864696D01*
X-21291789Y19637286D01*
X-20885721Y19322795D01*
X-20453678Y18917335D01*
X-20448387Y18911978D01*
X-19907171Y18313409D01*
X-19380344Y17633628D01*
X-18879747Y16891410D01*
X-18417220Y16105528D01*
X-18004604Y15294756D01*
X-17653739Y14477868D01*
X-17486205Y14011690D01*
X-17323172Y13443747D01*
X-17223556Y12926667D01*
X-17214405Y12809072D01*
X-17187670Y12465505D01*
X-17215833Y12065319D01*
G37*
G36*
X-2178047Y8808810D02*
G01*
X-2127600Y8315065D01*
X-2071920Y7771208D01*
X-2011744Y7184468D01*
X-1947808Y6562073D01*
X-1880851Y5911252D01*
X-1840841Y5521887D01*
X-1762737Y4756188D01*
X-1695007Y4083278D01*
X-1637239Y3498516D01*
X-1589023Y2997261D01*
X-1549948Y2574871D01*
X-1519601Y2226704D01*
X-1497572Y1948119D01*
X-1483449Y1734473D01*
X-1476822Y1581127D01*
X-1477279Y1483437D01*
X-1484409Y1436762D01*
X-1570846Y1314385D01*
X-1732130Y1215716D01*
X-1974908Y1151778D01*
X-2055478Y1140278D01*
X-2365142Y1143969D01*
X-2630943Y1227099D01*
X-2840388Y1386283D01*
X-2888227Y1443919D01*
X-2937376Y1518473D01*
X-2983133Y1610987D01*
X-3027247Y1729585D01*
X-3071468Y1882391D01*
X-3117546Y2077527D01*
X-3167231Y2323117D01*
X-3222273Y2627285D01*
X-3284422Y2998154D01*
X-3355428Y3443848D01*
X-3437042Y3972490D01*
X-3531012Y4592204D01*
X-3566680Y4828994D01*
X-3640481Y5320757D01*
X-3708923Y5779223D01*
X-3770623Y6194998D01*
X-3824201Y6558686D01*
X-3868277Y6860893D01*
X-3901469Y7092225D01*
X-3922397Y7243286D01*
X-3929680Y7304682D01*
X-3937372Y7327922D01*
X-3997985Y7419561D01*
X-4105811Y7552585D01*
X-4245075Y7706879D01*
X-4439733Y7920697D01*
X-4696828Y8218197D01*
X-4990464Y8569835D01*
X-5309324Y8961403D01*
X-5642088Y9378698D01*
X-5977438Y9807514D01*
X-6304056Y10233647D01*
X-6610622Y10642891D01*
X-6885818Y11021041D01*
X-6992135Y11171039D01*
X-7438439Y11828297D01*
X-7857315Y12489550D01*
X-8241787Y13142090D01*
X-8584878Y13773211D01*
X-8879611Y14370204D01*
X-9119010Y14920364D01*
X-9288423Y15389723D01*
X-7751278Y15389723D01*
X-7689837Y15060364D01*
X-7600092Y14755396D01*
X-7409287Y14253767D01*
X-7160889Y13716918D01*
X-6865552Y13163274D01*
X-6533931Y12611257D01*
X-6176683Y12079294D01*
X-5804461Y11585806D01*
X-5427921Y11149220D01*
X-5414620Y11134914D01*
X-5232345Y10931739D01*
X-5017236Y10681952D01*
X-4795040Y10415887D01*
X-4591508Y10163878D01*
X-4522089Y10076408D01*
X-4359176Y9874060D01*
X-4218382Y9703150D01*
X-4112860Y9579514D01*
X-4055766Y9518986D01*
X-4039975Y9505931D01*
X-4016977Y9490928D01*
X-4000053Y9493586D01*
X-3989601Y9523024D01*
X-3986019Y9588360D01*
X-3989704Y9698713D01*
X-4001055Y9863201D01*
X-4020470Y10090944D01*
X-4048345Y10391060D01*
X-4085080Y10772668D01*
X-4131072Y11244886D01*
X-4136709Y11302653D01*
X-4183295Y11770181D01*
X-4224938Y12152306D01*
X-4265263Y12461982D01*
X-4307897Y12712160D01*
X-4356463Y12915793D01*
X-4414587Y13085833D01*
X-4485894Y13235232D01*
X-4574010Y13376944D01*
X-4682559Y13523919D01*
X-4815166Y13689111D01*
X-4822438Y13697992D01*
X-5007234Y13912743D01*
X-5236832Y14163686D01*
X-5495355Y14434943D01*
X-5766923Y14710633D01*
X-6035657Y14974876D01*
X-6285678Y15211793D01*
X-6501108Y15405504D01*
X-6666067Y15540129D01*
X-6889325Y15694518D01*
X-7169713Y15847269D01*
X-7398015Y15917379D01*
X-7572276Y15905763D01*
X-7690543Y15813338D01*
X-7750862Y15641019D01*
X-7751278Y15389723D01*
X-9288423Y15389723D01*
X-9296097Y15410983D01*
X-9303457Y15434553D01*
X-9401508Y15784382D01*
X-9480516Y16133215D01*
X-9536440Y16457856D01*
X-9565238Y16735108D01*
X-9562867Y16941776D01*
X-9490326Y17246690D01*
X-9345452Y17502470D01*
X-9136599Y17685931D01*
X-8869948Y17793370D01*
X-8551680Y17821083D01*
X-8187977Y17765369D01*
X-8144801Y17754070D01*
X-7736696Y17624420D01*
X-7333880Y17451951D01*
X-6926111Y17229985D01*
X-6503141Y16951843D01*
X-6054727Y16610845D01*
X-5570624Y16200314D01*
X-5040587Y15713571D01*
X-4890715Y15573266D01*
X-4674846Y15382454D01*
X-4506380Y15256017D01*
X-4372155Y15188224D01*
X-4259011Y15173348D01*
X-4153787Y15205657D01*
X-4043323Y15279424D01*
X-3924204Y15349124D01*
X-3810437Y15378521D01*
X-3698819Y15360975D01*
X-3505896Y15284685D01*
X-3314163Y15167124D01*
X-3162721Y15029370D01*
X-3091251Y14939371D01*
X-2959107Y14732293D01*
X-2858116Y14499112D01*
X-2782685Y14221402D01*
X-2727225Y13880736D01*
X-2686143Y13458687D01*
X-2644717Y12915466D01*
X-2085503Y12091271D01*
X-2066767Y12063600D01*
X-1894050Y11803056D01*
X-1741492Y11563489D01*
X-1618380Y11360182D01*
X-1533997Y11208422D01*
X-1497630Y11123494D01*
X-1488416Y11032111D01*
X-1518288Y10835186D01*
X-1602486Y10661062D01*
X-1726291Y10546860D01*
X-1766977Y10527644D01*
X-1923421Y10468294D01*
X-2097127Y10416537D01*
X-2174021Y10394669D01*
X-2285757Y10350743D01*
X-2329680Y10314201D01*
X-2325997Y10272845D01*
X-2312768Y10138092D01*
X-2290622Y9917084D01*
X-2260295Y9617048D01*
X-2257381Y9588360D01*
X-2222524Y9245214D01*
X-2178047Y8808810D01*
G37*
G36*
X24737976Y7467637D02*
G01*
X24751922Y7224976D01*
X24772756Y6951128D01*
X24798814Y6665193D01*
X24828438Y6386268D01*
X24859964Y6133452D01*
X24891734Y5925843D01*
X24922084Y5782540D01*
X24924421Y5774081D01*
X25003718Y5385811D01*
X25010011Y5059016D01*
X24943442Y4786986D01*
X24941657Y4782656D01*
X24923451Y4729253D01*
X24909619Y4662582D01*
X24900270Y4572998D01*
X24895515Y4450859D01*
X24895464Y4286524D01*
X24900227Y4070348D01*
X24909915Y3792690D01*
X24924637Y3443907D01*
X24944504Y3014356D01*
X24969625Y2494395D01*
X24976021Y2363874D01*
X25001240Y1849603D01*
X25021060Y1424212D01*
X25034488Y1078553D01*
X25040532Y803479D01*
X25038199Y589844D01*
X25026497Y428501D01*
X25004432Y310303D01*
X24971012Y226103D01*
X24925243Y166754D01*
X24866134Y123109D01*
X24792692Y86022D01*
X24703923Y46346D01*
X24679677Y35493D01*
X24472597Y-34629D01*
X24293427Y-39470D01*
X24100306Y19078D01*
X24050461Y43077D01*
X23858681Y199760D01*
X23692345Y442713D01*
X23558835Y761814D01*
X23556923Y767741D01*
X23527281Y870334D01*
X23503167Y982722D01*
X23483593Y1117818D01*
X23467570Y1288536D01*
X23454111Y1507789D01*
X23442226Y1788490D01*
X23430928Y2143552D01*
X23419228Y2585888D01*
X23415229Y2741290D01*
X23401830Y3189803D01*
X23387664Y3548329D01*
X23372231Y3824697D01*
X23355030Y4026735D01*
X23335557Y4162274D01*
X23313313Y4239143D01*
X23294592Y4273515D01*
X23264053Y4310541D01*
X23216588Y4346159D01*
X23144121Y4382656D01*
X23038579Y4422319D01*
X22891884Y4467436D01*
X22695963Y4520294D01*
X22442739Y4583182D01*
X22124138Y4658386D01*
X21732085Y4748194D01*
X21258504Y4854894D01*
X20695320Y4980773D01*
X20097048Y5113061D01*
X19308167Y5282836D01*
X18589194Y5430933D01*
X17924431Y5560017D01*
X17298185Y5672753D01*
X16694757Y5771807D01*
X16098453Y5859843D01*
X15493577Y5939527D01*
X14864431Y6013525D01*
X14195320Y6084500D01*
X14155750Y6088516D01*
X13694278Y6136844D01*
X13319908Y6180303D01*
X13020962Y6221804D01*
X12785764Y6264260D01*
X12602636Y6310585D01*
X12459901Y6363689D01*
X12345882Y6426486D01*
X12248902Y6501888D01*
X12157284Y6592808D01*
X12101325Y6655138D01*
X11909621Y6920120D01*
X11799051Y7169922D01*
X11767829Y7395219D01*
X11814170Y7586684D01*
X11936291Y7734991D01*
X12132406Y7830814D01*
X12400730Y7864828D01*
X12485837Y7861006D01*
X12680526Y7841051D01*
X12918367Y7807873D01*
X13165713Y7765827D01*
X13407125Y7721110D01*
X13737748Y7660641D01*
X14130698Y7589368D01*
X14577938Y7508711D01*
X15071429Y7420092D01*
X15603132Y7324931D01*
X16165008Y7224648D01*
X16749020Y7120666D01*
X17347128Y7014405D01*
X17951294Y6907285D01*
X18553480Y6800728D01*
X19145647Y6696154D01*
X19719756Y6594985D01*
X20267769Y6498641D01*
X20781647Y6408543D01*
X21253353Y6326112D01*
X21674847Y6252769D01*
X22038090Y6189934D01*
X22335045Y6139030D01*
X22557672Y6101476D01*
X22697934Y6078694D01*
X22747792Y6072103D01*
X22747812Y6072127D01*
X22715668Y6109662D01*
X22618005Y6210915D01*
X22460951Y6369793D01*
X22250639Y6580202D01*
X21993197Y6836051D01*
X21694757Y7131247D01*
X21361449Y7459697D01*
X20999403Y7815308D01*
X20614750Y8191989D01*
X20603885Y8202613D01*
X20107954Y8687982D01*
X19677629Y9110308D01*
X19306738Y9476052D01*
X18989110Y9791671D01*
X18718572Y10063626D01*
X18488953Y10298376D01*
X18294080Y10502379D01*
X18127782Y10682095D01*
X17983886Y10843984D01*
X17856222Y10994505D01*
X17738617Y11140116D01*
X17624899Y11287278D01*
X17508896Y11442449D01*
X17508776Y11442611D01*
X17264546Y11800044D01*
X17030133Y12193678D01*
X16810637Y12610246D01*
X16611160Y13036482D01*
X16436801Y13459120D01*
X16292663Y13864891D01*
X16227206Y14090848D01*
X17756275Y14090848D01*
X17781539Y13827400D01*
X17786622Y13788955D01*
X17842411Y13579515D01*
X17946874Y13309130D01*
X18091280Y12993707D01*
X18266901Y12649156D01*
X18465006Y12291387D01*
X18676864Y11936308D01*
X18893746Y11599829D01*
X19106921Y11297859D01*
X19307660Y11046306D01*
X19310177Y11043439D01*
X19388087Y10963637D01*
X19530137Y10826166D01*
X19726737Y10639839D01*
X19968297Y10413468D01*
X20245227Y10155864D01*
X20547938Y9875839D01*
X20866840Y9582205D01*
X21192344Y9283775D01*
X21514859Y8989360D01*
X21824796Y8707772D01*
X22112566Y8447823D01*
X22368578Y8218325D01*
X22583243Y8028090D01*
X22746971Y7885931D01*
X22886469Y7766254D01*
X23022410Y7655084D01*
X23108695Y7607111D01*
X23154970Y7629733D01*
X23170884Y7730349D01*
X23166084Y7916355D01*
X23150217Y8195151D01*
X23135299Y8432728D01*
X23109896Y8769804D01*
X23081078Y9098770D01*
X23052655Y9373626D01*
X22990977Y9905500D01*
X22362064Y10601042D01*
X22159493Y10821266D01*
X21872163Y11125544D01*
X21559890Y11449399D01*
X21248604Y11765982D01*
X20964235Y12048441D01*
X20562565Y12433395D01*
X20107189Y12845504D01*
X19694312Y13187411D01*
X19314888Y13465140D01*
X18959871Y13684714D01*
X18620214Y13852156D01*
X18286872Y13973488D01*
X17950798Y14054733D01*
X17756275Y14090848D01*
X16227206Y14090848D01*
X16183845Y14240531D01*
X16115449Y14572772D01*
X16092575Y14848347D01*
X16120324Y15053990D01*
X16124707Y15066797D01*
X16249255Y15273888D01*
X16453278Y15437414D01*
X16724389Y15552039D01*
X17050200Y15612426D01*
X17418323Y15613236D01*
X17564359Y15598709D01*
X18173846Y15479261D01*
X18799101Y15265452D01*
X19435451Y14960071D01*
X20078219Y14565910D01*
X20722733Y14085761D01*
X21364316Y13522413D01*
X21998296Y12878658D01*
X22052189Y12820218D01*
X22258671Y12598559D01*
X22440286Y12407055D01*
X22586408Y12256680D01*
X22686414Y12158407D01*
X22729678Y12123211D01*
X22734769Y12124794D01*
X22766026Y12182843D01*
X22793055Y12298556D01*
X22819142Y12466494D01*
X22847021Y12646226D01*
X22892905Y12782152D01*
X23031947Y12951953D01*
X23067413Y12981117D01*
X23169744Y13046137D01*
X23277813Y13066134D01*
X23437501Y13052480D01*
X23684785Y13003009D01*
X23905691Y12904336D01*
X24074533Y12746203D01*
X24214843Y12512254D01*
X24254884Y12426325D01*
X24306287Y12296053D01*
X24344000Y12158738D01*
X24372636Y11991119D01*
X24396808Y11769935D01*
X24421127Y11471929D01*
X24427659Y11384997D01*
X24458313Y10976300D01*
X24484241Y10650893D01*
X24508728Y10394848D01*
X24535058Y10194239D01*
X24566515Y10035140D01*
X24606384Y9903624D01*
X24657948Y9785764D01*
X24724492Y9667633D01*
X24809300Y9535306D01*
X24915655Y9374856D01*
X25076633Y9118910D01*
X25254158Y8785226D01*
X25354756Y8509160D01*
X25378616Y8287097D01*
X25325926Y8115422D01*
X25196871Y7990519D01*
X24991640Y7908772D01*
X24925333Y7890641D01*
X24803997Y7848644D01*
X24745336Y7814754D01*
X24737386Y7783008D01*
X24735327Y7730349D01*
X24732577Y7660014D01*
X24737976Y7467637D01*
G37*
G36*
X1170320Y18601583D02*
G01*
X1431996Y18585010D01*
X1955572Y18480111D01*
X2444950Y18282271D01*
X2894513Y17994086D01*
X3298640Y17618152D01*
X3592997Y17265384D01*
X3966156Y16720239D01*
X4303718Y16100736D01*
X4612612Y15395153D01*
X4627658Y15356974D01*
X4761567Y15012749D01*
X4881745Y14693070D01*
X4991323Y14386793D01*
X5093429Y14082776D01*
X5191194Y13769876D01*
X5287745Y13436948D01*
X5386213Y13072851D01*
X5489726Y12666441D01*
X5601415Y12206575D01*
X5724408Y11682110D01*
X5861833Y11081902D01*
X6016822Y10394808D01*
X6114558Y9958227D01*
X6256745Y9316856D01*
X6377875Y8759832D01*
X6479263Y8279008D01*
X6562226Y7866236D01*
X6628077Y7513368D01*
X6678133Y7212257D01*
X6713708Y6954756D01*
X6736117Y6732716D01*
X6746677Y6537991D01*
X6746701Y6362433D01*
X6737506Y6197895D01*
X6720406Y6036228D01*
X6668371Y5737672D01*
X6560872Y5413736D01*
X6402063Y5161730D01*
X6183731Y4969565D01*
X5897660Y4825148D01*
X5692191Y4772303D01*
X5450132Y4777814D01*
X5165424Y4851981D01*
X5072929Y4885151D01*
X4494528Y5151283D01*
X3925043Y5514521D01*
X3367634Y5972318D01*
X2825460Y6522126D01*
X2301680Y7161396D01*
X2278695Y7192047D01*
X1962460Y7626503D01*
X1621312Y8116098D01*
X1265954Y8643990D01*
X907092Y9193335D01*
X555429Y9747289D01*
X221672Y10289009D01*
X-83477Y10801650D01*
X-349312Y11268369D01*
X-565129Y11672323D01*
X-707359Y11953694D01*
X-909294Y12367680D01*
X-1064034Y12710173D01*
X-1174093Y12990346D01*
X-1241986Y13217371D01*
X-1270227Y13400418D01*
X-1261330Y13548660D01*
X-1217810Y13671268D01*
X-1142180Y13777415D01*
X-1023795Y13883188D01*
X-842547Y13955927D01*
X-631995Y13941973D01*
X-380023Y13842358D01*
X-193439Y13728584D01*
X-23450Y13573718D01*
X122213Y13370666D01*
X255604Y13102326D01*
X388779Y12751596D01*
X521973Y12391963D01*
X714924Y11942816D01*
X946371Y11474616D01*
X1223582Y10973662D01*
X1553825Y10426249D01*
X1944367Y9818674D01*
X2006312Y9724898D01*
X2388735Y9158947D01*
X2740496Y8664047D01*
X3074080Y8224238D01*
X3401977Y7823563D01*
X3736674Y7446061D01*
X4090659Y7075775D01*
X4228259Y6937374D01*
X4470929Y6700062D01*
X4660391Y6528833D01*
X4806155Y6418238D01*
X4917734Y6362828D01*
X5004641Y6357154D01*
X5076387Y6395765D01*
X5142485Y6473214D01*
X5144627Y6476377D01*
X5188444Y6602559D01*
X5213502Y6805435D01*
X5219298Y7064027D01*
X5205326Y7357353D01*
X5171084Y7664433D01*
X5169710Y7673118D01*
X5147250Y7784350D01*
X5103267Y7981873D01*
X5040077Y8256187D01*
X4959996Y8597789D01*
X4865339Y8997181D01*
X4758421Y9444860D01*
X4641558Y9931327D01*
X4517064Y10447079D01*
X4387256Y10982618D01*
X4254448Y11528441D01*
X4120956Y12075048D01*
X3989095Y12612938D01*
X3861181Y13132610D01*
X3739529Y13624564D01*
X3626454Y14079299D01*
X3524272Y14487314D01*
X3435298Y14839108D01*
X3361847Y15125180D01*
X3306235Y15336030D01*
X3270777Y15462157D01*
X3138970Y15825703D01*
X2941649Y16224734D01*
X2709823Y16575224D01*
X2453547Y16864300D01*
X2182880Y17079089D01*
X1907877Y17206718D01*
X1768704Y17240804D01*
X1599426Y17251394D01*
X1440328Y17210565D01*
X1265894Y17110476D01*
X1050605Y16943284D01*
X862969Y16801094D01*
X701979Y16721210D01*
X546652Y16701499D01*
X367791Y16732966D01*
X307901Y16751788D01*
X61347Y16889439D01*
X-148411Y17103722D01*
X-307232Y17377002D01*
X-400974Y17691644D01*
X-412044Y17777665D01*
X-399363Y17864727D01*
X-340224Y17948301D01*
X-218502Y18061033D01*
X-206618Y18071197D01*
X-46803Y18188327D01*
X159340Y18316233D01*
X370320Y18428988D01*
X478440Y18480460D01*
X645945Y18550872D01*
X789615Y18588601D01*
X950667Y18602540D01*
X1170320Y18601583D01*
G37*
G36*
X-9604818Y10795597D02*
G01*
X-9568196Y10559434D01*
X-9526353Y10278405D01*
X-9500138Y10071823D01*
X-9489520Y9924986D01*
X-9494469Y9823192D01*
X-9514953Y9751740D01*
X-9550943Y9695927D01*
X-9602407Y9641052D01*
X-9677807Y9576937D01*
X-9765121Y9539387D01*
X-9892532Y9522624D01*
X-10089907Y9519183D01*
X-10095163Y9519203D01*
X-10415886Y9543066D01*
X-10654680Y9612051D01*
X-10744055Y9656482D01*
X-10989614Y9813183D01*
X-11244933Y10027277D01*
X-11512876Y10302794D01*
X-11796310Y10643761D01*
X-12098102Y11054207D01*
X-12421117Y11538161D01*
X-12768222Y12099650D01*
X-13142283Y12742704D01*
X-13546167Y13471352D01*
X-13982739Y14289621D01*
X-14103221Y14517266D01*
X-14253261Y14795381D01*
X-14384567Y15032685D01*
X-14490336Y15217131D01*
X-14563765Y15336673D01*
X-14598053Y15379266D01*
X-14605357Y15359992D01*
X-14613171Y15255488D01*
X-14616347Y15071231D01*
X-14614887Y14819701D01*
X-14608788Y14513375D01*
X-14598053Y14164729D01*
X-14595124Y14079782D01*
X-14582276Y13634737D01*
X-14571166Y13134369D01*
X-14562435Y12615607D01*
X-14556725Y12115376D01*
X-14554680Y11670604D01*
X-14554925Y11407812D01*
X-14556689Y11064961D01*
X-14560871Y10800492D01*
X-14568301Y10601035D01*
X-14579815Y10453220D01*
X-14596244Y10343678D01*
X-14618422Y10259037D01*
X-14647182Y10185928D01*
X-14754626Y10015805D01*
X-14919732Y9904052D01*
X-15144532Y9869052D01*
X-15432367Y9906349D01*
X-15703324Y10017933D01*
X-15921613Y10192215D01*
X-16067584Y10417518D01*
X-16101187Y10544139D01*
X-16132872Y10772322D01*
X-16160329Y11097817D01*
X-16183706Y11522027D01*
X-16191307Y11681527D01*
X-16219767Y12193406D01*
X-16257830Y12786745D01*
X-16304493Y13448158D01*
X-16358754Y14164259D01*
X-16419609Y14921663D01*
X-16486057Y15706985D01*
X-16557094Y16506840D01*
X-16630882Y17360240D01*
X-16690362Y18151790D01*
X-16732177Y18852746D01*
X-16754118Y19419468D01*
X-14640428Y19419468D01*
X-14630966Y19321944D01*
X-14603113Y19155177D01*
X-14560550Y18936383D01*
X-14506963Y18682777D01*
X-14446034Y18411576D01*
X-14381447Y18139994D01*
X-14316886Y17885248D01*
X-14256034Y17664553D01*
X-14205449Y17495311D01*
X-13836206Y16448968D01*
X-13385362Y15458789D01*
X-12850562Y14520082D01*
X-12229449Y13628156D01*
X-12178423Y13561913D01*
X-12022830Y13364946D01*
X-11874538Y13183536D01*
X-11759828Y13050035D01*
X-11578919Y12849641D01*
X-11609867Y12999936D01*
X-11674720Y13295517D01*
X-11784271Y13745989D01*
X-11913840Y14238635D01*
X-12056676Y14750083D01*
X-12206027Y15256956D01*
X-12355140Y15735881D01*
X-12497265Y16163485D01*
X-12625649Y16516391D01*
X-12638633Y16549252D01*
X-12780304Y16861274D01*
X-12970402Y17221202D01*
X-13194209Y17603737D01*
X-13437004Y17983582D01*
X-13684068Y18335439D01*
X-13710407Y18370711D01*
X-13859490Y18563466D01*
X-14024577Y18767857D01*
X-14192677Y18968834D01*
X-14350800Y19151348D01*
X-14485956Y19300349D01*
X-14585153Y19400786D01*
X-14635402Y19437609D01*
X-14640428Y19419468D01*
X-16754118Y19419468D01*
X-16755968Y19467255D01*
X-16761377Y19999466D01*
X-16748045Y20453528D01*
X-16715613Y20833588D01*
X-16663721Y21143796D01*
X-16592011Y21388300D01*
X-16500124Y21571248D01*
X-16387701Y21696789D01*
X-16254384Y21769072D01*
X-16099812Y21792244D01*
X-15896109Y21766590D01*
X-15598935Y21668448D01*
X-15261364Y21504384D01*
X-14894001Y21282434D01*
X-14507454Y21010634D01*
X-14112332Y20697019D01*
X-13719241Y20349624D01*
X-13338789Y19976485D01*
X-12981583Y19585638D01*
X-12658230Y19185118D01*
X-12273670Y18643860D01*
X-11806502Y17889956D01*
X-11382108Y17083833D01*
X-10998180Y16219153D01*
X-10652412Y15289578D01*
X-10342499Y14288772D01*
X-10066133Y13210398D01*
X-9990049Y12849641D01*
X-9821008Y12048119D01*
X-9604818Y10795597D01*
G37*
D11*
X0Y-47625200D03*
X-32385000Y-19050000D03*
X32385000Y-19050000D03*
X35814000Y48895000D03*
X-35814000Y48895000D03*
M02*
