%TF.GenerationSoftware,KiCad,Pcbnew,(6.0.2)*%
%TF.CreationDate,2022-03-24T09:15:57-04:00*%
%TF.ProjectId,RYCpad_plate,52594370-6164-45f7-906c-6174652e6b69,rev?*%
%TF.SameCoordinates,Original*%
%TF.FileFunction,Legend,Bot*%
%TF.FilePolarity,Positive*%
%FSLAX46Y46*%
G04 Gerber Fmt 4.6, Leading zero omitted, Abs format (unit mm)*
G04 Created by KiCad (PCBNEW (6.0.2)) date 2022-03-24 09:15:57*
%MOMM*%
%LPD*%
G01*
G04 APERTURE LIST*
%ADD10C,0.150000*%
G04 APERTURE END LIST*
D10*
X6238095Y-452380D02*
X6571428Y23809D01*
X6809523Y-452380D02*
X6809523Y547619D01*
X6428571Y547619D01*
X6333333Y500000D01*
X6285714Y452380D01*
X6238095Y357142D01*
X6238095Y214285D01*
X6285714Y119047D01*
X6333333Y71428D01*
X6428571Y23809D01*
X6809523Y23809D01*
X5619047Y23809D02*
X5619047Y-452380D01*
X5952380Y547619D02*
X5619047Y23809D01*
X5285714Y547619D01*
X4380952Y-357142D02*
X4428571Y-404761D01*
X4571428Y-452380D01*
X4666666Y-452380D01*
X4809523Y-404761D01*
X4904761Y-309523D01*
X4952380Y-214285D01*
X5000000Y-23809D01*
X5000000Y119047D01*
X4952380Y309523D01*
X4904761Y404761D01*
X4809523Y500000D01*
X4666666Y547619D01*
X4571428Y547619D01*
X4428571Y500000D01*
X4380952Y452380D01*
X3952380Y214285D02*
X3952380Y-785714D01*
X3952380Y166666D02*
X3857142Y214285D01*
X3666666Y214285D01*
X3571428Y166666D01*
X3523809Y119047D01*
X3476190Y23809D01*
X3476190Y-261904D01*
X3523809Y-357142D01*
X3571428Y-404761D01*
X3666666Y-452380D01*
X3857142Y-452380D01*
X3952380Y-404761D01*
X2619047Y-452380D02*
X2619047Y71428D01*
X2666666Y166666D01*
X2761904Y214285D01*
X2952380Y214285D01*
X3047619Y166666D01*
X2619047Y-404761D02*
X2714285Y-452380D01*
X2952380Y-452380D01*
X3047619Y-404761D01*
X3095238Y-309523D01*
X3095238Y-214285D01*
X3047619Y-119047D01*
X2952380Y-71428D01*
X2714285Y-71428D01*
X2619047Y-23809D01*
X1714285Y-452380D02*
X1714285Y547619D01*
X1714285Y-404761D02*
X1809523Y-452380D01*
X2000000Y-452380D01*
X2095238Y-404761D01*
X2142857Y-357142D01*
X2190476Y-261904D01*
X2190476Y23809D01*
X2142857Y119047D01*
X2095238Y166666D01*
X2000000Y214285D01*
X1809523Y214285D01*
X1714285Y166666D01*
X476190Y-452380D02*
X476190Y547619D01*
X95238Y547619D01*
X0Y500000D01*
X-47619Y452380D01*
X-95238Y357142D01*
X-95238Y214285D01*
X-47619Y119047D01*
X0Y71428D01*
X95238Y23809D01*
X476190Y23809D01*
X-666666Y-452380D02*
X-571428Y-404761D01*
X-523809Y-309523D01*
X-523809Y547619D01*
X-1476190Y-452380D02*
X-1476190Y71428D01*
X-1428571Y166666D01*
X-1333333Y214285D01*
X-1142857Y214285D01*
X-1047619Y166666D01*
X-1476190Y-404761D02*
X-1380952Y-452380D01*
X-1142857Y-452380D01*
X-1047619Y-404761D01*
X-999999Y-309523D01*
X-999999Y-214285D01*
X-1047619Y-119047D01*
X-1142857Y-71428D01*
X-1380952Y-71428D01*
X-1476190Y-23809D01*
X-1809523Y214285D02*
X-2190476Y214285D01*
X-1952380Y547619D02*
X-1952380Y-309523D01*
X-1999999Y-404761D01*
X-2095238Y-452380D01*
X-2190476Y-452380D01*
X-2904761Y-404761D02*
X-2809523Y-452380D01*
X-2619047Y-452380D01*
X-2523809Y-404761D01*
X-2476190Y-309523D01*
X-2476190Y71428D01*
X-2523809Y166666D01*
X-2619047Y214285D01*
X-2809523Y214285D01*
X-2904761Y166666D01*
X-2952380Y71428D01*
X-2952380Y-23809D01*
X-2476190Y-119047D01*
X-4047619Y214285D02*
X-4285714Y-452380D01*
X-4523809Y214285D01*
X-5428571Y-452380D02*
X-4857142Y-452380D01*
X-5142857Y-452380D02*
X-5142857Y547619D01*
X-5047619Y404761D01*
X-4952380Y309523D01*
X-4857142Y261904D01*
X-5857142Y-357142D02*
X-5904761Y-404761D01*
X-5857142Y-452380D01*
X-5809523Y-404761D01*
X-5857142Y-357142D01*
X-5857142Y-452380D01*
X-6523809Y547619D02*
X-6619047Y547619D01*
X-6714285Y500000D01*
X-6761904Y452380D01*
X-6809523Y357142D01*
X-6857142Y166666D01*
X-6857142Y-71428D01*
X-6809523Y-261904D01*
X-6761904Y-357142D01*
X-6714285Y-404761D01*
X-6619047Y-452380D01*
X-6523809Y-452380D01*
X-6428571Y-404761D01*
X-6380952Y-357142D01*
X-6333333Y-261904D01*
X-6285714Y-71428D01*
X-6285714Y166666D01*
X-6333333Y357142D01*
X-6380952Y452380D01*
X-6428571Y500000D01*
X-6523809Y547619D01*
M02*
