%TF.GenerationSoftware,KiCad,Pcbnew,(6.0.2)*%
%TF.CreationDate,2022-03-23T21:31:10-04:00*%
%TF.ProjectId,RYCpad_plate,52594370-6164-45f7-906c-6174652e6b69,rev?*%
%TF.SameCoordinates,Original*%
%TF.FileFunction,Soldermask,Bot*%
%TF.FilePolarity,Negative*%
%FSLAX46Y46*%
G04 Gerber Fmt 4.6, Leading zero omitted, Abs format (unit mm)*
G04 Created by KiCad (PCBNEW (6.0.2)) date 2022-03-23 21:31:10*
%MOMM*%
%LPD*%
G01*
G04 APERTURE LIST*
G04 APERTURE END LIST*
%TO.C,svg2mod*%
G36*
X-36124810Y-56874198D02*
G01*
X-36149804Y-56873342D01*
X-36174702Y-56872147D01*
X-36199502Y-56870616D01*
X-36224201Y-56868750D01*
X-36248797Y-56866552D01*
X-36273288Y-56864025D01*
X-36297672Y-56861169D01*
X-36321947Y-56857989D01*
X-36346109Y-56854484D01*
X-36370158Y-56850659D01*
X-36394091Y-56846516D01*
X-36417905Y-56842055D01*
X-36441599Y-56837280D01*
X-36465171Y-56832193D01*
X-36488617Y-56826795D01*
X-36511937Y-56821090D01*
X-36535127Y-56815080D01*
X-36558185Y-56808765D01*
X-36581110Y-56802150D01*
X-36603899Y-56795236D01*
X-36626550Y-56788025D01*
X-36649060Y-56780519D01*
X-36671428Y-56772721D01*
X-36693651Y-56764632D01*
X-36715728Y-56756256D01*
X-36737655Y-56747594D01*
X-36759431Y-56738648D01*
X-36781053Y-56729421D01*
X-36802520Y-56719915D01*
X-36823828Y-56710131D01*
X-36844977Y-56700073D01*
X-36865963Y-56689743D01*
X-36886784Y-56679142D01*
X-36907439Y-56668273D01*
X-36927925Y-56657138D01*
X-36948240Y-56645739D01*
X-36968381Y-56634079D01*
X-36988347Y-56622159D01*
X-37008134Y-56609982D01*
X-37027742Y-56597550D01*
X-37047168Y-56584866D01*
X-37066409Y-56571931D01*
X-37085464Y-56558748D01*
X-37104330Y-56545318D01*
X-37123005Y-56531645D01*
X-37141486Y-56517730D01*
X-37159773Y-56503576D01*
X-37177861Y-56489184D01*
X-37195750Y-56474557D01*
X-37213437Y-56459697D01*
X-37230919Y-56444607D01*
X-37248195Y-56429288D01*
X-37265263Y-56413742D01*
X-37282119Y-56397973D01*
X-37298763Y-56381982D01*
X-37315191Y-56365771D01*
X-37331402Y-56349343D01*
X-37347393Y-56332699D01*
X-37363162Y-56315843D01*
X-37378708Y-56298775D01*
X-37394027Y-56281499D01*
X-37409117Y-56264017D01*
X-37423977Y-56246330D01*
X-37438604Y-56228441D01*
X-37452995Y-56210352D01*
X-37467150Y-56192066D01*
X-37481065Y-56173585D01*
X-37494738Y-56154910D01*
X-37508168Y-56136044D01*
X-37521351Y-56116989D01*
X-37534286Y-56097748D01*
X-37546970Y-56078322D01*
X-37559402Y-56058714D01*
X-37571579Y-56038926D01*
X-37583498Y-56018961D01*
X-37595159Y-55998819D01*
X-37606557Y-55978505D01*
X-37617692Y-55958019D01*
X-37628561Y-55937364D01*
X-37639162Y-55916543D01*
X-37649493Y-55895557D01*
X-37659551Y-55874408D01*
X-37669334Y-55853100D01*
X-37678840Y-55831633D01*
X-37688067Y-55810011D01*
X-37697013Y-55788235D01*
X-37705675Y-55766308D01*
X-37714052Y-55744231D01*
X-37722140Y-55722008D01*
X-37729938Y-55699640D01*
X-37737444Y-55677130D01*
X-37744655Y-55654479D01*
X-37751569Y-55631690D01*
X-37758185Y-55608765D01*
X-37764499Y-55585707D01*
X-37770510Y-55562517D01*
X-37776215Y-55539197D01*
X-37781612Y-55515751D01*
X-37786699Y-55492180D01*
X-37791474Y-55468486D01*
X-37795935Y-55444671D01*
X-37800079Y-55420738D01*
X-37803904Y-55396690D01*
X-37807408Y-55372527D01*
X-37810588Y-55348253D01*
X-37813444Y-55323869D01*
X-37815971Y-55299378D01*
X-37818169Y-55274782D01*
X-37820035Y-55250083D01*
X-37821566Y-55225283D01*
X-37822761Y-55200385D01*
X-37823617Y-55175391D01*
X-37824133Y-55150302D01*
X-37824305Y-55125122D01*
X-37324594Y-55125122D01*
X-37324358Y-55150539D01*
X-37323651Y-55175812D01*
X-37322477Y-55200937D01*
X-37320841Y-55225910D01*
X-37318746Y-55250727D01*
X-37316197Y-55275383D01*
X-37313198Y-55299875D01*
X-37309752Y-55324199D01*
X-37305865Y-55348351D01*
X-37301538Y-55372327D01*
X-37296778Y-55396122D01*
X-37291587Y-55419733D01*
X-37285971Y-55443155D01*
X-37279932Y-55466386D01*
X-37273475Y-55489420D01*
X-37266604Y-55512253D01*
X-37259323Y-55534882D01*
X-37251636Y-55557303D01*
X-37243547Y-55579511D01*
X-37235061Y-55601502D01*
X-37226180Y-55623273D01*
X-37216910Y-55644820D01*
X-37207254Y-55666137D01*
X-37197216Y-55687223D01*
X-37186800Y-55708071D01*
X-37176011Y-55728679D01*
X-37164852Y-55749042D01*
X-37153327Y-55769157D01*
X-37141441Y-55789019D01*
X-37129198Y-55808624D01*
X-37116601Y-55827968D01*
X-37103654Y-55847047D01*
X-37090362Y-55865858D01*
X-37076729Y-55884396D01*
X-37062758Y-55902656D01*
X-37048454Y-55920636D01*
X-37033820Y-55938331D01*
X-37018862Y-55955737D01*
X-37003582Y-55972850D01*
X-36987985Y-55989666D01*
X-36972075Y-56006181D01*
X-36955856Y-56022391D01*
X-36939331Y-56038292D01*
X-36922506Y-56053879D01*
X-36905384Y-56069150D01*
X-36887969Y-56084099D01*
X-36870264Y-56098723D01*
X-36852275Y-56113018D01*
X-36834006Y-56126980D01*
X-36815459Y-56140604D01*
X-36796639Y-56153887D01*
X-36777551Y-56166825D01*
X-36758198Y-56179414D01*
X-36738585Y-56191649D01*
X-36718714Y-56203526D01*
X-36698592Y-56215043D01*
X-36678220Y-56226194D01*
X-36657604Y-56236975D01*
X-36636748Y-56247383D01*
X-36615655Y-56257413D01*
X-36594330Y-56267062D01*
X-36572776Y-56276325D01*
X-36550998Y-56285199D01*
X-36529000Y-56293679D01*
X-36506785Y-56301761D01*
X-36484358Y-56309442D01*
X-36461723Y-56316717D01*
X-36438884Y-56323582D01*
X-36415845Y-56330033D01*
X-36392610Y-56336067D01*
X-36369182Y-56341679D01*
X-36345567Y-56346865D01*
X-36321767Y-56351621D01*
X-36297788Y-56355944D01*
X-36273632Y-56359828D01*
X-36249305Y-56363271D01*
X-36224810Y-56366267D01*
X-36200151Y-56368814D01*
X-36175333Y-56370907D01*
X-36150358Y-56372541D01*
X-36125232Y-56373714D01*
X-36099959Y-56374420D01*
X-36074541Y-56374657D01*
X36074025Y-56374657D01*
X36099443Y-56374420D01*
X36124716Y-56373714D01*
X36149842Y-56372541D01*
X36174816Y-56370907D01*
X36199635Y-56368814D01*
X36224294Y-56366267D01*
X36248789Y-56363271D01*
X36273116Y-56359828D01*
X36297271Y-56355944D01*
X36321250Y-56351621D01*
X36345050Y-56346865D01*
X36368665Y-56341679D01*
X36392093Y-56336067D01*
X36415328Y-56330033D01*
X36438367Y-56323582D01*
X36461206Y-56316717D01*
X36483841Y-56309442D01*
X36506268Y-56301761D01*
X36528483Y-56293679D01*
X36550481Y-56285199D01*
X36572259Y-56276325D01*
X36593813Y-56267062D01*
X36615138Y-56257413D01*
X36636231Y-56247383D01*
X36657087Y-56236975D01*
X36677703Y-56226194D01*
X36698074Y-56215043D01*
X36718197Y-56203526D01*
X36738067Y-56191649D01*
X36757681Y-56179414D01*
X36777034Y-56166825D01*
X36796122Y-56153887D01*
X36814942Y-56140604D01*
X36833488Y-56126980D01*
X36851758Y-56113018D01*
X36869747Y-56098723D01*
X36887452Y-56084099D01*
X36904867Y-56069150D01*
X36921989Y-56053879D01*
X36938814Y-56038292D01*
X36955339Y-56022391D01*
X36971558Y-56006181D01*
X36987468Y-55989666D01*
X37003065Y-55972850D01*
X37018345Y-55955737D01*
X37033304Y-55938331D01*
X37047937Y-55920636D01*
X37062241Y-55902656D01*
X37076212Y-55884396D01*
X37089845Y-55865858D01*
X37103137Y-55847047D01*
X37116084Y-55827968D01*
X37128681Y-55808624D01*
X37140925Y-55789019D01*
X37152811Y-55769157D01*
X37164335Y-55749042D01*
X37175494Y-55728679D01*
X37186284Y-55708071D01*
X37196699Y-55687223D01*
X37206737Y-55666137D01*
X37216393Y-55644820D01*
X37225664Y-55623273D01*
X37234544Y-55601502D01*
X37243031Y-55579511D01*
X37251120Y-55557303D01*
X37258807Y-55534882D01*
X37266088Y-55512253D01*
X37272959Y-55489420D01*
X37279416Y-55466386D01*
X37285455Y-55443155D01*
X37291071Y-55419733D01*
X37296262Y-55396122D01*
X37301022Y-55372327D01*
X37305348Y-55348351D01*
X37309236Y-55324199D01*
X37312682Y-55299875D01*
X37315681Y-55275383D01*
X37318230Y-55250727D01*
X37320325Y-55225910D01*
X37321961Y-55200937D01*
X37323135Y-55175812D01*
X37323842Y-55150539D01*
X37324078Y-55125122D01*
X37324078Y37125060D01*
X37323078Y37151452D01*
X37320109Y37176639D01*
X37315223Y37200568D01*
X37308471Y37223190D01*
X37299903Y37244454D01*
X37289570Y37264308D01*
X37277524Y37282703D01*
X37263814Y37299586D01*
X37248492Y37314909D01*
X37231608Y37328619D01*
X37213213Y37340665D01*
X37193359Y37350998D01*
X37172095Y37359566D01*
X37149472Y37366318D01*
X37125542Y37371204D01*
X37100356Y37374173D01*
X37073963Y37375174D01*
X-37074481Y37375174D01*
X-37100874Y37374173D01*
X-37126060Y37371204D01*
X-37149990Y37366318D01*
X-37172612Y37359566D01*
X-37193876Y37350998D01*
X-37213730Y37340666D01*
X-37232124Y37328619D01*
X-37249008Y37314910D01*
X-37264330Y37299588D01*
X-37278040Y37282704D01*
X-37290086Y37264309D01*
X-37300419Y37244455D01*
X-37308987Y37223191D01*
X-37315739Y37200569D01*
X-37320625Y37176639D01*
X-37323594Y37151453D01*
X-37324594Y37125060D01*
X-37324594Y-55125122D01*
X-37824305Y-55125122D01*
X-37824305Y37125060D01*
X-37823915Y37150328D01*
X-37822751Y37175354D01*
X-37820826Y37200127D01*
X-37818150Y37224635D01*
X-37814734Y37248868D01*
X-37810589Y37272814D01*
X-37805726Y37296462D01*
X-37800156Y37319802D01*
X-37793891Y37342822D01*
X-37786941Y37365511D01*
X-37779318Y37387858D01*
X-37771032Y37409853D01*
X-37762094Y37431483D01*
X-37752516Y37452739D01*
X-37742309Y37473608D01*
X-37731484Y37494080D01*
X-37720051Y37514144D01*
X-37708022Y37533789D01*
X-37695408Y37553003D01*
X-37682220Y37571776D01*
X-37668469Y37590097D01*
X-37654166Y37607954D01*
X-37639322Y37625337D01*
X-37623948Y37642234D01*
X-37608056Y37658634D01*
X-37591656Y37674527D01*
X-37574759Y37689900D01*
X-37557376Y37704744D01*
X-37539519Y37719048D01*
X-37521199Y37732799D01*
X-37502426Y37745987D01*
X-37483211Y37758601D01*
X-37463567Y37770630D01*
X-37443503Y37782063D01*
X-37423030Y37792888D01*
X-37402161Y37803096D01*
X-37380906Y37812674D01*
X-37359275Y37821611D01*
X-37337281Y37829897D01*
X-37314933Y37837521D01*
X-37292244Y37844471D01*
X-37269224Y37850736D01*
X-37245884Y37856306D01*
X-37222236Y37861169D01*
X-37198290Y37865314D01*
X-37174057Y37868730D01*
X-37149549Y37871406D01*
X-37124776Y37873332D01*
X-37099750Y37874495D01*
X-37074481Y37874885D01*
X37073963Y37874885D01*
X37099232Y37874495D01*
X37124259Y37873332D01*
X37149035Y37871406D01*
X37173547Y37868730D01*
X37197785Y37865314D01*
X37221737Y37861169D01*
X37245393Y37856306D01*
X37268740Y37850736D01*
X37291769Y37844471D01*
X37314468Y37837521D01*
X37336825Y37829897D01*
X37358831Y37821611D01*
X37380473Y37812674D01*
X37401741Y37803096D01*
X37422623Y37792889D01*
X37443108Y37782063D01*
X37463186Y37770630D01*
X37482845Y37758601D01*
X37502074Y37745987D01*
X37520861Y37732799D01*
X37539197Y37719048D01*
X37557069Y37704745D01*
X37574467Y37689901D01*
X37591380Y37674527D01*
X37607795Y37658634D01*
X37623704Y37642234D01*
X37639093Y37625337D01*
X37653952Y37607954D01*
X37668270Y37590097D01*
X37682037Y37571777D01*
X37695240Y37553004D01*
X37707868Y37533789D01*
X37719911Y37514144D01*
X37731358Y37494080D01*
X37742197Y37473608D01*
X37752417Y37452739D01*
X37762007Y37431483D01*
X37770956Y37409853D01*
X37779253Y37387859D01*
X37786887Y37365511D01*
X37793846Y37342822D01*
X37800120Y37319802D01*
X37805698Y37296462D01*
X37810568Y37272814D01*
X37814719Y37248868D01*
X37818140Y37224635D01*
X37820821Y37200127D01*
X37822749Y37175354D01*
X37823914Y37150328D01*
X37824305Y37125060D01*
X37824305Y-55125122D01*
X37824133Y-55150302D01*
X37823617Y-55175391D01*
X37822760Y-55200385D01*
X37821564Y-55225283D01*
X37820032Y-55250083D01*
X37818165Y-55274782D01*
X37815966Y-55299378D01*
X37813437Y-55323869D01*
X37810580Y-55348253D01*
X37807397Y-55372527D01*
X37803891Y-55396690D01*
X37800063Y-55420738D01*
X37795917Y-55444671D01*
X37791453Y-55468486D01*
X37786675Y-55492180D01*
X37781585Y-55515751D01*
X37776185Y-55539197D01*
X37770476Y-55562517D01*
X37764462Y-55585707D01*
X37758144Y-55608765D01*
X37751525Y-55631690D01*
X37744606Y-55654479D01*
X37737391Y-55677130D01*
X37729881Y-55699640D01*
X37722078Y-55722008D01*
X37713985Y-55744231D01*
X37705604Y-55766308D01*
X37696937Y-55788235D01*
X37687987Y-55810011D01*
X37678755Y-55831633D01*
X37669243Y-55853100D01*
X37659455Y-55874408D01*
X37649391Y-55895557D01*
X37639055Y-55916543D01*
X37628449Y-55937364D01*
X37617574Y-55958019D01*
X37606433Y-55978505D01*
X37595029Y-55998819D01*
X37583363Y-56018961D01*
X37571437Y-56038926D01*
X37559254Y-56058714D01*
X37546816Y-56078322D01*
X37534126Y-56097748D01*
X37521184Y-56116989D01*
X37507995Y-56136044D01*
X37494559Y-56154910D01*
X37480879Y-56173585D01*
X37466958Y-56192066D01*
X37452797Y-56210352D01*
X37438399Y-56228441D01*
X37423765Y-56246330D01*
X37408899Y-56264017D01*
X37393802Y-56281499D01*
X37378476Y-56298775D01*
X37362924Y-56315843D01*
X37347148Y-56332699D01*
X37331151Y-56349343D01*
X37314933Y-56365771D01*
X37298498Y-56381982D01*
X37281848Y-56397973D01*
X37264985Y-56413742D01*
X37247911Y-56429288D01*
X37230628Y-56444607D01*
X37213139Y-56459697D01*
X37195446Y-56474557D01*
X37177550Y-56489184D01*
X37159455Y-56503576D01*
X37141162Y-56517730D01*
X37122674Y-56531645D01*
X37103993Y-56545318D01*
X37085121Y-56558748D01*
X37066060Y-56571931D01*
X37046812Y-56584866D01*
X37027380Y-56597550D01*
X37007766Y-56609982D01*
X36987972Y-56622159D01*
X36968001Y-56634079D01*
X36947854Y-56645739D01*
X36927533Y-56657138D01*
X36907042Y-56668273D01*
X36886381Y-56679142D01*
X36865554Y-56689743D01*
X36844562Y-56700073D01*
X36823409Y-56710131D01*
X36802095Y-56719915D01*
X36780623Y-56729421D01*
X36758996Y-56738648D01*
X36737215Y-56747594D01*
X36715283Y-56756256D01*
X36693202Y-56764632D01*
X36670974Y-56772721D01*
X36648601Y-56780519D01*
X36626087Y-56788025D01*
X36603432Y-56795236D01*
X36580639Y-56802150D01*
X36557710Y-56808765D01*
X36534648Y-56815080D01*
X36511454Y-56821090D01*
X36488131Y-56826795D01*
X36464682Y-56832193D01*
X36441107Y-56837280D01*
X36417410Y-56842055D01*
X36393593Y-56846516D01*
X36369658Y-56850659D01*
X36345606Y-56854484D01*
X36321441Y-56857989D01*
X36297165Y-56861169D01*
X36272779Y-56864025D01*
X36248287Y-56866552D01*
X36223689Y-56868750D01*
X36198989Y-56870616D01*
X36174188Y-56872147D01*
X36149289Y-56873342D01*
X36124294Y-56874198D01*
X36099206Y-56874714D01*
X36074025Y-56874886D01*
X-36074541Y-56874886D01*
X-36099722Y-56874714D01*
X-36124810Y-56874198D01*
G37*
%TD*%
M02*
