%TF.GenerationSoftware,KiCad,Pcbnew,(6.0.2)*%
%TF.CreationDate,2022-03-23T21:31:10-04:00*%
%TF.ProjectId,RYCpad_plate,52594370-6164-45f7-906c-6174652e6b69,rev?*%
%TF.SameCoordinates,Original*%
%TF.FileFunction,Profile,NP*%
%FSLAX46Y46*%
G04 Gerber Fmt 4.6, Leading zero omitted, Abs format (unit mm)*
G04 Created by KiCad (PCBNEW (6.0.2)) date 2022-03-23 21:31:10*
%MOMM*%
%LPD*%
G01*
G04 APERTURE LIST*
%TA.AperFunction,Profile*%
%ADD10C,0.200000*%
%TD*%
G04 APERTURE END LIST*
D10*
X-16525000Y16025000D02*
X-16525000Y3025000D01*
X16025000Y-2525000D02*
X3025000Y-2525000D01*
X16025000Y2525000D02*
G75*
G03*
X16525000Y3025000I-1J500001D01*
G01*
X-12050000Y-41125000D02*
G75*
G03*
X-12550000Y-40625000I-500001J-1D01*
G01*
X-35575000Y35075000D02*
X-35575000Y22075000D01*
X-21575000Y-22075000D02*
G75*
G03*
X-22075000Y-21575000I-500001J-1D01*
G01*
X-2525000Y-3025000D02*
G75*
G03*
X-3025000Y-2525000I-500001J-1D01*
G01*
X-22075000Y2525000D02*
G75*
G03*
X-21575000Y3025000I-1J500001D01*
G01*
X-10112000Y-53625000D02*
X-4112000Y-53625000D01*
X-34488000Y-39125000D02*
X-34488000Y-53125000D01*
X-2525000Y-35075000D02*
X-2525000Y-22075000D01*
X3025000Y-40625000D02*
G75*
G03*
X2525000Y-41125000I1J-500001D01*
G01*
X-3612000Y-39125000D02*
G75*
G03*
X-4112000Y-38625000I-500001J-1D01*
G01*
X2525000Y-41125000D02*
X2525000Y-46125000D01*
X16025000Y35575000D02*
X3025000Y35575000D01*
X-30885000Y-21575000D02*
X-30885000Y-21050000D01*
X-38575000Y-55124850D02*
G75*
G03*
X-36075000Y-57624850I2500000J0D01*
G01*
X20075000Y15438000D02*
G75*
G03*
X19575000Y14938000I1J-500001D01*
G01*
X-30885000Y-16525000D02*
X-22075000Y-16525000D01*
X20075000Y-29662000D02*
X34075000Y-29662000D01*
X-4112000Y-38625000D02*
X-10112000Y-38625000D01*
X16025000Y-35575000D02*
G75*
G03*
X16525000Y-35075000I-1J500001D01*
G01*
X16025000Y-16525000D02*
G75*
G03*
X16525000Y-16025000I-1J500001D01*
G01*
X21575000Y-44600000D02*
G75*
G03*
X22075000Y-45100000I500001J1D01*
G01*
X34075000Y-29662000D02*
G75*
G03*
X34575000Y-29162000I-1J500001D01*
G01*
X-3025000Y35575000D02*
X-16025000Y35575000D01*
X35575000Y6500000D02*
G75*
G03*
X35075000Y7000000I-500001J-1D01*
G01*
X2525000Y22075000D02*
G75*
G03*
X3025000Y21575000I500001J1D01*
G01*
X16025000Y16525000D02*
X3025000Y16525000D01*
X2525000Y-54125000D02*
G75*
G03*
X3025000Y-54625000I500001J1D01*
G01*
X34575000Y-14938000D02*
X34575000Y-8938000D01*
X-22075000Y-21575000D02*
X-30885000Y-21575000D01*
X34575000Y-29162000D02*
X34575000Y-23162000D01*
X-35075000Y16525000D02*
G75*
G03*
X-35575000Y16025000I1J-500001D01*
G01*
X-12550000Y-40625000D02*
X-25550000Y-40625000D01*
X35075000Y7000000D02*
X22075000Y7000000D01*
X34075000Y-15438000D02*
G75*
G03*
X34575000Y-14938000I-1J500001D01*
G01*
X34075000Y-53538000D02*
G75*
G03*
X34575000Y-53038000I-1J500001D01*
G01*
X16525000Y-41125000D02*
G75*
G03*
X16025000Y-40625000I-500001J-1D01*
G01*
X-35075000Y21575000D02*
X-22075000Y21575000D01*
X-35075000Y35575000D02*
G75*
G03*
X-35575000Y35075000I1J-500001D01*
G01*
X-10112000Y-38625000D02*
G75*
G03*
X-10612000Y-39125000I1J-500001D01*
G01*
X22075000Y35575000D02*
G75*
G03*
X21575000Y35075000I1J-500001D01*
G01*
X35075000Y-45100000D02*
G75*
G03*
X35575000Y-44600000I-1J500001D01*
G01*
X2525000Y16025000D02*
X2525000Y3025000D01*
X35075000Y21575000D02*
G75*
G03*
X35575000Y22075000I-1J500001D01*
G01*
X-33988000Y-53625000D02*
X-27988000Y-53625000D01*
X37075000Y38625150D02*
X-37075000Y38625150D01*
X-30885000Y-21050000D02*
G75*
G03*
X-30885000Y-17050000I-1500000J2000000D01*
G01*
X-26050000Y-54125000D02*
G75*
G03*
X-25550000Y-54625000I500001J1D01*
G01*
X16525000Y-54125000D02*
X16525000Y-41125000D01*
X3025000Y16525000D02*
G75*
G03*
X2525000Y16025000I1J-500001D01*
G01*
X3025000Y21575000D02*
X16025000Y21575000D01*
X22075000Y7000000D02*
G75*
G03*
X21575000Y6500000I1J-500001D01*
G01*
X19575000Y8938000D02*
G75*
G03*
X20075000Y8438000I500001J1D01*
G01*
X-33885000Y-21575000D02*
X-35075000Y-21575000D01*
X16025000Y-54625000D02*
G75*
G03*
X16525000Y-54125000I-1J500001D01*
G01*
X-16025000Y35575000D02*
G75*
G03*
X-16525000Y35075000I1J-500001D01*
G01*
X35075000Y-7000000D02*
G75*
G03*
X35575000Y-6500000I-1J500001D01*
G01*
X-10612000Y-53125000D02*
G75*
G03*
X-10112000Y-53625000I500001J1D01*
G01*
X34075000Y8438000D02*
G75*
G03*
X34575000Y8938000I-1J500001D01*
G01*
X-3025000Y-2525000D02*
X-16025000Y-2525000D01*
X-21575000Y3025000D02*
X-21575000Y16025000D01*
X-21575000Y22075000D02*
X-21575000Y35075000D01*
X16525000Y-3025000D02*
G75*
G03*
X16025000Y-2525000I-500001J-1D01*
G01*
X-2525000Y-16025000D02*
X-2525000Y-3025000D01*
X22075000Y-45100000D02*
X35075000Y-45100000D01*
X-35575000Y3025000D02*
G75*
G03*
X-35075000Y2525000I500001J1D01*
G01*
X19575000Y-53038000D02*
G75*
G03*
X20075000Y-53538000I500001J1D01*
G01*
X38575000Y37125150D02*
G75*
G03*
X37075000Y38625150I-1500001J-1D01*
G01*
X34075000Y-22662000D02*
X20075000Y-22662000D01*
X20075000Y-53538000D02*
X34075000Y-53538000D01*
X2525000Y-3025000D02*
X2525000Y-16025000D01*
X-16025000Y16525000D02*
G75*
G03*
X-16525000Y16025000I1J-500001D01*
G01*
X-27488000Y-39125000D02*
G75*
G03*
X-27988000Y-38625000I-500001J-1D01*
G01*
X-22075000Y-35575000D02*
G75*
G03*
X-21575000Y-35075000I-1J500001D01*
G01*
X-2525000Y16025000D02*
G75*
G03*
X-3025000Y16525000I-500001J-1D01*
G01*
X22075000Y21575000D02*
X35075000Y21575000D01*
X3025000Y-54625000D02*
X16025000Y-54625000D01*
X21575000Y-6500000D02*
G75*
G03*
X22075000Y-7000000I500001J1D01*
G01*
X2525000Y-22075000D02*
X2525000Y-35075000D01*
X35075000Y35575000D02*
X22075000Y35575000D01*
X-16025000Y21575000D02*
X-3025000Y21575000D01*
X-25550000Y-54625000D02*
X-12550000Y-54625000D01*
X-27488000Y-53125000D02*
X-27488000Y-39125000D01*
X36075000Y-57624850D02*
G75*
G03*
X38575000Y-55124850I0J2500000D01*
G01*
X-35075000Y-2525000D02*
G75*
G03*
X-35575000Y-3025000I1J-500001D01*
G01*
X16525000Y16025000D02*
G75*
G03*
X16025000Y16525000I-500001J-1D01*
G01*
X35575000Y-44600000D02*
X35575000Y-31600000D01*
X-16525000Y22075000D02*
G75*
G03*
X-16025000Y21575000I500001J1D01*
G01*
X34575000Y-53038000D02*
X34575000Y-47038000D01*
X-33885000Y-16525000D02*
X-33885000Y-17050000D01*
X19575000Y-23162000D02*
X19575000Y-29162000D01*
X-16525000Y-16025000D02*
G75*
G03*
X-16025000Y-16525000I500001J1D01*
G01*
X-16025000Y-35575000D02*
X-3025000Y-35575000D01*
X-3025000Y-16525000D02*
G75*
G03*
X-2525000Y-16025000I-1J500001D01*
G01*
X21575000Y6500000D02*
X21575000Y-6500000D01*
X3025000Y-35575000D02*
X16025000Y-35575000D01*
X16025000Y-21575000D02*
X3025000Y-21575000D01*
X-2525000Y35075000D02*
G75*
G03*
X-3025000Y35575000I-500001J-1D01*
G01*
X-35575000Y16025000D02*
X-35575000Y3025000D01*
X20075000Y-46538000D02*
G75*
G03*
X19575000Y-47038000I1J-500001D01*
G01*
X34075000Y15438000D02*
X20075000Y15438000D01*
X-16525000Y-22075000D02*
X-16525000Y-35075000D01*
X-3025000Y21575000D02*
G75*
G03*
X-2525000Y22075000I-1J500001D01*
G01*
X20075000Y8438000D02*
X34075000Y8438000D01*
X-35075000Y2525000D02*
X-22075000Y2525000D01*
X2525000Y-46125000D02*
X2000000Y-46125000D01*
X2000000Y-49125000D02*
X2525000Y-49125000D01*
X3025000Y35575000D02*
G75*
G03*
X2525000Y35075000I1J-500001D01*
G01*
X-21575000Y-16025000D02*
X-21575000Y-3025000D01*
X-10612000Y-39125000D02*
X-10612000Y-53125000D01*
X35575000Y35075000D02*
G75*
G03*
X35075000Y35575000I-500001J-1D01*
G01*
X19575000Y-47038000D02*
X19575000Y-53038000D01*
X3025000Y-16525000D02*
X16025000Y-16525000D01*
X-34488000Y-53125000D02*
G75*
G03*
X-33988000Y-53625000I500001J1D01*
G01*
X-16525000Y-35075000D02*
G75*
G03*
X-16025000Y-35575000I500001J1D01*
G01*
X-33885000Y-21050000D02*
X-33885000Y-21575000D01*
X22075000Y-7000000D02*
X35075000Y-7000000D01*
X-21575000Y-35075000D02*
X-21575000Y-22075000D01*
X-12550000Y-54625000D02*
G75*
G03*
X-12050000Y-54125000I-1J500001D01*
G01*
X2525000Y3025000D02*
G75*
G03*
X3025000Y2525000I500001J1D01*
G01*
X19575000Y14938000D02*
X19575000Y8938000D01*
X-35075000Y-16525000D02*
X-33885000Y-16525000D01*
X-2525000Y22075000D02*
X-2525000Y35075000D01*
X16525000Y35075000D02*
G75*
G03*
X16025000Y35575000I-500001J-1D01*
G01*
X-22075000Y21575000D02*
G75*
G03*
X-21575000Y22075000I-1J500001D01*
G01*
X-2525000Y-22075000D02*
G75*
G03*
X-3025000Y-21575000I-500001J-1D01*
G01*
X16525000Y22075000D02*
X16525000Y35075000D01*
X-4112000Y-53625000D02*
G75*
G03*
X-3612000Y-53125000I-1J500001D01*
G01*
X-16025000Y2525000D02*
X-3025000Y2525000D01*
X-38575000Y37125150D02*
X-38575000Y-55124850D01*
X-22075000Y35575000D02*
X-35075000Y35575000D01*
X34075000Y-46538000D02*
X20075000Y-46538000D01*
X-2525000Y3025000D02*
X-2525000Y16025000D01*
X-35575000Y-16025000D02*
G75*
G03*
X-35075000Y-16525000I500001J1D01*
G01*
X-33988000Y-38625000D02*
G75*
G03*
X-34488000Y-39125000I1J-500001D01*
G01*
X-35575000Y-35075000D02*
G75*
G03*
X-35075000Y-35575000I500001J1D01*
G01*
X22075000Y-31100000D02*
G75*
G03*
X21575000Y-31600000I1J-500001D01*
G01*
X-35575000Y22075000D02*
G75*
G03*
X-35075000Y21575000I500001J1D01*
G01*
X-30885000Y-17050000D02*
X-30885000Y-16525000D01*
X35575000Y-6500000D02*
X35575000Y6500000D01*
X16525000Y-16025000D02*
X16525000Y-3025000D01*
X2000000Y-46125000D02*
G75*
G03*
X2000000Y-49125000I-2000000J-1500000D01*
G01*
X-21575000Y35075000D02*
G75*
G03*
X-22075000Y35575000I-500001J-1D01*
G01*
X-25550000Y-40625000D02*
G75*
G03*
X-26050000Y-41125000I1J-500001D01*
G01*
X-3025000Y-35575000D02*
G75*
G03*
X-2525000Y-35075000I-1J500001D01*
G01*
X19575000Y-8938000D02*
X19575000Y-14938000D01*
X16025000Y-40625000D02*
X3025000Y-40625000D01*
X-3025000Y-21575000D02*
X-16025000Y-21575000D01*
X34575000Y-47038000D02*
G75*
G03*
X34075000Y-46538000I-500001J-1D01*
G01*
X35575000Y22075000D02*
X35575000Y35075000D01*
X2525000Y-35075000D02*
G75*
G03*
X3025000Y-35575000I500001J1D01*
G01*
X-3025000Y16525000D02*
X-16025000Y16525000D01*
X-35575000Y-3025000D02*
X-35575000Y-16025000D01*
X34575000Y14938000D02*
G75*
G03*
X34075000Y15438000I-500001J-1D01*
G01*
X20075000Y-22662000D02*
G75*
G03*
X19575000Y-23162000I1J-500001D01*
G01*
X3025000Y2525000D02*
X16025000Y2525000D01*
X16025000Y21575000D02*
G75*
G03*
X16525000Y22075000I-1J500001D01*
G01*
X21575000Y22075000D02*
G75*
G03*
X22075000Y21575000I500001J1D01*
G01*
X-3025000Y2525000D02*
G75*
G03*
X-2525000Y3025000I-1J500001D01*
G01*
X2525000Y35075000D02*
X2525000Y22075000D01*
X-37075000Y38625150D02*
G75*
G03*
X-38575000Y37125150I1J-1500001D01*
G01*
X16525000Y3025000D02*
X16525000Y16025000D01*
X-33885000Y-17050000D02*
G75*
G03*
X-33885000Y-21050000I1500000J-2000000D01*
G01*
X-22075000Y-2525000D02*
X-35075000Y-2525000D01*
X19575000Y-14938000D02*
G75*
G03*
X20075000Y-15438000I500001J1D01*
G01*
X2525000Y-16025000D02*
G75*
G03*
X3025000Y-16525000I500001J1D01*
G01*
X38575000Y-55124850D02*
X38575000Y37125150D01*
X34575000Y-23162000D02*
G75*
G03*
X34075000Y-22662000I-500001J-1D01*
G01*
X-36075000Y-57624850D02*
X36075000Y-57624850D01*
X20075000Y-15438000D02*
X34075000Y-15438000D01*
X-35575000Y-22075000D02*
X-35575000Y-35075000D01*
X-27988000Y-38625000D02*
X-33988000Y-38625000D01*
X3025000Y-2525000D02*
G75*
G03*
X2525000Y-3025000I1J-500001D01*
G01*
X35575000Y-31600000D02*
G75*
G03*
X35075000Y-31100000I-500001J-1D01*
G01*
X-21575000Y16025000D02*
G75*
G03*
X-22075000Y16525000I-500001J-1D01*
G01*
X35075000Y-31100000D02*
X22075000Y-31100000D01*
X-26050000Y-41125000D02*
X-26050000Y-54125000D01*
X-27988000Y-53625000D02*
G75*
G03*
X-27488000Y-53125000I-1J500001D01*
G01*
X-35075000Y-35575000D02*
X-22075000Y-35575000D01*
X-16525000Y-3025000D02*
X-16525000Y-16025000D01*
X21575000Y35075000D02*
X21575000Y22075000D01*
X34575000Y-8938000D02*
G75*
G03*
X34075000Y-8438000I-500001J-1D01*
G01*
X34885000Y-19050000D02*
G75*
G03*
X34885000Y-19050000I-2500000J0D01*
G01*
X20075000Y-8438000D02*
G75*
G03*
X19575000Y-8938000I1J-500001D01*
G01*
X16525000Y-35075000D02*
X16525000Y-22075000D01*
X-16025000Y-16525000D02*
X-3025000Y-16525000D01*
X-21575000Y-3025000D02*
G75*
G03*
X-22075000Y-2525000I-500001J-1D01*
G01*
X34575000Y8938000D02*
X34575000Y14938000D01*
X-35075000Y-21575000D02*
G75*
G03*
X-35575000Y-22075000I1J-500001D01*
G01*
X19575000Y-29162000D02*
G75*
G03*
X20075000Y-29662000I500001J1D01*
G01*
X-12050000Y-54125000D02*
X-12050000Y-41125000D01*
X16525000Y-22075000D02*
G75*
G03*
X16025000Y-21575000I-500001J-1D01*
G01*
X3025000Y-21575000D02*
G75*
G03*
X2525000Y-22075000I1J-500001D01*
G01*
X-16525000Y35075000D02*
X-16525000Y22075000D01*
X34075000Y-8438000D02*
X20075000Y-8438000D01*
X-16025000Y-2525000D02*
G75*
G03*
X-16525000Y-3025000I1J-500001D01*
G01*
X-16525000Y3025000D02*
G75*
G03*
X-16025000Y2525000I500001J1D01*
G01*
X2525000Y-49125000D02*
X2525000Y-54125000D01*
X21575000Y-31600000D02*
X21575000Y-44600000D01*
X-22075000Y16525000D02*
X-35075000Y16525000D01*
X-16025000Y-21575000D02*
G75*
G03*
X-16525000Y-22075000I1J-500001D01*
G01*
X-3612000Y-53125000D02*
X-3612000Y-39125000D01*
X-22075000Y-16525000D02*
G75*
G03*
X-21575000Y-16025000I-1J500001D01*
G01*
M02*
