<?xml version="1.0" encoding="UTF-8" standalone="no"?>
<!-- Created with Inkscape (http://www.inkscape.org/) -->

<svg
   width="77.614586mm"
   height="118.09537mm"
   viewBox="0 0 77.614586 118.09537"
   version="1.1"
   id="svg5"
   inkscape:version="1.1.1 (3bf5ae0d25, 2021-09-20)"
   sodipodi:docname="RYCpad_rearplate.svg"
   xmlns:inkscape="http://www.inkscape.org/namespaces/inkscape"
   xmlns:sodipodi="http://sodipodi.sourceforge.net/DTD/sodipodi-0.dtd"
   xmlns="http://www.w3.org/2000/svg"
   xmlns:svg="http://www.w3.org/2000/svg">
  <sodipodi:namedview
     id="namedview7"
     pagecolor="#ffffff"
     bordercolor="#111111"
     borderopacity="1"
     inkscape:pageshadow="0"
     inkscape:pageopacity="0"
     inkscape:pagecheckerboard="1"
     inkscape:document-units="mm"
     showgrid="false"
     inkscape:zoom="1"
     inkscape:cx="167.5"
     inkscape:cy="157.5"
     inkscape:window-width="1920"
     inkscape:window-height="1017"
     inkscape:window-x="-8"
     inkscape:window-y="845"
     inkscape:window-maximized="1"
     inkscape:current-layer="layer1"
     fit-margin-top="0"
     fit-margin-left="0"
     fit-margin-right="0"
     fit-margin-bottom="0" />
  <defs
     id="defs2">
    <marker
       id="DistanceX"
       orient="auto"
       refX="0"
       refY="0"
       style="overflow:visible">
      <path
         d="M 3,-3 -3,3 M 0,-5 V 5"
         style="stroke:#000000;stroke-width:0.5"
         id="path829" />
    </marker>
    <pattern
       id="Hatch"
       patternUnits="userSpaceOnUse"
       width="8"
       height="8"
       x="0"
       y="0">
      <path
         d="M8 4 l-4,4"
         stroke="#000000"
         stroke-width="0.25"
         linecap="square"
         id="path832" />
      <path
         d="M6 2 l-4,4"
         stroke="#000000"
         stroke-width="0.25"
         linecap="square"
         id="path834" />
      <path
         d="M4 0 l-4,4"
         stroke="#000000"
         stroke-width="0.25"
         linecap="square"
         id="path836" />
    </pattern>
    <symbol
       id="*Model_Space" />
    <symbol
       id="*Paper_Space" />
  </defs>
  <g
     inkscape:label="Layer 1"
     inkscape:groupmode="layer"
     id="layer1"
     transform="translate(22.721054,-7.5541652)">
    <g
       id="g893"
       style="fill:#0001ff;fill-opacity:1"
       transform="matrix(1.4710039,0,0,1.4710039,-12.297028,-56.606228)">
      <path
         d="m 0.84013167,80.358576 q -0.06223,-0.184632 -0.104995,-0.297157 -0.02826,-0.116083 -0.0073,-0.290366 0.01716,-0.142595 0.05952,-0.260616 0.05877,-0.137421 0.07593,-0.280017 0.04196,-0.348566 0.04918,-0.642488 0.02173,-0.297479 0.03658,-0.654777 -0.0088,-0.04398 -0.092,-0.05432 -0.08321,-0.01035 -0.17902,-0.03298 -0.0939,-0.03848 -0.167578,-0.128048 -0.05917,-0.09313 -0.03438,-0.299097 0.02289,-0.190127 0.110662,-0.334661 0.104189,-0.163935 0.204564,-0.296182 0.102282,-0.14809 0.190059,-0.292625 0.10418903,-0.163934 0.12707303,-0.354062 0.0095,-0.07922 0.01982,-0.281634 0.0122,-0.218259 0.0263,-0.452362 0.02861,-0.237659 0.03889,-0.440074 0.0267,-0.221815 0.03623,-0.301035 l 0.0038,-0.03169 0.0038,-0.03169 q 0.07518,-0.156821 0.115631,-0.258998 0.05495,-0.105733 0.104189,-0.163934 0.04923,-0.0582 0.123662,-0.09183 0.07634,-0.04947 0.192369,-0.07792 0.304589,-0.07469 0.434376,0.0165 0.129786,0.09119 0.166826,0.251243 0.03895,0.144214 0.03629,0.283253 -0.0026,0.139039 0.05345,0.140657 l 1.16445,-1.254238 0.05802,-0.01422 q 0.551511,-0.488889 1.140061,-0.817721 0.590458,-0.344675 1.214141,-0.497605 0.188555,-0.04623 0.443911,-0.06272 0.269859,-0.02004 0.486672,0.04981 0.233223,0.05045 0.369885,0.201453 0.151167,0.147449 0.11684,0.43264 -0.03814,0.316879 -0.150709,0.667384 -0.112569,0.350506 -0.283155,0.715238 -0.154175,0.345331 -0.36446,0.689044 -0.193873,0.324312 -0.40722,0.576519 -0.0935,0.192066 -1.035067,1.114878 -0.941568,0.922811 -2.808292,2.749035 l 6.904834,-1.231808 q 0.143135,-0.01972 0.387801,-0.06434 0.261077,-0.06402 0.4874243,-0.07339 0.240851,-0.01293 0.397739,0.08699 0.158795,0.08407 0.126375,0.35342 -0.01717,0.142596 -0.07212,0.248329 -0.03854,0.08633 -0.104189,0.163934 -0.04923,0.0582 -0.127476,0.123516 -0.06374,0.06176 -0.131291,0.155204 l -0.246573,0.06046 -0.2465723,0.06046 q -0.286271,0.03944 -0.599644,0.07015 -0.298868,0.02716 -0.711864,0.06692 -0.398491,0.03621 -0.942025,0.107978 -0.543534,0.07177 -1.306538,0.212735 -0.763005,0.140963 -1.788993,0.361788 -1.011484,0.217268 -2.360381,0.548024 -0.0145,0.0036 -0.04923,0.0582 -0.02023,0.05109 -0.02404,0.08278 -0.07247,0.60207 -0.056,1.166957 0.03288,0.545486 -0.03578,1.115868 -0.01335,0.110908 -0.05952,0.260617 -0.02976,0.130307 -0.103034,0.271285 -0.07137,0.125134 -0.167927,0.225693 -0.09656,0.100559 -0.227099,0.132567 -0.08702,0.02134 -0.199246,0.0181 -0.110313,-0.01908 -0.21681103,-0.06985 -0.092,-0.05432 -0.167579,-0.128049 -0.07558,-0.07372 -0.07483,-0.19692 z M 2.2333717,76.618778 q -0.04768,0.396098 -0.07513,0.741109 -0.02745,0.34501 -0.04802,0.749839 l 0.04351,-0.01067 q 0.0145,-0.0036 0.07634,-0.04947 0.06183,-0.04591 0.312969,-0.261257 0.253045,-0.231188 0.773641,-0.69712 0.522502,-0.481775 1.470946,-1.344768 0.187401,-0.153586 0.42288,-0.472724 0.235479,-0.319139 0.447671,-0.678696 0.212191,-0.359557 0.36446,-0.689044 0.154174,-0.345331 0.178966,-0.551303 0.01907,-0.158439 -0.125973,-0.122874 -0.130538,0.03201 -0.232068,0.0569 -0.217564,0.05335 -0.50268,0.200142 -0.285116,0.146793 -0.705336,0.480478 -0.405717,0.330129 -0.995771,0.90535 -0.575551,0.571665 -1.37589,1.4906 z"
         id="path13453-6"
         style="font-size:41.6159px;line-height:1.25;font-family:'Covered By Your Grace';-inkscape-font-specification:'Covered By Your Grace';fill:#0001ff;fill-opacity:1;stroke-width:0.38231"
         inkscape:export-filename="C:\Users\Robin\OneDrive\Side Projects - Games - Fitness\Keyboard\RYCpad\design-ref\RYCpad_logo.png"
         inkscape:export-xdpi="674.58398"
         inkscape:export-ydpi="674.58398" />
      <path
         d="m 11.055334,81.393724 q 0.02404,-0.08278 0.06524,-0.308148 0.05571,-0.228929 0.113322,-0.473701 0.07402,-0.264173 0.127825,-0.477257 0.05571,-0.228928 0.08165,-0.327549 0.158338,-0.73076 0.343778,-1.452789 0.20185,-0.74143 0.287667,-1.454407 l 0.02861,-0.23766 -0.216812,-0.06985 q -0.0542,-0.01746 -0.265294,-0.134841 -0.211091,-0.11738 -0.474478,-0.268064 -0.248882,-0.154242 -0.497764,-0.308484 -0.246975,-0.170085 -0.374855,-0.277116 -0.0794,-0.04204 -0.261479,-0.166528 -0.1656723,-0.143893 -0.3584443,-0.296517 -0.176361,-0.172024 -0.342032,-0.315916 -0.163764,-0.159737 -0.22675,-0.221174 -0.100778,-0.0983 -0.183238,-0.231844 -0.08055,-0.149388 -0.05957,-0.323671 0.03242,-0.269347 0.234324,-0.426489 0.203812,-0.172987 0.421376,-0.226334 0.145043,-0.03557 0.298868,-0.02716 0.155733,-0.0074 0.2565113,0.09087 0.471066,0.530298 1.072671,1.028588 0.601605,0.498289 1.255103,0.799339 l 0.08281,-0.220198 1.124078,-4.427239 q 0.04998,-0.181396 0.200749,-0.264494 0.165268,-0.08665 0.295806,-0.118662 0.377111,-0.09247 0.540876,0.06727 0.180176,0.140336 0.124872,0.599811 l -0.0038,0.03169 q -0.0019,0.01585 -0.03855,0.08634 -0.02212,0.06693 -0.06067,0.153265 -0.02403,0.08277 -0.04809,0.165554 -0.02212,0.06693 -0.02403,0.08277 -0.0664,0.200797 -0.205663,0.773118 -0.137363,0.556478 -0.315925,1.338326 -0.176656,0.766004 -0.386887,1.694005 -0.21023,0.928001 -0.422368,1.871845 -0.210231,0.928001 -0.41474,1.808469 -0.202603,0.864625 -0.367817,1.535566 -0.0046,0.154883 -0.02936,0.360855 -0.01029,0.202415 -0.09119,0.406768 -0.0809,0.204353 -0.226696,0.363114 -0.131291,0.155204 -0.348855,0.208551 -0.27558,0.06757 -0.474074,-0.03752 -0.183989,-0.108648 -0.236689,-0.3725 z"
         id="path13455-3"
         style="font-size:41.6159px;line-height:1.25;font-family:'Covered By Your Grace';-inkscape-font-specification:'Covered By Your Grace';fill:#0001ff;fill-opacity:1;stroke-width:0.38231"
         inkscape:export-filename="C:\Users\Robin\OneDrive\Side Projects - Games - Fitness\Keyboard\RYCpad\design-ref\RYCpad_logo.png"
         inkscape:export-xdpi="674.58398"
         inkscape:export-ydpi="674.58398" />
      <path
         d="m 14.563993,78.088546 q 0.364753,-1.627072 0.569265,-2.507542 0.204508,-0.880468 0.297603,-1.30308 0.115231,-0.489546 0.124766,-0.568765 0.189655,-0.52317 0.403352,-1.129118 0.213694,-0.605947 0.504881,-1.154014 0.305691,-0.551623 0.722848,-0.976815 0.417161,-0.425193 1.011835,-0.57101 0.261077,-0.06402 0.458412,-0.06628 0.213751,-0.02166 0.390865,0.02717 0.177114,0.04883 0.333999,0.148747 0.173303,0.08052 0.353478,0.220853 0.127878,0.10703 0.138567,0.135162 0.02521,0.02457 0.0061,0.183013 -0.0248,0.205971 -0.178209,0.428106 -0.153428,0.222137 -0.4,0.282598 -0.203057,0.04979 -0.322155,-0.01327 -0.117188,-0.0789 -0.232469,-0.173642 -0.09887,-0.114143 -0.232473,-0.173641 -0.117188,-0.0789 -0.334752,-0.02555 -0.232069,0.05691 -0.423281,0.242178 -0.189309,0.16943 -0.344637,0.40741 -0.140828,0.234423 -0.243861,0.505709 -0.08853,0.267729 -0.144235,0.496657 l -1.291953,5.23722 q -0.0038,0.03169 -0.03356,0.161993 -0.01335,0.110907 -0.02098,0.174283 -0.01335,0.110908 -0.03433,0.285192 -0.01907,0.158439 -0.01103,0.325608 0.0099,0.151324 0.0672,0.260295 0.05917,0.09313 0.204215,0.05756 0.08703,-0.02134 0.167177,-0.102498 0.757227,-0.677718 1.330468,-1.464086 0.589652,-0.805768 1.130824,-1.676529 0.0183,-0.03524 0.08968,-0.160379 0.08778,-0.144534 0.161048,-0.285511 0.08969,-0.160379 0.162959,-0.301356 0.07518,-0.156821 0.111816,-0.22731 0.111816,-0.22731 0.182031,-0.459796 0.07021,-0.232484 0.151112,-0.436838 0.0954,-0.20791 0.239292,-0.350826 0.145795,-0.15876 0.421375,-0.226334 0.203061,-0.04979 0.368732,0.0941 0.165671,0.143894 0.135157,0.397397 l -0.0038,0.03169 q -0.499913,1.229677 -1.196411,2.338418 -0.681995,1.105185 -1.492622,2.226535 -0.503779,0.677077 -1.1114,1.164348 -0.607621,0.487271 -1.303827,0.657984 l -0.07252,0.01778 q -0.620275,-0.109304 -0.789408,-0.575251 -0.152725,-0.485346 -0.06691,-1.198324 z"
         id="path13457-8"
         style="font-size:41.6159px;line-height:1.25;font-family:'Covered By Your Grace';-inkscape-font-specification:'Covered By Your Grace';fill:#0001ff;fill-opacity:1;stroke-width:0.38231"
         inkscape:export-filename="C:\Users\Robin\OneDrive\Side Projects - Games - Fitness\Keyboard\RYCpad\design-ref\RYCpad_logo.png"
         inkscape:export-xdpi="674.58398"
         inkscape:export-ydpi="674.58398" />
      <path
         d="m 21.330955,76.014094 q -0.262234,-0.04333 -0.475231,-0.144869 -0.198489,-0.105092 -0.154629,-0.469503 0.01143,-0.09506 0.05877,-0.137421 0.04733,-0.04236 0.08396,-0.112846 0.03472,-0.05465 0.137009,-0.202735 0.102287,-0.148092 0.220978,-0.315582 0.120602,-0.183336 0.222882,-0.331426 0.104187,-0.163935 0.138916,-0.218579 0.0248,-0.205972 0.0301,-0.484048 0.02175,-0.297482 0.08123,-0.558092 0.07593,-0.280016 0.22745,-0.486309 0.15342,-0.222135 0.458011,-0.296822 0.174049,-0.04268 0.272919,0.07147 0.10078,0.0983 0.274833,0.05562 l 0.05802,-0.01422 q 0.655699,-0.652823 1.325149,-1.186008 0.685864,-0.552584 1.469095,-0.744637 0.507648,-0.124478 0.786693,0.130002 0.295463,0.235078 0.224903,0.821305 -0.08773,0.728821 -0.485762,1.579862 -0.398033,0.85104 -0.951798,1.709514 -0.537358,0.839074 -1.152206,1.620267 -0.60034,0.777636 -1.092676,1.359649 -0.05114,0.07405 -0.147706,0.174605 -0.09465,0.08472 -0.176706,0.181717 -0.09656,0.100559 -0.211443,0.236362 l -0.554654,3.672561 q -0.01716,0.142595 -0.05072,0.304588 -0.01907,0.158439 -0.09234,0.299417 -0.06068,0.153265 -0.171738,0.257379 -0.09847,0.116404 -0.272519,0.159082 -0.08703,0.02134 -0.226351,0.0094 -0.141227,0.0039 -0.262229,-0.04333 -0.121006,-0.04721 -0.209187,-0.133223 -0.07367,-0.08957 -0.05651,-0.232164 z m 1.228752,0.667413 0.05802,-0.01422 q 0.01448,-0.0036 0.09847,-0.116403 0.09847,-0.116403 0.215249,-0.26805 0.131295,-0.155204 0.248079,-0.306851 0.133198,-0.171048 0.200749,-0.264493 0.477083,-0.455262 0.902624,-1.067026 0.425538,-0.611763 0.706035,-1.187961 0.296907,-0.595599 0.391908,-1.034055 0.109508,-0.442012 -0.05998,-0.554217 -0.153074,-0.131605 -0.627496,0.184618 -0.459922,0.312667 -1.30377,1.24227 -0.193125,0.201119 -0.362955,0.442654 -0.169839,0.241537 -0.229357,0.502153 z"
         id="path13459-7"
         style="font-size:41.6159px;line-height:1.25;font-family:'Covered By Your Grace';-inkscape-font-specification:'Covered By Your Grace';fill:#0001ff;fill-opacity:1;stroke-width:0.38231"
         inkscape:export-filename="C:\Users\Robin\OneDrive\Side Projects - Games - Fitness\Keyboard\RYCpad\design-ref\RYCpad_logo.png"
         inkscape:export-xdpi="674.58398"
         inkscape:export-ydpi="674.58398" />
      <path
         d="m 30.555905,72.229835 q -0.161052,0.285512 -0.378962,0.692601 -0.201503,0.387689 -0.439642,0.845866 -0.236231,0.442333 -0.517881,0.91118 -0.26524,0.449447 -0.551862,0.84263 -0.272118,0.389628 -0.561797,0.691304 -0.287776,0.285833 -0.569077,0.400938 -0.116034,0.02845 -0.259169,0.04817 -0.141231,0.0039 -0.280551,-0.0081 -0.137413,-0.02781 -0.227501,-0.09798 -0.07368,-0.08957 -0.0527,-0.263851 0.209007,-1.619636 0.570367,-2.984479 0.363253,-1.380683 0.918521,-2.485546 0.557178,-1.120709 1.318972,-1.95331 0.761797,-0.832603 1.76791,-1.35608 0.02903,-0.0071 0.10153,-0.0249 0.08893,-0.03718 0.117941,-0.0443 0.437036,-0.12254 0.570286,0.290701 0.149661,0.393839 0.118452,1.354825 -0.01481,0.941585 -0.170771,2.471335 -0.139563,1.510349 -0.280978,3.62083 0.02253,0.163614 0.0073,0.290366 -7.35e-4,0.123198 -0.02175,0.297482 -0.02859,0.237659 -0.174402,0.39642 -0.143888,0.142916 -0.346949,0.192707 -0.420621,0.103138 -0.56416,-0.107687 -0.143543,-0.210824 -0.150069,-0.624385 0.0018,-0.01585 0.0015,-0.246389 0.01411,-0.234106 0.0068,-0.524468 0.0091,-0.309764 0.01826,-0.619532 0.0091,-0.309764 0.0194,-0.51218 l 0.0076,-0.06338 q -0.01,-0.151324 0.0042,-0.385429 0.02862,-0.237659 0.02627,-0.452359 0.0033,-0.262233 0.02131,-0.528025 z m 0.0585,-3.058859 q -0.429757,0.412905 -0.871706,1.044069 -0.441952,0.631164 -0.662523,1.177292 -0.101126,0.255441 -0.237734,0.688724 -0.136609,0.433281 -0.258713,0.863006 -0.10569,0.410325 -0.191162,0.769562 -0.08356,0.343392 -0.095,0.438456 0.01448,-0.0036 0.03281,-0.0388 0.03281,-0.0388 0.04923,-0.0582 1.013686,-1.171141 1.507877,-2.353286 0.510603,-1.201545 0.726907,-2.53082 z"
         id="path13461-3"
         style="font-size:41.6159px;line-height:1.25;font-family:'Covered By Your Grace';-inkscape-font-specification:'Covered By Your Grace';fill:#0001ff;fill-opacity:1;stroke-width:0.38231"
         inkscape:export-filename="C:\Users\Robin\OneDrive\Side Projects - Games - Fitness\Keyboard\RYCpad\design-ref\RYCpad_logo.png"
         inkscape:export-xdpi="674.58398"
         inkscape:export-ydpi="674.58398" />
      <path
         d="m 36.373431,72.663886 q -0.01448,0.0036 -0.245015,0.398359 -0.216006,0.391245 -0.570179,0.877874 -0.354173,0.48663 -0.816751,0.938336 -0.448075,0.448148 -0.912211,0.561957 -0.638186,0.156487 -1.021826,-0.164604 -0.369132,-0.324648 -0.279501,-1.069314 0.01676,-0.37314 0.195727,-0.924444 0.193469,-0.554859 0.492287,-1.166302 0.315222,-0.630842 0.711753,-1.235492 0.412941,-0.624051 0.850322,-1.100331 0.439296,-0.492125 0.8828,-0.785391 0.458014,-0.296823 0.877883,-0.276767 l 0.02671,-0.221814 q 0.04958,-0.411944 0.07206,-0.832615 0.03891,-0.440078 0.07663,-0.9875 0.05416,-0.566829 0.112867,-1.288534 0.07514,-0.741113 0.199099,-1.770969 0.06449,-0.184953 0.171738,-0.257381 0.123663,-0.09183 0.254201,-0.123836 0.333602,-0.0818 0.493548,0.109625 0.174454,0.187868 0.176012,0.525765 -0.09385,0.545809 -0.162508,1.116191 -0.05226,0.550986 -0.09454,1.25329 -0.04231,0.702308 -0.06398,1.584074 -0.0072,0.87821 -0.01088,2.078472 -0.0018,1.184419 0.0086,2.734867 0.01235,1.534603 0.03619,3.558431 l -0.06484,0.538694 q -0.01143,0.09506 -0.08969,0.160379 -0.06374,0.06176 -0.167174,0.102496 -0.09084,0.05303 -0.192371,0.07792 -0.08893,0.03718 -0.132442,0.04785 -0.217564,0.05335 -0.446975,-0.02879 -0.231315,-0.06629 -0.246223,-0.293281 l -0.02749,-4.098743 q 0.0057,-0.04753 -0.03779,-0.03686 -0.02712,-0.0087 -0.05611,-0.0016 z M 33.778723,73.6384 q -0.0057,0.04753 -0.03546,0.177837 -0.01334,0.110908 -0.02862,0.237659 -7.35e-4,0.123199 0.01683,0.211146 0.01756,0.08795 0.104591,0.06661 0.360699,-0.07307 0.775952,-0.482418 0.429756,-0.412904 0.804151,-0.950622 0.376305,-0.553562 0.644205,-1.142047 0.282403,-0.592042 0.3484,-1.023385 0.0805,-0.434901 -0.110368,-0.603368 -0.174457,-0.187867 -0.697359,0.06336 -0.696153,0.755001 -1.21022,1.634492 -0.499564,0.875937 -0.612082,1.81073 z"
         id="path13463-0"
         style="font-size:41.6159px;line-height:1.25;font-family:'Covered By Your Grace';-inkscape-font-specification:'Covered By Your Grace';fill:#0001ff;fill-opacity:1;stroke-width:0.38231"
         inkscape:export-filename="C:\Users\Robin\OneDrive\Side Projects - Games - Fitness\Keyboard\RYCpad\design-ref\RYCpad_logo.png"
         inkscape:export-xdpi="674.58398"
         inkscape:export-ydpi="674.58398" />
    </g>
    <g
       id="g879"
       transform="matrix(0.26458333,0,0,0.26458333,16.086238,-229.20759)">
      <g
         inkscape:label="0"
         id="g843" />
      <g
         inkscape:label="rearplate"
         id="g857">
        <path
           d="m 136.34646,1340.6923 h -272.69292 a 9.826772,9.826772 0 0 1 -9.82677,-9.8267 V 905.17436 a 9.826772,9.826772 0 0 1 9.82677,-9.82677 h 272.69292 a 9.826772,9.826772 0 0 1 9.82677,9.82677 v 425.69124 a 9.826772,9.826772 0 0 1 -9.82677,9.8267 z"
           style="fill:none;stroke:#00ff00"
           id="path845" />
        <path
           d="m -131.58047,937.71969 a 3.77953,3.77953 0 1 0 -7.55906,0 3.77953,3.77953 0 1 0 7.55906,0 z"
           style="fill:none;stroke:#00ff00"
           id="path847" />
        <path
           d="m 139.13953,937.71969 a 3.77953,3.77953 0 1 0 -7.55906,0 3.77953,3.77953 0 1 0 7.55906,0 z"
           style="fill:none;stroke:#00ff00"
           id="path849" />
        <path
           d="m -118.62047,1194.5197 a 3.77953,3.77953 0 1 0 -7.55906,0 3.77953,3.77953 0 1 0 7.55906,0 z"
           style="fill:none;stroke:#00ff00"
           id="path851" />
        <path
           d="m 3.779528,1302.5197 a 3.779528,3.779528 0 1 0 -7.559056,0 3.779528,3.779528 0 1 0 7.559056,0 z"
           style="fill:none;stroke:#00ff00"
           id="path853" />
        <path
           d="m 126.17953,1194.5197 a 3.77953,3.77953 0 1 0 -7.55906,0 3.77953,3.77953 0 1 0 7.55906,0 z"
           style="fill:none;stroke:#00ff00"
           id="path855" />
      </g>
    </g>
    <path
       style="fill:#0001ff;fill-opacity:1;stroke-width:0.0135923"
       d="M 10.360458,84.064976 C 9.9490254,83.997117 9.6088396,83.739985 9.4287298,83.360725 9.008914,82.476713 9.6351556,80.89786 11.203732,78.885669 c 0.289028,-0.370768 0.678214,-0.834459 1.011705,-1.20538 l 0.05948,-0.06615 0.140349,0.09504 c 0.748681,0.506988 1.420802,1.383553 1.808817,2.359015 0.19398,0.487661 0.338089,1.138013 0.384013,1.733013 l 0.0089,0.115534 -0.194241,0.149515 c -0.669107,0.515038 -1.05317,0.794129 -1.472981,1.070385 -0.758312,0.499004 -1.410908,0.803162 -1.947424,0.907641 -0.189638,0.03693 -0.48561,0.04647 -0.641902,0.02069 z m 11.064099,-1.373985 c -0.75129,-0.104737 -1.695336,-0.54446 -2.888355,-1.345355 -0.385404,-0.258729 -0.619788,-0.428665 -1.386411,-1.005195 -0.358835,-0.269859 -0.710268,-0.527142 -0.780961,-0.571741 -0.800965,-0.505307 -1.52686,-1.045819 -2.246515,-1.672786 -0.286577,-0.249668 -0.881754,-0.831632 -1.103681,-1.07918 -0.689973,-0.769631 -1.094785,-1.439589 -1.240145,-2.052432 -0.04641,-0.195657 -0.05825,-0.511643 -0.02565,-0.684674 0.04137,-0.219597 0.131283,-0.424188 0.267335,-0.608278 0.0753,-0.101883 0.233977,-0.257392 0.330184,-0.323584 0.102924,-0.07081 0.308985,-0.162434 0.45294,-0.20139 0.125561,-0.03397 0.150526,-0.03599 0.452314,-0.0366 0.252726,-5.03e-4 0.347798,0.0045 0.455341,0.02419 0.581518,0.1062 1.174286,0.326754 1.998062,0.743426 1.251637,0.633089 2.232019,1.253982 3.406603,2.157462 0.85348,0.656491 1.365266,1.096873 1.922137,1.653964 1.000124,1.000517 1.567623,1.829883 1.744363,2.549279 0.07064,0.287518 0.08943,0.449987 0.08883,0.767963 -5.95e-4,0.315716 -0.01664,0.437391 -0.08819,0.668701 -0.04089,0.132184 -0.06595,0.272177 -0.09322,0.520622 -0.01834,0.167057 -0.03599,0.227096 -0.07833,0.266333 -0.06113,0.05665 -0.303268,0.165241 -0.452671,0.203009 -0.180991,0.04575 -0.509795,0.05752 -0.733983,0.02626 z m -1.665053,-6.933438 c -0.967208,-0.762083 -1.976723,-1.447599 -2.85026,-1.935485 -0.124824,-0.06972 -0.224073,-0.13142 -0.220551,-0.137119 0.01089,-0.01762 0.328498,-0.231706 0.538684,-0.363098 1.153555,-0.721112 2.030908,-0.918766 2.66805,-0.601068 0.158445,0.079 0.279332,0.167193 0.396193,0.289025 l 0.08357,0.08713 -0.01242,0.07397 c -0.04766,0.283806 -0.08199,0.458656 -0.176077,0.896593 -0.155245,0.722642 -0.20355,1.026081 -0.230807,1.449865 -0.0081,0.12567 -0.01888,0.260039 -0.02399,0.298597 l -0.0093,0.0701 z"
       id="path1015" />
    <path
       id="path8455-9-3"
       style="color:#000000;display:inline;fill:#0001ff;fill-opacity:1;stroke:none;stroke-width:1;stroke-linecap:round;stroke-linejoin:round;stroke-miterlimit:4;stroke-dasharray:none;stroke-opacity:0.742671"
       d="m -19.988557,8.5366646 c -0.11463,0 -0.22915,0.011226 -0.341582,0.03359 -0.112429,0.022363 -0.222245,0.055351 -0.328144,0.099219 -0.10591,0.043866 -0.207516,0.098062 -0.302824,0.1617472 -0.09531,0.063684 -0.184041,0.1370197 -0.265102,0.2180746 -0.08101,0.081055 -0.153865,0.1697881 -0.217556,0.2651 -0.06368,0.095311 -0.117888,0.1964032 -0.161748,0.3023071 -0.04387,0.1059032 -0.07737,0.2157185 -0.09973,0.3281455 -0.02236,0.112427 -0.03358,0.226951 -0.03359,0.341581 v 6.141744 h 5.29e-4 a 0.25,0.25 0 0 0 0.250114,0.250114 0.25,0.25 0 0 0 0.249597,-0.250114 v -6.141744 c 0,-0.08188 0.0078,-0.163608 0.02376,-0.243913 0.01598,-0.080305 0.04002,-0.1589645 0.07131,-0.2346105 0.03134,-0.075646 0.06975,-0.1479285 0.115239,-0.2160076 0.04549,-0.06808 0.09765,-0.1312387 0.155546,-0.1891356 0.05789,-0.057897 0.121573,-0.1100571 0.189653,-0.1555461 0.06808,-0.045489 0.140356,-0.084422 0.216009,-0.1157553 0.07564,-0.031334 0.154299,-0.054823 0.234608,-0.070797 0.0803,-0.015973 0.162034,-0.024289 0.243914,-0.024289 h 4.757333 1.123445 61.063972 5.204852 c 0.08188,0 0.16361,0.00831 0.243911,0.024289 0.08031,0.015973 0.158962,0.039464 0.234611,0.070797 0.07565,0.031334 0.147929,0.070265 0.216009,0.1157553 0.06808,0.045489 0.131752,0.097649 0.189651,0.1555461 0.0579,0.057896 0.110056,0.1210556 0.155545,0.1891356 0.04549,0.068079 0.08391,0.1403614 0.11524,0.2160076 0.03134,0.075646 0.05534,0.1543058 0.07131,0.2346105 0.01598,0.0803 0.02376,0.162034 0.02376,0.243913 v 6.141744 h 5.3e-4 a 0.25,0.25 0 0 0 0.249597,0.250114 0.25,0.25 0 0 0 0.250113,-0.250114 v -6.141744 c 0,-0.11463 -0.01122,-0.229154 -0.03359,-0.341581 C 53.855375,9.832421 53.821865,9.7226057 53.777995,9.6167025 53.734115,9.5107986 53.679935,9.4097066 53.61625,9.3143954 53.55256,9.2190834 53.479741,9.1303505 53.398691,9.0492954 53.317631,8.9682404 53.2289,8.8949049 53.133592,8.8312208 53.038282,8.7675358 52.936678,8.7133396 52.830768,8.6694736 52.724866,8.6256046 52.615043,8.5926176 52.502621,8.5702546 52.390192,8.5478896 52.27567,8.5366646 52.161042,8.5366646 h -4.819862 -0.38499 -61.063972 -1.641243 z m -1.49965,12.5801104 a 0.25,0.25 0 0 0 -0.250113,0.250114 h -5.29e-4 V 122.91728 c 0,0.11463 0.01122,0.22915 0.03359,0.34159 0.02236,0.11242 0.05586,0.22223 0.09973,0.32814 0.04386,0.1059 0.09807,0.207 0.161747,0.30231 0.06369,0.0953 0.136547,0.18455 0.217557,0.26561 0.08106,0.081 0.169791,0.15388 0.265102,0.21756 0.09531,0.0637 0.196913,0.11788 0.302823,0.16175 0.1059,0.0439 0.215715,0.0769 0.328144,0.0992 0.112432,0.0224 0.226952,0.0336 0.341583,0.0336 h 72.149601 c 0.114628,0 0.22915,-0.0112 0.34158,-0.0336 0.112421,-0.0224 0.222245,-0.0554 0.328147,-0.0992 0.10591,-0.0439 0.207512,-0.0981 0.302823,-0.16175 0.09531,-0.0637 0.184039,-0.13655 0.265099,-0.21756 0.08105,-0.0811 0.153869,-0.17029 0.217559,-0.26561 0.06368,-0.0953 0.117878,-0.19641 0.161745,-0.30231 0.04387,-0.10591 0.07738,-0.21572 0.09974,-0.32814 0.02236,-0.11244 0.03359,-0.22696 0.03359,-0.34159 V 21.366889 A 0.25,0.25 0 0 0 53.6612,21.116775 0.25,0.25 0 0 0 53.411603,21.366889 h -5.29e-4 V 122.91728 c 0,0.0819 -0.0078,0.16362 -0.02376,0.24392 -0.01598,0.0803 -0.03997,0.15896 -0.07131,0.23461 -0.03133,0.0756 -0.06975,0.14792 -0.115239,0.216 -0.04549,0.0681 -0.09764,0.13125 -0.155546,0.18914 -0.0579,0.0579 -0.121571,0.11005 -0.189651,0.15555 -0.06808,0.0454 -0.140358,0.0844 -0.216008,0.11575 -0.07565,0.0313 -0.154302,0.0548 -0.234611,0.0708 -0.0803,0.016 -0.162034,0.0243 -0.243912,0.0243 h -72.149594 c -0.08188,0 -0.163613,-0.008 -0.243914,-0.0243 -0.08031,-0.016 -0.158969,-0.0395 -0.234608,-0.0708 -0.07565,-0.0313 -0.147929,-0.0703 -0.216009,-0.11575 -0.06808,-0.0455 -0.131762,-0.0977 -0.189653,-0.15555 -0.0579,-0.0579 -0.110056,-0.12106 -0.155546,-0.18914 -0.04549,-0.0681 -0.0839,-0.14035 -0.115239,-0.216 -0.03129,-0.0756 -0.05534,-0.1543 -0.07131,-0.23461 -0.01598,-0.0803 -0.02376,-0.16204 -0.02376,-0.24392 V 21.366889 a 0.25,0.25 0 0 0 -0.2496,-0.250114 z" />
  </g>
</svg>
