%TF.GenerationSoftware,KiCad,Pcbnew,(6.0.2)*%
%TF.CreationDate,2022-03-22T19:34:44-04:00*%
%TF.ProjectId,RYCpad_pcb,52594370-6164-45f7-9063-622e6b696361,rev?*%
%TF.SameCoordinates,Original*%
%TF.FileFunction,Copper,L2,Bot*%
%TF.FilePolarity,Positive*%
%FSLAX46Y46*%
G04 Gerber Fmt 4.6, Leading zero omitted, Abs format (unit mm)*
G04 Created by KiCad (PCBNEW (6.0.2)) date 2022-03-22 19:34:44*
%MOMM*%
%LPD*%
G01*
G04 APERTURE LIST*
%ADD10C,0.175000*%
%TA.AperFunction,NonConductor*%
%ADD11C,0.175000*%
%TD*%
%TA.AperFunction,ComponentPad*%
%ADD12R,1.600000X1.600000*%
%TD*%
%TA.AperFunction,ComponentPad*%
%ADD13O,1.600000X1.600000*%
%TD*%
%TA.AperFunction,ComponentPad*%
%ADD14C,1.600000*%
%TD*%
%TA.AperFunction,ComponentPad*%
%ADD15C,2.286000*%
%TD*%
%TA.AperFunction,ComponentPad*%
%ADD16C,1.400000*%
%TD*%
%TA.AperFunction,ComponentPad*%
%ADD17O,1.400000X1.400000*%
%TD*%
%TA.AperFunction,ComponentPad*%
%ADD18C,4.400000*%
%TD*%
%TA.AperFunction,ComponentPad*%
%ADD19C,2.000000*%
%TD*%
%TA.AperFunction,ComponentPad*%
%ADD20R,1.700000X1.700000*%
%TD*%
%TA.AperFunction,ComponentPad*%
%ADD21O,1.700000X1.700000*%
%TD*%
%TA.AperFunction,ComponentPad*%
%ADD22O,0.650000X1.000000*%
%TD*%
%TA.AperFunction,ComponentPad*%
%ADD23O,0.900000X2.400000*%
%TD*%
%TA.AperFunction,ComponentPad*%
%ADD24O,0.900000X1.700000*%
%TD*%
%TA.AperFunction,ComponentPad*%
%ADD25C,1.500000*%
%TD*%
%TA.AperFunction,ComponentPad*%
%ADD26R,1.200000X1.200000*%
%TD*%
%TA.AperFunction,ComponentPad*%
%ADD27C,1.200000*%
%TD*%
%TA.AperFunction,ComponentPad*%
%ADD28R,1.800000X1.800000*%
%TD*%
%TA.AperFunction,ComponentPad*%
%ADD29C,1.800000*%
%TD*%
%TA.AperFunction,ViaPad*%
%ADD30C,0.800000*%
%TD*%
%TA.AperFunction,Conductor*%
%ADD31C,0.250000*%
%TD*%
%TA.AperFunction,Conductor*%
%ADD32C,0.500000*%
%TD*%
%TA.AperFunction,Conductor*%
%ADD33C,0.200000*%
%TD*%
%TA.AperFunction,Conductor*%
%ADD34C,0.400000*%
%TD*%
G04 APERTURE END LIST*
D10*
D11*
X36067809Y-54316380D02*
X35734476Y-55316380D01*
X35401142Y-54316380D01*
X34544000Y-55316380D02*
X35115428Y-55316380D01*
X34829714Y-55316380D02*
X34829714Y-54316380D01*
X34924952Y-54459238D01*
X35020190Y-54554476D01*
X35115428Y-54602095D01*
X34115428Y-55221142D02*
X34067809Y-55268761D01*
X34115428Y-55316380D01*
X34163047Y-55268761D01*
X34115428Y-55221142D01*
X34115428Y-55316380D01*
X33448761Y-54316380D02*
X33353523Y-54316380D01*
X33258285Y-54364000D01*
X33210666Y-54411619D01*
X33163047Y-54506857D01*
X33115428Y-54697333D01*
X33115428Y-54935428D01*
X33163047Y-55125904D01*
X33210666Y-55221142D01*
X33258285Y-55268761D01*
X33353523Y-55316380D01*
X33448761Y-55316380D01*
X33544000Y-55268761D01*
X33591619Y-55221142D01*
X33639238Y-55125904D01*
X33686857Y-54935428D01*
X33686857Y-54697333D01*
X33639238Y-54506857D01*
X33591619Y-54411619D01*
X33544000Y-54364000D01*
X33448761Y-54316380D01*
G36*
X36099505Y59254872D02*
G01*
X36124059Y59254357D01*
X36148600Y59253499D01*
X36173126Y59252297D01*
X36197630Y59250753D01*
X36222110Y59248866D01*
X36246560Y59246636D01*
X36270976Y59244064D01*
X36295355Y59241150D01*
X36319691Y59237894D01*
X36343981Y59234296D01*
X36368219Y59230357D01*
X36392403Y59226076D01*
X36416526Y59221455D01*
X36442425Y59216105D01*
X36468227Y59210378D01*
X36493928Y59204272D01*
X36519527Y59197787D01*
X36545018Y59190922D01*
X36570399Y59183676D01*
X36595666Y59176048D01*
X36620815Y59168039D01*
X36645843Y59159647D01*
X36670746Y59150871D01*
X36695521Y59141711D01*
X36720163Y59132166D01*
X36744671Y59122236D01*
X36767299Y59112678D01*
X36789791Y59102806D01*
X36812143Y59092621D01*
X36834350Y59082126D01*
X36856408Y59071322D01*
X36878312Y59060211D01*
X36900058Y59048794D01*
X36921642Y59037075D01*
X36943059Y59025053D01*
X36964306Y59012732D01*
X36985377Y59000114D01*
X37006268Y58987199D01*
X37026975Y58973990D01*
X37047494Y58960489D01*
X37067817Y58946695D01*
X37087936Y58932610D01*
X37107848Y58918238D01*
X37127552Y58903584D01*
X37147045Y58888650D01*
X37166325Y58873443D01*
X37185389Y58857965D01*
X37204235Y58842222D01*
X37222860Y58826217D01*
X37241263Y58809954D01*
X37259440Y58793438D01*
X37277389Y58776674D01*
X37295109Y58759664D01*
X37312596Y58742414D01*
X37329832Y58724928D01*
X37346815Y58707209D01*
X37363544Y58689260D01*
X37380016Y58671084D01*
X37396230Y58652681D01*
X37412182Y58634056D01*
X37427872Y58615210D01*
X37443296Y58596146D01*
X37458453Y58576866D01*
X37473341Y58557373D01*
X37487957Y58537669D01*
X37502299Y58517756D01*
X37516365Y58497637D01*
X37530152Y58477314D01*
X37543653Y58456802D01*
X37556861Y58436115D01*
X37569776Y58415256D01*
X37582395Y58394226D01*
X37594716Y58373027D01*
X37606738Y58351662D01*
X37618459Y58330133D01*
X37629876Y58308441D01*
X37640987Y58286590D01*
X37651792Y58264581D01*
X37662288Y58242416D01*
X37672472Y58220097D01*
X37682343Y58197627D01*
X37691900Y58175007D01*
X37701142Y58152254D01*
X37710065Y58129384D01*
X37718667Y58106400D01*
X37726947Y58083305D01*
X37734902Y58060101D01*
X37742532Y58036792D01*
X37749834Y58013381D01*
X37756807Y57989869D01*
X37763449Y57966260D01*
X37769758Y57942557D01*
X37775733Y57918763D01*
X37781372Y57894881D01*
X37786673Y57870912D01*
X37791635Y57846861D01*
X37796256Y57822738D01*
X37800535Y57798556D01*
X37804474Y57774318D01*
X37808071Y57750028D01*
X37811326Y57725692D01*
X37814240Y57701314D01*
X37816812Y57676897D01*
X37819041Y57652447D01*
X37820928Y57627967D01*
X37822473Y57603462D01*
X37823676Y57578937D01*
X37824536Y57554395D01*
X37825052Y57529842D01*
X37825226Y57505280D01*
X37825226Y51363536D01*
X37824708Y51363536D01*
X37823514Y51339017D01*
X37819921Y51314734D01*
X37813964Y51290919D01*
X37805699Y51267804D01*
X37795208Y51245611D01*
X37782591Y51224554D01*
X37767970Y51204835D01*
X37751485Y51186646D01*
X37733295Y51170161D01*
X37713577Y51155539D01*
X37692520Y51142922D01*
X37670326Y51132431D01*
X37647211Y51124167D01*
X37623397Y51118209D01*
X37599113Y51114616D01*
X37574594Y51113422D01*
X37550110Y51114664D01*
X37525865Y51118297D01*
X37502092Y51124288D01*
X37479021Y51132579D01*
X37456872Y51143089D01*
X37435860Y51155718D01*
X37416185Y51170345D01*
X37398038Y51186828D01*
X37381592Y51205010D01*
X37367006Y51224714D01*
X37354420Y51245753D01*
X37343956Y51267923D01*
X37335713Y51291012D01*
X37329771Y51314797D01*
X37326188Y51339049D01*
X37324997Y51363536D01*
X37324997Y57505280D01*
X37324763Y57529838D01*
X37324058Y57554379D01*
X37322881Y57578896D01*
X37321229Y57603381D01*
X37319101Y57627827D01*
X37316493Y57652225D01*
X37313404Y57676568D01*
X37309832Y57700849D01*
X37305773Y57725060D01*
X37301227Y57749193D01*
X37296194Y57773234D01*
X37290682Y57797168D01*
X37284696Y57820986D01*
X37278239Y57844682D01*
X37271318Y57868246D01*
X37263937Y57891670D01*
X37256101Y57914946D01*
X37247815Y57938066D01*
X37239085Y57961021D01*
X37229914Y57983804D01*
X37220299Y58006396D01*
X37210260Y58028781D01*
X37199798Y58050955D01*
X37188911Y58072911D01*
X37177599Y58094645D01*
X37165864Y58116153D01*
X37153703Y58137428D01*
X37141119Y58158466D01*
X37128109Y58179263D01*
X37114674Y58199812D01*
X37100828Y58220088D01*
X37086588Y58240066D01*
X37071958Y58259746D01*
X37056946Y58279123D01*
X37041555Y58298198D01*
X37025792Y58316967D01*
X37009662Y58335428D01*
X36993171Y58353580D01*
X36976325Y58371421D01*
X36959129Y58388947D01*
X36941589Y58406143D01*
X36923710Y58422989D01*
X36905501Y58439480D01*
X36886969Y58455610D01*
X36868123Y58471373D01*
X36848971Y58486764D01*
X36829522Y58501777D01*
X36809784Y58516407D01*
X36789766Y58530647D01*
X36769475Y58544493D01*
X36748926Y58557942D01*
X36728130Y58570992D01*
X36707092Y58583635D01*
X36685818Y58595866D01*
X36664311Y58607679D01*
X36642577Y58619068D01*
X36620620Y58630025D01*
X36598446Y58640545D01*
X36576060Y58650622D01*
X36553467Y58660248D01*
X36530686Y58669414D01*
X36507732Y58678110D01*
X36484613Y58686340D01*
X36461337Y58694105D01*
X36437914Y58701407D01*
X36414350Y58708248D01*
X36390654Y58714631D01*
X36366835Y58720556D01*
X36342900Y58726027D01*
X36318858Y58731045D01*
X36294726Y58735607D01*
X36270516Y58739705D01*
X36246235Y58743336D01*
X36221892Y58746495D01*
X36197493Y58749179D01*
X36173048Y58751384D01*
X36148562Y58753106D01*
X36124044Y58754341D01*
X36099502Y58755084D01*
X36074944Y58755333D01*
X30194167Y58755333D01*
X30169648Y58756527D01*
X30145364Y58760120D01*
X30121550Y58766077D01*
X30098435Y58774342D01*
X30076242Y58784833D01*
X30055184Y58797450D01*
X30035466Y58812072D01*
X30017276Y58828557D01*
X30000792Y58846746D01*
X29986170Y58866464D01*
X29973553Y58887522D01*
X29963062Y58909715D01*
X29954798Y58932830D01*
X29948840Y58956645D01*
X29945248Y58980928D01*
X29944053Y59005447D01*
X29945295Y59029931D01*
X29948929Y59054176D01*
X29954920Y59077949D01*
X29963210Y59101020D01*
X29973720Y59123169D01*
X29986349Y59144182D01*
X30000976Y59163856D01*
X30017459Y59182003D01*
X30035641Y59198449D01*
X30055345Y59213035D01*
X30076384Y59225621D01*
X30098554Y59236085D01*
X30121643Y59244328D01*
X30145427Y59250270D01*
X30169680Y59253853D01*
X30194167Y59255044D01*
X36074944Y59255044D01*
X36099505Y59254872D01*
G37*
G36*
X37599113Y46673740D02*
G01*
X37623397Y46670147D01*
X37647211Y46664189D01*
X37670326Y46655925D01*
X37692520Y46645434D01*
X37713577Y46632817D01*
X37733295Y46618195D01*
X37751485Y46601710D01*
X37767970Y46583521D01*
X37782591Y46563802D01*
X37795208Y46542745D01*
X37805699Y46520552D01*
X37813964Y46497437D01*
X37819921Y46473622D01*
X37823514Y46449339D01*
X37824708Y46424820D01*
X37825226Y46424820D01*
X37825226Y-55125569D01*
X37825054Y-55150131D01*
X37824539Y-55174684D01*
X37823680Y-55199226D01*
X37822478Y-55223751D01*
X37820933Y-55248256D01*
X37819046Y-55272735D01*
X37816815Y-55297185D01*
X37814243Y-55321602D01*
X37811329Y-55345980D01*
X37808073Y-55370316D01*
X37804475Y-55394606D01*
X37800536Y-55418845D01*
X37796256Y-55443028D01*
X37791635Y-55467152D01*
X37786673Y-55491203D01*
X37781372Y-55515171D01*
X37775733Y-55539054D01*
X37769758Y-55562847D01*
X37763449Y-55586550D01*
X37756807Y-55610158D01*
X37749834Y-55633669D01*
X37742532Y-55657080D01*
X37734902Y-55680388D01*
X37726947Y-55703592D01*
X37718667Y-55726687D01*
X37710065Y-55749671D01*
X37701142Y-55772542D01*
X37691900Y-55795296D01*
X37682343Y-55817915D01*
X37672472Y-55840385D01*
X37662288Y-55862703D01*
X37651792Y-55884868D01*
X37640987Y-55906877D01*
X37629876Y-55928729D01*
X37618459Y-55950421D01*
X37606738Y-55971950D01*
X37594716Y-55993315D01*
X37582395Y-56014514D01*
X37569776Y-56035545D01*
X37556861Y-56056405D01*
X37543653Y-56077092D01*
X37530152Y-56097604D01*
X37516365Y-56117935D01*
X37502299Y-56138076D01*
X37487957Y-56158022D01*
X37473341Y-56177767D01*
X37458453Y-56197309D01*
X37443296Y-56216641D01*
X37427872Y-56235759D01*
X37412182Y-56254660D01*
X37396230Y-56273337D01*
X37380016Y-56291787D01*
X37363544Y-56310005D01*
X37346815Y-56327987D01*
X37329832Y-56345727D01*
X37312596Y-56363221D01*
X37295109Y-56380457D01*
X37277389Y-56397441D01*
X37259440Y-56414170D01*
X37241263Y-56430643D01*
X37222860Y-56446858D01*
X37204235Y-56462811D01*
X37185389Y-56478501D01*
X37166325Y-56493926D01*
X37147045Y-56509084D01*
X37127552Y-56523971D01*
X37107848Y-56538586D01*
X37087936Y-56552927D01*
X37067817Y-56566992D01*
X37047494Y-56580778D01*
X37026975Y-56594280D01*
X37006268Y-56607489D01*
X36985377Y-56620404D01*
X36964306Y-56633023D01*
X36943059Y-56645344D01*
X36921642Y-56657365D01*
X36900058Y-56669084D01*
X36878312Y-56680500D01*
X36856408Y-56691611D01*
X36834350Y-56702415D01*
X36812143Y-56712910D01*
X36789791Y-56723095D01*
X36767299Y-56732967D01*
X36744671Y-56742525D01*
X36720163Y-56752456D01*
X36695521Y-56762002D01*
X36670746Y-56771162D01*
X36645843Y-56779938D01*
X36620815Y-56788330D01*
X36595666Y-56796340D01*
X36570399Y-56803967D01*
X36545018Y-56811213D01*
X36519527Y-56818078D01*
X36493928Y-56824563D01*
X36468227Y-56830669D01*
X36442425Y-56836395D01*
X36416526Y-56841744D01*
X36392403Y-56846363D01*
X36368219Y-56850642D01*
X36343981Y-56854580D01*
X36319691Y-56858177D01*
X36295355Y-56861433D01*
X36270976Y-56864347D01*
X36246560Y-56866920D01*
X36222110Y-56869150D01*
X36197630Y-56871038D01*
X36173126Y-56872584D01*
X36148600Y-56873786D01*
X36124059Y-56874645D01*
X36099505Y-56875161D01*
X36074944Y-56875333D01*
X-36074657Y-56875333D01*
X-36099218Y-56875161D01*
X-36123771Y-56874646D01*
X-36148313Y-56873788D01*
X-36172838Y-56872587D01*
X-36197342Y-56871043D01*
X-36221822Y-56869157D01*
X-36246272Y-56866928D01*
X-36270688Y-56864356D01*
X-36295067Y-56861442D01*
X-36319403Y-56858186D01*
X-36343692Y-56854588D01*
X-36367931Y-56850649D01*
X-36392114Y-56846367D01*
X-36416237Y-56841744D01*
X-36442134Y-56836395D01*
X-36467935Y-56830669D01*
X-36493636Y-56824563D01*
X-36519234Y-56818078D01*
X-36544726Y-56811213D01*
X-36570107Y-56803967D01*
X-36595374Y-56796340D01*
X-36620524Y-56788330D01*
X-36645553Y-56779938D01*
X-36670457Y-56771162D01*
X-36695232Y-56762002D01*
X-36719876Y-56752456D01*
X-36744384Y-56742525D01*
X-36767012Y-56732967D01*
X-36789504Y-56723095D01*
X-36811856Y-56712910D01*
X-36834063Y-56702415D01*
X-36856120Y-56691611D01*
X-36878024Y-56680500D01*
X-36899770Y-56669084D01*
X-36921354Y-56657365D01*
X-36942771Y-56645344D01*
X-36964018Y-56633023D01*
X-36985089Y-56620404D01*
X-37005980Y-56607489D01*
X-37026688Y-56594280D01*
X-37047207Y-56580778D01*
X-37067530Y-56566992D01*
X-37087648Y-56552927D01*
X-37107560Y-56538586D01*
X-37127264Y-56523971D01*
X-37146757Y-56509084D01*
X-37166036Y-56493926D01*
X-37185100Y-56478501D01*
X-37203946Y-56462811D01*
X-37222571Y-56446858D01*
X-37240973Y-56430643D01*
X-37259151Y-56414170D01*
X-37277100Y-56397441D01*
X-37294820Y-56380457D01*
X-37312307Y-56363221D01*
X-37329548Y-56345727D01*
X-37346536Y-56327987D01*
X-37363267Y-56310005D01*
X-37379741Y-56291787D01*
X-37395955Y-56273337D01*
X-37411907Y-56254660D01*
X-37427596Y-56235759D01*
X-37443019Y-56216641D01*
X-37458174Y-56197309D01*
X-37473059Y-56177767D01*
X-37487673Y-56158022D01*
X-37502013Y-56138076D01*
X-37516078Y-56117935D01*
X-37529866Y-56097604D01*
X-37543366Y-56077092D01*
X-37556574Y-56056405D01*
X-37569488Y-56035545D01*
X-37582106Y-56014514D01*
X-37594427Y-55993315D01*
X-37606448Y-55971950D01*
X-37618168Y-55950421D01*
X-37629584Y-55928729D01*
X-37640695Y-55906877D01*
X-37651500Y-55884868D01*
X-37661995Y-55862703D01*
X-37672180Y-55840385D01*
X-37682053Y-55817915D01*
X-37691611Y-55795296D01*
X-37700853Y-55772542D01*
X-37709776Y-55749671D01*
X-37718378Y-55726687D01*
X-37726658Y-55703592D01*
X-37734613Y-55680388D01*
X-37742243Y-55657080D01*
X-37749546Y-55633669D01*
X-37756519Y-55610158D01*
X-37763161Y-55586550D01*
X-37769471Y-55562847D01*
X-37775446Y-55539054D01*
X-37781085Y-55515171D01*
X-37786386Y-55491203D01*
X-37791348Y-55467152D01*
X-37795969Y-55443028D01*
X-37800249Y-55418845D01*
X-37804188Y-55394606D01*
X-37807785Y-55370316D01*
X-37811041Y-55345980D01*
X-37813955Y-55321602D01*
X-37816527Y-55297185D01*
X-37818757Y-55272735D01*
X-37820645Y-55248256D01*
X-37822189Y-55223751D01*
X-37823391Y-55199226D01*
X-37824250Y-55174684D01*
X-37824765Y-55150131D01*
X-37824937Y-55125569D01*
X-37824937Y46424820D01*
X-37823743Y46449339D01*
X-37820150Y46473622D01*
X-37814193Y46497437D01*
X-37805929Y46520552D01*
X-37795438Y46542745D01*
X-37782820Y46563802D01*
X-37768199Y46583521D01*
X-37751714Y46601710D01*
X-37733525Y46618195D01*
X-37713806Y46632817D01*
X-37692749Y46645434D01*
X-37670556Y46655925D01*
X-37647440Y46664189D01*
X-37623626Y46670147D01*
X-37599343Y46673740D01*
X-37574824Y46674934D01*
X-37550339Y46673692D01*
X-37526094Y46670059D01*
X-37502322Y46664068D01*
X-37479250Y46655777D01*
X-37457102Y46645267D01*
X-37436089Y46632638D01*
X-37416414Y46618011D01*
X-37398267Y46601528D01*
X-37381821Y46583346D01*
X-37367235Y46563642D01*
X-37354650Y46542603D01*
X-37344185Y46520433D01*
X-37335942Y46497344D01*
X-37330001Y46473559D01*
X-37326417Y46449307D01*
X-37325226Y46424820D01*
X-37324710Y46424820D01*
X-37324710Y-55125569D01*
X-37324477Y-55150128D01*
X-37323775Y-55174670D01*
X-37322601Y-55199187D01*
X-37320953Y-55223673D01*
X-37318828Y-55248119D01*
X-37316222Y-55272517D01*
X-37313133Y-55296861D01*
X-37309558Y-55321141D01*
X-37305494Y-55345352D01*
X-37300938Y-55369484D01*
X-37295904Y-55393525D01*
X-37290393Y-55417459D01*
X-37284410Y-55441277D01*
X-37277957Y-55464972D01*
X-37271041Y-55488535D01*
X-37263663Y-55511958D01*
X-37255829Y-55535234D01*
X-37247541Y-55558353D01*
X-37238805Y-55581309D01*
X-37229624Y-55604092D01*
X-37220013Y-55626686D01*
X-37209976Y-55649072D01*
X-37199514Y-55671246D01*
X-37188627Y-55693202D01*
X-37177315Y-55714936D01*
X-37165578Y-55736443D01*
X-37153417Y-55757718D01*
X-37140830Y-55778756D01*
X-37127820Y-55799552D01*
X-37114385Y-55820101D01*
X-37100539Y-55840377D01*
X-37086299Y-55860356D01*
X-37071670Y-55880036D01*
X-37056657Y-55899415D01*
X-37041267Y-55918490D01*
X-37025504Y-55937259D01*
X-37009374Y-55955721D01*
X-36992883Y-55973872D01*
X-36976036Y-55991711D01*
X-36958839Y-56009235D01*
X-36941298Y-56026433D01*
X-36923418Y-56043279D01*
X-36905208Y-56059770D01*
X-36886677Y-56075900D01*
X-36867832Y-56091663D01*
X-36848681Y-56107054D01*
X-36829233Y-56122067D01*
X-36809497Y-56136696D01*
X-36789479Y-56150937D01*
X-36769189Y-56164784D01*
X-36748639Y-56178225D01*
X-36727843Y-56191271D01*
X-36706805Y-56203912D01*
X-36685530Y-56216144D01*
X-36664023Y-56227959D01*
X-36642289Y-56239350D01*
X-36620332Y-56250310D01*
X-36598159Y-56260833D01*
X-36575773Y-56270912D01*
X-36553180Y-56280539D01*
X-36530396Y-56289696D01*
X-36507441Y-56298387D01*
X-36484321Y-56306615D01*
X-36461045Y-56314380D01*
X-36437622Y-56321684D01*
X-36414058Y-56328529D01*
X-36390363Y-56334914D01*
X-36366545Y-56340843D01*
X-36342610Y-56346316D01*
X-36318569Y-56351334D01*
X-36294437Y-56355897D01*
X-36270227Y-56359996D01*
X-36245946Y-56363628D01*
X-36221603Y-56366787D01*
X-36197204Y-56369471D01*
X-36172759Y-56371675D01*
X-36148273Y-56373396D01*
X-36123756Y-56374631D01*
X-36099215Y-56375374D01*
X-36074657Y-56375622D01*
X36074944Y-56375622D01*
X36099502Y-56375374D01*
X36124044Y-56374631D01*
X36148562Y-56373396D01*
X36173048Y-56371675D01*
X36197493Y-56369471D01*
X36221892Y-56366787D01*
X36246235Y-56363628D01*
X36270516Y-56359996D01*
X36294726Y-56355897D01*
X36318858Y-56351334D01*
X36342900Y-56346318D01*
X36366835Y-56340847D01*
X36390654Y-56334919D01*
X36414350Y-56328533D01*
X36437914Y-56321688D01*
X36461337Y-56314383D01*
X36484613Y-56306617D01*
X36507732Y-56298388D01*
X36530686Y-56289696D01*
X36553467Y-56280539D01*
X36576060Y-56270912D01*
X36598446Y-56260833D01*
X36620620Y-56250310D01*
X36642577Y-56239350D01*
X36664311Y-56227959D01*
X36685818Y-56216144D01*
X36707092Y-56203912D01*
X36728130Y-56191271D01*
X36748926Y-56178225D01*
X36769475Y-56164784D01*
X36789766Y-56150937D01*
X36809784Y-56136696D01*
X36829522Y-56122067D01*
X36848971Y-56107054D01*
X36868123Y-56091663D01*
X36886969Y-56075900D01*
X36905501Y-56059770D01*
X36923710Y-56043279D01*
X36941589Y-56026433D01*
X36959129Y-56009235D01*
X36976325Y-55991711D01*
X36993171Y-55973872D01*
X37009662Y-55955721D01*
X37025792Y-55937259D01*
X37041555Y-55918490D01*
X37056946Y-55899415D01*
X37071958Y-55880036D01*
X37086588Y-55860356D01*
X37100828Y-55840377D01*
X37114674Y-55820101D01*
X37128109Y-55799552D01*
X37141119Y-55778756D01*
X37153703Y-55757718D01*
X37165864Y-55736443D01*
X37177599Y-55714936D01*
X37188911Y-55693202D01*
X37199798Y-55671246D01*
X37210260Y-55649072D01*
X37220299Y-55626686D01*
X37229914Y-55604092D01*
X37239085Y-55581309D01*
X37247815Y-55558353D01*
X37256101Y-55535234D01*
X37263937Y-55511958D01*
X37271318Y-55488535D01*
X37278239Y-55464972D01*
X37284696Y-55441277D01*
X37290682Y-55417459D01*
X37296194Y-55393525D01*
X37301227Y-55369484D01*
X37305773Y-55345352D01*
X37309832Y-55321141D01*
X37313404Y-55296861D01*
X37316493Y-55272517D01*
X37319101Y-55248119D01*
X37321229Y-55223673D01*
X37322881Y-55199187D01*
X37324058Y-55174670D01*
X37324763Y-55150128D01*
X37324997Y-55125569D01*
X37324997Y46424820D01*
X37326188Y46449307D01*
X37329771Y46473559D01*
X37335713Y46497344D01*
X37343956Y46520433D01*
X37354420Y46542603D01*
X37367006Y46563642D01*
X37381592Y46583346D01*
X37398038Y46601528D01*
X37416185Y46618011D01*
X37435860Y46632638D01*
X37456872Y46645267D01*
X37479021Y46655777D01*
X37502092Y46664068D01*
X37525865Y46670059D01*
X37550110Y46673692D01*
X37574594Y46674934D01*
X37599113Y46673740D01*
G37*
G36*
X-30169358Y59253850D02*
G01*
X-30145075Y59250257D01*
X-30121261Y59244300D01*
X-30098145Y59236036D01*
X-30075952Y59225544D01*
X-30054895Y59212927D01*
X-30035176Y59198306D01*
X-30016987Y59181821D01*
X-30000502Y59163631D01*
X-29985881Y59143913D01*
X-29973263Y59122855D01*
X-29962772Y59100662D01*
X-29954508Y59077547D01*
X-29948551Y59053733D01*
X-29944958Y59029449D01*
X-29943764Y59004930D01*
X-29945006Y58980446D01*
X-29948639Y58956201D01*
X-29954630Y58932428D01*
X-29962921Y58909357D01*
X-29973431Y58887208D01*
X-29986060Y58866196D01*
X-30000687Y58846521D01*
X-30017170Y58828374D01*
X-30035351Y58811928D01*
X-30055056Y58797342D01*
X-30076095Y58784757D01*
X-30098265Y58774292D01*
X-30121353Y58766049D01*
X-30145138Y58760108D01*
X-30169391Y58756524D01*
X-30193877Y58755333D01*
X-36074657Y58755333D01*
X-36099215Y58755084D01*
X-36123756Y58754341D01*
X-36148273Y58753106D01*
X-36172759Y58751385D01*
X-36197204Y58749180D01*
X-36221603Y58746496D01*
X-36245946Y58743337D01*
X-36270227Y58739706D01*
X-36294437Y58735607D01*
X-36318569Y58731045D01*
X-36342610Y58726027D01*
X-36366545Y58720557D01*
X-36390363Y58714631D01*
X-36414058Y58708248D01*
X-36437622Y58701407D01*
X-36461045Y58694105D01*
X-36484321Y58686340D01*
X-36507441Y58678110D01*
X-36530396Y58669413D01*
X-36553180Y58660248D01*
X-36575773Y58650621D01*
X-36598159Y58640545D01*
X-36620332Y58630025D01*
X-36642289Y58619067D01*
X-36664023Y58607679D01*
X-36685530Y58595867D01*
X-36706805Y58583635D01*
X-36727843Y58570992D01*
X-36748639Y58557942D01*
X-36769189Y58544493D01*
X-36789479Y58530647D01*
X-36809497Y58516407D01*
X-36829233Y58501777D01*
X-36848681Y58486764D01*
X-36867832Y58471373D01*
X-36886677Y58455610D01*
X-36905208Y58439480D01*
X-36923418Y58422989D01*
X-36941298Y58406143D01*
X-36958839Y58388947D01*
X-36976036Y58371421D01*
X-36992883Y58353581D01*
X-37009374Y58335429D01*
X-37025504Y58316967D01*
X-37041267Y58298198D01*
X-37056657Y58279124D01*
X-37071670Y58259746D01*
X-37086299Y58240066D01*
X-37100539Y58220088D01*
X-37114385Y58199812D01*
X-37127820Y58179263D01*
X-37140830Y58158466D01*
X-37153417Y58137428D01*
X-37165578Y58116153D01*
X-37177315Y58094645D01*
X-37188627Y58072911D01*
X-37199514Y58050955D01*
X-37209976Y58028781D01*
X-37220013Y58006396D01*
X-37229624Y57983804D01*
X-37238806Y57961021D01*
X-37247542Y57938066D01*
X-37255831Y57914946D01*
X-37263666Y57891670D01*
X-37271045Y57868246D01*
X-37277962Y57844682D01*
X-37284414Y57820986D01*
X-37290397Y57797168D01*
X-37295906Y57773234D01*
X-37300938Y57749193D01*
X-37305486Y57725060D01*
X-37309545Y57700849D01*
X-37313117Y57676569D01*
X-37316205Y57652225D01*
X-37318811Y57627827D01*
X-37320938Y57603382D01*
X-37322589Y57578896D01*
X-37323766Y57554380D01*
X-37324472Y57529838D01*
X-37324710Y57505280D01*
X-37324710Y51363536D01*
X-37325226Y51363536D01*
X-37326417Y51339049D01*
X-37330001Y51314797D01*
X-37335942Y51291012D01*
X-37344185Y51267923D01*
X-37354650Y51245753D01*
X-37367235Y51224714D01*
X-37381821Y51205010D01*
X-37398267Y51186828D01*
X-37416414Y51170345D01*
X-37436089Y51155718D01*
X-37457102Y51143089D01*
X-37479250Y51132579D01*
X-37502322Y51124288D01*
X-37526094Y51118297D01*
X-37550339Y51114664D01*
X-37574824Y51113422D01*
X-37599343Y51114616D01*
X-37623626Y51118209D01*
X-37647440Y51124167D01*
X-37670556Y51132431D01*
X-37692749Y51142922D01*
X-37713806Y51155539D01*
X-37733525Y51170161D01*
X-37751714Y51186646D01*
X-37768199Y51204835D01*
X-37782820Y51224554D01*
X-37795438Y51245611D01*
X-37805929Y51267804D01*
X-37814193Y51290919D01*
X-37820150Y51314734D01*
X-37823743Y51339017D01*
X-37824937Y51363536D01*
X-37824937Y57505280D01*
X-37824765Y57529842D01*
X-37824250Y57554395D01*
X-37823392Y57578937D01*
X-37822191Y57603462D01*
X-37820647Y57627967D01*
X-37818760Y57652447D01*
X-37816530Y57676897D01*
X-37813959Y57701314D01*
X-37811045Y57725692D01*
X-37807789Y57750028D01*
X-37804191Y57774318D01*
X-37800252Y57798556D01*
X-37795970Y57822738D01*
X-37791348Y57846861D01*
X-37786386Y57870912D01*
X-37781085Y57894881D01*
X-37775446Y57918763D01*
X-37769471Y57942557D01*
X-37763161Y57966260D01*
X-37756519Y57989869D01*
X-37749546Y58013381D01*
X-37742243Y58036792D01*
X-37734613Y58060101D01*
X-37726658Y58083305D01*
X-37718378Y58106400D01*
X-37709776Y58129384D01*
X-37700853Y58152254D01*
X-37691611Y58175007D01*
X-37682051Y58197627D01*
X-37672177Y58220097D01*
X-37661991Y58242416D01*
X-37651495Y58264581D01*
X-37640691Y58286590D01*
X-37629580Y58308441D01*
X-37618164Y58330133D01*
X-37606445Y58351662D01*
X-37594424Y58373027D01*
X-37582105Y58394226D01*
X-37569487Y58415256D01*
X-37556573Y58436115D01*
X-37543366Y58456802D01*
X-37529866Y58477314D01*
X-37516078Y58497637D01*
X-37502013Y58517756D01*
X-37487673Y58537669D01*
X-37473059Y58557373D01*
X-37458174Y58576866D01*
X-37443019Y58596146D01*
X-37427596Y58615210D01*
X-37411907Y58634056D01*
X-37395955Y58652681D01*
X-37379741Y58671084D01*
X-37363267Y58689260D01*
X-37346536Y58707209D01*
X-37329548Y58724928D01*
X-37312307Y58742414D01*
X-37294820Y58759664D01*
X-37277100Y58776674D01*
X-37259151Y58793438D01*
X-37240973Y58809954D01*
X-37222571Y58826217D01*
X-37203946Y58842222D01*
X-37185100Y58857965D01*
X-37166036Y58873443D01*
X-37146757Y58888650D01*
X-37127264Y58903584D01*
X-37107560Y58918238D01*
X-37087648Y58932610D01*
X-37067530Y58946695D01*
X-37047207Y58960489D01*
X-37026688Y58973990D01*
X-37005980Y58987199D01*
X-36985089Y59000114D01*
X-36964018Y59012732D01*
X-36942771Y59025053D01*
X-36921354Y59037075D01*
X-36899770Y59048794D01*
X-36878024Y59060211D01*
X-36856120Y59071322D01*
X-36834063Y59082126D01*
X-36811856Y59092621D01*
X-36789504Y59102806D01*
X-36767012Y59112678D01*
X-36744384Y59122236D01*
X-36719876Y59132166D01*
X-36695232Y59141711D01*
X-36670457Y59150871D01*
X-36645553Y59159647D01*
X-36620524Y59168039D01*
X-36595374Y59176049D01*
X-36570107Y59183676D01*
X-36544726Y59190922D01*
X-36519234Y59197787D01*
X-36493636Y59204272D01*
X-36467935Y59210378D01*
X-36442134Y59216105D01*
X-36416237Y59221455D01*
X-36392114Y59226077D01*
X-36367931Y59230357D01*
X-36343692Y59234297D01*
X-36319403Y59237894D01*
X-36295067Y59241150D01*
X-36270688Y59244064D01*
X-36246272Y59246636D01*
X-36221822Y59248866D01*
X-36197342Y59250753D01*
X-36172838Y59252297D01*
X-36148313Y59253499D01*
X-36123771Y59254357D01*
X-36099218Y59254872D01*
X-36074657Y59255044D01*
X-30193877Y59255044D01*
X-30169358Y59253850D01*
G37*
D12*
X16510000Y46355000D03*
D13*
X13970000Y46355000D03*
X11430000Y46355000D03*
X8890000Y46355000D03*
X6350000Y46355000D03*
X3810000Y46355000D03*
X1270000Y46355000D03*
X-1270000Y46355000D03*
X-3810000Y46355000D03*
X-6350000Y46355000D03*
X-8890000Y46355000D03*
X-11430000Y46355000D03*
X-13970000Y46355000D03*
X-16510000Y46355000D03*
X-16510000Y38735000D03*
X-13970000Y38735000D03*
X-11430000Y38735000D03*
X-8890000Y38735000D03*
X-6350000Y38735000D03*
X-3810000Y38735000D03*
X-1270000Y38735000D03*
X1270000Y38735000D03*
X3810000Y38735000D03*
X6350000Y38735000D03*
X8890000Y38735000D03*
X11430000Y38735000D03*
X13970000Y38735000D03*
X16510000Y38735000D03*
D14*
X-22860000Y51435000D03*
D13*
X-22860000Y46355000D03*
D14*
X-25400000Y54991000D03*
D13*
X-20320000Y54991000D03*
D14*
X-25400000Y57531000D03*
D13*
X-20320000Y57531000D03*
D14*
X35560000Y43815000D03*
D13*
X35560000Y38735000D03*
D14*
X-35560000Y43815000D03*
D13*
X-35560000Y38735000D03*
D14*
X-20320000Y43815000D03*
D13*
X-20320000Y38735000D03*
D14*
X-22860000Y43815000D03*
D13*
X-22860000Y38735000D03*
D14*
X22860000Y43815000D03*
D13*
X22860000Y38735000D03*
D14*
X-30480000Y43815000D03*
D13*
X-30480000Y38735000D03*
D14*
X-25400000Y43815000D03*
D13*
X-25400000Y38735000D03*
D14*
X25400000Y43815000D03*
D13*
X25400000Y38735000D03*
D14*
X30480000Y43815000D03*
D13*
X30480000Y38735000D03*
D14*
X-27940000Y43815000D03*
D13*
X-27940000Y38735000D03*
D14*
X27940000Y43815000D03*
D13*
X27940000Y38735000D03*
D15*
X-26035000Y33655000D03*
X-32385000Y31115000D03*
X-6985000Y33655000D03*
X-13335000Y31115000D03*
X12065000Y33655000D03*
X5715000Y31115000D03*
X31115000Y33655000D03*
X24765000Y31115000D03*
X-26035000Y14605000D03*
X-32385000Y12065000D03*
X-6985000Y14605000D03*
X-13335000Y12065000D03*
X12065000Y14605000D03*
X5715000Y12065000D03*
X23495000Y2540000D03*
X26035000Y-3810000D03*
X-26035000Y-4445000D03*
X-32385000Y-6985000D03*
X-6985000Y-4445000D03*
X-13335000Y-6985000D03*
X12065000Y-4445000D03*
X5715000Y-6985000D03*
X-26035000Y-23495000D03*
X-32385000Y-26035000D03*
X-6985000Y-23495000D03*
X-13335000Y-26035000D03*
X12065000Y-23495000D03*
X5715000Y-26035000D03*
X23495000Y-35560000D03*
X26035000Y-41910000D03*
X-16510000Y-42545000D03*
X-22860000Y-45085000D03*
X12065000Y-42545000D03*
X5715000Y-45085000D03*
D16*
X22860000Y51435000D03*
D17*
X22860000Y46355000D03*
D16*
X12065000Y56261000D03*
D17*
X6985000Y56261000D03*
D16*
X12065000Y58420000D03*
D17*
X6985000Y58420000D03*
D16*
X20320000Y46355000D03*
D17*
X20320000Y51435000D03*
D16*
X11430000Y53848000D03*
D17*
X11430000Y48768000D03*
D18*
X35814000Y48895000D03*
X-35814000Y48895000D03*
D14*
X13970000Y53848000D03*
D13*
X13970000Y48768000D03*
D19*
X-25504000Y51363000D03*
X-32004000Y51363000D03*
X-25504000Y46863000D03*
X-32004000Y46863000D03*
D14*
X20320000Y43815000D03*
D13*
X20320000Y38735000D03*
D14*
X-20320000Y46355000D03*
X-20320000Y51355000D03*
D20*
X20447000Y55118000D03*
D21*
X20447000Y57658000D03*
X22987000Y55118000D03*
X22987000Y57658000D03*
X25527000Y55118000D03*
X25527000Y57658000D03*
D22*
X2975000Y53900000D03*
X2125000Y53900000D03*
X1275000Y53900000D03*
X425000Y53900000D03*
X-425000Y53900000D03*
X-1275000Y53900000D03*
X-2125000Y53900000D03*
X-2975000Y53900000D03*
X-2975000Y55450000D03*
X-2125000Y55450000D03*
X-1275000Y55450000D03*
X-425000Y55450000D03*
X425000Y55450000D03*
X1275000Y55450000D03*
X2125000Y55450000D03*
X2975000Y55450000D03*
D23*
X4325000Y54980000D03*
X-4325000Y54980000D03*
D24*
X4325000Y58360000D03*
X-4325000Y58360000D03*
D14*
X16510000Y53848000D03*
D13*
X16510000Y48768000D03*
D14*
X33020000Y43815000D03*
D13*
X33020000Y38735000D03*
D16*
X8890000Y48768000D03*
D17*
X8890000Y53848000D03*
D14*
X-33020000Y43815000D03*
D13*
X-33020000Y38735000D03*
D18*
X-32385000Y-19050000D03*
X0Y-47625000D03*
X32385000Y-19050000D03*
D19*
X25504000Y51363000D03*
X32004000Y51363000D03*
X25504000Y46863000D03*
X32004000Y46863000D03*
D16*
X-17070000Y54152800D03*
D17*
X-17070000Y49072800D03*
D25*
X-12246000Y50292000D03*
X-7366000Y50292000D03*
D14*
X-12246000Y54000000D03*
X-14746000Y54000000D03*
D26*
X4572000Y50165000D03*
D27*
X6072000Y50165000D03*
D14*
X2032000Y51435000D03*
X-2968000Y51435000D03*
X2032000Y48768000D03*
X-2968000Y48768000D03*
X-7366000Y54000000D03*
X-9866000Y54000000D03*
D28*
X-7366000Y57404000D03*
D29*
X-9906000Y57404000D03*
D30*
X-11557000Y43815000D03*
X3810000Y44450000D03*
X8890000Y43053000D03*
X-10795000Y43053000D03*
X-10033000Y42291000D03*
X6350000Y42291000D03*
X18542000Y40640000D03*
X3810000Y41529000D03*
X-9271000Y41529000D03*
X18542000Y42037000D03*
X1270000Y44450000D03*
D31*
X-27910000Y45085000D02*
X-24958427Y45085000D01*
X-29210000Y37603708D02*
X-29210000Y43785000D01*
X-23544213Y45670787D02*
X-22860000Y46355000D01*
X-32385000Y31115000D02*
X-31553146Y31946854D01*
X-29210000Y43785000D02*
G75*
G02*
X-27910000Y45085000I1299999J1D01*
G01*
X-31553146Y31946854D02*
G75*
G03*
X-29210000Y37603708I-5656857J5656856D01*
G01*
X-23544213Y45670787D02*
G75*
G02*
X-24958427Y45085000I-1414214J1414213D01*
G01*
X-22860000Y53480680D02*
X-22860000Y51435000D01*
X-12419223Y47344223D02*
X-11430000Y46355000D01*
X-20606173Y47930010D02*
X-13833437Y47930010D01*
X-22860000Y51435000D02*
X-22860000Y50183837D01*
X-23309660Y54551660D02*
X-23299340Y54541340D01*
X-24370320Y54991000D02*
X-25400000Y54991000D01*
X-25400000Y57531000D02*
X-25400000Y54991000D01*
X-22274213Y48769623D02*
X-22020386Y48515796D01*
X-22274213Y48769623D02*
G75*
G02*
X-22860000Y50183837I1414213J1414214D01*
G01*
X-22020386Y48515796D02*
G75*
G03*
X-20606173Y47930010I1414213J1414214D01*
G01*
X-13833437Y47930009D02*
G75*
G02*
X-12419224Y47344222I0J-1999999D01*
G01*
X-24370320Y54990999D02*
G75*
G02*
X-23309661Y54551659I-1J-1500001D01*
G01*
X-22860001Y53480680D02*
G75*
G03*
X-23299341Y54541339I-1500001J-1D01*
G01*
X24138982Y45184984D02*
X24099024Y45145026D01*
X30616563Y45390010D02*
X24633957Y45390010D01*
X4244637Y44677530D02*
X19043256Y44677530D01*
X21859215Y44940001D02*
X23604050Y44940001D01*
X20320000Y43815000D02*
X21152108Y44647108D01*
X-12114833Y43257167D02*
X-11557000Y43815000D01*
X33020000Y43815000D02*
X32030777Y44804223D01*
X19750363Y44384637D02*
X20320000Y43815000D01*
X3810000Y44450000D02*
X3891084Y44531084D01*
X-19437902Y43140009D02*
X-12397676Y43140009D01*
X-20320000Y43815000D02*
X-19791455Y43286455D01*
X19750363Y44384637D02*
G75*
G03*
X19043256Y44677530I-707104J-707101D01*
G01*
X24099024Y45145026D02*
G75*
G02*
X23604050Y44940001I-494973J494971D01*
G01*
X-12114833Y43257167D02*
G75*
G02*
X-12397676Y43140009I-282841J282835D01*
G01*
X24633957Y45390010D02*
G75*
G03*
X24138982Y45184984I2J-700002D01*
G01*
X30616563Y45390009D02*
G75*
G02*
X32030776Y44804222I0J-1999999D01*
G01*
X3891084Y44531084D02*
G75*
G02*
X4244637Y44677530I353553J-353556D01*
G01*
X-19791455Y43286455D02*
G75*
G03*
X-19437902Y43140009I353553J353556D01*
G01*
X21859215Y44940000D02*
G75*
G03*
X21152109Y44647107I-3J-999993D01*
G01*
X9429214Y39274214D02*
X8890000Y38735000D01*
X-20906572Y42689999D02*
X-11323686Y42689999D01*
X-11040843Y42807157D02*
X-10795000Y43053000D01*
X8890000Y38735000D02*
X8890000Y43053000D01*
X22142411Y40633611D02*
X22086389Y40577589D01*
X22860000Y43815000D02*
X22860000Y42366023D01*
X-22860000Y43815000D02*
X-22320785Y43275785D01*
X20353978Y39860001D02*
X10843428Y39860001D01*
X22142411Y40633611D02*
G75*
G03*
X22860000Y42366023I-1732406J1732410D01*
G01*
X22086389Y40577589D02*
G75*
G02*
X20353978Y39860001I-1732411J1732411D01*
G01*
X9429214Y39274214D02*
G75*
G02*
X10843428Y39860001I1414214J-1414213D01*
G01*
X-11323686Y42690000D02*
G75*
G03*
X-11040844Y42807158I-2J400003D01*
G01*
X-22320785Y43275785D02*
G75*
G03*
X-20906572Y42689999I1414213J1414214D01*
G01*
X-10084010Y42239990D02*
X-10033000Y42291000D01*
X7075478Y43016478D02*
X6350000Y42291000D01*
X-25400000Y43815000D02*
X-24410776Y42825776D01*
X6350000Y38735000D02*
X6350000Y42291000D01*
X18542000Y40640000D02*
X16165521Y43016479D01*
X27353428Y44940001D02*
X28526572Y44940001D01*
X-22996563Y42239990D02*
X-10084010Y42239990D01*
X29940786Y44354214D02*
X30480000Y43815000D01*
X14327044Y43778001D02*
X8913956Y43778001D01*
X25400000Y43815000D02*
X25939215Y44354215D01*
X-22996563Y42239991D02*
G75*
G02*
X-24410775Y42825777I0J1999999D01*
G01*
X27353428Y44940000D02*
G75*
G03*
X25939216Y44354214I0J-1999999D01*
G01*
X28526572Y44940000D02*
G75*
G02*
X29940785Y44354213I0J-1999999D01*
G01*
X14327044Y43778001D02*
G75*
G02*
X16165521Y43016479I1J-2599996D01*
G01*
X8913956Y43778000D02*
G75*
G03*
X7075479Y43016477I3J-2600006D01*
G01*
X-27940000Y43815000D02*
X-26500766Y42375766D01*
X-25086553Y41789980D02*
X-10960685Y41789980D01*
X3810000Y38735000D02*
X3810000Y41529000D01*
X-10677842Y41672822D02*
X-10651177Y41646157D01*
X3810000Y41529000D02*
X5630331Y43349331D01*
X7751651Y44228010D02*
X15108349Y44228010D01*
X-10368335Y41529000D02*
X-9271000Y41529000D01*
X17229670Y43349330D02*
X18542000Y42037000D01*
X-10677842Y41672822D02*
G75*
G03*
X-10960685Y41789980I-282841J-282835D01*
G01*
X17229670Y43349330D02*
G75*
G03*
X15108349Y44228010I-2121323J-2121325D01*
G01*
X7751651Y44228010D02*
G75*
G03*
X5630331Y43349331I-1J-2999998D01*
G01*
X-25086553Y41789981D02*
G75*
G02*
X-26500765Y42375767I0J1999999D01*
G01*
X-10368335Y41529001D02*
G75*
G02*
X-10651177Y41646157I-1J399997D01*
G01*
D32*
X4325000Y54980000D02*
X6751573Y54980000D01*
X-7615573Y52578000D02*
X-4892427Y52578000D01*
X-4325000Y54980000D02*
X-4325000Y58360000D01*
X-19441320Y53968680D02*
X-18955573Y54454427D01*
X2975000Y54000000D02*
X2975000Y55350000D01*
X-2975000Y54000000D02*
X-2975000Y55350000D01*
X-3478213Y53163787D02*
X-2975000Y53667000D01*
X9689427Y56261000D02*
X12065000Y56261000D01*
X13451680Y49286320D02*
X13970000Y48768000D01*
X-3052107Y55272893D02*
X-2975000Y55350000D01*
X-4527786Y54980000D02*
X-4325000Y54980000D01*
X-20320000Y51355000D02*
X-20320000Y51847359D01*
X1270000Y44450000D02*
X1270000Y38735000D01*
X32004000Y46863000D02*
X25504000Y46863000D01*
X-9866000Y54000000D02*
X-9029786Y53163786D01*
X-32004000Y46863000D02*
X-25504000Y46863000D01*
X-2975000Y53667000D02*
X-2975000Y54000000D01*
X4325000Y54980000D02*
X3759214Y54980000D01*
X8165787Y55565787D02*
X8275214Y55675214D01*
X4325000Y58360000D02*
X-4325000Y58360000D01*
X3052107Y55272893D02*
X2975000Y55350000D01*
X-7972427Y56797573D02*
X-7366000Y57404000D01*
X4325000Y58360000D02*
X4325000Y54980000D01*
X-4325000Y54980000D02*
X-3759214Y54980000D01*
X-16127146Y55626000D02*
X-10800854Y55626000D01*
X6072000Y50165000D02*
X11330359Y50165000D01*
X-7366000Y57404000D02*
X-5234893Y55272893D01*
X8275214Y55675214D02*
G75*
G02*
X9689427Y56261000I1414213J-1414214D01*
G01*
X8165787Y55565787D02*
G75*
G02*
X6751573Y54980000I-1414214J1414213D01*
G01*
X-7615573Y52578001D02*
G75*
G02*
X-9029785Y53163787I0J1999999D01*
G01*
X-18955573Y54454427D02*
G75*
G02*
X-16127146Y55626000I2828427J-2828426D01*
G01*
X-4892427Y52578001D02*
G75*
G03*
X-3478214Y53163788I0J1999999D01*
G01*
X-4527786Y54980001D02*
G75*
G02*
X-5234892Y55272894I-3J999993D01*
G01*
X-19441320Y53968680D02*
G75*
G03*
X-20320000Y51847359I2121325J-2121323D01*
G01*
X3052107Y55272893D02*
G75*
G03*
X3759214Y54980000I707106J707106D01*
G01*
X-3759214Y54980001D02*
G75*
G03*
X-3052108Y55272894I3J999993D01*
G01*
X-7972427Y56797573D02*
G75*
G02*
X-10800854Y55626000I-2828427J2828426D01*
G01*
X13451680Y49286320D02*
G75*
G03*
X11330359Y50165000I-2121323J-2121325D01*
G01*
D33*
X8890000Y53848000D02*
X8278275Y53236275D01*
X5141489Y52180966D02*
X5141489Y52350489D01*
D31*
X17625641Y51435000D02*
X20320000Y51435000D01*
X8890000Y53848000D02*
X9622108Y53115892D01*
X13237892Y53115892D02*
X13970000Y53848000D01*
D33*
X5741489Y52350489D02*
X5741489Y52180966D01*
X3641489Y52650489D02*
X3591489Y52650489D01*
D31*
X10329215Y52822999D02*
X12530785Y52822999D01*
X13970000Y53848000D02*
X15504321Y52313679D01*
D33*
X4541489Y52350489D02*
X4541489Y52180966D01*
X6864062Y52650489D02*
X6041489Y52650489D01*
X-425000Y53400489D02*
X-425000Y54000000D01*
X3591489Y52650489D02*
X325000Y52650489D01*
X3941489Y52180966D02*
X3941489Y52350489D01*
D31*
X15504321Y52313679D02*
G75*
G03*
X17625641Y51435000I2121319J2121319D01*
G01*
D33*
X5741489Y52350489D02*
G75*
G02*
X6041489Y52650489I300000J0D01*
G01*
X5141489Y52180966D02*
G75*
G03*
X5441489Y51880966I300000J0D01*
G01*
D31*
X10329215Y52823000D02*
G75*
G02*
X9622109Y53115893I-3J999993D01*
G01*
D33*
X3641489Y52650489D02*
G75*
G02*
X3941489Y52350489I0J-300000D01*
G01*
X325000Y52650489D02*
G75*
G02*
X-425000Y53400489I0J750000D01*
G01*
X4241489Y51880966D02*
G75*
G03*
X4541489Y52180966I0J300000D01*
G01*
X4841489Y52650489D02*
G75*
G02*
X5141489Y52350489I0J-300000D01*
G01*
X3941489Y52180966D02*
G75*
G03*
X4241489Y51880966I300000J0D01*
G01*
D31*
X12530785Y52823000D02*
G75*
G03*
X13237891Y53115893I3J999993D01*
G01*
D33*
X4541489Y52350489D02*
G75*
G02*
X4841489Y52650489I300000J0D01*
G01*
X5441489Y51880966D02*
G75*
G03*
X5741489Y52180966I0J300000D01*
G01*
X8278275Y53236275D02*
G75*
G02*
X6864062Y52650489I-1414213J1414214D01*
G01*
D31*
X18266320Y45220000D02*
X20482359Y45220000D01*
X25504000Y55095000D02*
X25527000Y55118000D01*
X16510000Y46355000D02*
X17205660Y45659340D01*
X25504000Y51363000D02*
X25504000Y55095000D01*
X25504000Y51363000D02*
X32004000Y51363000D01*
X25504000Y50241641D02*
X25504000Y51363000D01*
X22860000Y46355000D02*
X24625321Y48120321D01*
X22603680Y46098680D02*
X22860000Y46355000D01*
X24625321Y48120321D02*
G75*
G03*
X25504000Y50241641I-2121319J2121319D01*
G01*
X22603680Y46098680D02*
G75*
G02*
X20482359Y45220000I-2121323J2121325D01*
G01*
X18266320Y45220001D02*
G75*
G02*
X17205661Y45659341I1J1500001D01*
G01*
D34*
X4572000Y50165000D02*
X5718023Y49018977D01*
X9253557Y47554511D02*
X18292062Y47554511D01*
D32*
X-18018373Y44881800D02*
X-1031627Y44881800D01*
D34*
X22860000Y51435000D02*
X22860000Y50137641D01*
X21717000Y54313014D02*
X21717000Y55973786D01*
X21981320Y48016320D02*
X20320000Y46355000D01*
X21424107Y56680893D02*
X20447000Y57658000D01*
X19706276Y46968724D02*
X20320000Y46355000D01*
X22860000Y51435000D02*
X22860000Y52341586D01*
X22567107Y53048693D02*
X22009893Y53605907D01*
D32*
X382587Y45467587D02*
X1270000Y46355000D01*
X-20320000Y46355000D02*
X-19432586Y45467586D01*
X-3810000Y38735000D02*
X-3810000Y44881800D01*
D34*
X18292062Y47554510D02*
G75*
G02*
X19706275Y46968723I0J-1999999D01*
G01*
X21981320Y48016320D02*
G75*
G03*
X22860000Y50137641I-2121325J2121323D01*
G01*
X22859999Y52341586D02*
G75*
G03*
X22567106Y53048692I-999993J3D01*
G01*
D32*
X-1031627Y44881801D02*
G75*
G03*
X382586Y45467588I0J1999999D01*
G01*
D34*
X9253557Y47554511D02*
G75*
G02*
X5718023Y49018977I-1J4999998D01*
G01*
D32*
X-18018373Y44881801D02*
G75*
G02*
X-19432585Y45467587I0J1999999D01*
G01*
D34*
X21717001Y54313014D02*
G75*
G03*
X22009894Y53605908I999993J-3D01*
G01*
X21424107Y56680893D02*
G75*
G02*
X21717000Y55973786I-707106J-707106D01*
G01*
D31*
X-26035000Y33655000D02*
X-26035000Y14605000D01*
X-23691854Y-35363146D02*
X-16510000Y-42545000D01*
X-18608427Y37465000D02*
X-23035000Y37465000D01*
X-16510000Y38735000D02*
X-17194214Y38050786D01*
X-26035000Y-23495000D02*
X-26035000Y-29706292D01*
X-26035000Y-4445000D02*
X-26035000Y-23495000D01*
X-26035000Y14605000D02*
X-26035000Y-4445000D01*
X-26035000Y34465000D02*
X-26035000Y33655000D01*
X-23035000Y37465000D02*
G75*
G03*
X-26035000Y34465000I1J-3000001D01*
G01*
X-18608427Y37465001D02*
G75*
G03*
X-17194215Y38050787I0J1999999D01*
G01*
X-23691854Y-35363146D02*
G75*
G02*
X-26035000Y-29706292I5656857J5656856D01*
G01*
X-11871573Y37465000D02*
X-9985000Y37465000D01*
X-6985000Y33655000D02*
X-6985000Y14605000D01*
X-6985000Y10324666D02*
X-6985000Y-4445000D01*
X-6985000Y34465000D02*
X-6985000Y33655000D01*
X-6985000Y-4445000D02*
X-6985000Y-23495000D01*
X-6985000Y14605000D02*
X-6985000Y10324666D01*
X-13970000Y38735000D02*
X-13285786Y38050786D01*
X-13285786Y38050786D02*
G75*
G03*
X-11871573Y37465000I1414213J1414214D01*
G01*
X-6985000Y34465000D02*
G75*
G03*
X-9985000Y37465000I-3000001J-1D01*
G01*
X12065000Y33655000D02*
X12065000Y14605000D01*
X13970000Y38735000D02*
X13236573Y38001573D01*
X12065000Y-4445000D02*
X12065000Y14605000D01*
X12065000Y35173146D02*
X12065000Y33655000D01*
X12065000Y-23495000D02*
X12065000Y-4445000D01*
X12065000Y-42545000D02*
X12065000Y-23495000D01*
X13236573Y38001573D02*
G75*
G03*
X12065000Y35173146I2828426J-2828427D01*
G01*
X23495000Y2540000D02*
X23495000Y-35560000D01*
X23495000Y5576292D02*
X23495000Y2540000D01*
X31115000Y33655000D02*
X31115000Y19823708D01*
X28771854Y14166854D02*
X25838146Y11233146D01*
X31115000Y34465000D02*
X31115000Y33655000D01*
X16510000Y38735000D02*
X17194214Y38050786D01*
X18608427Y37465000D02*
X28115000Y37465000D01*
X23495000Y5576292D02*
G75*
G02*
X25838146Y11233146I8000003J-2D01*
G01*
X31115000Y19823708D02*
G75*
G02*
X28771854Y14166854I-8000003J2D01*
G01*
X17194214Y38050786D02*
G75*
G03*
X18608427Y37465000I1414213J1414214D01*
G01*
X31115000Y34465000D02*
G75*
G03*
X28115000Y37465000I-3000001J-1D01*
G01*
D33*
X10016275Y54847511D02*
X8652725Y54847511D01*
D31*
X12969215Y54973001D02*
X14970785Y54973001D01*
D33*
X5663053Y53100480D02*
X725000Y53100480D01*
D31*
X-425000Y55111200D02*
X425000Y54261200D01*
D33*
X11430000Y53848000D02*
X10723382Y54554618D01*
X7945618Y54554618D02*
X7077266Y53686266D01*
D31*
X425000Y54261200D02*
X425000Y54000000D01*
X11430000Y53848000D02*
X12262108Y54680108D01*
D33*
X425000Y53400480D02*
X425000Y54000000D01*
D31*
X15677892Y54680108D02*
X16510000Y53848000D01*
X-425000Y55350000D02*
X-425000Y55111200D01*
X12969215Y54973000D02*
G75*
G03*
X12262109Y54680107I-3J-999993D01*
G01*
D33*
X725000Y53100480D02*
G75*
G02*
X425000Y53400480I0J300000D01*
G01*
X5663053Y53100481D02*
G75*
G03*
X7077265Y53686267I0J1999999D01*
G01*
X10016275Y54847510D02*
G75*
G02*
X10723381Y54554617I3J-999993D01*
G01*
D31*
X14970785Y54973000D02*
G75*
G02*
X15677891Y54680107I3J-999993D01*
G01*
D33*
X8652725Y54847510D02*
G75*
G03*
X7945619Y54554617I-3J-999993D01*
G01*
D32*
X-2125000Y55350000D02*
X-2125000Y56015000D01*
X-1625000Y56515000D02*
X1625000Y56515000D01*
X2125000Y56015000D02*
X2125000Y55350000D01*
X1625000Y56515000D02*
G75*
G02*
X2125000Y56015000I-1J-500001D01*
G01*
X-1625000Y56515000D02*
G75*
G03*
X-2125000Y56015000I1J-500001D01*
G01*
D31*
X-22338590Y48197590D02*
X-25504000Y51363000D01*
X-25504000Y51363000D02*
X-32004000Y51363000D01*
X-14509214Y46894214D02*
X-13970000Y46355000D01*
X-15923428Y47480001D02*
X-20606178Y47480001D01*
X-20606178Y47480002D02*
G75*
G02*
X-22338589Y48197591I-2J2449994D01*
G01*
X-15923428Y47480000D02*
G75*
G02*
X-14509215Y46894213I0J-1999999D01*
G01*
M02*
