M48
; DRILL file {KiCad (6.0.2)} date Wed Mar 23 17:53:40 2022
; FORMAT={-:-/ absolute / metric / decimal}
; #@! TF.CreationDate,2022-03-23T17:53:40-04:00
; #@! TF.GenerationSoftware,Kicad,Pcbnew,(6.0.2)
; #@! TF.FileFunction,MixedPlating,1,2
FMAT,2
METRIC
; #@! TA.AperFunction,Plated,PTH,ViaDrill
T1C0.400
; #@! TA.AperFunction,Plated,PTH,ComponentDrill
T2C0.400
; #@! TA.AperFunction,Plated,PTH,ComponentDrill
T3C0.600
; #@! TA.AperFunction,Plated,PTH,ComponentDrill
T4C0.700
; #@! TA.AperFunction,Plated,PTH,ComponentDrill
T5C0.800
; #@! TA.AperFunction,Plated,PTH,ComponentDrill
T6C0.900
; #@! TA.AperFunction,Plated,PTH,ComponentDrill
T7C1.000
; #@! TA.AperFunction,Plated,PTH,ComponentDrill
T8C1.100
; #@! TA.AperFunction,Plated,PTH,ComponentDrill
T9C1.499
; #@! TA.AperFunction,Plated,PTH,ComponentDrill
T10C2.200
; #@! TA.AperFunction,NonPlated,NPTH,ComponentDrill
T11C1.702
; #@! TA.AperFunction,NonPlated,NPTH,ComponentDrill
T12C3.048
; #@! TA.AperFunction,NonPlated,NPTH,ComponentDrill
T13C3.988
%
G90
G05
T1
X-11.557Y43.815
X-10.795Y43.053
X-10.033Y42.291
X-9.271Y41.529
X1.27Y44.45
X3.81Y44.45
X3.81Y41.529
X6.35Y42.291
X8.89Y43.053
X18.542Y42.037
X18.542Y40.64
T2
X-2.975Y55.35
X-2.975Y54.0
X-2.125Y55.35
X-2.125Y54.0
X-1.275Y55.35
X-1.275Y54.0
X-0.425Y55.35
X-0.425Y54.0
X0.425Y55.35
X0.425Y54.0
X1.275Y55.35
X1.275Y54.0
X2.125Y55.35
X2.125Y54.0
X2.975Y55.35
X2.975Y54.0
T3
X4.572Y50.165
X6.072Y50.165
T4
X-17.07Y54.153
X-17.07Y49.073
X6.985Y58.42
X6.985Y56.261
X8.89Y53.848
X8.89Y48.768
X11.43Y53.848
X11.43Y48.768
X12.065Y58.42
X12.065Y56.261
X20.32Y51.435
X20.32Y46.355
X22.86Y51.435
X22.86Y46.355
T5
X-35.56Y43.815
X-35.56Y38.735
X-33.02Y43.815
X-33.02Y38.735
X-30.48Y43.815
X-30.48Y38.735
X-27.94Y43.815
X-27.94Y38.735
X-25.4Y57.531
X-25.4Y54.991
X-25.4Y43.815
X-25.4Y38.735
X-22.86Y51.435
X-22.86Y46.355
X-22.86Y43.815
X-22.86Y38.735
X-20.32Y57.531
X-20.32Y54.991
X-20.32Y51.355
X-20.32Y46.355
X-20.32Y43.815
X-20.32Y38.735
X-16.51Y46.355
X-16.51Y38.735
X-14.746Y54.0
X-13.97Y46.355
X-13.97Y38.735
X-12.246Y54.0
X-12.246Y50.292
X-11.43Y46.355
X-11.43Y38.735
X-9.866Y54.0
X-8.89Y46.355
X-8.89Y38.735
X-7.366Y54.0
X-7.366Y50.292
X-6.35Y46.355
X-6.35Y38.735
X-3.81Y46.355
X-3.81Y38.735
X-2.968Y51.435
X-2.968Y48.768
X-1.27Y46.355
X-1.27Y38.735
X1.27Y46.355
X1.27Y38.735
X2.032Y51.435
X2.032Y48.768
X3.81Y46.355
X3.81Y38.735
X6.35Y46.355
X6.35Y38.735
X8.89Y46.355
X8.89Y38.735
X11.43Y46.355
X11.43Y38.735
X13.97Y53.848
X13.97Y48.768
X13.97Y46.355
X13.97Y38.735
X16.51Y53.848
X16.51Y48.768
X16.51Y46.355
X16.51Y38.735
X20.32Y43.815
X20.32Y38.735
X22.86Y43.815
X22.86Y38.735
X25.4Y43.815
X25.4Y38.735
X27.94Y43.815
X27.94Y38.735
X30.48Y43.815
X30.48Y38.735
X33.02Y43.815
X33.02Y38.735
X35.56Y43.815
X35.56Y38.735
T6
X-9.906Y57.404
X-7.366Y57.404
T7
X20.447Y57.658
X20.447Y55.118
X22.987Y57.658
X22.987Y55.118
X25.527Y57.658
X25.527Y55.118
T8
X-32.004Y51.363
X-32.004Y46.863
X-25.504Y51.363
X-25.504Y46.863
X25.504Y51.363
X25.504Y46.863
X32.004Y51.363
X32.004Y46.863
T9
X-32.385Y31.115
X-32.385Y12.065
X-32.385Y-6.985
X-32.385Y-26.035
X-26.035Y33.655
X-26.035Y14.605
X-26.035Y-4.445
X-26.035Y-23.495
X-22.86Y-45.085
X-16.51Y-42.545
X-13.335Y31.115
X-13.335Y12.065
X-13.335Y-6.985
X-13.335Y-26.035
X-6.985Y33.655
X-6.985Y14.605
X-6.985Y-4.445
X-6.985Y-23.495
X5.715Y31.115
X5.715Y12.065
X5.715Y-6.985
X5.715Y-26.035
X5.715Y-45.085
X12.065Y33.655
X12.065Y14.605
X12.065Y-4.445
X12.065Y-23.495
X12.065Y-42.545
X23.495Y2.54
X23.495Y-35.56
X24.765Y31.115
X26.035Y-3.81
X26.035Y-41.91
X31.115Y33.655
T10
X-35.814Y48.895
X-32.385Y-19.05
X0.0Y-47.625
X32.385Y-19.05
X35.814Y48.895
T11
X-33.655Y28.575
X-33.655Y9.525
X-33.655Y-9.525
X-33.655Y-28.575
X-24.13Y-47.625
X-23.495Y28.575
X-23.495Y9.525
X-23.495Y-9.525
X-23.495Y-28.575
X-14.605Y28.575
X-14.605Y9.525
X-14.605Y-9.525
X-14.605Y-28.575
X-13.97Y-47.625
X-4.445Y28.575
X-4.445Y9.525
X-4.445Y-9.525
X-4.445Y-28.575
X4.445Y28.575
X4.445Y9.525
X4.445Y-9.525
X4.445Y-28.575
X4.445Y-47.625
X14.605Y28.575
X14.605Y9.525
X14.605Y-9.525
X14.605Y-28.575
X14.605Y-47.625
X23.495Y28.575
X28.575Y5.08
X28.575Y-5.08
X28.575Y-33.02
X28.575Y-43.18
X33.655Y28.575
T12
X-30.95Y-54.61
X-7.15Y-54.61
X35.56Y11.9
X35.56Y-11.9
X35.56Y-26.2
X35.56Y-50.0
T13
X-30.95Y-39.37
X-28.575Y28.575
X-28.575Y9.525
X-28.575Y-9.525
X-28.575Y-28.575
X-19.05Y-47.625
X-9.525Y28.575
X-9.525Y9.525
X-9.525Y-9.525
X-9.525Y-28.575
X-7.15Y-39.37
X9.525Y28.575
X9.525Y9.525
X9.525Y-9.525
X9.525Y-28.575
X9.525Y-47.625
X20.32Y11.9
X20.32Y-11.9
X20.32Y-26.2
X20.32Y-50.0
X28.575Y28.575
X28.575Y0.0
X28.575Y-38.1
T3
X-4.325Y57.96G85X-4.325Y58.76
G05
X-4.325Y54.23G85X-4.325Y55.73
G05
X4.325Y57.96G85X4.325Y58.76
G05
X4.325Y54.23G85X4.325Y55.73
G05
T0
M30
