%TF.GenerationSoftware,KiCad,Pcbnew,(6.0.2)*%
%TF.CreationDate,2022-03-24T22:39:17-04:00*%
%TF.ProjectId,RYCpad_pcb,52594370-6164-45f7-9063-622e6b696361,rev?*%
%TF.SameCoordinates,Original*%
%TF.FileFunction,Soldermask,Bot*%
%TF.FilePolarity,Negative*%
%FSLAX46Y46*%
G04 Gerber Fmt 4.6, Leading zero omitted, Abs format (unit mm)*
G04 Created by KiCad (PCBNEW (6.0.2)) date 2022-03-24 22:39:17*
%MOMM*%
%LPD*%
G01*
G04 APERTURE LIST*
%ADD10C,3.048000*%
%ADD11C,3.987800*%
%ADD12R,1.600000X1.600000*%
%ADD13O,1.600000X1.600000*%
%ADD14C,1.600000*%
%ADD15C,1.701800*%
%ADD16C,2.286000*%
%ADD17C,1.400000*%
%ADD18O,1.400000X1.400000*%
%ADD19C,4.400000*%
%ADD20C,2.000000*%
%ADD21R,1.700000X1.700000*%
%ADD22O,1.700000X1.700000*%
%ADD23O,0.650000X1.000000*%
%ADD24O,0.900000X2.400000*%
%ADD25O,0.900000X1.700000*%
%ADD26C,1.500000*%
%ADD27R,1.200000X1.200000*%
%ADD28C,1.200000*%
%ADD29R,1.800000X1.800000*%
%ADD30C,1.800000*%
G04 APERTURE END LIST*
D10*
X35560000Y11900000D03*
D11*
X20320000Y11900000D03*
D10*
X35560000Y-11900000D03*
D11*
X20320000Y-11900000D03*
D10*
X35560000Y-50000000D03*
D11*
X20320000Y-50000000D03*
D10*
X35560000Y-26200000D03*
D11*
X20320000Y-26200000D03*
X-30950000Y-39370000D03*
D10*
X-7150000Y-54610000D03*
D11*
X-7150000Y-39370000D03*
D10*
X-30950000Y-54610000D03*
D12*
X16510000Y46355000D03*
D13*
X13970000Y46355000D03*
X11430000Y46355000D03*
X8890000Y46355000D03*
X6350000Y46355000D03*
X3810000Y46355000D03*
X1270000Y46355000D03*
X-1270000Y46355000D03*
X-3810000Y46355000D03*
X-6350000Y46355000D03*
X-8890000Y46355000D03*
X-11430000Y46355000D03*
X-13970000Y46355000D03*
X-16510000Y46355000D03*
X-16510000Y38735000D03*
X-13970000Y38735000D03*
X-11430000Y38735000D03*
X-8890000Y38735000D03*
X-6350000Y38735000D03*
X-3810000Y38735000D03*
X-1270000Y38735000D03*
X1270000Y38735000D03*
X3810000Y38735000D03*
X6350000Y38735000D03*
X8890000Y38735000D03*
X11430000Y38735000D03*
X13970000Y38735000D03*
X16510000Y38735000D03*
D14*
X-22860000Y51435000D03*
D13*
X-22860000Y46355000D03*
D14*
X-25400000Y54991000D03*
D13*
X-20320000Y54991000D03*
D14*
X-25400000Y57531000D03*
D13*
X-20320000Y57531000D03*
D14*
X35560000Y43815000D03*
D13*
X35560000Y38735000D03*
D14*
X-35560000Y43815000D03*
D13*
X-35560000Y38735000D03*
D14*
X-20320000Y43815000D03*
D13*
X-20320000Y38735000D03*
D14*
X-22860000Y43815000D03*
D13*
X-22860000Y38735000D03*
D14*
X22860000Y43815000D03*
D13*
X22860000Y38735000D03*
D14*
X-30480000Y43815000D03*
D13*
X-30480000Y38735000D03*
D14*
X-25400000Y43815000D03*
D13*
X-25400000Y38735000D03*
D14*
X25400000Y43815000D03*
D13*
X25400000Y38735000D03*
D14*
X30480000Y43815000D03*
D13*
X30480000Y38735000D03*
D14*
X-27940000Y43815000D03*
D13*
X-27940000Y38735000D03*
D14*
X27940000Y43815000D03*
D13*
X27940000Y38735000D03*
D11*
X-28575000Y28575000D03*
D15*
X-23495000Y28575000D03*
X-33655000Y28575000D03*
D16*
X-26035000Y33655000D03*
X-32385000Y31115000D03*
D15*
X-14605000Y28575000D03*
X-4445000Y28575000D03*
D11*
X-9525000Y28575000D03*
D16*
X-6985000Y33655000D03*
X-13335000Y31115000D03*
D15*
X14605000Y28575000D03*
X4445000Y28575000D03*
D11*
X9525000Y28575000D03*
D16*
X12065000Y33655000D03*
X5715000Y31115000D03*
D11*
X28575000Y28575000D03*
D15*
X23495000Y28575000D03*
X33655000Y28575000D03*
D16*
X31115000Y33655000D03*
X24765000Y31115000D03*
D15*
X-33655000Y9525000D03*
D11*
X-28575000Y9525000D03*
D15*
X-23495000Y9525000D03*
D16*
X-26035000Y14605000D03*
X-32385000Y12065000D03*
D15*
X-4445000Y9525000D03*
D11*
X-9525000Y9525000D03*
D15*
X-14605000Y9525000D03*
D16*
X-6985000Y14605000D03*
X-13335000Y12065000D03*
D15*
X14605000Y9525000D03*
X4445000Y9525000D03*
D11*
X9525000Y9525000D03*
D16*
X12065000Y14605000D03*
X5715000Y12065000D03*
D11*
X28575000Y0D03*
D15*
X28575000Y5080000D03*
X28575000Y-5080000D03*
D16*
X23495000Y2540000D03*
X26035000Y-3810000D03*
D11*
X-28575000Y-9525000D03*
D15*
X-33655000Y-9525000D03*
X-23495000Y-9525000D03*
D16*
X-26035000Y-4445000D03*
X-32385000Y-6985000D03*
D15*
X-14605000Y-9525000D03*
X-4445000Y-9525000D03*
D11*
X-9525000Y-9525000D03*
D16*
X-6985000Y-4445000D03*
X-13335000Y-6985000D03*
D11*
X9525000Y-9525000D03*
D15*
X14605000Y-9525000D03*
X4445000Y-9525000D03*
D16*
X12065000Y-4445000D03*
X5715000Y-6985000D03*
D15*
X-23495000Y-28575000D03*
X-33655000Y-28575000D03*
D11*
X-28575000Y-28575000D03*
D16*
X-26035000Y-23495000D03*
X-32385000Y-26035000D03*
D15*
X-4445000Y-28575000D03*
X-14605000Y-28575000D03*
D11*
X-9525000Y-28575000D03*
D16*
X-6985000Y-23495000D03*
X-13335000Y-26035000D03*
D15*
X4445000Y-28575000D03*
D11*
X9525000Y-28575000D03*
D15*
X14605000Y-28575000D03*
D16*
X12065000Y-23495000D03*
X5715000Y-26035000D03*
D11*
X28575000Y-38100000D03*
D15*
X28575000Y-33020000D03*
X28575000Y-43180000D03*
D16*
X23495000Y-35560000D03*
X26035000Y-41910000D03*
D15*
X-13970000Y-47625000D03*
D11*
X-19050000Y-47625000D03*
D15*
X-24130000Y-47625000D03*
D16*
X-16510000Y-42545000D03*
X-22860000Y-45085000D03*
D15*
X14605000Y-47625000D03*
D11*
X9525000Y-47625000D03*
D15*
X4445000Y-47625000D03*
D16*
X12065000Y-42545000D03*
X5715000Y-45085000D03*
D17*
X22860000Y51435000D03*
D18*
X22860000Y46355000D03*
D17*
X12065000Y56261000D03*
D18*
X6985000Y56261000D03*
D17*
X12065000Y58420000D03*
D18*
X6985000Y58420000D03*
D17*
X20320000Y46355000D03*
D18*
X20320000Y51435000D03*
D17*
X11430000Y53848000D03*
D18*
X11430000Y48768000D03*
D19*
X35814000Y48895000D03*
X-35814000Y48895000D03*
D14*
X13970000Y53848000D03*
D13*
X13970000Y48768000D03*
D20*
X-25504000Y51363000D03*
X-32004000Y51363000D03*
X-25504000Y46863000D03*
X-32004000Y46863000D03*
D14*
X20320000Y43815000D03*
D13*
X20320000Y38735000D03*
D14*
X-20320000Y46355000D03*
X-20320000Y51355000D03*
D21*
X20447000Y55118000D03*
D22*
X20447000Y57658000D03*
X22987000Y55118000D03*
X22987000Y57658000D03*
X25527000Y55118000D03*
X25527000Y57658000D03*
D23*
X2975000Y53900000D03*
X2125000Y53900000D03*
X1275000Y53900000D03*
X425000Y53900000D03*
X-425000Y53900000D03*
X-1275000Y53900000D03*
X-2125000Y53900000D03*
X-2975000Y53900000D03*
X-2975000Y55450000D03*
X-2125000Y55450000D03*
X-1275000Y55450000D03*
X-425000Y55450000D03*
X425000Y55450000D03*
X1275000Y55450000D03*
X2125000Y55450000D03*
X2975000Y55450000D03*
D24*
X4325000Y54980000D03*
X-4325000Y54980000D03*
D25*
X4325000Y58360000D03*
X-4325000Y58360000D03*
D14*
X16510000Y53848000D03*
D13*
X16510000Y48768000D03*
D14*
X33020000Y43815000D03*
D13*
X33020000Y38735000D03*
D17*
X8890000Y48768000D03*
D18*
X8890000Y53848000D03*
D14*
X-33020000Y43815000D03*
D13*
X-33020000Y38735000D03*
D19*
X-32385000Y-19050000D03*
X0Y-47625000D03*
X32385000Y-19050000D03*
D20*
X25504000Y51363000D03*
X32004000Y51363000D03*
X25504000Y46863000D03*
X32004000Y46863000D03*
D17*
X-17070000Y54152800D03*
D18*
X-17070000Y49072800D03*
D26*
X-12246000Y50292000D03*
X-7366000Y50292000D03*
D14*
X-12246000Y54000000D03*
X-14746000Y54000000D03*
D27*
X4572000Y50165000D03*
D28*
X6072000Y50165000D03*
D14*
X2032000Y51435000D03*
X-2968000Y51435000D03*
X2032000Y48768000D03*
X-2968000Y48768000D03*
X-7366000Y54000000D03*
X-9866000Y54000000D03*
D29*
X-7366000Y57404000D03*
D30*
X-9906000Y57404000D03*
M02*
