%TF.GenerationSoftware,KiCad,Pcbnew,(6.0.2)*%
%TF.CreationDate,2022-03-23T17:53:36-04:00*%
%TF.ProjectId,RYCpad_pcb,52594370-6164-45f7-9063-622e6b696361,rev?*%
%TF.SameCoordinates,Original*%
%TF.FileFunction,Legend,Top*%
%TF.FilePolarity,Positive*%
%FSLAX46Y46*%
G04 Gerber Fmt 4.6, Leading zero omitted, Abs format (unit mm)*
G04 Created by KiCad (PCBNEW (6.0.2)) date 2022-03-23 17:53:36*
%MOMM*%
%LPD*%
G01*
G04 APERTURE LIST*
%ADD10C,0.150000*%
%ADD11C,0.120000*%
%ADD12C,3.048000*%
%ADD13C,3.987800*%
%ADD14R,1.600000X1.600000*%
%ADD15O,1.600000X1.600000*%
%ADD16C,1.600000*%
%ADD17C,1.701800*%
%ADD18C,2.286000*%
%ADD19C,1.400000*%
%ADD20O,1.400000X1.400000*%
%ADD21C,4.400000*%
%ADD22C,2.000000*%
%ADD23R,1.700000X1.700000*%
%ADD24O,1.700000X1.700000*%
%ADD25O,0.650000X1.000000*%
%ADD26O,0.900000X2.400000*%
%ADD27O,0.900000X1.700000*%
%ADD28C,1.500000*%
%ADD29R,1.200000X1.200000*%
%ADD30C,1.200000*%
%ADD31R,1.800000X1.800000*%
%ADD32C,1.800000*%
G04 APERTURE END LIST*
D10*
X28392619Y52887619D02*
X28059285Y53363809D01*
X27821190Y52887619D02*
X27821190Y53887619D01*
X28202142Y53887619D01*
X28297380Y53840000D01*
X28345000Y53792380D01*
X28392619Y53697142D01*
X28392619Y53554285D01*
X28345000Y53459047D01*
X28297380Y53411428D01*
X28202142Y53363809D01*
X27821190Y53363809D01*
X28821190Y53411428D02*
X29154523Y53411428D01*
X29297380Y52887619D02*
X28821190Y52887619D01*
X28821190Y53887619D01*
X29297380Y53887619D01*
X29678333Y52935238D02*
X29821190Y52887619D01*
X30059285Y52887619D01*
X30154523Y52935238D01*
X30202142Y52982857D01*
X30249761Y53078095D01*
X30249761Y53173333D01*
X30202142Y53268571D01*
X30154523Y53316190D01*
X30059285Y53363809D01*
X29868809Y53411428D01*
X29773571Y53459047D01*
X29725952Y53506666D01*
X29678333Y53601904D01*
X29678333Y53697142D01*
X29725952Y53792380D01*
X29773571Y53840000D01*
X29868809Y53887619D01*
X30106904Y53887619D01*
X30249761Y53840000D01*
X30678333Y53411428D02*
X31011666Y53411428D01*
X31154523Y52887619D02*
X30678333Y52887619D01*
X30678333Y53887619D01*
X31154523Y53887619D01*
X31440238Y53887619D02*
X32011666Y53887619D01*
X31725952Y52887619D02*
X31725952Y53887619D01*
X-31710142Y53411428D02*
X-31567285Y53363809D01*
X-31519666Y53316190D01*
X-31472047Y53220952D01*
X-31472047Y53078095D01*
X-31519666Y52982857D01*
X-31567285Y52935238D01*
X-31662523Y52887619D01*
X-32043476Y52887619D01*
X-32043476Y53887619D01*
X-31710142Y53887619D01*
X-31614904Y53840000D01*
X-31567285Y53792380D01*
X-31519666Y53697142D01*
X-31519666Y53601904D01*
X-31567285Y53506666D01*
X-31614904Y53459047D01*
X-31710142Y53411428D01*
X-32043476Y53411428D01*
X-30853000Y53887619D02*
X-30662523Y53887619D01*
X-30567285Y53840000D01*
X-30472047Y53744761D01*
X-30424428Y53554285D01*
X-30424428Y53220952D01*
X-30472047Y53030476D01*
X-30567285Y52935238D01*
X-30662523Y52887619D01*
X-30853000Y52887619D01*
X-30948238Y52935238D01*
X-31043476Y53030476D01*
X-31091095Y53220952D01*
X-31091095Y53554285D01*
X-31043476Y53744761D01*
X-30948238Y53840000D01*
X-30853000Y53887619D01*
X-29805380Y53887619D02*
X-29614904Y53887619D01*
X-29519666Y53840000D01*
X-29424428Y53744761D01*
X-29376809Y53554285D01*
X-29376809Y53220952D01*
X-29424428Y53030476D01*
X-29519666Y52935238D01*
X-29614904Y52887619D01*
X-29805380Y52887619D01*
X-29900619Y52935238D01*
X-29995857Y53030476D01*
X-30043476Y53220952D01*
X-30043476Y53554285D01*
X-29995857Y53744761D01*
X-29900619Y53840000D01*
X-29805380Y53887619D01*
X-29091095Y53887619D02*
X-28519666Y53887619D01*
X-28805380Y52887619D02*
X-28805380Y53887619D01*
X7692000Y43775333D02*
X8168190Y43775333D01*
X7596761Y43489619D02*
X7930095Y44489619D01*
X8263428Y43489619D01*
X8453904Y44489619D02*
X9025333Y44489619D01*
X8739619Y43489619D02*
X8739619Y44489619D01*
X9358666Y43489619D02*
X9358666Y44489619D01*
X9692000Y43775333D01*
X10025333Y44489619D01*
X10025333Y43489619D01*
X10501523Y44013428D02*
X10834857Y44013428D01*
X10977714Y43489619D02*
X10501523Y43489619D01*
X10501523Y44489619D01*
X10977714Y44489619D01*
X11930095Y44442000D02*
X11834857Y44489619D01*
X11692000Y44489619D01*
X11549142Y44442000D01*
X11453904Y44346761D01*
X11406285Y44251523D01*
X11358666Y44061047D01*
X11358666Y43918190D01*
X11406285Y43727714D01*
X11453904Y43632476D01*
X11549142Y43537238D01*
X11692000Y43489619D01*
X11787238Y43489619D01*
X11930095Y43537238D01*
X11977714Y43584857D01*
X11977714Y43918190D01*
X11787238Y43918190D01*
X12358666Y43775333D02*
X12834857Y43775333D01*
X12263428Y43489619D02*
X12596761Y44489619D01*
X12930095Y43489619D01*
X13168190Y44489619D02*
X13787238Y44489619D01*
X13453904Y44108666D01*
X13596761Y44108666D01*
X13692000Y44061047D01*
X13739619Y44013428D01*
X13787238Y43918190D01*
X13787238Y43680095D01*
X13739619Y43584857D01*
X13692000Y43537238D01*
X13596761Y43489619D01*
X13311047Y43489619D01*
X13215809Y43537238D01*
X13168190Y43584857D01*
X14168190Y44394380D02*
X14215809Y44442000D01*
X14311047Y44489619D01*
X14549142Y44489619D01*
X14644380Y44442000D01*
X14692000Y44394380D01*
X14739619Y44299142D01*
X14739619Y44203904D01*
X14692000Y44061047D01*
X14120571Y43489619D01*
X14739619Y43489619D01*
X15311047Y44061047D02*
X15215809Y44108666D01*
X15168190Y44156285D01*
X15120571Y44251523D01*
X15120571Y44299142D01*
X15168190Y44394380D01*
X15215809Y44442000D01*
X15311047Y44489619D01*
X15501523Y44489619D01*
X15596761Y44442000D01*
X15644380Y44394380D01*
X15692000Y44299142D01*
X15692000Y44251523D01*
X15644380Y44156285D01*
X15596761Y44108666D01*
X15501523Y44061047D01*
X15311047Y44061047D01*
X15215809Y44013428D01*
X15168190Y43965809D01*
X15120571Y43870571D01*
X15120571Y43680095D01*
X15168190Y43584857D01*
X15215809Y43537238D01*
X15311047Y43489619D01*
X15501523Y43489619D01*
X15596761Y43537238D01*
X15644380Y43584857D01*
X15692000Y43680095D01*
X15692000Y43870571D01*
X15644380Y43965809D01*
X15596761Y44013428D01*
X15501523Y44061047D01*
X16120571Y43489619D02*
X16120571Y44489619D01*
X16501523Y44489619D01*
X16596761Y44442000D01*
X16644380Y44394380D01*
X16692000Y44299142D01*
X16692000Y44156285D01*
X16644380Y44061047D01*
X16596761Y44013428D01*
X16501523Y43965809D01*
X16120571Y43965809D01*
X4953095Y44489619D02*
X4953095Y43680095D01*
X5000714Y43584857D01*
X5048333Y43537238D01*
X5143571Y43489619D01*
X5334047Y43489619D01*
X5429285Y43537238D01*
X5476904Y43584857D01*
X5524523Y43680095D01*
X5524523Y44489619D01*
X6524523Y43489619D02*
X5953095Y43489619D01*
X6238809Y43489619D02*
X6238809Y44489619D01*
X6143571Y44346761D01*
X6048333Y44251523D01*
X5953095Y44203904D01*
X-23598095Y52506619D02*
X-23598095Y53506619D01*
X-23360000Y53506619D01*
X-23217142Y53459000D01*
X-23121904Y53363761D01*
X-23074285Y53268523D01*
X-23026666Y53078047D01*
X-23026666Y52935190D01*
X-23074285Y52744714D01*
X-23121904Y52649476D01*
X-23217142Y52554238D01*
X-23360000Y52506619D01*
X-23598095Y52506619D01*
X-22074285Y52506619D02*
X-22645714Y52506619D01*
X-22360000Y52506619D02*
X-22360000Y53506619D01*
X-22455238Y53363761D01*
X-22550476Y53268523D01*
X-22645714Y53220904D01*
X-28170095Y54538619D02*
X-28170095Y55538619D01*
X-27932000Y55538619D01*
X-27789142Y55491000D01*
X-27693904Y55395761D01*
X-27646285Y55300523D01*
X-27598666Y55110047D01*
X-27598666Y54967190D01*
X-27646285Y54776714D01*
X-27693904Y54681476D01*
X-27789142Y54586238D01*
X-27932000Y54538619D01*
X-28170095Y54538619D01*
X-27217714Y55443380D02*
X-27170095Y55491000D01*
X-27074857Y55538619D01*
X-26836761Y55538619D01*
X-26741523Y55491000D01*
X-26693904Y55443380D01*
X-26646285Y55348142D01*
X-26646285Y55252904D01*
X-26693904Y55110047D01*
X-27265333Y54538619D01*
X-26646285Y54538619D01*
X-28170095Y57078619D02*
X-28170095Y58078619D01*
X-27932000Y58078619D01*
X-27789142Y58031000D01*
X-27693904Y57935761D01*
X-27646285Y57840523D01*
X-27598666Y57650047D01*
X-27598666Y57507190D01*
X-27646285Y57316714D01*
X-27693904Y57221476D01*
X-27789142Y57126238D01*
X-27932000Y57078619D01*
X-28170095Y57078619D01*
X-27265333Y58078619D02*
X-26646285Y58078619D01*
X-26979619Y57697666D01*
X-26836761Y57697666D01*
X-26741523Y57650047D01*
X-26693904Y57602428D01*
X-26646285Y57507190D01*
X-26646285Y57269095D01*
X-26693904Y57173857D01*
X-26741523Y57126238D01*
X-26836761Y57078619D01*
X-27122476Y57078619D01*
X-27217714Y57126238D01*
X-27265333Y57173857D01*
X36012380Y35837904D02*
X35012380Y35837904D01*
X35012380Y36076000D01*
X35060000Y36218857D01*
X35155238Y36314095D01*
X35250476Y36361714D01*
X35440952Y36409333D01*
X35583809Y36409333D01*
X35774285Y36361714D01*
X35869523Y36314095D01*
X35964761Y36218857D01*
X36012380Y36076000D01*
X36012380Y35837904D01*
X35345714Y37266476D02*
X36012380Y37266476D01*
X34964761Y37028380D02*
X35679047Y36790285D01*
X35679047Y37409333D01*
X-35107619Y35837904D02*
X-36107619Y35837904D01*
X-36107619Y36076000D01*
X-36060000Y36218857D01*
X-35964761Y36314095D01*
X-35869523Y36361714D01*
X-35679047Y36409333D01*
X-35536190Y36409333D01*
X-35345714Y36361714D01*
X-35250476Y36314095D01*
X-35155238Y36218857D01*
X-35107619Y36076000D01*
X-35107619Y35837904D01*
X-36107619Y37314095D02*
X-36107619Y36837904D01*
X-35631428Y36790285D01*
X-35679047Y36837904D01*
X-35726666Y36933142D01*
X-35726666Y37171238D01*
X-35679047Y37266476D01*
X-35631428Y37314095D01*
X-35536190Y37361714D01*
X-35298095Y37361714D01*
X-35202857Y37314095D01*
X-35155238Y37266476D01*
X-35107619Y37171238D01*
X-35107619Y36933142D01*
X-35155238Y36837904D01*
X-35202857Y36790285D01*
X-19867619Y35837904D02*
X-20867619Y35837904D01*
X-20867619Y36076000D01*
X-20820000Y36218857D01*
X-20724761Y36314095D01*
X-20629523Y36361714D01*
X-20439047Y36409333D01*
X-20296190Y36409333D01*
X-20105714Y36361714D01*
X-20010476Y36314095D01*
X-19915238Y36218857D01*
X-19867619Y36076000D01*
X-19867619Y35837904D01*
X-20867619Y37266476D02*
X-20867619Y37076000D01*
X-20820000Y36980761D01*
X-20772380Y36933142D01*
X-20629523Y36837904D01*
X-20439047Y36790285D01*
X-20058095Y36790285D01*
X-19962857Y36837904D01*
X-19915238Y36885523D01*
X-19867619Y36980761D01*
X-19867619Y37171238D01*
X-19915238Y37266476D01*
X-19962857Y37314095D01*
X-20058095Y37361714D01*
X-20296190Y37361714D01*
X-20391428Y37314095D01*
X-20439047Y37266476D01*
X-20486666Y37171238D01*
X-20486666Y36980761D01*
X-20439047Y36885523D01*
X-20391428Y36837904D01*
X-20296190Y36790285D01*
X-22407619Y34980714D02*
X-23407619Y34980714D01*
X-23407619Y35218809D01*
X-23360000Y35361666D01*
X-23264761Y35456904D01*
X-23169523Y35504523D01*
X-22979047Y35552142D01*
X-22836190Y35552142D01*
X-22645714Y35504523D01*
X-22550476Y35456904D01*
X-22455238Y35361666D01*
X-22407619Y35218809D01*
X-22407619Y34980714D01*
X-22407619Y36504523D02*
X-22407619Y35933095D01*
X-22407619Y36218809D02*
X-23407619Y36218809D01*
X-23264761Y36123571D01*
X-23169523Y36028333D01*
X-23121904Y35933095D01*
X-23407619Y37123571D02*
X-23407619Y37218809D01*
X-23360000Y37314047D01*
X-23312380Y37361666D01*
X-23217142Y37409285D01*
X-23026666Y37456904D01*
X-22788571Y37456904D01*
X-22598095Y37409285D01*
X-22502857Y37361666D01*
X-22455238Y37314047D01*
X-22407619Y37218809D01*
X-22407619Y37123571D01*
X-22455238Y37028333D01*
X-22502857Y36980714D01*
X-22598095Y36933095D01*
X-22788571Y36885476D01*
X-23026666Y36885476D01*
X-23217142Y36933095D01*
X-23312380Y36980714D01*
X-23360000Y37028333D01*
X-23407619Y37123571D01*
X23185380Y34980714D02*
X22185380Y34980714D01*
X22185380Y35218809D01*
X22233000Y35361666D01*
X22328238Y35456904D01*
X22423476Y35504523D01*
X22613952Y35552142D01*
X22756809Y35552142D01*
X22947285Y35504523D01*
X23042523Y35456904D01*
X23137761Y35361666D01*
X23185380Y35218809D01*
X23185380Y34980714D01*
X23185380Y36504523D02*
X23185380Y35933095D01*
X23185380Y36218809D02*
X22185380Y36218809D01*
X22328238Y36123571D01*
X22423476Y36028333D01*
X22471095Y35933095D01*
X23185380Y37456904D02*
X23185380Y36885476D01*
X23185380Y37171190D02*
X22185380Y37171190D01*
X22328238Y37075952D01*
X22423476Y36980714D01*
X22471095Y36885476D01*
X-30027619Y34980714D02*
X-31027619Y34980714D01*
X-31027619Y35218809D01*
X-30980000Y35361666D01*
X-30884761Y35456904D01*
X-30789523Y35504523D01*
X-30599047Y35552142D01*
X-30456190Y35552142D01*
X-30265714Y35504523D01*
X-30170476Y35456904D01*
X-30075238Y35361666D01*
X-30027619Y35218809D01*
X-30027619Y34980714D01*
X-30027619Y36504523D02*
X-30027619Y35933095D01*
X-30027619Y36218809D02*
X-31027619Y36218809D01*
X-30884761Y36123571D01*
X-30789523Y36028333D01*
X-30741904Y35933095D01*
X-30932380Y36885476D02*
X-30980000Y36933095D01*
X-31027619Y37028333D01*
X-31027619Y37266428D01*
X-30980000Y37361666D01*
X-30932380Y37409285D01*
X-30837142Y37456904D01*
X-30741904Y37456904D01*
X-30599047Y37409285D01*
X-30027619Y36837857D01*
X-30027619Y37456904D01*
X-24947619Y34980714D02*
X-25947619Y34980714D01*
X-25947619Y35218809D01*
X-25900000Y35361666D01*
X-25804761Y35456904D01*
X-25709523Y35504523D01*
X-25519047Y35552142D01*
X-25376190Y35552142D01*
X-25185714Y35504523D01*
X-25090476Y35456904D01*
X-24995238Y35361666D01*
X-24947619Y35218809D01*
X-24947619Y34980714D01*
X-24947619Y36504523D02*
X-24947619Y35933095D01*
X-24947619Y36218809D02*
X-25947619Y36218809D01*
X-25804761Y36123571D01*
X-25709523Y36028333D01*
X-25661904Y35933095D01*
X-25947619Y36837857D02*
X-25947619Y37456904D01*
X-25566666Y37123571D01*
X-25566666Y37266428D01*
X-25519047Y37361666D01*
X-25471428Y37409285D01*
X-25376190Y37456904D01*
X-25138095Y37456904D01*
X-25042857Y37409285D01*
X-24995238Y37361666D01*
X-24947619Y37266428D01*
X-24947619Y36980714D01*
X-24995238Y36885476D01*
X-25042857Y36837857D01*
X25852380Y34980714D02*
X24852380Y34980714D01*
X24852380Y35218809D01*
X24900000Y35361666D01*
X24995238Y35456904D01*
X25090476Y35504523D01*
X25280952Y35552142D01*
X25423809Y35552142D01*
X25614285Y35504523D01*
X25709523Y35456904D01*
X25804761Y35361666D01*
X25852380Y35218809D01*
X25852380Y34980714D01*
X25852380Y36504523D02*
X25852380Y35933095D01*
X25852380Y36218809D02*
X24852380Y36218809D01*
X24995238Y36123571D01*
X25090476Y36028333D01*
X25138095Y35933095D01*
X25185714Y37361666D02*
X25852380Y37361666D01*
X24804761Y37123571D02*
X25519047Y36885476D01*
X25519047Y37504523D01*
X31059380Y34980714D02*
X30059380Y34980714D01*
X30059380Y35218809D01*
X30107000Y35361666D01*
X30202238Y35456904D01*
X30297476Y35504523D01*
X30487952Y35552142D01*
X30630809Y35552142D01*
X30821285Y35504523D01*
X30916523Y35456904D01*
X31011761Y35361666D01*
X31059380Y35218809D01*
X31059380Y34980714D01*
X31059380Y36504523D02*
X31059380Y35933095D01*
X31059380Y36218809D02*
X30059380Y36218809D01*
X30202238Y36123571D01*
X30297476Y36028333D01*
X30345095Y35933095D01*
X30059380Y37409285D02*
X30059380Y36933095D01*
X30535571Y36885476D01*
X30487952Y36933095D01*
X30440333Y37028333D01*
X30440333Y37266428D01*
X30487952Y37361666D01*
X30535571Y37409285D01*
X30630809Y37456904D01*
X30868904Y37456904D01*
X30964142Y37409285D01*
X31011761Y37361666D01*
X31059380Y37266428D01*
X31059380Y37028333D01*
X31011761Y36933095D01*
X30964142Y36885476D01*
X-27487619Y34980714D02*
X-28487619Y34980714D01*
X-28487619Y35218809D01*
X-28440000Y35361666D01*
X-28344761Y35456904D01*
X-28249523Y35504523D01*
X-28059047Y35552142D01*
X-27916190Y35552142D01*
X-27725714Y35504523D01*
X-27630476Y35456904D01*
X-27535238Y35361666D01*
X-27487619Y35218809D01*
X-27487619Y34980714D01*
X-27487619Y36504523D02*
X-27487619Y35933095D01*
X-27487619Y36218809D02*
X-28487619Y36218809D01*
X-28344761Y36123571D01*
X-28249523Y36028333D01*
X-28201904Y35933095D01*
X-28487619Y37361666D02*
X-28487619Y37171190D01*
X-28440000Y37075952D01*
X-28392380Y37028333D01*
X-28249523Y36933095D01*
X-28059047Y36885476D01*
X-27678095Y36885476D01*
X-27582857Y36933095D01*
X-27535238Y36980714D01*
X-27487619Y37075952D01*
X-27487619Y37266428D01*
X-27535238Y37361666D01*
X-27582857Y37409285D01*
X-27678095Y37456904D01*
X-27916190Y37456904D01*
X-28011428Y37409285D01*
X-28059047Y37361666D01*
X-28106666Y37266428D01*
X-28106666Y37075952D01*
X-28059047Y36980714D01*
X-28011428Y36933095D01*
X-27916190Y36885476D01*
X28392380Y34980714D02*
X27392380Y34980714D01*
X27392380Y35218809D01*
X27440000Y35361666D01*
X27535238Y35456904D01*
X27630476Y35504523D01*
X27820952Y35552142D01*
X27963809Y35552142D01*
X28154285Y35504523D01*
X28249523Y35456904D01*
X28344761Y35361666D01*
X28392380Y35218809D01*
X28392380Y34980714D01*
X28392380Y36504523D02*
X28392380Y35933095D01*
X28392380Y36218809D02*
X27392380Y36218809D01*
X27535238Y36123571D01*
X27630476Y36028333D01*
X27678095Y35933095D01*
X27392380Y36837857D02*
X27392380Y37504523D01*
X28392380Y37075952D01*
X-29313095Y23677619D02*
X-29313095Y24677619D01*
X-28741666Y23677619D02*
X-29170238Y24249047D01*
X-28741666Y24677619D02*
X-29313095Y24106190D01*
X-27789285Y23677619D02*
X-28360714Y23677619D01*
X-28075000Y23677619D02*
X-28075000Y24677619D01*
X-28170238Y24534761D01*
X-28265476Y24439523D01*
X-28360714Y24391904D01*
X-10263095Y23677619D02*
X-10263095Y24677619D01*
X-9691666Y23677619D02*
X-10120238Y24249047D01*
X-9691666Y24677619D02*
X-10263095Y24106190D01*
X-9310714Y24582380D02*
X-9263095Y24630000D01*
X-9167857Y24677619D01*
X-8929761Y24677619D01*
X-8834523Y24630000D01*
X-8786904Y24582380D01*
X-8739285Y24487142D01*
X-8739285Y24391904D01*
X-8786904Y24249047D01*
X-9358333Y23677619D01*
X-8739285Y23677619D01*
X8786904Y23677619D02*
X8786904Y24677619D01*
X9358333Y23677619D02*
X8929761Y24249047D01*
X9358333Y24677619D02*
X8786904Y24106190D01*
X9691666Y24677619D02*
X10310714Y24677619D01*
X9977380Y24296666D01*
X10120238Y24296666D01*
X10215476Y24249047D01*
X10263095Y24201428D01*
X10310714Y24106190D01*
X10310714Y23868095D01*
X10263095Y23772857D01*
X10215476Y23725238D01*
X10120238Y23677619D01*
X9834523Y23677619D01*
X9739285Y23725238D01*
X9691666Y23772857D01*
X27836904Y23677619D02*
X27836904Y24677619D01*
X28408333Y23677619D02*
X27979761Y24249047D01*
X28408333Y24677619D02*
X27836904Y24106190D01*
X29265476Y24344285D02*
X29265476Y23677619D01*
X29027380Y24725238D02*
X28789285Y24010952D01*
X29408333Y24010952D01*
X-29313095Y4627619D02*
X-29313095Y5627619D01*
X-28741666Y4627619D02*
X-29170238Y5199047D01*
X-28741666Y5627619D02*
X-29313095Y5056190D01*
X-27836904Y5627619D02*
X-28313095Y5627619D01*
X-28360714Y5151428D01*
X-28313095Y5199047D01*
X-28217857Y5246666D01*
X-27979761Y5246666D01*
X-27884523Y5199047D01*
X-27836904Y5151428D01*
X-27789285Y5056190D01*
X-27789285Y4818095D01*
X-27836904Y4722857D01*
X-27884523Y4675238D01*
X-27979761Y4627619D01*
X-28217857Y4627619D01*
X-28313095Y4675238D01*
X-28360714Y4722857D01*
X-10263095Y4627619D02*
X-10263095Y5627619D01*
X-9691666Y4627619D02*
X-10120238Y5199047D01*
X-9691666Y5627619D02*
X-10263095Y5056190D01*
X-8834523Y5627619D02*
X-9025000Y5627619D01*
X-9120238Y5580000D01*
X-9167857Y5532380D01*
X-9263095Y5389523D01*
X-9310714Y5199047D01*
X-9310714Y4818095D01*
X-9263095Y4722857D01*
X-9215476Y4675238D01*
X-9120238Y4627619D01*
X-8929761Y4627619D01*
X-8834523Y4675238D01*
X-8786904Y4722857D01*
X-8739285Y4818095D01*
X-8739285Y5056190D01*
X-8786904Y5151428D01*
X-8834523Y5199047D01*
X-8929761Y5246666D01*
X-9120238Y5246666D01*
X-9215476Y5199047D01*
X-9263095Y5151428D01*
X-9310714Y5056190D01*
X8786904Y4627619D02*
X8786904Y5627619D01*
X9358333Y4627619D02*
X8929761Y5199047D01*
X9358333Y5627619D02*
X8786904Y5056190D01*
X9691666Y5627619D02*
X10358333Y5627619D01*
X9929761Y4627619D01*
X32281904Y-452380D02*
X32281904Y547619D01*
X32853333Y-452380D02*
X32424761Y119047D01*
X32853333Y547619D02*
X32281904Y-23809D01*
X33424761Y119047D02*
X33329523Y166666D01*
X33281904Y214285D01*
X33234285Y309523D01*
X33234285Y357142D01*
X33281904Y452380D01*
X33329523Y500000D01*
X33424761Y547619D01*
X33615238Y547619D01*
X33710476Y500000D01*
X33758095Y452380D01*
X33805714Y357142D01*
X33805714Y309523D01*
X33758095Y214285D01*
X33710476Y166666D01*
X33615238Y119047D01*
X33424761Y119047D01*
X33329523Y71428D01*
X33281904Y23809D01*
X33234285Y-71428D01*
X33234285Y-261904D01*
X33281904Y-357142D01*
X33329523Y-404761D01*
X33424761Y-452380D01*
X33615238Y-452380D01*
X33710476Y-404761D01*
X33758095Y-357142D01*
X33805714Y-261904D01*
X33805714Y-71428D01*
X33758095Y23809D01*
X33710476Y71428D01*
X33615238Y119047D01*
X-29313095Y-14422380D02*
X-29313095Y-13422380D01*
X-28741666Y-14422380D02*
X-29170238Y-13850952D01*
X-28741666Y-13422380D02*
X-29313095Y-13993809D01*
X-28265476Y-14422380D02*
X-28075000Y-14422380D01*
X-27979761Y-14374761D01*
X-27932142Y-14327142D01*
X-27836904Y-14184285D01*
X-27789285Y-13993809D01*
X-27789285Y-13612857D01*
X-27836904Y-13517619D01*
X-27884523Y-13470000D01*
X-27979761Y-13422380D01*
X-28170238Y-13422380D01*
X-28265476Y-13470000D01*
X-28313095Y-13517619D01*
X-28360714Y-13612857D01*
X-28360714Y-13850952D01*
X-28313095Y-13946190D01*
X-28265476Y-13993809D01*
X-28170238Y-14041428D01*
X-27979761Y-14041428D01*
X-27884523Y-13993809D01*
X-27836904Y-13946190D01*
X-27789285Y-13850952D01*
X-10739285Y-14422380D02*
X-10739285Y-13422380D01*
X-10167857Y-14422380D02*
X-10596428Y-13850952D01*
X-10167857Y-13422380D02*
X-10739285Y-13993809D01*
X-9215476Y-14422380D02*
X-9786904Y-14422380D01*
X-9501190Y-14422380D02*
X-9501190Y-13422380D01*
X-9596428Y-13565238D01*
X-9691666Y-13660476D01*
X-9786904Y-13708095D01*
X-8596428Y-13422380D02*
X-8501190Y-13422380D01*
X-8405952Y-13470000D01*
X-8358333Y-13517619D01*
X-8310714Y-13612857D01*
X-8263095Y-13803333D01*
X-8263095Y-14041428D01*
X-8310714Y-14231904D01*
X-8358333Y-14327142D01*
X-8405952Y-14374761D01*
X-8501190Y-14422380D01*
X-8596428Y-14422380D01*
X-8691666Y-14374761D01*
X-8739285Y-14327142D01*
X-8786904Y-14231904D01*
X-8834523Y-14041428D01*
X-8834523Y-13803333D01*
X-8786904Y-13612857D01*
X-8739285Y-13517619D01*
X-8691666Y-13470000D01*
X-8596428Y-13422380D01*
X8310714Y-14422380D02*
X8310714Y-13422380D01*
X8882142Y-14422380D02*
X8453571Y-13850952D01*
X8882142Y-13422380D02*
X8310714Y-13993809D01*
X9834523Y-14422380D02*
X9263095Y-14422380D01*
X9548809Y-14422380D02*
X9548809Y-13422380D01*
X9453571Y-13565238D01*
X9358333Y-13660476D01*
X9263095Y-13708095D01*
X10786904Y-14422380D02*
X10215476Y-14422380D01*
X10501190Y-14422380D02*
X10501190Y-13422380D01*
X10405952Y-13565238D01*
X10310714Y-13660476D01*
X10215476Y-13708095D01*
X-29789285Y-33472380D02*
X-29789285Y-32472380D01*
X-29217857Y-33472380D02*
X-29646428Y-32900952D01*
X-29217857Y-32472380D02*
X-29789285Y-33043809D01*
X-28265476Y-33472380D02*
X-28836904Y-33472380D01*
X-28551190Y-33472380D02*
X-28551190Y-32472380D01*
X-28646428Y-32615238D01*
X-28741666Y-32710476D01*
X-28836904Y-32758095D01*
X-27884523Y-32567619D02*
X-27836904Y-32520000D01*
X-27741666Y-32472380D01*
X-27503571Y-32472380D01*
X-27408333Y-32520000D01*
X-27360714Y-32567619D01*
X-27313095Y-32662857D01*
X-27313095Y-32758095D01*
X-27360714Y-32900952D01*
X-27932142Y-33472380D01*
X-27313095Y-33472380D01*
X-10739285Y-33472380D02*
X-10739285Y-32472380D01*
X-10167857Y-33472380D02*
X-10596428Y-32900952D01*
X-10167857Y-32472380D02*
X-10739285Y-33043809D01*
X-9215476Y-33472380D02*
X-9786904Y-33472380D01*
X-9501190Y-33472380D02*
X-9501190Y-32472380D01*
X-9596428Y-32615238D01*
X-9691666Y-32710476D01*
X-9786904Y-32758095D01*
X-8882142Y-32472380D02*
X-8263095Y-32472380D01*
X-8596428Y-32853333D01*
X-8453571Y-32853333D01*
X-8358333Y-32900952D01*
X-8310714Y-32948571D01*
X-8263095Y-33043809D01*
X-8263095Y-33281904D01*
X-8310714Y-33377142D01*
X-8358333Y-33424761D01*
X-8453571Y-33472380D01*
X-8739285Y-33472380D01*
X-8834523Y-33424761D01*
X-8882142Y-33377142D01*
X8310714Y-33472380D02*
X8310714Y-32472380D01*
X8882142Y-33472380D02*
X8453571Y-32900952D01*
X8882142Y-32472380D02*
X8310714Y-33043809D01*
X9834523Y-33472380D02*
X9263095Y-33472380D01*
X9548809Y-33472380D02*
X9548809Y-32472380D01*
X9453571Y-32615238D01*
X9358333Y-32710476D01*
X9263095Y-32758095D01*
X10691666Y-32805714D02*
X10691666Y-33472380D01*
X10453571Y-32424761D02*
X10215476Y-33139047D01*
X10834523Y-33139047D01*
X31805714Y-38552380D02*
X31805714Y-37552380D01*
X32377142Y-38552380D02*
X31948571Y-37980952D01*
X32377142Y-37552380D02*
X31805714Y-38123809D01*
X33329523Y-38552380D02*
X32758095Y-38552380D01*
X33043809Y-38552380D02*
X33043809Y-37552380D01*
X32948571Y-37695238D01*
X32853333Y-37790476D01*
X32758095Y-37838095D01*
X34234285Y-37552380D02*
X33758095Y-37552380D01*
X33710476Y-38028571D01*
X33758095Y-37980952D01*
X33853333Y-37933333D01*
X34091428Y-37933333D01*
X34186666Y-37980952D01*
X34234285Y-38028571D01*
X34281904Y-38123809D01*
X34281904Y-38361904D01*
X34234285Y-38457142D01*
X34186666Y-38504761D01*
X34091428Y-38552380D01*
X33853333Y-38552380D01*
X33758095Y-38504761D01*
X33710476Y-38457142D01*
X-20264285Y-52522380D02*
X-20264285Y-51522380D01*
X-19692857Y-52522380D02*
X-20121428Y-51950952D01*
X-19692857Y-51522380D02*
X-20264285Y-52093809D01*
X-18740476Y-52522380D02*
X-19311904Y-52522380D01*
X-19026190Y-52522380D02*
X-19026190Y-51522380D01*
X-19121428Y-51665238D01*
X-19216666Y-51760476D01*
X-19311904Y-51808095D01*
X-17883333Y-51522380D02*
X-18073809Y-51522380D01*
X-18169047Y-51570000D01*
X-18216666Y-51617619D01*
X-18311904Y-51760476D01*
X-18359523Y-51950952D01*
X-18359523Y-52331904D01*
X-18311904Y-52427142D01*
X-18264285Y-52474761D01*
X-18169047Y-52522380D01*
X-17978571Y-52522380D01*
X-17883333Y-52474761D01*
X-17835714Y-52427142D01*
X-17788095Y-52331904D01*
X-17788095Y-52093809D01*
X-17835714Y-51998571D01*
X-17883333Y-51950952D01*
X-17978571Y-51903333D01*
X-18169047Y-51903333D01*
X-18264285Y-51950952D01*
X-18311904Y-51998571D01*
X-18359523Y-52093809D01*
X8310714Y-52522380D02*
X8310714Y-51522380D01*
X8882142Y-52522380D02*
X8453571Y-51950952D01*
X8882142Y-51522380D02*
X8310714Y-52093809D01*
X9834523Y-52522380D02*
X9263095Y-52522380D01*
X9548809Y-52522380D02*
X9548809Y-51522380D01*
X9453571Y-51665238D01*
X9358333Y-51760476D01*
X9263095Y-51808095D01*
X10167857Y-51522380D02*
X10834523Y-51522380D01*
X10405952Y-52522380D01*
X23312380Y48728333D02*
X22836190Y48395000D01*
X23312380Y48156904D02*
X22312380Y48156904D01*
X22312380Y48537857D01*
X22360000Y48633095D01*
X22407619Y48680714D01*
X22502857Y48728333D01*
X22645714Y48728333D01*
X22740952Y48680714D01*
X22788571Y48633095D01*
X22836190Y48537857D01*
X22836190Y48156904D01*
X23312380Y49680714D02*
X23312380Y49109285D01*
X23312380Y49395000D02*
X22312380Y49395000D01*
X22455238Y49299761D01*
X22550476Y49204523D01*
X22598095Y49109285D01*
X9358333Y55808619D02*
X9025000Y56284809D01*
X8786904Y55808619D02*
X8786904Y56808619D01*
X9167857Y56808619D01*
X9263095Y56761000D01*
X9310714Y56713380D01*
X9358333Y56618142D01*
X9358333Y56475285D01*
X9310714Y56380047D01*
X9263095Y56332428D01*
X9167857Y56284809D01*
X8786904Y56284809D01*
X9739285Y56713380D02*
X9786904Y56761000D01*
X9882142Y56808619D01*
X10120238Y56808619D01*
X10215476Y56761000D01*
X10263095Y56713380D01*
X10310714Y56618142D01*
X10310714Y56522904D01*
X10263095Y56380047D01*
X9691666Y55808619D01*
X10310714Y55808619D01*
X9358333Y57967619D02*
X9025000Y58443809D01*
X8786904Y57967619D02*
X8786904Y58967619D01*
X9167857Y58967619D01*
X9263095Y58920000D01*
X9310714Y58872380D01*
X9358333Y58777142D01*
X9358333Y58634285D01*
X9310714Y58539047D01*
X9263095Y58491428D01*
X9167857Y58443809D01*
X8786904Y58443809D01*
X9691666Y58967619D02*
X10310714Y58967619D01*
X9977380Y58586666D01*
X10120238Y58586666D01*
X10215476Y58539047D01*
X10263095Y58491428D01*
X10310714Y58396190D01*
X10310714Y58158095D01*
X10263095Y58062857D01*
X10215476Y58015238D01*
X10120238Y57967619D01*
X9834523Y57967619D01*
X9739285Y58015238D01*
X9691666Y58062857D01*
X20772380Y48728333D02*
X20296190Y48395000D01*
X20772380Y48156904D02*
X19772380Y48156904D01*
X19772380Y48537857D01*
X19820000Y48633095D01*
X19867619Y48680714D01*
X19962857Y48728333D01*
X20105714Y48728333D01*
X20200952Y48680714D01*
X20248571Y48633095D01*
X20296190Y48537857D01*
X20296190Y48156904D01*
X20105714Y49585476D02*
X20772380Y49585476D01*
X19724761Y49347380D02*
X20439047Y49109285D01*
X20439047Y49728333D01*
X11882380Y51141333D02*
X11406190Y50808000D01*
X11882380Y50569904D02*
X10882380Y50569904D01*
X10882380Y50950857D01*
X10930000Y51046095D01*
X10977619Y51093714D01*
X11072857Y51141333D01*
X11215714Y51141333D01*
X11310952Y51093714D01*
X11358571Y51046095D01*
X11406190Y50950857D01*
X11406190Y50569904D01*
X10882380Y51998476D02*
X10882380Y51808000D01*
X10930000Y51712761D01*
X10977619Y51665142D01*
X11120476Y51569904D01*
X11310952Y51522285D01*
X11691904Y51522285D01*
X11787142Y51569904D01*
X11834761Y51617523D01*
X11882380Y51712761D01*
X11882380Y51903238D01*
X11834761Y51998476D01*
X11787142Y52046095D01*
X11691904Y52093714D01*
X11453809Y52093714D01*
X11358571Y52046095D01*
X11310952Y51998476D01*
X11263333Y51903238D01*
X11263333Y51712761D01*
X11310952Y51617523D01*
X11358571Y51569904D01*
X11453809Y51522285D01*
X14422380Y55173714D02*
X13422380Y55173714D01*
X13422380Y55411809D01*
X13470000Y55554666D01*
X13565238Y55649904D01*
X13660476Y55697523D01*
X13850952Y55745142D01*
X13993809Y55745142D01*
X14184285Y55697523D01*
X14279523Y55649904D01*
X14374761Y55554666D01*
X14422380Y55411809D01*
X14422380Y55173714D01*
X14422380Y56697523D02*
X14422380Y56126095D01*
X14422380Y56411809D02*
X13422380Y56411809D01*
X13565238Y56316571D01*
X13660476Y56221333D01*
X13708095Y56126095D01*
X13850952Y57268952D02*
X13803333Y57173714D01*
X13755714Y57126095D01*
X13660476Y57078476D01*
X13612857Y57078476D01*
X13517619Y57126095D01*
X13470000Y57173714D01*
X13422380Y57268952D01*
X13422380Y57459428D01*
X13470000Y57554666D01*
X13517619Y57602285D01*
X13612857Y57649904D01*
X13660476Y57649904D01*
X13755714Y57602285D01*
X13803333Y57554666D01*
X13850952Y57459428D01*
X13850952Y57268952D01*
X13898571Y57173714D01*
X13946190Y57126095D01*
X14041428Y57078476D01*
X14231904Y57078476D01*
X14327142Y57126095D01*
X14374761Y57173714D01*
X14422380Y57268952D01*
X14422380Y57459428D01*
X14374761Y57554666D01*
X14327142Y57602285D01*
X14231904Y57649904D01*
X14041428Y57649904D01*
X13946190Y57602285D01*
X13898571Y57554666D01*
X13850952Y57459428D01*
X-30086133Y48718838D02*
X-29943276Y48671219D01*
X-29705180Y48671219D01*
X-29609942Y48718838D01*
X-29562323Y48766457D01*
X-29514704Y48861695D01*
X-29514704Y48956933D01*
X-29562323Y49052171D01*
X-29609942Y49099790D01*
X-29705180Y49147409D01*
X-29895657Y49195028D01*
X-29990895Y49242647D01*
X-30038514Y49290266D01*
X-30086133Y49385504D01*
X-30086133Y49480742D01*
X-30038514Y49575980D01*
X-29990895Y49623600D01*
X-29895657Y49671219D01*
X-29657561Y49671219D01*
X-29514704Y49623600D01*
X-29181371Y49671219D02*
X-28943276Y48671219D01*
X-28752800Y49385504D01*
X-28562323Y48671219D01*
X-28324228Y49671219D01*
X-27990895Y49575980D02*
X-27943276Y49623600D01*
X-27848038Y49671219D01*
X-27609942Y49671219D01*
X-27514704Y49623600D01*
X-27467085Y49575980D01*
X-27419466Y49480742D01*
X-27419466Y49385504D01*
X-27467085Y49242647D01*
X-28038514Y48671219D01*
X-27419466Y48671219D01*
X20772380Y35837904D02*
X19772380Y35837904D01*
X19772380Y36076000D01*
X19820000Y36218857D01*
X19915238Y36314095D01*
X20010476Y36361714D01*
X20200952Y36409333D01*
X20343809Y36409333D01*
X20534285Y36361714D01*
X20629523Y36314095D01*
X20724761Y36218857D01*
X20772380Y36076000D01*
X20772380Y35837904D01*
X19772380Y36742666D02*
X19772380Y37409333D01*
X20772380Y36980761D01*
X-19962857Y48728333D02*
X-19915238Y48680714D01*
X-19867619Y48537857D01*
X-19867619Y48442619D01*
X-19915238Y48299761D01*
X-20010476Y48204523D01*
X-20105714Y48156904D01*
X-20296190Y48109285D01*
X-20439047Y48109285D01*
X-20629523Y48156904D01*
X-20724761Y48204523D01*
X-20820000Y48299761D01*
X-20867619Y48442619D01*
X-20867619Y48537857D01*
X-20820000Y48680714D01*
X-20772380Y48728333D01*
X-20867619Y49061666D02*
X-20867619Y49680714D01*
X-20486666Y49347380D01*
X-20486666Y49490238D01*
X-20439047Y49585476D01*
X-20391428Y49633095D01*
X-20296190Y49680714D01*
X-20058095Y49680714D01*
X-19962857Y49633095D01*
X-19915238Y49585476D01*
X-19867619Y49490238D01*
X-19867619Y49204523D01*
X-19915238Y49109285D01*
X-19962857Y49061666D01*
X17740380Y56054666D02*
X18454666Y56054666D01*
X18597523Y56007047D01*
X18692761Y55911809D01*
X18740380Y55768952D01*
X18740380Y55673714D01*
X17835619Y56483238D02*
X17788000Y56530857D01*
X17740380Y56626095D01*
X17740380Y56864190D01*
X17788000Y56959428D01*
X17835619Y57007047D01*
X17930857Y57054666D01*
X18026095Y57054666D01*
X18168952Y57007047D01*
X18740380Y56435619D01*
X18740380Y57054666D01*
X-333333Y58586619D02*
X-333333Y57872333D01*
X-380952Y57729476D01*
X-476190Y57634238D01*
X-619047Y57586619D01*
X-714285Y57586619D01*
X666666Y57586619D02*
X95238Y57586619D01*
X380952Y57586619D02*
X380952Y58586619D01*
X285714Y58443761D01*
X190476Y58348523D01*
X95238Y58300904D01*
X16962380Y55173714D02*
X15962380Y55173714D01*
X15962380Y55411809D01*
X16010000Y55554666D01*
X16105238Y55649904D01*
X16200476Y55697523D01*
X16390952Y55745142D01*
X16533809Y55745142D01*
X16724285Y55697523D01*
X16819523Y55649904D01*
X16914761Y55554666D01*
X16962380Y55411809D01*
X16962380Y55173714D01*
X16962380Y56697523D02*
X16962380Y56126095D01*
X16962380Y56411809D02*
X15962380Y56411809D01*
X16105238Y56316571D01*
X16200476Y56221333D01*
X16248095Y56126095D01*
X16962380Y57173714D02*
X16962380Y57364190D01*
X16914761Y57459428D01*
X16867142Y57507047D01*
X16724285Y57602285D01*
X16533809Y57649904D01*
X16152857Y57649904D01*
X16057619Y57602285D01*
X16010000Y57554666D01*
X15962380Y57459428D01*
X15962380Y57268952D01*
X16010000Y57173714D01*
X16057619Y57126095D01*
X16152857Y57078476D01*
X16390952Y57078476D01*
X16486190Y57126095D01*
X16533809Y57173714D01*
X16581428Y57268952D01*
X16581428Y57459428D01*
X16533809Y57554666D01*
X16486190Y57602285D01*
X16390952Y57649904D01*
X33472380Y35837904D02*
X32472380Y35837904D01*
X32472380Y36076000D01*
X32520000Y36218857D01*
X32615238Y36314095D01*
X32710476Y36361714D01*
X32900952Y36409333D01*
X33043809Y36409333D01*
X33234285Y36361714D01*
X33329523Y36314095D01*
X33424761Y36218857D01*
X33472380Y36076000D01*
X33472380Y35837904D01*
X32900952Y36980761D02*
X32853333Y36885523D01*
X32805714Y36837904D01*
X32710476Y36790285D01*
X32662857Y36790285D01*
X32567619Y36837904D01*
X32520000Y36885523D01*
X32472380Y36980761D01*
X32472380Y37171238D01*
X32520000Y37266476D01*
X32567619Y37314095D01*
X32662857Y37361714D01*
X32710476Y37361714D01*
X32805714Y37314095D01*
X32853333Y37266476D01*
X32900952Y37171238D01*
X32900952Y36980761D01*
X32948571Y36885523D01*
X32996190Y36837904D01*
X33091428Y36790285D01*
X33281904Y36790285D01*
X33377142Y36837904D01*
X33424761Y36885523D01*
X33472380Y36980761D01*
X33472380Y37171238D01*
X33424761Y37266476D01*
X33377142Y37314095D01*
X33281904Y37361714D01*
X33091428Y37361714D01*
X32996190Y37314095D01*
X32948571Y37266476D01*
X32900952Y37171238D01*
X9342380Y51141333D02*
X8866190Y50808000D01*
X9342380Y50569904D02*
X8342380Y50569904D01*
X8342380Y50950857D01*
X8390000Y51046095D01*
X8437619Y51093714D01*
X8532857Y51141333D01*
X8675714Y51141333D01*
X8770952Y51093714D01*
X8818571Y51046095D01*
X8866190Y50950857D01*
X8866190Y50569904D01*
X8342380Y52046095D02*
X8342380Y51569904D01*
X8818571Y51522285D01*
X8770952Y51569904D01*
X8723333Y51665142D01*
X8723333Y51903238D01*
X8770952Y51998476D01*
X8818571Y52046095D01*
X8913809Y52093714D01*
X9151904Y52093714D01*
X9247142Y52046095D01*
X9294761Y51998476D01*
X9342380Y51903238D01*
X9342380Y51665142D01*
X9294761Y51569904D01*
X9247142Y51522285D01*
X-32567619Y35837904D02*
X-33567619Y35837904D01*
X-33567619Y36076000D01*
X-33520000Y36218857D01*
X-33424761Y36314095D01*
X-33329523Y36361714D01*
X-33139047Y36409333D01*
X-32996190Y36409333D01*
X-32805714Y36361714D01*
X-32710476Y36314095D01*
X-32615238Y36218857D01*
X-32567619Y36076000D01*
X-32567619Y35837904D01*
X-32567619Y36885523D02*
X-32567619Y37076000D01*
X-32615238Y37171238D01*
X-32662857Y37218857D01*
X-32805714Y37314095D01*
X-32996190Y37361714D01*
X-33377142Y37361714D01*
X-33472380Y37314095D01*
X-33520000Y37266476D01*
X-33567619Y37171238D01*
X-33567619Y36980761D01*
X-33520000Y36885523D01*
X-33472380Y36837904D01*
X-33377142Y36790285D01*
X-33139047Y36790285D01*
X-33043809Y36837904D01*
X-32996190Y36885523D01*
X-32948571Y36980761D01*
X-32948571Y37171238D01*
X-32996190Y37266476D01*
X-33043809Y37314095D01*
X-33139047Y37361714D01*
X27419466Y48718838D02*
X27562323Y48671219D01*
X27800419Y48671219D01*
X27895657Y48718838D01*
X27943276Y48766457D01*
X27990895Y48861695D01*
X27990895Y48956933D01*
X27943276Y49052171D01*
X27895657Y49099790D01*
X27800419Y49147409D01*
X27609942Y49195028D01*
X27514704Y49242647D01*
X27467085Y49290266D01*
X27419466Y49385504D01*
X27419466Y49480742D01*
X27467085Y49575980D01*
X27514704Y49623600D01*
X27609942Y49671219D01*
X27848038Y49671219D01*
X27990895Y49623600D01*
X28324228Y49671219D02*
X28562323Y48671219D01*
X28752800Y49385504D01*
X28943276Y48671219D01*
X29181371Y49671219D01*
X30086133Y48671219D02*
X29514704Y48671219D01*
X29800419Y48671219D02*
X29800419Y49671219D01*
X29705180Y49528361D01*
X29609942Y49433123D01*
X29514704Y49385504D01*
X-16617619Y51446133D02*
X-17093809Y51112800D01*
X-16617619Y50874704D02*
X-17617619Y50874704D01*
X-17617619Y51255657D01*
X-17570000Y51350895D01*
X-17522380Y51398514D01*
X-17427142Y51446133D01*
X-17284285Y51446133D01*
X-17189047Y51398514D01*
X-17141428Y51350895D01*
X-17093809Y51255657D01*
X-17093809Y50874704D01*
X-17617619Y51779466D02*
X-17617619Y52446133D01*
X-16617619Y52017561D01*
X-10588523Y50839619D02*
X-9921857Y49839619D01*
X-9921857Y50839619D02*
X-10588523Y49839619D01*
X-9017095Y49839619D02*
X-9588523Y49839619D01*
X-9302809Y49839619D02*
X-9302809Y50839619D01*
X-9398047Y50696761D01*
X-9493285Y50601523D01*
X-9588523Y50553904D01*
X-14771666Y55522857D02*
X-14819285Y55475238D01*
X-14962142Y55427619D01*
X-15057380Y55427619D01*
X-15200238Y55475238D01*
X-15295476Y55570476D01*
X-15343095Y55665714D01*
X-15390714Y55856190D01*
X-15390714Y55999047D01*
X-15343095Y56189523D01*
X-15295476Y56284761D01*
X-15200238Y56380000D01*
X-15057380Y56427619D01*
X-14962142Y56427619D01*
X-14819285Y56380000D01*
X-14771666Y56332380D01*
X-13819285Y55427619D02*
X-14390714Y55427619D01*
X-14105000Y55427619D02*
X-14105000Y56427619D01*
X-14200238Y56284761D01*
X-14295476Y56189523D01*
X-14390714Y56141904D01*
X6437333Y52728857D02*
X6389714Y52681238D01*
X6246857Y52633619D01*
X6151619Y52633619D01*
X6008761Y52681238D01*
X5913523Y52776476D01*
X5865904Y52871714D01*
X5818285Y53062190D01*
X5818285Y53205047D01*
X5865904Y53395523D01*
X5913523Y53490761D01*
X6008761Y53586000D01*
X6151619Y53633619D01*
X6246857Y53633619D01*
X6389714Y53586000D01*
X6437333Y53538380D01*
X7342095Y53633619D02*
X6865904Y53633619D01*
X6818285Y53157428D01*
X6865904Y53205047D01*
X6961142Y53252666D01*
X7199238Y53252666D01*
X7294476Y53205047D01*
X7342095Y53157428D01*
X7389714Y53062190D01*
X7389714Y52824095D01*
X7342095Y52728857D01*
X7294476Y52681238D01*
X7199238Y52633619D01*
X6961142Y52633619D01*
X6865904Y52681238D01*
X6818285Y52728857D01*
X-841333Y51506428D02*
X-1174666Y51506428D01*
X-1174666Y50982619D02*
X-1174666Y51982619D01*
X-698476Y51982619D01*
X206285Y50982619D02*
X-365142Y50982619D01*
X-79428Y50982619D02*
X-79428Y51982619D01*
X-174666Y51839761D01*
X-269904Y51744523D01*
X-365142Y51696904D01*
X-674666Y48410857D02*
X-722285Y48363238D01*
X-865142Y48315619D01*
X-960380Y48315619D01*
X-1103238Y48363238D01*
X-1198476Y48458476D01*
X-1246095Y48553714D01*
X-1293714Y48744190D01*
X-1293714Y48887047D01*
X-1246095Y49077523D01*
X-1198476Y49172761D01*
X-1103238Y49268000D01*
X-960380Y49315619D01*
X-865142Y49315619D01*
X-722285Y49268000D01*
X-674666Y49220380D01*
X182476Y48982285D02*
X182476Y48315619D01*
X-55619Y49363238D02*
X-293714Y48648952D01*
X325333Y48648952D01*
X-5357857Y53808333D02*
X-5310238Y53760714D01*
X-5262619Y53617857D01*
X-5262619Y53522619D01*
X-5310238Y53379761D01*
X-5405476Y53284523D01*
X-5500714Y53236904D01*
X-5691190Y53189285D01*
X-5834047Y53189285D01*
X-6024523Y53236904D01*
X-6119761Y53284523D01*
X-6215000Y53379761D01*
X-6262619Y53522619D01*
X-6262619Y53617857D01*
X-6215000Y53760714D01*
X-6167380Y53808333D01*
X-6167380Y54189285D02*
X-6215000Y54236904D01*
X-6262619Y54332142D01*
X-6262619Y54570238D01*
X-6215000Y54665476D01*
X-6167380Y54713095D01*
X-6072142Y54760714D01*
X-5976904Y54760714D01*
X-5834047Y54713095D01*
X-5262619Y54141666D01*
X-5262619Y54760714D01*
X-11236619Y56189714D02*
X-12236619Y56189714D01*
X-12236619Y56427809D01*
X-12189000Y56570666D01*
X-12093761Y56665904D01*
X-11998523Y56713523D01*
X-11808047Y56761142D01*
X-11665190Y56761142D01*
X-11474714Y56713523D01*
X-11379476Y56665904D01*
X-11284238Y56570666D01*
X-11236619Y56427809D01*
X-11236619Y56189714D01*
X-12141380Y57142095D02*
X-12189000Y57189714D01*
X-12236619Y57284952D01*
X-12236619Y57523047D01*
X-12189000Y57618285D01*
X-12141380Y57665904D01*
X-12046142Y57713523D01*
X-11950904Y57713523D01*
X-11808047Y57665904D01*
X-11236619Y57094476D01*
X-11236619Y57713523D01*
X-12236619Y58332571D02*
X-12236619Y58427809D01*
X-12189000Y58523047D01*
X-12141380Y58570666D01*
X-12046142Y58618285D01*
X-11855666Y58665904D01*
X-11617571Y58665904D01*
X-11427095Y58618285D01*
X-11331857Y58570666D01*
X-11284238Y58523047D01*
X-11236619Y58427809D01*
X-11236619Y58332571D01*
X-11284238Y58237333D01*
X-11331857Y58189714D01*
X-11427095Y58142095D01*
X-11617571Y58094476D01*
X-11855666Y58094476D01*
X-12046142Y58142095D01*
X-12141380Y58189714D01*
X-12189000Y58237333D01*
X-12236619Y58332571D01*
D11*
X-17840000Y39895000D02*
X17840000Y39895000D01*
X17840000Y43545000D02*
X17840000Y45195000D01*
X17840000Y45195000D02*
X-17840000Y45195000D01*
X-17840000Y45195000D02*
X-17840000Y39895000D01*
X17840000Y39895000D02*
X17840000Y41545000D01*
X17840000Y43545000D02*
G75*
G03*
X17840000Y41545000I0J-1000000D01*
G01*
D10*
X-21960000Y49660000D02*
X-23760000Y49660000D01*
X-22860000Y47455000D02*
X-22860000Y50335000D01*
X-21960000Y48010000D02*
X-22860000Y49510000D01*
X-23760000Y48010000D02*
X-21960000Y48010000D01*
X-23760000Y48010000D02*
X-22860000Y49510000D01*
X-21975000Y54091000D02*
X-23475000Y54991000D01*
X-21975000Y55891000D02*
X-23475000Y54991000D01*
X-21975000Y54091000D02*
X-21975000Y55891000D01*
X-21420000Y54991000D02*
X-24300000Y54991000D01*
X-23625000Y55891000D02*
X-23625000Y54091000D01*
X-21975000Y58431000D02*
X-23475000Y57531000D01*
X-21420000Y57531000D02*
X-24300000Y57531000D01*
X-23625000Y58431000D02*
X-23625000Y56631000D01*
X-21975000Y56631000D02*
X-21975000Y58431000D01*
X-21975000Y56631000D02*
X-23475000Y57531000D01*
X34660000Y40390000D02*
X35560000Y41890000D01*
X34660000Y40390000D02*
X36460000Y40390000D01*
X36460000Y42040000D02*
X34660000Y42040000D01*
X35560000Y39835000D02*
X35560000Y42715000D01*
X36460000Y40390000D02*
X35560000Y41890000D01*
X-34660000Y40390000D02*
X-35560000Y41890000D01*
X-36460000Y40390000D02*
X-35560000Y41890000D01*
X-36460000Y40390000D02*
X-34660000Y40390000D01*
X-34660000Y42040000D02*
X-36460000Y42040000D01*
X-35560000Y39835000D02*
X-35560000Y42715000D01*
X-19420000Y42040000D02*
X-21220000Y42040000D01*
X-19420000Y40390000D02*
X-20320000Y41890000D01*
X-21220000Y40390000D02*
X-19420000Y40390000D01*
X-21220000Y40390000D02*
X-20320000Y41890000D01*
X-20320000Y39835000D02*
X-20320000Y42715000D01*
X-23760000Y40390000D02*
X-21960000Y40390000D01*
X-23760000Y40390000D02*
X-22860000Y41890000D01*
X-22860000Y39835000D02*
X-22860000Y42715000D01*
X-21960000Y40390000D02*
X-22860000Y41890000D01*
X-21960000Y42040000D02*
X-23760000Y42040000D01*
X23760000Y40390000D02*
X22860000Y41890000D01*
X23760000Y42040000D02*
X21960000Y42040000D01*
X21960000Y40390000D02*
X23760000Y40390000D01*
X21960000Y40390000D02*
X22860000Y41890000D01*
X22860000Y39835000D02*
X22860000Y42715000D01*
X-31380000Y40390000D02*
X-30480000Y41890000D01*
X-31380000Y40390000D02*
X-29580000Y40390000D01*
X-29580000Y42040000D02*
X-31380000Y42040000D01*
X-30480000Y39835000D02*
X-30480000Y42715000D01*
X-29580000Y40390000D02*
X-30480000Y41890000D01*
X-26300000Y40390000D02*
X-25400000Y41890000D01*
X-26300000Y40390000D02*
X-24500000Y40390000D01*
X-25400000Y39835000D02*
X-25400000Y42715000D01*
X-24500000Y42040000D02*
X-26300000Y42040000D01*
X-24500000Y40390000D02*
X-25400000Y41890000D01*
X24500000Y40390000D02*
X25400000Y41890000D01*
X26300000Y42040000D02*
X24500000Y42040000D01*
X25400000Y39835000D02*
X25400000Y42715000D01*
X24500000Y40390000D02*
X26300000Y40390000D01*
X26300000Y40390000D02*
X25400000Y41890000D01*
X31380000Y42040000D02*
X29580000Y42040000D01*
X29580000Y40390000D02*
X30480000Y41890000D01*
X29580000Y40390000D02*
X31380000Y40390000D01*
X30480000Y39835000D02*
X30480000Y42715000D01*
X31380000Y40390000D02*
X30480000Y41890000D01*
X-27940000Y39835000D02*
X-27940000Y42715000D01*
X-28840000Y40390000D02*
X-27040000Y40390000D01*
X-27040000Y42040000D02*
X-28840000Y42040000D01*
X-27040000Y40390000D02*
X-27940000Y41890000D01*
X-28840000Y40390000D02*
X-27940000Y41890000D01*
X27040000Y40390000D02*
X27940000Y41890000D01*
X28840000Y42040000D02*
X27040000Y42040000D01*
X27940000Y39835000D02*
X27940000Y42715000D01*
X28840000Y40390000D02*
X27940000Y41890000D01*
X27040000Y40390000D02*
X28840000Y40390000D01*
D11*
X23780000Y50815000D02*
X23780000Y46975000D01*
X21940000Y50815000D02*
X21940000Y46975000D01*
X11445000Y55341000D02*
X7605000Y55341000D01*
X11445000Y57181000D02*
X7605000Y57181000D01*
X11445000Y59340000D02*
X7605000Y59340000D01*
X11445000Y57500000D02*
X7605000Y57500000D01*
X19400000Y46975000D02*
X19400000Y50815000D01*
X21240000Y46975000D02*
X21240000Y50815000D01*
X10510000Y53228000D02*
X10510000Y49388000D01*
X12350000Y53228000D02*
X12350000Y49388000D01*
D10*
X14870000Y50423000D02*
X13970000Y51923000D01*
X13070000Y50423000D02*
X14870000Y50423000D01*
X13970000Y49868000D02*
X13970000Y52748000D01*
X14870000Y52073000D02*
X13070000Y52073000D01*
X13070000Y50423000D02*
X13970000Y51923000D01*
D11*
X-26504000Y52363000D02*
X-31004000Y52363000D01*
X-31004000Y45863000D02*
X-26504000Y45863000D01*
X-32254000Y49863000D02*
X-32254000Y48363000D01*
X-25254000Y48363000D02*
X-25254000Y49863000D01*
D10*
X19420000Y40390000D02*
X21220000Y40390000D01*
X20320000Y39835000D02*
X20320000Y42715000D01*
X19420000Y40390000D02*
X20320000Y41890000D01*
X21220000Y42040000D02*
X19420000Y42040000D01*
X21220000Y40390000D02*
X20320000Y41890000D01*
D11*
X-21390000Y46585000D02*
X-21375000Y46585000D01*
X-21390000Y46585000D02*
X-21390000Y51125000D01*
X-21390000Y51125000D02*
X-21375000Y51125000D01*
X-19265000Y46585000D02*
X-19250000Y46585000D01*
X-19265000Y51125000D02*
X-19250000Y51125000D01*
X-19250000Y46585000D02*
X-19250000Y51125000D01*
X19117000Y53788000D02*
X19117000Y55118000D01*
X21717000Y53788000D02*
X21717000Y56388000D01*
X21717000Y53788000D02*
X26857000Y53788000D01*
X19117000Y58988000D02*
X26857000Y58988000D01*
X19117000Y56388000D02*
X19117000Y58988000D01*
X26857000Y53788000D02*
X26857000Y58988000D01*
X21717000Y56388000D02*
X19117000Y56388000D01*
X20447000Y53788000D02*
X19117000Y53788000D01*
X4595000Y56400000D02*
X4595000Y57300000D01*
X4475000Y53320000D02*
X-4475000Y53320000D01*
X-4595000Y56400000D02*
X-4595000Y57300000D01*
D10*
X17410000Y50423000D02*
X16510000Y51923000D01*
X15610000Y50423000D02*
X17410000Y50423000D01*
X16510000Y49868000D02*
X16510000Y52748000D01*
X17410000Y52073000D02*
X15610000Y52073000D01*
X15610000Y50423000D02*
X16510000Y51923000D01*
X32120000Y40390000D02*
X33020000Y41890000D01*
X33920000Y42040000D02*
X32120000Y42040000D01*
X32120000Y40390000D02*
X33920000Y40390000D01*
X33020000Y39835000D02*
X33020000Y42715000D01*
X33920000Y40390000D02*
X33020000Y41890000D01*
D11*
X9810000Y49388000D02*
X9810000Y53228000D01*
X7970000Y49388000D02*
X7970000Y53228000D01*
D10*
X-32120000Y42040000D02*
X-33920000Y42040000D01*
X-33920000Y40390000D02*
X-32120000Y40390000D01*
X-32120000Y40390000D02*
X-33020000Y41890000D01*
X-33920000Y40390000D02*
X-33020000Y41890000D01*
X-33020000Y39835000D02*
X-33020000Y42715000D01*
D11*
X32254000Y48363000D02*
X32254000Y49863000D01*
X26504000Y45863000D02*
X31004000Y45863000D01*
X25254000Y49863000D02*
X25254000Y48363000D01*
X31004000Y52363000D02*
X26504000Y52363000D01*
X-17990000Y53532800D02*
X-17990000Y49692800D01*
X-16150000Y53532800D02*
X-16150000Y49692800D01*
X-12931000Y52817000D02*
X-6681000Y52817000D01*
X-12931000Y47767000D02*
X-6681000Y47767000D01*
X-6681000Y47767000D02*
G75*
G03*
X-6681000Y52817000I0J2525000D01*
G01*
X-12931000Y52817000D02*
G75*
G03*
X-12931000Y47767000I0J-2525000D01*
G01*
X-12867000Y53080000D02*
X-14125000Y53080000D01*
X-12867000Y54920000D02*
X-14125000Y54920000D01*
X7243000Y51024000D02*
X7243000Y49306000D01*
X6603000Y51815000D02*
X6603000Y51005000D01*
X5962000Y49325000D02*
X5962000Y48183000D01*
X5322000Y49325000D02*
X5322000Y48085000D01*
X6803000Y51643000D02*
X6803000Y51005000D01*
X6083000Y52105000D02*
X6083000Y51005000D01*
X6563000Y49325000D02*
X6563000Y48485000D01*
X5762000Y52199000D02*
X5762000Y51005000D01*
X5522000Y52236000D02*
X5522000Y51005000D01*
X6163000Y49325000D02*
X6163000Y48258000D01*
X6043000Y49325000D02*
X6043000Y48211000D01*
X5642000Y49325000D02*
X5642000Y48109000D01*
X7123000Y51245000D02*
X7123000Y49085000D01*
X5482000Y49325000D02*
X5482000Y48091000D01*
X5642000Y52221000D02*
X5642000Y51005000D01*
X6203000Y52054000D02*
X6203000Y51005000D01*
X5842000Y52181000D02*
X5842000Y51005000D01*
X7083000Y51307000D02*
X7083000Y49023000D01*
X6323000Y51995000D02*
X6323000Y51005000D01*
X6723000Y51717000D02*
X6723000Y51005000D01*
X5682000Y52215000D02*
X5682000Y51005000D01*
X6643000Y51784000D02*
X6643000Y51005000D01*
X6483000Y51900000D02*
X6483000Y51005000D01*
X6523000Y51873000D02*
X6523000Y51005000D01*
X7323000Y50829000D02*
X7323000Y49501000D01*
X7163000Y51178000D02*
X7163000Y49152000D01*
X6043000Y52119000D02*
X6043000Y51005000D01*
X5802000Y52190000D02*
X5802000Y51005000D01*
X6203000Y49325000D02*
X6203000Y48276000D01*
X7043000Y51365000D02*
X7043000Y48965000D01*
X5482000Y52239000D02*
X5482000Y51005000D01*
X2544199Y50090000D02*
X2944199Y50090000D01*
X5762000Y49325000D02*
X5762000Y48131000D01*
X5402000Y49325000D02*
X5402000Y48086000D01*
X6883000Y51561000D02*
X6883000Y51005000D01*
X6883000Y49325000D02*
X6883000Y48769000D01*
X6763000Y51681000D02*
X6763000Y51005000D01*
X5842000Y49325000D02*
X5842000Y48149000D01*
X7283000Y50933000D02*
X7283000Y49397000D01*
X6803000Y49325000D02*
X6803000Y48687000D01*
X6283000Y52016000D02*
X6283000Y51005000D01*
X5882000Y49325000D02*
X5882000Y48160000D01*
X5602000Y52227000D02*
X5602000Y51005000D01*
X6123000Y52089000D02*
X6123000Y51005000D01*
X6523000Y49325000D02*
X6523000Y48457000D01*
X6403000Y49325000D02*
X6403000Y48380000D01*
X6363000Y49325000D02*
X6363000Y48357000D01*
X5682000Y49325000D02*
X5682000Y48115000D01*
X7003000Y51419000D02*
X7003000Y48911000D01*
X6963000Y51469000D02*
X6963000Y48861000D01*
X5362000Y49325000D02*
X5362000Y48085000D01*
X5522000Y49325000D02*
X5522000Y48094000D01*
X6843000Y51603000D02*
X6843000Y51005000D01*
X6283000Y49325000D02*
X6283000Y48314000D01*
X5442000Y49325000D02*
X5442000Y48088000D01*
X6443000Y51925000D02*
X6443000Y51005000D01*
X6683000Y49325000D02*
X6683000Y48578000D01*
X5882000Y52170000D02*
X5882000Y51005000D01*
X6243000Y52035000D02*
X6243000Y51005000D01*
X5362000Y52245000D02*
X5362000Y51005000D01*
X5962000Y52147000D02*
X5962000Y51005000D01*
X6002000Y49325000D02*
X6002000Y48197000D01*
X6483000Y49325000D02*
X6483000Y48430000D01*
X6002000Y52133000D02*
X6002000Y51005000D01*
X7363000Y50702000D02*
X7363000Y49628000D01*
X6643000Y49325000D02*
X6643000Y48546000D01*
X5922000Y52159000D02*
X5922000Y51005000D01*
X6683000Y51752000D02*
X6683000Y51005000D01*
X6243000Y49325000D02*
X6243000Y48295000D01*
X6363000Y51973000D02*
X6363000Y51005000D01*
X6163000Y52072000D02*
X6163000Y51005000D01*
X6923000Y51516000D02*
X6923000Y48814000D01*
X6603000Y49325000D02*
X6603000Y48515000D01*
X5322000Y52245000D02*
X5322000Y51005000D01*
X6083000Y49325000D02*
X6083000Y48225000D01*
X6403000Y51950000D02*
X6403000Y51005000D01*
X6563000Y51845000D02*
X6563000Y51005000D01*
X5402000Y52244000D02*
X5402000Y51005000D01*
X5562000Y52232000D02*
X5562000Y51005000D01*
X5562000Y49325000D02*
X5562000Y48098000D01*
X5802000Y49325000D02*
X5802000Y48140000D01*
X2744199Y50290000D02*
X2744199Y49890000D01*
X5602000Y49325000D02*
X5602000Y48103000D01*
X6123000Y49325000D02*
X6123000Y48241000D01*
X6843000Y49325000D02*
X6843000Y48727000D01*
X5722000Y52207000D02*
X5722000Y51005000D01*
X6763000Y49325000D02*
X6763000Y48649000D01*
X5722000Y49325000D02*
X5722000Y48123000D01*
X5922000Y49325000D02*
X5922000Y48171000D01*
X6723000Y49325000D02*
X6723000Y48613000D01*
X6443000Y49325000D02*
X6443000Y48405000D01*
X5442000Y52242000D02*
X5442000Y51005000D01*
X7403000Y50535000D02*
X7403000Y49795000D01*
X7203000Y51105000D02*
X7203000Y49225000D01*
X6323000Y49325000D02*
X6323000Y48335000D01*
X7442000Y50165000D02*
G75*
G03*
X7442000Y50165000I-2120000J0D01*
G01*
X2152000Y52490000D02*
X2152000Y52805000D01*
X2152000Y50065000D02*
X2152000Y50380000D01*
X-3088000Y52490000D02*
X-3088000Y52805000D01*
X2152000Y50065000D02*
X-3088000Y50065000D01*
X-3088000Y50065000D02*
X-3088000Y50380000D01*
X2152000Y52805000D02*
X-3088000Y52805000D01*
X1802000Y47698000D02*
X1802000Y47713000D01*
X1802000Y49823000D02*
X1802000Y49838000D01*
X-2738000Y47698000D02*
X-2738000Y47713000D01*
X1802000Y47698000D02*
X-2738000Y47698000D01*
X1802000Y49838000D02*
X-2738000Y49838000D01*
X-2738000Y49823000D02*
X-2738000Y49838000D01*
X-7987000Y53080000D02*
X-9245000Y53080000D01*
X-7987000Y54920000D02*
X-9245000Y54920000D01*
X-7076000Y58484000D02*
X-7076000Y58640000D01*
X-7076000Y56168000D02*
X-7076000Y56324000D01*
X-10308335Y56325392D02*
G75*
G03*
X-7076000Y56168484I1672335J1078609D01*
G01*
X-7076000Y58639516D02*
G75*
G03*
X-10308335Y58482608I-1560000J-1235517D01*
G01*
X-9677130Y56324163D02*
G75*
G03*
X-7595039Y56324000I1041130J1079837D01*
G01*
X-7595039Y58484000D02*
G75*
G03*
X-9677130Y58483837I-1040961J-1080000D01*
G01*
%LPC*%
D12*
X35560000Y11900000D03*
D13*
X20320000Y11900000D03*
D12*
X35560000Y-11900000D03*
D13*
X20320000Y-11900000D03*
D12*
X35560000Y-50000000D03*
D13*
X20320000Y-50000000D03*
D12*
X35560000Y-26200000D03*
D13*
X20320000Y-26200000D03*
X-30950000Y-39370000D03*
D12*
X-7150000Y-54610000D03*
D13*
X-7150000Y-39370000D03*
D12*
X-30950000Y-54610000D03*
D14*
X16510000Y46355000D03*
D15*
X13970000Y46355000D03*
X11430000Y46355000D03*
X8890000Y46355000D03*
X6350000Y46355000D03*
X3810000Y46355000D03*
X1270000Y46355000D03*
X-1270000Y46355000D03*
X-3810000Y46355000D03*
X-6350000Y46355000D03*
X-8890000Y46355000D03*
X-11430000Y46355000D03*
X-13970000Y46355000D03*
X-16510000Y46355000D03*
X-16510000Y38735000D03*
X-13970000Y38735000D03*
X-11430000Y38735000D03*
X-8890000Y38735000D03*
X-6350000Y38735000D03*
X-3810000Y38735000D03*
X-1270000Y38735000D03*
X1270000Y38735000D03*
X3810000Y38735000D03*
X6350000Y38735000D03*
X8890000Y38735000D03*
X11430000Y38735000D03*
X13970000Y38735000D03*
X16510000Y38735000D03*
D16*
X-22860000Y51435000D03*
D15*
X-22860000Y46355000D03*
D16*
X-25400000Y54991000D03*
D15*
X-20320000Y54991000D03*
D16*
X-25400000Y57531000D03*
D15*
X-20320000Y57531000D03*
D16*
X35560000Y43815000D03*
D15*
X35560000Y38735000D03*
D16*
X-35560000Y43815000D03*
D15*
X-35560000Y38735000D03*
D16*
X-20320000Y43815000D03*
D15*
X-20320000Y38735000D03*
D16*
X-22860000Y43815000D03*
D15*
X-22860000Y38735000D03*
D16*
X22860000Y43815000D03*
D15*
X22860000Y38735000D03*
D16*
X-30480000Y43815000D03*
D15*
X-30480000Y38735000D03*
D16*
X-25400000Y43815000D03*
D15*
X-25400000Y38735000D03*
D16*
X25400000Y43815000D03*
D15*
X25400000Y38735000D03*
D16*
X30480000Y43815000D03*
D15*
X30480000Y38735000D03*
D16*
X-27940000Y43815000D03*
D15*
X-27940000Y38735000D03*
D16*
X27940000Y43815000D03*
D15*
X27940000Y38735000D03*
D13*
X-28575000Y28575000D03*
D17*
X-23495000Y28575000D03*
X-33655000Y28575000D03*
D18*
X-26035000Y33655000D03*
X-32385000Y31115000D03*
D17*
X-14605000Y28575000D03*
X-4445000Y28575000D03*
D13*
X-9525000Y28575000D03*
D18*
X-6985000Y33655000D03*
X-13335000Y31115000D03*
D17*
X14605000Y28575000D03*
X4445000Y28575000D03*
D13*
X9525000Y28575000D03*
D18*
X12065000Y33655000D03*
X5715000Y31115000D03*
D13*
X28575000Y28575000D03*
D17*
X23495000Y28575000D03*
X33655000Y28575000D03*
D18*
X31115000Y33655000D03*
X24765000Y31115000D03*
D17*
X-33655000Y9525000D03*
D13*
X-28575000Y9525000D03*
D17*
X-23495000Y9525000D03*
D18*
X-26035000Y14605000D03*
X-32385000Y12065000D03*
D17*
X-4445000Y9525000D03*
D13*
X-9525000Y9525000D03*
D17*
X-14605000Y9525000D03*
D18*
X-6985000Y14605000D03*
X-13335000Y12065000D03*
D17*
X14605000Y9525000D03*
X4445000Y9525000D03*
D13*
X9525000Y9525000D03*
D18*
X12065000Y14605000D03*
X5715000Y12065000D03*
D13*
X28575000Y0D03*
D17*
X28575000Y5080000D03*
X28575000Y-5080000D03*
D18*
X23495000Y2540000D03*
X26035000Y-3810000D03*
D13*
X-28575000Y-9525000D03*
D17*
X-33655000Y-9525000D03*
X-23495000Y-9525000D03*
D18*
X-26035000Y-4445000D03*
X-32385000Y-6985000D03*
D17*
X-14605000Y-9525000D03*
X-4445000Y-9525000D03*
D13*
X-9525000Y-9525000D03*
D18*
X-6985000Y-4445000D03*
X-13335000Y-6985000D03*
D13*
X9525000Y-9525000D03*
D17*
X14605000Y-9525000D03*
X4445000Y-9525000D03*
D18*
X12065000Y-4445000D03*
X5715000Y-6985000D03*
D17*
X-23495000Y-28575000D03*
X-33655000Y-28575000D03*
D13*
X-28575000Y-28575000D03*
D18*
X-26035000Y-23495000D03*
X-32385000Y-26035000D03*
D17*
X-4445000Y-28575000D03*
X-14605000Y-28575000D03*
D13*
X-9525000Y-28575000D03*
D18*
X-6985000Y-23495000D03*
X-13335000Y-26035000D03*
D17*
X4445000Y-28575000D03*
D13*
X9525000Y-28575000D03*
D17*
X14605000Y-28575000D03*
D18*
X12065000Y-23495000D03*
X5715000Y-26035000D03*
D13*
X28575000Y-38100000D03*
D17*
X28575000Y-33020000D03*
X28575000Y-43180000D03*
D18*
X23495000Y-35560000D03*
X26035000Y-41910000D03*
D17*
X-13970000Y-47625000D03*
D13*
X-19050000Y-47625000D03*
D17*
X-24130000Y-47625000D03*
D18*
X-16510000Y-42545000D03*
X-22860000Y-45085000D03*
D17*
X14605000Y-47625000D03*
D13*
X9525000Y-47625000D03*
D17*
X4445000Y-47625000D03*
D18*
X12065000Y-42545000D03*
X5715000Y-45085000D03*
D19*
X22860000Y51435000D03*
D20*
X22860000Y46355000D03*
D19*
X12065000Y56261000D03*
D20*
X6985000Y56261000D03*
D19*
X12065000Y58420000D03*
D20*
X6985000Y58420000D03*
D19*
X20320000Y46355000D03*
D20*
X20320000Y51435000D03*
D19*
X11430000Y53848000D03*
D20*
X11430000Y48768000D03*
D21*
X35814000Y48895000D03*
X-35814000Y48895000D03*
D16*
X13970000Y53848000D03*
D15*
X13970000Y48768000D03*
D22*
X-25504000Y51363000D03*
X-32004000Y51363000D03*
X-25504000Y46863000D03*
X-32004000Y46863000D03*
D16*
X20320000Y43815000D03*
D15*
X20320000Y38735000D03*
D16*
X-20320000Y46355000D03*
X-20320000Y51355000D03*
D23*
X20447000Y55118000D03*
D24*
X20447000Y57658000D03*
X22987000Y55118000D03*
X22987000Y57658000D03*
X25527000Y55118000D03*
X25527000Y57658000D03*
D25*
X2975000Y53900000D03*
X2125000Y53900000D03*
X1275000Y53900000D03*
X425000Y53900000D03*
X-425000Y53900000D03*
X-1275000Y53900000D03*
X-2125000Y53900000D03*
X-2975000Y53900000D03*
X-2975000Y55450000D03*
X-2125000Y55450000D03*
X-1275000Y55450000D03*
X-425000Y55450000D03*
X425000Y55450000D03*
X1275000Y55450000D03*
X2125000Y55450000D03*
X2975000Y55450000D03*
D26*
X4325000Y54980000D03*
X-4325000Y54980000D03*
D27*
X4325000Y58360000D03*
X-4325000Y58360000D03*
D16*
X16510000Y53848000D03*
D15*
X16510000Y48768000D03*
D16*
X33020000Y43815000D03*
D15*
X33020000Y38735000D03*
D19*
X8890000Y48768000D03*
D20*
X8890000Y53848000D03*
D16*
X-33020000Y43815000D03*
D15*
X-33020000Y38735000D03*
D21*
X-32385000Y-19050000D03*
X0Y-47625000D03*
X32385000Y-19050000D03*
D22*
X25504000Y51363000D03*
X32004000Y51363000D03*
X25504000Y46863000D03*
X32004000Y46863000D03*
D19*
X-17070000Y54152800D03*
D20*
X-17070000Y49072800D03*
D28*
X-12246000Y50292000D03*
X-7366000Y50292000D03*
D16*
X-12246000Y54000000D03*
X-14746000Y54000000D03*
D29*
X4572000Y50165000D03*
D30*
X6072000Y50165000D03*
D16*
X2032000Y51435000D03*
X-2968000Y51435000D03*
X2032000Y48768000D03*
X-2968000Y48768000D03*
X-7366000Y54000000D03*
X-9866000Y54000000D03*
D31*
X-7366000Y57404000D03*
D32*
X-9906000Y57404000D03*
M02*
